<?xml version="1.0" encoding="utf-8"?>
<!-- Generator: Adobe Illustrator 25.2.3, SVG Export Plug-In . SVG Version: 6.00 Build 0)  -->
<svg version="1.1" id="Layer_1" xmlns="http://www.w3.org/2000/svg" xmlns:xlink="http://www.w3.org/1999/xlink" x="0px" y="0px"
	 viewBox="0 0 80 80" style="enable-background:new 0 0 80 80;" xml:space="preserve">
<style type="text/css">
	.st0{fill:url(#Union_6_1_);}
</style>
<linearGradient id="Union_6_1_" gradientUnits="userSpaceOnUse" x1="3.6484" y1="75.8415" x2="4.4276" y2="76.6231" gradientTransform="matrix(99.4893 0 0 -82.317 -363.9893 6313.1763)">
	<stop  offset="0" style="stop-color:#2D4DE0"/>
	<stop  offset="0.324" style="stop-color:#9F71F0"/>
	<stop  offset="0.84" style="stop-color:#E76592"/>
	<stop  offset="1" style="stop-color:#F8EF6F"/>
</linearGradient>
<path id="Union_6" class="st0" d="M68.5,72.3c-0.1-0.2-0.3-0.3-0.4-0.5l-6.9-10.1l-10.1,7l-0.1-9.6H0V6.9h66.8v36.6L80,48.8l-10.2,7
	l6.9,10.1c0.1,0.2,0.2,0.4,0.3,0.5l0.5,0.9l-8.5,5.9L68.5,72.3z M69.4,70.9C69.4,70.9,69.4,70.9,69.4,70.9l6.1-4.1c0,0,0,0,0-0.1
	l-7.8-11.4l9-6.2l-24.4-9.8l0.3,26.3l9-6.2L69.4,70.9z M1.6,57.5h49.3L50.6,37l14.5,5.8v-21H1.6V57.5z M65.2,20.2V8.5H1.6v11.7
	L65.2,20.2z M13.2,45.3V33.6h23.4v11.7L13.2,45.3z M14.7,43.7H35v-8.6H14.7V43.7z"/>
</svg>
