<?xml version="1.0" encoding="utf-8"?>
<!-- Generator: Adobe Illustrator 25.2.3, SVG Export Plug-In . SVG Version: 6.00 Build 0)  -->
<svg version="1.1" id="Layer_1" xmlns="http://www.w3.org/2000/svg" xmlns:xlink="http://www.w3.org/1999/xlink" x="0px" y="0px"
	 viewBox="0 0 80 80" style="enable-background:new 0 0 80 80;" xml:space="preserve">
<style type="text/css">
	.st0{fill:url(#Union_1_1_);}
</style>
<linearGradient id="Union_1_1_" gradientUnits="userSpaceOnUse" x1="2.7731" y1="78.8195" x2="76.1427" y2="2.1466">
	<stop  offset="0" style="stop-color:#445AA7"/>
	<stop  offset="0.324" style="stop-color:#8972B2"/>
	<stop  offset="0.84" style="stop-color:#E66591"/>
	<stop  offset="1" style="stop-color:#F6EE70"/>
</linearGradient>
<path id="Union_1" class="st0" d="M60.4,77.8V13.9l9.2-12.7l9,12.7v63.9H60.4z M63,75.3h13.1V69H63V75.3z M73.7,66.4h2.3V16.8h-2.3
	V66.4z M63,66.4h8.2V16.8H63V66.4z M63.4,14.2h12.3l-6.1-8.6L63.4,14.2z M2.1,77.8V1.3h38l11.1,11.5v65.1H2.1z M4.6,75.3h44V13.8
	L39,3.8H4.6L4.6,75.3z M8.3,69.7V41.1H45v28.5L8.3,69.7z M10.8,67.1h31.6V43.7H10.8V67.1z M37.8,63.5v-2.6h2.6v2.6L37.8,63.5z
	 M32.8,63.5v-2.6h2.6v2.6L32.8,63.5z M27.7,63.5v-2.6h2.6v2.6L27.7,63.5z M27.7,55.8v-8.2h12.8v8.2H27.7z M30.6,52.8h6.9v-2.3h-6.9
	V52.8z M18.2,55.1c-0.7,0.5-1.5,0.7-2.3,0.7c-2.3,0-4.1-1.8-4.1-4.1c0,0,0,0,0,0c0-2.3,1.8-4.1,4.1-4.1c0,0,0,0,0,0
	c0.8,0,1.6,0.2,2.3,0.7c0.7-0.5,1.5-0.7,2.3-0.7c2.3,0,4.1,1.8,4.1,4.1c0,0,0,0,0,0c0,2.3-1.8,4.1-4.1,4.1l0,0
	C19.7,55.8,18.9,55.5,18.2,55.1z M19.7,50.1c0.2,0.5,0.3,1.1,0.3,1.6c0,0.6-0.1,1.1-0.3,1.6c0.3,0.1,0.5,0.2,0.8,0.2
	c1,0,1.8-0.8,1.8-1.8c0-1-0.8-1.8-1.8-1.8C20.2,49.9,19.9,49.9,19.7,50.1L19.7,50.1z M14.1,51.7c0,1,0.8,1.8,1.8,1.8
	c0.3,0,0.6-0.1,0.8-0.2c-0.2-0.5-0.3-1.1-0.3-1.6c0-0.6,0.1-1.1,0.3-1.6c-0.3-0.1-0.5-0.2-0.8-0.2C14.9,49.9,14.1,50.7,14.1,51.7
	L14.1,51.7z M8.3,33.9v-2.6h26.9v2.6H8.3z M8.3,26.1v-2.6h26.9v2.6H8.3z M8.3,18.4v-2.6h26.9v2.6L8.3,18.4z"/>
</svg>
