<?xml version="1.0" encoding="utf-8"?>
<!-- Generator: Adobe Illustrator 25.2.3, SVG Export Plug-In . SVG Version: 6.00 Build 0)  -->
<svg version="1.1" id="Layer_1" xmlns="http://www.w3.org/2000/svg" xmlns:xlink="http://www.w3.org/1999/xlink" x="0px" y="0px"
	 viewBox="0 0 80 80" style="enable-background:new 0 0 80 80;" xml:space="preserve">
<style type="text/css">
	.st0{fill:url(#Union_5_1_);}
</style>
<linearGradient id="Union_5_1_" gradientUnits="userSpaceOnUse" x1="2.2658" y1="81.5787" x2="79.8692" y2="4.6096">
	<stop  offset="0" style="stop-color:#2D4DE0"/>
	<stop  offset="0.324" style="stop-color:#9F71F0"/>
	<stop  offset="0.84" style="stop-color:#E76592"/>
	<stop  offset="1" style="stop-color:#F8EF6F"/>
</linearGradient>
<path id="Union_5" class="st0" d="M13.6,73v-2.6H80V73H13.6z M0.9,73v-2.6h9.2V73H0.9z M13.6,62.9v-2.6H80v2.6H13.6z M0.9,62.9v-2.6
	h9.2v2.6H0.9z M13.6,52.8v-2.6H80v2.6L13.6,52.8z M0.9,52.8v-2.6h9.2v2.6L0.9,52.8z M37.3,33.3l3.5-2.6v-7.1l2.9-2.3l-3.2-2.4v-7.2
	L37.2,9L38.9,7l4.2,3.4v7.1l4.9,3.6l-4.6,3.7V32l-4.6,3.4L37.3,33.3z M4.6,32v-7.2L0,21.2l4.9-3.6v-7.1L9.2,7L10.8,9l-3.3,2.6v7.2
	l-3.2,2.4l2.9,2.3v7.1l3.5,2.6l-1.6,2.1L4.6,32z M28.9,21.2c0-1.5,1.2-2.6,2.6-2.6c1.5,0,2.6,1.2,2.6,2.6c0,1.5-1.2,2.6-2.6,2.6
	C30.1,23.8,28.9,22.7,28.9,21.2L28.9,21.2z M21.3,21.2c0-1.5,1.2-2.6,2.6-2.6c1.5,0,2.6,1.2,2.6,2.6c0,0,0,0,0,0
	c0,1.5-1.2,2.6-2.6,2.6C22.5,23.8,21.3,22.7,21.3,21.2L21.3,21.2z M13.9,21.2c0-1.5,1.2-2.6,2.6-2.6c1.5,0,2.6,1.2,2.6,2.6
	c0,0,0,0,0,0c0,1.5-1.2,2.6-2.6,2.6C15.1,23.8,13.9,22.7,13.9,21.2L13.9,21.2z"/>
</svg>
