<?xml version="1.0" encoding="utf-8"?>
<!-- Generator: Adobe Illustrator 25.2.3, SVG Export Plug-In . SVG Version: 6.00 Build 0)  -->
<svg version="1.1" id="Layer_1" xmlns="http://www.w3.org/2000/svg" xmlns:xlink="http://www.w3.org/1999/xlink" x="0px" y="0px"
	 viewBox="0 0 80 80" style="enable-background:new 0 0 80 80;" xml:space="preserve">
<style type="text/css">
	.st0{fill:url(#Union_4_1_);}
</style>
<linearGradient id="Union_4_1_" gradientUnits="userSpaceOnUse" x1="0.8808" y1="79.5491" x2="77.8498" y2="1.7343">
	<stop  offset="0" style="stop-color:#2D4DE0"/>
	<stop  offset="0.324" style="stop-color:#9F71F0"/>
	<stop  offset="0.84" style="stop-color:#E76592"/>
	<stop  offset="1" style="stop-color:#F8EF6F"/>
</linearGradient>
<path id="Union_4" class="st0" d="M41.8,58.9l1.8-1.8l19.2,19.2l13.6-13.6L58.8,45.2L52,52.1l-1.8-1.8l8.7-8.6L80,62.8L62.8,80
	L41.8,58.9z M5,58.9l26.5-26.5L54.2,9.7l7.9-7.9l16.2,16.2L47.7,48.6L21.5,74.9l-0.3,0.3L1.7,78.3L5,58.9z M4.9,75.2l14.6-2.4
	L7.3,60.6L4.9,75.2z M13.5,63.2l8,8l24.1-24.1L66.8,26l-8-8L13.5,63.2z M8.9,58.6l2.8,2.8L57,16.1l-2.8-2.8L8.9,58.6z M56,11.5
	l12.6,12.6l6.1-6.1L62.1,5.4L56,11.5z M59.9,63.8c0-2.3,1.8-4.1,4.1-4.1c0,0,0,0,0,0c2.3,0,4.1,1.8,4.1,4.1c0,0,0,0,0,0
	c0,2.3-1.8,4.1-4.1,4.1c0,0,0,0,0,0C61.7,67.9,59.9,66.1,59.9,63.8C59.9,63.8,59.9,63.8,59.9,63.8L59.9,63.8z M62.5,63.8
	c0,0.8,0.7,1.5,1.5,1.5c0.8,0,1.5-0.7,1.5-1.5c0-0.8-0.7-1.5-1.5-1.5l0,0C63.2,62.3,62.5,63,62.5,63.8
	C62.5,63.8,62.5,63.8,62.5,63.8L62.5,63.8z M0,17.2L17.2,0l21.5,21.5l-7.2,7l-1.8-1.8l5.4-5.2l-3.6-3.6L25,24.4l-1.8-1.8l6.4-6.6
	l-2.8-2.8l-5,5.1L20,16.6l5-5.2L22.6,9l-5,5.1l-1.8-1.8l5-5.2l-3.6-3.6L3.6,17.2l19.2,19.2L21,38.1L0,17.2z"/>
</svg>
