<?xml version="1.0" encoding="utf-8"?>
<!-- Generator: Adobe Illustrator 25.2.3, SVG Export Plug-In . SVG Version: 6.00 Build 0)  -->
<svg version="1.1" id="Layer_1" xmlns="http://www.w3.org/2000/svg" xmlns:xlink="http://www.w3.org/1999/xlink" x="0px" y="0px"
	 viewBox="0 0 30 30" style="enable-background:new 0 0 30 30;" xml:space="preserve">
<style type="text/css">
	.st0{fill:url(#Icon_feather-message-square_1_);}
</style>
<linearGradient id="Icon_feather-message-square_1_" gradientUnits="userSpaceOnUse" x1="-279.4552" y1="792.1878" x2="-280.3852" y2="792.9718" gradientTransform="matrix(30 0 0 -30 8410 23791)">
	<stop  offset="0" style="stop-color:#2D4DE0"/>
	<stop  offset="0.324" style="stop-color:#9F71F0"/>
	<stop  offset="0.84" style="stop-color:#E76592"/>
	<stop  offset="1" style="stop-color:#F8EF6F"/>
</linearGradient>
<path id="Icon_feather-message-square" class="st0" d="M1.5,30C0.7,30,0,29.3,0,28.5l0,0v-24C0,2,2,0,4.5,0h21C28,0,30,2,30,4.5v15
	c0,2.5-2,4.5-4.5,4.5H8.1l-5.6,5.6C2.3,29.8,1.9,30,1.5,30z M4.5,3C3.7,3,3,3.7,3,4.5v20.4l3.4-3.4C6.7,21.2,7.1,21,7.5,21h18
	c0.8,0,1.5-0.7,1.5-1.5v-15C27,3.7,26.3,3,25.5,3H4.5z"/>
</svg>
