<?xml version="1.0" encoding="utf-8"?>
<!-- Generator: Adobe Illustrator 25.2.3, SVG Export Plug-In . SVG Version: 6.00 Build 0)  -->
<svg version="1.1" id="Layer_1" xmlns="http://www.w3.org/2000/svg" xmlns:xlink="http://www.w3.org/1999/xlink" x="0px" y="0px"
	 viewBox="0 0 30 30" style="enable-background:new 0 0 30 30;" xml:space="preserve">
<style type="text/css">
	.st0{fill:url(#Union_1_1_);}
</style>
<linearGradient id="Union_1_1_" gradientUnits="userSpaceOnUse" x1="-279.2938" y1="792.1182" x2="-279.9267" y2="793.031" gradientTransform="matrix(29.252 0 0 -29.2505 8193.0645 23196.6367)">
	<stop  offset="0" style="stop-color:#2D4DE0"/>
	<stop  offset="0.324" style="stop-color:#9F71F0"/>
	<stop  offset="0.84" style="stop-color:#E76592"/>
	<stop  offset="1" style="stop-color:#F8EF6F"/>
</linearGradient>
<path id="Union_1" class="st0" d="M0,15C0,6.7,6.7,0,15,0c8.3,0,15,6.7,15,15c0,8.3-6.7,15-15,15C6.7,30,0,23.3,0,15z M3,15
	c0,6.6,5.4,12,12,12c6.6,0,12-5.4,12-12S21.6,3,15,3C8.4,3,3,8.4,3,15z M13.5,16.5v-9h2.3v7.9l6.7,4l-1.1,1.8L13.5,16.5z"/>
</svg>
