<?xml version="1.0" encoding="utf-8"?>
<!-- Generator: Adobe Illustrator 25.2.3, SVG Export Plug-In . SVG Version: 6.00 Build 0)  -->
<svg version="1.1" id="Layer_1" xmlns="http://www.w3.org/2000/svg" xmlns:xlink="http://www.w3.org/1999/xlink" x="0px" y="0px"
	 viewBox="0 0 30 30" style="enable-background:new 0 0 30 30;" xml:space="preserve">
<style type="text/css">
	.st0{fill:url(#Icon_awesome-user-circle_1_);}
</style>
<linearGradient id="Icon_awesome-user-circle_1_" gradientUnits="userSpaceOnUse" x1="-279.3225" y1="792.0845" x2="-279.8363" y2="792.9819" gradientTransform="matrix(29.25 0 0 -29.25 8192.5 23196.25)">
	<stop  offset="0" style="stop-color:#2D4DE0"/>
	<stop  offset="0.324" style="stop-color:#9F71F0"/>
	<stop  offset="0.84" style="stop-color:#E76592"/>
	<stop  offset="1" style="stop-color:#F8EF6F"/>
</linearGradient>
<path id="Icon_awesome-user-circle" class="st0" d="M15,0C6.7,0,0,6.7,0,15s6.7,15,15,15s15-6.7,15-15l0,0C30,6.7,23.3,0,15,0
	C15,0,15,0,15,0z M15,5.8c2.9,0,5.3,2.4,5.3,5.3s-2.4,5.3-5.3,5.3s-5.3-2.4-5.3-5.3S12.1,5.8,15,5.8C15,5.8,15,5.8,15,5.8z M15,26.6
	c-3.4,0-6.7-1.5-8.9-4.1c1.2-2.2,3.5-3.6,6-3.6c0.1,0,0.3,0,0.4,0.1c0.8,0.3,1.6,0.4,2.5,0.4c0.8,0,1.7-0.1,2.5-0.4
	c0.1,0,0.3-0.1,0.4-0.1c2.5,0,4.8,1.4,6,3.6C21.7,25.1,18.4,26.6,15,26.6z"/>
</svg>
