<svg height="500" version="1.1" width="500" xmlns="http://www.w3.org/2000/svg" id="svgSla6sv2iq6" viewBox="0 0 500 500" preserveAspectRatio="xMidYMid meet"><desc>Created with Snap</desc><g token="svgSla6sv2iq6" class="movieclip"><g token="119" transform="matrix(1,0,0,1,-7.5,2.2)" class="shape"><path fill="#eef9ff" d="M 386.75 79.15q-16.8 -2.85 -36.25 1.7q-16.35 3.8 -38.7 14.05q-33.9 15.5 -69.75 13.2q-11.25 -0.7 -21.3 -3.15l-7.8 -2.25q-25.6 -12.75 -42.5 -20q-15.4 -6.55 -34.4 -13.1q-31.85 -10.95 -65.7 12.6q-13 9 -24.85 22.25q-9.8 10.9 -16.7 22.1q-11.6 18.8 -6.1 45.5q5.15 25.3 24.45 52.8q15.55 22.2 6.05 48.4q-4.75 13.05 -12.6 21.7l-5.1 6q-5.85 7.7 -9.6 16.4q-12.15 27.7 0.85 54.5q7.4 15.2 24.35 28.15q15.05 11.5 34.9 19.3q18.4 7.25 35 9.1q16.75 1.85 24.8 -2.5q18.8 -10.15 33.35 -11.95q19.95 -2.45 52.3 5.6q17.4 4.3 38.4 4.3q20.6 -0.05 39.2 -4.2q19.3 -4.35 31.4 -12.05q13.1 -8.4 15 -19.25q2 -11.45 7.35 -24q5.45 -12.8 12.85 -23.25q17.45 -24.5 34.85 -22.8q22.85 2.25 41.1 -2.05q23.2 -5.5 29.85 -20.35q5 -11.15 8.45 -25.35q4.85 -19.65 5.05 -39.45q0.7 -55.25 -33.9 -98.7q-37.3 -46.95 -74.3 -53.25" style=""></path></g><g token="118" transform="matrix(1,0,0,1,237.8,254.7)" class="shape"><image xlink:href="https://www.patronum.io/wp-content/themes/patrounm/images/Image21.png" preserveAspectRatio="none" width="156" height="156"></image></g><g token="117" transform="matrix(1,0,0,1,73.35,236.5)" class="shape"><image xlink:href="https://www.patronum.io/wp-content/themes/patrounm/images/Image11.png" preserveAspectRatio="none" width="156" height="156"></image></g><g token="116" transform="matrix(1,0,0,1,146.35,96.5)" class="shape"><image xlink:href="https://www.patronum.io/wp-content/themes/patrounm/images/Image01.png" preserveAspectRatio="none" width="203" height="203"></image></g><g token="115" transform="matrix(1,0,0,1,-7.5,2.2)" class="shape"><path fill="#0842ad" d="M 335.7 120.95q-3.95 0 -6.75 2.8q-2.8 2.8 -2.8 6.8q0 4 2.8 6.8q2.8 2.8 6.75 2.8q4 0 6.8 -2.8q2.8 -2.8 2.8 -6.8q0 -3.95 -2.8 -6.8q-2.8 -2.8 -6.8 -2.8" style=""></path></g><g token="114" transform="matrix(1,0,0,1,-7.5,2.2)" class="shape"><path fill="rgba(0,0,0,0)" d="M 332.35 128.65l3.85 5.75l2.85 -4.8" stroke="#ffffff" style="stroke-width: 2;"></path></g><g token="113" transform="matrix(1,0,0,1,-7.5,2.2)" class="shape"><path fill="#fabd4f" d="M 162.35 178.45q2.8 -2.8 2.8 -6.8q0 -3.95 -2.8 -6.75q-2.85 -2.8 -6.8 -2.8q-3.95 0 -6.8 2.8q-2.8 2.8 -2.8 6.75q0 4 2.8 6.8q2.85 2.8 6.8 2.8q4 0 6.8 -2.8" style=""></path></g><g token="112" transform="matrix(1,0,0,1,-7.5,2.2)" class="shape"><path fill="#ffffff" d="M 153.15 167.85l0 7.65l6.25 -3.35l-6.25 -4.3" style=""></path></g><g token="111" transform="matrix(1,0,0,1,-7.5,2.2)" class="shape"><path fill="#0842ad" d="M 342.35 155l0.5 0.45l0.5 -0.45l-0.5 -0.5l-0.5 0.5" style=""></path></g><g token="110" transform="matrix(1,0,0,1,72.2,422.4)" style="opacity: 0.5; visibility: visible;" class="movieclip"><g token="1" transform="matrix(0.3004,0,0,0.6213,0,0)" class="shape"><path fill="#e9e8ee" d="M 110.65 12.85q19 -2.25 19 -5.35q0 -3.1 -19 -5.3q-19 -2.2 -45.85 -2.2q-26.85 0 -45.8 2.2q-19 2.2 -19 5.3q0 3.1 19 5.35q19 2.2 45.8 2.2q26.8 0 45.85 -2.2" style=""></path></g></g><g token="109" transform="matrix(1,0,0,1,-7.5,2.2)" class="shape"><path fill="#67a0e7" d="M 72.25 368.15q-0.9 0.9 -1.85 1.3q-4.8 2.8 -2.9 4.65q0.95 0.95 2.85 1.35l3.35 0.3q3.55 0.5 4.7 1.6q1.3 1.15 -0.7 2.4q-1.65 1 -4.9 1.7q-2.3 0.55 -2.05 2.4q0.15 0.95 0.75 1.8l3.05 1.8q4.15 1.75 9.7 1.6q6.35 -0.2 10.45 -4.9q3.8 -4.4 3.45 -9.8q-0.3 -4.25 -2.65 -4.75q-3.2 0.2 -4.95 -0.15q-2.3 -0.45 -2.05 -2.95q0.15 -1.2 1.65 -5.7q1 -2.85 -0.5 -3q-0.3 -0.05 -4.15 0.75q-2.3 0.45 -4.3 0.15q-1.1 -0.2 -5.25 -1.3q-2.9 -0.8 -2.85 1q0 1.15 0.8 5.15q0.15 2.7 -1.65 4.6" style=""></path></g><g token="108" transform="matrix(1,0,0,1,-7.5,2.2)" class="shape"><path fill="#09419e" d="M 111.6 365.05q-1.25 1.75 -0.7 5.5l-0.3 3.05q-0.75 3.05 -3.15 3.15q-2.4 0.15 -3.9 0.6l-1.05 0.4q-2.75 2.1 -1.3 5.9q1.3 3.35 4.35 5.35q2.65 1.8 6.85 2.75q4.4 0.95 8.6 0.45q3.9 -0.4 4.1 -3.15q0.15 -2.2 -2.05 -6q-1.6 -2.7 0.25 -4.5l2.2 -1.25q1.75 -0.45 3.45 -1.5q3.35 -2.15 3.05 -5.25q-0.4 -4.05 -3.8 -6.6q-3.75 -2.85 -9.4 -2q-5.55 0.8 -7.2 3.1" style=""></path></g><g token="107" transform="matrix(1,0,0,1,-7.5,2.2)" class="shape"><path fill="rgba(0,0,0,0)" d="M 82.55 369.85l3.45 8.85q3.6 10.1 4.15 16.55" stroke="#86dafd" style="stroke-width: 1;"></path></g><g token="106" transform="matrix(1,0,0,1,-7.5,2.2)" class="shape"><path fill="rgba(0,0,0,0)" d="M 119.7 372.35l-6.25 9.5q-6.6 10.2 -8.35 13.9" stroke="#5aa0d3" style="stroke-width: 1;"></path></g><g token="105" transform="matrix(1,0,0,1,-7.5,2.2)" class="shape"><path fill="#0b56a3" d="M 86.05 394.05q-2.25 0 -2.95 0.6q-0.95 0.75 -1 3.4q0 2.4 1.7 3.05q0.8 0.3 1.65 0.15l23 0q4.2 0 4.55 -0.05q2.75 -0.5 2.9 -2.85q0.15 -2.55 -1.3 -3.7l-1.45 -0.6l-27.1 0" style=""></path></g><g token="104" transform="matrix(1,0,0,1,-7.5,2.2)" class="shape"><path fill="#0b56a3" d="M 85.5 401.25l-0.05 0l4.15 23.95l18.2 0l3.1 -17.95l-25.4 -6" style=""></path></g><g token="103" transform="matrix(1,0,0,1,-7.5,2.2)" class="shape"><path fill="#116dd2" d="M 111.9 401.25l-26.4 0l25.4 6l1 -6" style=""></path></g><g token="102" transform="matrix(1,0,0,1,-7.5,2.2)" class="shape"><path fill="#fabd4f" d="M 97.15 394.95l9.3 -43.25q-4.95 10.4 -7.6 27.85q-1.35 8.75 -1.7 15.4" style=""></path></g><g token="101" transform="matrix(1,0,0,1,-7.5,2.2)" class="shape"><path fill="#fabd4f" d="M 105.95 349.4q-0.7 2.3 -0.3 4q5 -1.95 6.7 -6.85l0.65 -4.5q-5.65 2.75 -7.05 7.35" style=""></path></g><g token="100" transform="matrix(1,0,0,1,-7.5,2.2)" class="shape"><path fill="#fabd4f" d="M 101.05 368.05q7.05 0.55 10.2 -2.65q1 -1 1.45 -2.3l0.3 -1.05q-5.6 -0.6 -9.35 2.65q-1.85 1.6 -2.6 3.35" style=""></path></g><g token="99" transform="matrix(1,0,0,1,-7.5,2.2)" class="shape"><path fill="#fabd4f" d="M 98.05 385.6q7.05 -0.85 9.5 -4.65q0.8 -1.2 1.05 -2.55l0.05 -1.1q-5.65 0.55 -8.7 4.45q-1.5 2 -1.9 3.85" style=""></path></g><g token="98" transform="matrix(1,0,0,1,-7.5,2.2)" class="shape"><path fill="#fabd4f" d="M 90.35 378.1q1.05 4.4 7.4 7.5q0.25 -1.85 -0.5 -4.2q-1.55 -4.7 -6.7 -7.1l-0.3 1.05q-0.25 1.35 0.1 2.75" style=""></path></g><g token="97" transform="matrix(1,0,0,1,-7.5,2.2)" class="shape"><path fill="#fabd4f" d="M 94.75 359.6q0.5 4.5 6.4 8.4q0.5 -1.8 0 -4.25q-0.9 -4.85 -5.7 -7.9l-0.45 1q-0.4 1.3 -0.25 2.75" style=""></path></g><g token="96" transform="matrix(1,0,0,1,-7.5,2.2)" class="shape"><path fill="#0842ad" d="M 103.2 122.45q-0.15 -0.15 -0.35 -0.15l-3.6 0l-0.35 0.15l-0.1 0.35l0.3 2.3q0 0.55 -0.45 0.65q-1.7 0.4 -3 1.25q-0.45 0.3 -0.8 -0.15l-1.3 -1.7l-0.3 -0.15q-0.25 0 -0.35 0.15l-2.6 2.55l-0.1 0.35q0 0.25 0.15 0.3l1.7 1.35q0.4 0.3 0.1 0.75q-0.8 1.45 -1.2 3q-0.15 0.55 -0.65 0.45l-2.3 -0.3l-0.35 0.1q-0.15 0.15 -0.15 0.35l0 3.6q0 0.3 0.15 0.35q0.1 0.2 0.35 0.1l2.3 -0.25q0.5 -0.1 0.65 0.45q0.4 1.6 1.2 3q0.35 0.45 -0.1 0.75l-1.7 1.3q-0.15 0.15 -0.15 0.35q-0.1 0.15 0.1 0.35l2.6 2.55q0.15 0.15 0.35 0.15q0.25 0 0.3 -0.2l1.3 -1.65q0.35 -0.4 0.8 -0.15q1.45 0.9 3 1.25q0.45 0.1 0.45 0.65l-0.3 2.3l0.1 0.35q0.15 0.15 0.35 0.15l3.6 0q0.2 0 0.35 -0.15q0.1 -0.1 0.1 -0.35l-0.25 -2.3q-0.1 -0.55 0.45 -0.65q1.65 -0.4 2.95 -1.25q0.5 -0.25 0.8 0.15l1.3 1.65q0.2 0.2 0.35 0.2q0.2 0 0.35 -0.15l2.55 -2.55q0.15 -0.15 0.15 -0.35l-0.2 -0.35l-1.65 -1.3q-0.45 -0.25 -0.15 -0.75q0.8 -1.35 1.25 -3q0.1 -0.55 0.6 -0.45l2.35 0.25q0.15 0.1 0.35 -0.1q0.15 -0.05 0.15 -0.35l0 -3.6q0 -0.2 -0.15 -0.35l-0.35 -0.1l-2.35 0.3q-0.5 0.1 -0.6 -0.45q-0.35 -1.45 -1.25 -3q-0.3 -0.5 0.15 -0.75l1.65 -1.35q0.05 -0.05 0.2 -0.3q0 -0.2 -0.15 -0.35l-2.55 -2.55q-0.15 -0.15 -0.35 -0.15q-0.2 0 -0.35 0.15l-1.3 1.7q-0.3 0.4 -0.8 0.15q-1.45 -0.9 -2.95 -1.25q-0.55 -0.1 -0.45 -0.65l0.25 -2.3q0 -0.25 -0.1 -0.35M 99.75 126.05q0.35 -0.5 0.25 -1.05l-0.2 -1.8l2.55 0l-0.2 1.8q-0.05 0.55 0.25 1.05q0.35 0.45 0.9 0.6q1.6 0.4 2.75 1.1q0.5 0.3 1.05 0.2q0.55 -0.1 0.9 -0.55l1 -1.25l1.8 1.8l-1.25 1q-0.45 0.35 -0.55 0.9q-0.1 0.55 0.2 1.05q0.7 1.2 1.1 2.75q0.35 1.25 1.65 1.15l1.8 -0.25l0 2.6l-1.8 -0.2q-0.55 -0.05 -1.05 0.25q-0.45 0.35 -0.6 0.9q-0.4 1.55 -1.15 2.7q-0.25 0.5 -0.15 1.05q0.1 0.55 0.55 0.9l1.25 1l-1.85 1.8l-0.95 -1.25q-0.35 -0.45 -0.95 -0.55q-0.55 -0.1 -1 0.2q-1.3 0.75 -2.75 1.15q-0.55 0.1 -0.9 0.6q-0.3 0.45 -0.25 1l0.2 1.8l-2.55 0l0.2 -1.8q0.1 -0.55 -0.25 -1q-0.35 -0.5 -0.9 -0.6q-1.35 -0.35 -2.7 -1.15q-0.5 -0.3 -1.05 -0.2q-0.55 0.1 -0.9 0.55l-1 1.25l-1.85 -1.8l1.3 -1q0.45 -0.35 0.55 -0.9q0.1 -0.55 -0.2 -1.05q-0.75 -1.15 -1.15 -2.7q-0.1 -0.55 -0.55 -0.9q-0.5 -0.3 -1.05 -0.25l-1.85 0.2l0 -2.6l1.85 0.25q0.6 0.05 1.05 -0.25q0.45 -0.35 0.55 -0.9q0.4 -1.6 1.15 -2.75q0.3 -0.5 0.2 -1.05q-0.1 -0.55 -0.55 -0.9l-1.3 -1l1.85 -1.8l1 1.25q0.35 0.45 0.9 0.55q0.55 0.1 1.05 -0.2q1.2 -0.7 2.7 -1.1q0.55 -0.15 0.9 -0.6" style=""></path></g><g token="95" transform="matrix(1,0,0,1,-7.5,2.2)" class="shape"><path fill="#0842ad" d="M 101.05 129.55q-2.6 0 -4.45 1.85q-1.85 1.85 -1.85 4.45q0 2.6 1.85 4.5q1.85 1.85 4.45 1.85q2.65 0 4.5 -1.85q1.85 -1.85 1.85 -4.5q0 -2.6 -1.85 -4.45q-1.85 -1.85 -4.5 -1.85M 97.25 132q1.55 -1.6 3.8 -1.6q2.25 0 3.85 1.6q1.6 1.6 1.6 3.85q0 2.25 -1.6 3.85q-1.6 1.6 -3.85 1.6q-2.2 0 -3.8 -1.6q-1.6 -1.6 -1.6 -3.85q0 -2.25 1.6 -3.85" style=""></path></g><g token="94" transform="matrix(1,0,0,1,-7.5,2.2)" class="shape"><path fill="#db0f28" d="M 268.75 216.05q0.15 -0.05 0.15 -0.3q0.05 -0.15 -0.1 -0.3l-2.2 -2.2l-0.3 -0.1l-0.3 0.15l-1.1 1.45q-0.3 0.4 -0.65 0.1q-1.2 -0.75 -2.6 -1.05q-0.4 -0.15 -0.35 -0.55l0.25 -2l-0.1 -0.3l-0.3 -0.15l-3.1 0l-0.3 0.15l-0.1 0.3l0.25 2q0.1 0.45 -0.4 0.55q-1.35 0.3 -2.55 1.05q-0.35 0.3 -0.65 -0.1l-1.15 -1.45q-0.05 -0.15 -0.25 -0.15q-0.2 0 -0.3 0.1l-2.2 2.2l-0.15 0.3q0.15 0.25 0.2 0.3l1.4 1.1q0.35 0.35 0.1 0.7q-0.65 1.2 -1.05 2.55q-0.1 0.5 -0.55 0.4l-2 -0.25q-0.2 0 -0.25 0.1q-0.15 0.1 -0.15 0.25l0 3.15q0 0.2 0.15 0.25q0.05 0.1 0.25 0.1l2 -0.25q0.45 0 0.55 0.4q0.25 1.15 1.05 2.55q0.25 0.4 -0.1 0.7l-1.4 1.1l-0.2 0.3l0.15 0.3l2.2 2.2q0.05 0.1 0.3 0.1q0.2 0 0.25 -0.15l1.15 -1.45q0.3 -0.35 0.65 -0.1q1.2 0.75 2.55 1.05q0.5 0.15 0.4 0.55l-0.25 2q0 0.2 0.1 0.3l0.3 0.15l3.1 0l0.3 -0.15l0.1 -0.3l-0.25 -2q-0.1 -0.45 0.35 -0.55q1.45 -0.3 2.6 -1.05q0.35 -0.25 0.65 0.1l1.1 1.45l0.3 0.15l0.3 -0.1l2.2 -2.2q0.15 -0.15 0.1 -0.3l-0.15 -0.3l-1.4 -1.1q-0.3 -0.3 -0.15 -0.7q0.7 -1.15 1.1 -2.55q0.1 -0.45 0.55 -0.4l1.95 0.25q0.25 0 0.3 -0.1q0.15 -0.05 0.15 -0.25l0 -3.15q0 -0.15 -0.15 -0.25q-0.05 -0.1 -0.3 -0.1l-1.95 0.25q-0.45 0 -0.55 -0.4q-0.4 -1.4 -1.1 -2.55q-0.15 -0.4 0.15 -0.7l1.4 -1.1M 267.95 215.7l-1.1 0.85q-0.9 0.7 -0.3 1.7q0.75 1.15 0.95 2.3q0.1 0.5 0.55 0.8q0.4 0.3 0.9 0.2l1.5 -0.2l0 2.25l-1.5 -0.2q-0.5 -0.05 -0.9 0.25q-0.45 0.25 -0.55 0.75q-0.2 1.1 -0.95 2.35q-0.25 0.4 -0.15 0.9q0.05 0.45 0.45 0.75l1.1 0.85l-1.6 1.6l-0.8 -1.1q-0.3 -0.4 -0.8 -0.45q-0.5 -0.1 -0.9 0.15q-1.1 0.65 -2.35 0.95q-0.45 0.1 -0.75 0.55q-0.3 0.4 -0.25 0.85l0.2 1.55l-2.2 0l0.15 -1.55q0.1 -0.45 -0.2 -0.85q-0.25 -0.45 -0.75 -0.55q-1.35 -0.3 -2.35 -0.95q-0.4 -0.25 -0.9 -0.15q-0.5 0.05 -0.8 0.45l-0.85 1.1l-1.55 -1.6l1.1 -0.85q0.9 -0.7 0.3 -1.7q-0.7 -1.1 -1 -2.3q-0.1 -0.5 -0.5 -0.8q-0.4 -0.25 -0.9 -0.2l-1.55 0.2l0 -2.25l1.55 0.2q0.5 0.1 0.9 -0.2q0.4 -0.3 0.5 -0.8q0.3 -1.2 1 -2.3q0.6 -1 -0.3 -1.7l-1.1 -0.85l1.55 -1.55l0.85 1.05q0.3 0.4 0.8 0.5q0.5 0.05 0.9 -0.2q1 -0.6 2.35 -0.95q0.5 -0.1 0.75 -0.5q0.3 -0.4 0.2 -0.9l-0.15 -1.55l2.2 0l-0.2 1.55q-0.1 1.15 1 1.4q1.3 0.35 2.35 0.95q0.95 0.6 1.7 -0.3l0.8 -1.05l1.6 1.55" style=""></path></g><g token="93" transform="matrix(1,0,0,1,-7.5,2.2)" class="shape"><path fill="#db0f28" d="M 265.05 222.5q0 -2.25 -1.6 -3.85q-1.65 -1.6 -3.85 -1.6q-2.25 0 -3.85 1.6q-1.6 1.6 -1.6 3.85q0 2.25 1.6 3.85q1.6 1.6 3.85 1.6q2.25 0 3.85 -1.6q1.6 -1.6 1.6 -3.85M 259.6 217.85q1.9 0 3.3 1.35q1.35 1.35 1.35 3.3q0 1.9 -1.35 3.3q-1.4 1.35 -3.3 1.35q-1.95 0 -3.3 -1.35q-1.4 -1.4 -1.4 -3.3q0 -1.95 1.4 -3.3q1.35 -1.35 3.3 -1.35" style=""></path></g><g token="92" transform="matrix(1,0,0,1,-7.5,2.2)" class="shape"><path fill="#0842ad" d="M 408 193.95q0.05 0.1 0.25 0.1l11.1 0q0.2 0 0.3 -0.1l1.7 -1.7q0.1 -0.1 0.1 -0.3l0 -5.95q0.1 -0.45 -0.4 -0.45l-14.45 0q-0.45 0 -0.45 0.45l0 5.95l0.1 0.3l1.75 1.7M 407 191.75l0 -5.35l13.6 0l0 5.35l-1.45 1.45l-10.7 0l-1.45 -1.45" style=""></path></g><g token="91" transform="matrix(1,0,0,1,-7.5,-0.35)" class="shape"><path fill="#0842ad" d="M 422.35 190.2q-0.1 -0.4 -0.45 -0.4l-16.2 0.85q-0.4 0 -0.4 0.45q0 0.4 0.45 0.4l16.2 -0.85q0.4 0 0.4 -0.45" style=""></path></g><g token="90" transform="matrix(1,0,0,1,-7.5,2.2)" class="shape"><path fill="#0842ad" d="M 422.35 190.2q-0.1 -0.4 -0.45 -0.4l-16.2 0.85q-0.4 0 -0.4 0.45q0 0.4 0.45 0.4l16.2 -0.85q0.4 0 0.4 -0.45" style=""></path></g><g token="89" transform="matrix(1,0,0,1,-7.5,2.2)" class="shape"><path fill="#0842ad" d="M 399.35 171.05q0 3.8 1.8 7.05q1.8 3.2 5 5.25l0 2.65q0 0.4 0.45 0.4l14.45 0q0.45 0 0.45 -0.4l0 -2.65q3.2 -2.05 5 -5.25q1.8 -3.25 1.8 -7.05q0 -5.95 -4.25 -10.2q-4.25 -4.25 -10.25 -4.25q-5.95 0 -10.2 4.25q-4.25 4.25 -4.25 10.2M 400.2 171.1q0 -5.65 4 -9.65q3.95 -4 9.6 -4q5.65 0 9.65 4q4 4 4 9.65q0 3.6 -1.75 6.7q-1.8 3.05 -4.9 4.95q-0.2 0.1 -0.2 0.35l0 2.45l-13.6 0l0 -2.45q0 -0.25 -0.2 -0.35q-3.1 -1.85 -4.85 -4.95q-1.75 -3.1 -1.75 -6.7" style=""></path></g><g token="88" transform="matrix(1,0,0,1,-7.5,2.2)" class="shape"><path fill="#0842ad" d="M 410.5 194.8q1.3 0.95 3.3 0.95q3.2 0 4.2 -1.95q0.2 -0.4 -0.15 -0.55q-0.4 -0.2 -0.6 0.2q-0.8 1.45 -3.45 1.45q-1.65 0 -2.7 -0.7q-0.7 -0.7 -0.75 -0.75q-0.2 -0.4 -0.55 -0.2q-0.4 0.2 -0.2 0.55q0.05 0.05 0.9 1" style=""></path></g><g token="87" transform="matrix(1.0053,0,0,1,-54.95,2.2)" class="shape"><path fill="#db0f28" d="M 441.05 171.05q0 -0.4 -0.4 -0.4l-8.55 0q-0.4 0 -0.4 0.4q0 0.45 0.4 0.45l8.55 0q0.4 0 0.4 -0.45" style=""></path></g><g token="86" transform="matrix(1,0,0,1,-7.5,2.2)" class="shape"><path fill="#db0f28" d="M 441.05 171.05q0 -0.4 -0.4 -0.4l-8.55 0q-0.4 0 -0.4 0.4q0 0.45 0.4 0.45l8.55 0q0.4 0 0.4 -0.45" style=""></path></g><g token="85" transform="matrix(0.994,0,0,1,-43.95,24.75)" class="shape"><path fill="#db0f28" d="M 437.25 158.05q0.4 -0.3 0.15 -0.6q-0.15 -0.3 -0.6 -0.15l-7.35 4.25q-0.45 0.2 -0.15 0.6q0.15 0.2 0.35 0.2l0.2 -0.05l7.4 -4.25" style=""></path></g><g token="84" transform="matrix(1,0,0,1,-7.5,2.2)" class="shape"><path fill="#db0f28" d="M 437.25 158.05q0.4 -0.3 0.15 -0.6q-0.15 -0.3 -0.6 -0.15l-7.35 4.25q-0.45 0.2 -0.15 0.6q0.15 0.2 0.35 0.2l0.2 -0.05l7.4 -4.25" style=""></path></g><g token="83" transform="matrix(1,0,0,1,-7.5,2.2)" class="shape"><path fill="#db0f28" d="M 427.6 148.05q0.2 -0.35 -0.15 -0.6q-0.4 -0.2 -0.6 0.2l-4.25 7.35q-0.2 0.35 0.15 0.6l0.2 0.05q0.2 0 0.4 -0.2l4.25 -7.4" style=""></path></g><g token="82" transform="matrix(1,0,0,1,-7.5,2.2)" class="shape"><path fill="#db0f28" d="M 414.25 144.25q0 -0.4 -0.45 -0.4q-0.4 0 -0.4 0.4l0 8.5q0 0.45 0.4 0.45q0.45 0 0.45 -0.45l0 -8.5" style=""></path></g><g token="81" transform="matrix(1,0,0,1,-7.5,2.2)" class="shape"><path fill="#db0f28" d="M 400.2 147.5q-0.4 0.2 -0.15 0.6l4.25 7.35q0.15 0.2 0.35 0.2l0.25 -0.05q0.3 -0.3 0.1 -0.6l-4.25 -7.35q-0.2 -0.4 -0.55 -0.15" style=""></path></g><g token="80" transform="matrix(1,0,0,1,31.6,24.75)" class="shape"><path fill="#db0f28" d="M 398.35 162.15q0.2 -0.4 -0.2 -0.6l-7.35 -4.25q-0.4 -0.2 -0.55 0.15q-0.25 0.35 0.15 0.6l7.35 4.25l0.2 0.05q0.25 0 0.4 -0.2" style=""></path></g><g token="79" transform="matrix(1,0,0,1,-7.5,2.2)" class="shape"><path fill="#db0f28" d="M 398.35 162.15q0.2 -0.4 -0.2 -0.6l-7.35 -4.25q-0.4 -0.2 -0.55 0.15q-0.25 0.35 0.15 0.6l7.35 4.25l0.2 0.05q0.25 0 0.4 -0.2" style=""></path></g><g token="78" transform="matrix(1,0,0,1,-7.5,2.2)" class="shape"><path fill="rgba(0,0,0,0)" d="M 415.05 185.55l0 -13.6q-0.75 0.1 -1.6 0.1" stroke="#0842ad" style="stroke-width: 1;"></path><path fill="rgba(0,0,0,0)" d="M 415.05 171.95l0 -0.15q-0.05 -1.6 0.35 -3.25q0.8 -3.25 3 -3.25q1.3 0 1.65 1.05q0.4 1 -0.25 2.35q-1.4 2.7 -4.75 3.25" stroke="#0842ad" style="stroke-width: 1;"></path></g><g token="77" transform="matrix(1,0,0,1,-7.5,2.2)" class="shape"><path fill="rgba(0,0,0,0)" d="M 411.9 185.55l0 -13.6q-3.4 -0.55 -4.75 -3.25q-0.6 -1.35 -0.25 -2.35q0.4 -1.05 1.7 -1.05q2.2 0 2.95 3.25q0.4 1.65 0.35 3.25l0 0.15q0.75 0.1 1.6 0.1" stroke="#0842ad" style="stroke-width: 1;"></path></g><g token="76" transform="matrix(1,0,0,1,309.8,398.8)" style="opacity: 1; visibility: visible;" class="movieclip"><g token="6" transform="matrix(1,0,0,1,-322.8,-394.35)" class="shape"><path fill="#b2e6fe" d="M 360.35 395.15q-0.8 -0.8 -1.9 -0.8l-32.9 0q-1.1 0 -1.95 0.8q-0.8 0.85 -0.8 1.95l0 12q0 1.15 0.8 1.95q0.85 0.8 1.95 0.8l35.6 0l0 -14.75q0 -1.15 -0.8 -1.95" style=""></path></g><g token="5" transform="matrix(0.4366,0,0,0.4344,-89.95,-34.7)" class="shape"><path fill="#0e66b4" d="M 225.2 89.05q-4.8 0 -8.2 3.4q-3.4 3.4 -3.4 8.2q0 4.85 3.4 8.25q3.4 3.4 8.2 3.4q4.85 0 8.25 -3.4q3.4 -3.4 3.4 -8.25q0 -4.8 -3.4 -8.2q-3.4 -3.4 -8.25 -3.4" style=""></path></g><g token="4" transform="matrix(1,0,0,1,2.9,4)" style="opacity: 1; visibility: visible;" class="movieclip"><g token="1" transform="matrix(0.4366,0,0,0.4344,-0.05,0)" class="shape" style="visibility: hidden;"><path fill="#ff0000" d="M 12.6 0q-4.8 0 -8.2 3.4q-3.4 3.4 -3.4 8.2q0 4.85 3.4 8.25q3.4 3.4 8.2 3.4q4.85 0 8.25 -3.4q3.4 -3.4 3.4 -8.25q0 -4.8 -3.4 -8.2q-3.4 -3.4 -8.25 -3.4" style=""></path></g><g mask="url('#maskSla6sv2iq2bcze')" class="maskGroup"><g token="14" transform="matrix(0.7662,0,0,0.7853,0.2,0)" class="shape"><path fill="#febf9c" d="M 13.15 13.9l-3 0.15l0 0.85l1.45 7.15q1.1 -0.4 1.8 -0.8q0.45 -0.3 0.55 -0.9q0.05 -0.35 0 -1.4l-0.8 -5.05" style=""></path></g><g token="13" transform="matrix(0.437,0,0,0.4367,0,-0.05)" class="shape"><path fill="#febf9c" d="M 6.8 24.6l-5.15 0l-1.6 10.5q-0.15 2.05 1.2 3q1.35 0.95 2.8 1.5l2.75 -15" style=""></path></g><g token="12" transform="matrix(1,0,0,1,0,0)" class="shape"><path fill="#febf9c" d="M 5.9 5.2l-0.9 1q0 0.65 -0.25 0.95q-0.3 0.25 -0.65 0.75q0.65 1 1.95 0.85q1.3 -0.1 1.55 -1.05q-1.25 -0.15 -1.4 -1.35q-0.05 -0.7 -0.2 -1l-0.1 -0.15" style=""></path></g><g token="11" transform="matrix(1,0,0,1,0,0)" class="shape"><path fill="#1d3b61" d="M 4.55 7.6q-0.15 -0.15 -0.35 -0.15q-0.85 -0.15 -1.35 0q-0.4 0.1 -0.5 0.15q-0.1 0 0 0.25q0.75 2.05 0.45 3.15q-0.3 1.1 -0.7 6.55l4.6 0.2q1.3 0.05 2.25 -0.2q0.3 -2.35 0 -3.35l-0.65 -2.8q-0.25 -2.4 0.1 -3q0.3 -0.45 0.35 -0.55q0.05 -0.1 -0.2 -0.2q-0.9 -0.3 -1.2 -0.3q-0.55 0 -0.7 0.2q-0.6 0.6 -1.15 0.5q-0.35 -0.05 -0.7 -0.25l-0.25 -0.2" style=""></path></g><g token="10" transform="matrix(1,0,0,1,0,0)" class="shape"><path fill="#031e33" d="M 3.15 8.85q-0.05 -1 -0.5 -1.25q-0.05 -0.05 -0.2 0q-0.25 0 -0.55 0.25q-0.55 0.5 -1.05 1.9l-0.3 1.15q0.65 0.35 1.3 0.35l1.1 0.05q0.3 -1.7 0.2 -2.45" style=""></path></g><g token="9" transform="matrix(1,0,0,1,0,0)" class="shape"><path fill="#031e33" d="M 8.15 8.25l-0.15 1q-0.05 0.65 0.15 2.2l1 -0.1q0.6 -0.05 1.3 -0.35q-0.15 -0.8 -0.3 -1.2q-0.6 -1.6 -1.15 -1.95q-0.35 -0.2 -0.65 0.05q-0.15 0.15 -0.2 0.35" style=""></path></g><g token="8" transform="matrix(1,0,0,1,0,0)" class="shape"><path fill="#ffffff" d="M 5.55 6.2q0.7 0 0.8 -0.6l-1.6 0l0.1 0.3q0.25 0.3 0.7 0.3" style=""></path></g><g token="7" transform="matrix(0.0179,0,0,0.0913,-0.25,-22.8)" class="shape"><path fill="#febf9c" d="M 423.2 304.75l19.5 -7.5l-2.35 -3.45l-17.15 10.95" style=""></path></g><g token="6" transform="matrix(0.4875,0,0,0.5,-0.8,-1.4)" class="shape"><path fill="#febf9c" d="M 16.9 10.95q0.25 -1.65 0.15 -3.6q-0.1 -1.8 -2.05 -2.5l-1.9 -0.4q-0.95 0 -1.95 0.4q-1.95 0.7 -2 2.5q-0.1 1.35 0.1 3.6l0.25 1.95l0.15 0.65l0.45 0.8q0.95 1.2 1.45 1.45q0.6 0.35 1.55 0.35q0.9 0 1.5 -0.35q0.6 -0.35 1.45 -1.45l0.45 -0.75l0.15 -0.7q0.2 -0.95 0.25 -1.95" style=""></path></g><g token="5" transform="matrix(0.5385,0,0,0.5128,-5.5,-1.55)" class="shape"><path fill="#febf9c" d="M 17.3 11.35q-0.15 -0.45 -0.4 -0.45q-0.05 1 -0.25 1.95q0.8 -0.95 0.65 -1.5" style=""></path></g><g token="4" transform="matrix(1,0,0,1,0,0)" class="shape"><path fill="#905f44" d="M 6.2 5.65l-0.25 -0.1l-0.25 -0.05l-0.1 0l-0.25 0.05l-0.25 0.1q-0.35 0.15 -0.35 0.2q0 0.1 -0.05 0.25q-0.05 0.15 -0.15 0.2l0.35 0.3q0.45 0.3 0.7 0.3l0.05 0q0.2 0 0.65 -0.3q0.15 -0.05 0.4 -0.3q-0.15 -0.05 -0.15 -0.45q0 -0.05 -0.35 -0.2M 5.1 5.9q0.4 -0.2 0.5 -0.2l0.55 0.2q0.25 0.1 0.15 0.25q-0.15 0.3 -0.35 0.3l-0.35 -0.35q-0.15 0.35 -0.3 0.35q-0.25 0 -0.4 -0.3q-0.1 -0.2 0.2 -0.25" style=""></path></g><g token="3" transform="matrix(1,0,0,1,0,0)" class="shape"><path fill="#6a4734" d="M 6.4 4.3l0.8 0q0.15 -0.15 0.15 -0.35l0 -0.4l-0.2 -0.15l-0.85 0.05q-0.3 0 -0.35 0.05q-0.05 0.15 -0.15 0.15l-0.2 0l0 0.05l0.3 0.05l0.05 0.3q0 0.05 0.1 0.15q-0.05 -0.1 -0.05 -0.15l0.05 -0.15q0.05 0.05 0.05 -0.1q0 -0.2 -0.1 -0.1l0.05 -0.15q0.05 -0.05 0.5 -0.05q0.5 0 0.55 0.05l0.15 0.1q0 0.5 -0.1 0.55l-0.15 0.05l-0.7 0.05q0 0 0.1 0" style=""></path></g><g token="2" transform="matrix(1,0,0,1,0,0)" class="shape"><path fill="#6a4734" d="M 5.4 3.65l-0.15 -0.15q0 -0.05 -0.35 -0.05l-0.4 -0.05l-0.45 0l-0.2 0.2l0 0.35q0.05 0.1 0.15 0.35l0.85 0l-0.65 -0.05l-0.15 -0.05l-0.1 -0.55l0.15 -0.1q0.1 -0.05 0.55 -0.05q0.45 0 0.5 0.05l0.05 0.15q-0.1 -0.1 -0.1 0.1l0.05 0.1l0.05 0.15q0 0.05 -0.05 0.15q0.05 -0.1 0.1 -0.15l0.1 -0.3l0.25 -0.05l0 -0.05l-0.2 0" style=""></path></g></g></g><g token="3" transform="matrix(0.7847,0,0,0.7857,-140.85,-189.65)" class="shape"><path fill="#0e66b4" d="M 223.6 247.15q0 -0.7 -0.7 -0.7l-22.75 0q-0.7 0 -0.7 0.7l0 1.4q0 0.7 0.7 0.7l22.75 0q0.7 0 0.7 -0.7l0 -1.4" style=""></path></g><g token="2" transform="matrix(0.7847,0,0,0.7679,-140.85,-181.7)" class="shape"><path fill="#0e66b4" d="M 223.6 247.15q0 -0.7 -0.7 -0.7l-22.75 0q-0.7 0 -0.7 0.7l0 1.4q0 0.7 0.7 0.7l22.75 0q0.7 0 0.7 -0.7l0 -1.4" style=""></path></g><g token="1" transform="matrix(0.7847,0,0,0.7679,-140.85,-178.15)" class="shape"><path fill="#0e66b4" d="M 223.6 247.15q0 -0.7 -0.7 -0.7l-22.75 0q-0.7 0 -0.7 0.7l0 1.4q0 0.7 0.7 0.7l22.75 0q0.7 0 0.7 -0.7l0 -1.4" style=""></path></g></g><g token="75" transform="matrix(0.7665,0,0,0.7722,150.905,229.7573)" style="opacity: 1; visibility: visible;" class="movieclip"><g token="6" transform="matrix(1,0,0,1,-179.55,-236.45)" class="shape"><path fill="#b2e6fe" d="M 227.55 237.25q-0.75 -0.8 -1.9 -0.8l-43.35 0q-1.15 0 -1.95 0.8q-0.8 0.8 -0.8 1.95l0 16.75q0 1.15 0.8 1.95q0.85 0.8 1.95 0.8l46.05 0l0 -19.5q0 -1.15 -0.8 -1.95" style=""></path></g><g token="5" transform="matrix(0.5548,0,0,0.5548,-114.25,-44.35)" class="shape"><path fill="#0e66b4" d="M 225.2 89.05q-4.8 0 -8.2 3.4q-3.4 3.4 -3.4 8.2q0 4.85 3.4 8.25q3.4 3.4 8.2 3.4q4.85 0 8.25 -3.4q3.4 -3.4 3.4 -8.25q0 -4.8 -3.4 -8.2q-3.4 -3.4 -8.25 -3.4" style=""></path></g><g token="4" transform="matrix(1,0,0,1,3.7,5.05)" style="opacity: 1; visibility: visible;" class="movieclip"><g token="1" transform="matrix(0.5548,0,0,0.5548,0,0)" class="shape" style="visibility: hidden;"><path fill="#ff0000" d="M 12.6 0q-4.8 0 -8.2 3.4q-3.4 3.4 -3.4 8.2q0 4.85 3.4 8.25q3.4 3.4 8.2 3.4q4.85 0 8.25 -3.4q3.4 -3.4 3.4 -8.25q0 -4.8 -3.4 -8.2q-3.4 -3.4 -8.25 -3.4" style=""></path></g><g mask="url('#maskSla6sv2iq2bcz8')" class="maskGroup"><g token="12" transform="matrix(1,0,0,1,0,0)" class="shape"><path fill="#4b2e60" d="M 3.95 9.95q0.35 1.3 3.15 1.3q2.75 0 3.1 -1.3q0.1 -0.5 -0.45 -2.55q-0.15 -0.65 0 -1.4q0.2 -1.2 0.25 -1.65l-5.85 0q0.05 0.45 0.3 1.7q0.1 0.7 -0.05 1.35q-0.55 2.05 -0.45 2.55" style=""></path></g><g token="11" transform="matrix(1,0,0,1,0,0)" class="shape"><path fill="#febf9c" d="M 13.15 13.9l-3 0.15l0 0.85l1.45 7.15q1.1 -0.4 1.8 -0.8q0.45 -0.3 0.55 -0.9q0.05 -0.35 0 -1.4l-0.8 -5.05" style=""></path></g><g token="10" transform="matrix(0.5556,0,0,0.5533,-0.05,0.05)" class="shape"><path fill="#febf9c" d="M 6.8 24.6l-5.15 0l-1.6 10.5q-0.15 2.05 1.2 3q1.35 0.95 2.8 1.5l2.75 -15" style=""></path></g><g token="9" transform="matrix(1,0,0,1,0,0)" class="shape"><path fill="#f7e1cd" d="M 7.5 6.65l-1.1 1.25q0 0.85 -0.35 1.2q-0.4 0.35 -0.85 0.95q0.85 1.3 2.5 1.15q1.65 -0.2 1.95 -1.4q-1.55 -0.2 -1.75 -1.65q-0.1 -0.95 -0.25 -1.3l-0.15 -0.2" style=""></path></g><g token="8" transform="matrix(1,0,0,1,0,0)" class="shape"><path fill="#cbb4ab" d="M 11.15 10.05q0.05 -0.15 -0.25 -0.3q-1.3 -0.35 -1.55 -0.35q-0.65 0 -0.9 0.25q-0.75 0.75 -1.45 0.65q-0.45 -0.05 -0.85 -0.35l-0.35 -0.25q-0.2 -0.2 -0.4 -0.25q-1.15 -0.15 -1.75 0q-0.55 0.15 -0.65 0.2q-0.15 0.05 0 0.35q0.95 2.85 0.6 4q-0.35 1.35 -0.9 8.35l5.85 0.25q1.65 0.05 2.85 -0.25q0.4 -2.95 0 -4.3l-0.8 -3.5q-0.3 -3.05 0.1 -3.8q0.4 -0.55 0.45 -0.7" style=""></path></g><g token="7" transform="matrix(1,0,0,1,0,0)" class="shape"><path fill="#375d74" d="M 4.05 11.25q-0.1 -1.2 -0.65 -1.55q-0.1 -0.05 -0.25 -0.05q-0.35 0.05 -0.75 0.35q-0.7 0.6 -1.3 2.4l-0.35 1.45q0.8 0.4 1.65 0.45l1.4 0.1q0.35 -2.2 0.25 -3.15" style=""></path></g><g token="6" transform="matrix(1,0,0,1,0,0)" class="shape"><path fill="#375d74" d="M 10.35 10.5l-0.2 1.3q-0.05 0.75 0.25 2.75l1.25 -0.1q0.75 -0.1 1.65 -0.45l-0.35 -1.5q-0.75 -2.1 -1.5 -2.5q-0.45 -0.3 -0.85 0.1q-0.15 0.15 -0.25 0.4" style=""></path></g><g token="5" transform="matrix(1,0,0,1,0,0)" class="shape"><path fill="#f7e1cd" d="M 5.1 6.6l-0.15 -1.05q-0.25 -0.25 -0.35 -0.2q-0.35 0.1 -0.15 0.6l0.25 0.6q0.4 0.2 0.4 0.05" style=""></path></g><g token="4" transform="matrix(1,0,0,1,0,0)" class="shape"><path fill="#f7e1cd" d="M 9.25 5.55l-0.15 1.05q0 0.15 0.4 -0.05q0.15 -0.1 0.25 -0.6q0.2 -0.45 -0.1 -0.6l-0.4 0.2" style=""></path></g><g token="3" transform="matrix(1,0,0,1,0,0)" class="shape"><path fill="#f7e1cd" d="M 9.35 5.65q0.25 -1.2 -0.05 -2q-0.5 -1.55 -2.2 -1.55q-1.7 0 -2.2 1.55q-0.3 0.8 -0.05 2q0.2 0.95 0.55 1.55q0.25 0.5 0.8 0.85q0.5 0.4 0.9 0.4q0.4 0 0.95 -0.4q0.5 -0.35 0.75 -0.85q0.35 -0.6 0.55 -1.55" style=""></path></g><g token="2" transform="matrix(1,0,0,1,0,0)" class="shape"><path fill="#4b2e60" d="M 6.7 4.3l0.5 0.35q0.6 0.4 1.15 0.5q-0.05 -0.4 -0.2 -0.65l1.2 1.15q0.7 -0.55 0.65 -1.75q-0.05 -1 -0.8 -1.75q-0.8 -0.85 -2 -0.9q-1.65 0 -2.4 1.3q-0.6 0.35 -0.65 1.2q-0.05 1.1 0.7 1.95q0.2 -1.2 0.75 -1.85l0.25 0.5q0.4 0.55 0.95 0.75q0 -0.45 -0.1 -0.8" style=""></path></g></g></g><g token="3" transform="matrix(1,0,0,1,-179.55,-240.95)" class="shape"><path fill="#0e66b4" d="M 223.6 247.15q0 -0.7 -0.7 -0.7l-22.75 0q-0.7 0 -0.7 0.7l0 1.4q0 0.7 0.7 0.7l22.75 0q0.7 0 0.7 -0.7l0 -1.4" style=""></path></g><g token="2" transform="matrix(1,0,0,1,-179.55,-236.45)" class="shape"><path fill="#0e66b4" d="M 223.6 247.15q0 -0.7 -0.7 -0.7l-22.75 0q-0.7 0 -0.7 0.7l0 1.4q0 0.7 0.7 0.7l22.75 0q0.7 0 0.7 -0.7l0 -1.4" style=""></path></g><g token="1" transform="matrix(1,0,0,1,-179.55,-236.45)" class="shape"><path fill="#0e66b4" d="M 200.15 251q-0.7 0 -0.7 0.7l0 1.4q0 0.65 0.7 0.65l22.75 0q0.25 0 0.5 -0.2q0.2 -0.2 0.2 -0.45l0 -1.4q0 -0.7 -0.7 -0.7l-22.75 0" style=""></path></g></g><g token="74" transform="matrix(1,0,0,1,-6.4,7.6)" class="shape"><path fill="rgba(0,0,0,0)" d="M 299.05 304.7q-4.65 -1.55 -9.3 -1.75q-9.3 -0.4 -9.45 6.4q-0.15 7.3 -3 10.15q-1.75 1.75 -6.3 2.55q-5.7 0.15 -8.45 1.15q-4.9 1.85 -4.65 9.15q0.15 3.9 2.25 13.55q1.25 5.8 -0.8 8.6q-1.45 2 -3.2 6.7q-1.9 5.1 -2.75 9.95q-2.3 13.05 4.5 13.4q6.9 0.4 13.55 -6.3q5.3 -5.3 7.45 -11.25q1.5 -4.2 6.8 -6.75q4.45 -2.2 10.15 -2.7q5.65 -0.5 8.8 -4.35q3.55 -4.35 0.05 -9.45q-3.65 -5.4 -2.95 -11.75q0.6 -6.1 4.65 -8.95q4.4 -3.1 2.95 -8.85q-1.65 -6.4 -10.3 -9.5" stroke="#09419e" style="stroke-width: 1;"></path></g><g token="73" transform="matrix(1,0,0,1,-6.4,7.6)" class="shape"><path fill="rgba(0,0,0,0)" d="M 293.6 317.05l-36.3 76.6" stroke="#09419e" style="stroke-width: 1;"></path></g><g token="72" transform="matrix(1,0,0,1,-6.4,7.6)" class="shape"><path fill="rgba(0,0,0,0)" d="M 269.2 330.75l9.65 17.4l19.2 -2.15" stroke="#09419e" style="stroke-width: 1;"></path></g><g token="71" transform="matrix(1,0,0,1,-6.4,7.6)" class="shape"><path fill="rgba(0,0,0,0)" d="M 277.6 384.4q5.2 -8.5 13.15 -19.1q15.95 -21.15 29.9 -31.35" stroke="#db0f28" style="stroke-width: 1;"></path></g><g token="70" transform="matrix(1,0,0,1,-6.4,7.6)" class="shape"><path fill="rgba(0,0,0,0)" d="M 336.1 325.9q-1.25 2.8 -4.05 5.45q-5.7 5.25 -13.7 4.3q0.7 -2.6 3.25 -5.1q5.1 -5.05 14.5 -4.65" stroke="#db0f28" style="stroke-width: 1;"></path></g><g token="69" transform="matrix(1,0,0,1,-6.4,7.6)" class="shape"><path fill="rgba(0,0,0,0)" d="M 301.85 351.65q0.55 -0.45 1.55 -1q2 -1.1 4.25 -1.6q7.2 -1.65 14.25 3.15q-1.45 2.15 -4.7 3.2q-6.45 2 -15.35 -3.75" stroke="#db0f28" style="stroke-width: 1;"></path></g><g token="68" transform="matrix(1,0,0,1,-6.4,7.6)" class="shape"><path fill="rgba(0,0,0,0)" d="M 285.45 372.65q0.45 -0.55 1.35 -1.25q1.75 -1.5 3.85 -2.4q6.8 -3 14.6 0.3q-1 2.4 -4 4q-5.95 3.25 -15.8 -0.65" stroke="#db0f28" style="stroke-width: 1;"></path></g><g token="67" transform="matrix(1,0,0,1,-6.4,7.6)" class="shape"><path fill="rgba(0,0,0,0)" d="M 285 372.5q1.7 -2.3 2.35 -5.95q1.3 -7.3 -3.75 -14.1l-1.15 1.2q-1.3 1.6 -1.8 3.65q-1.75 6.6 4.35 15.2" stroke="#db0f28" style="stroke-width: 1;"></path></g><g token="66" transform="matrix(1,0,0,1,-6.4,7.6)" class="shape"><path fill="rgba(0,0,0,0)" d="M 302 351.65q1.95 -2.05 3.05 -5.6q2.25 -7.05 -1.9 -14.45l-1.3 1.05q-1.45 1.4 -2.25 3.4q-2.6 6.3 2.4 15.6" stroke="#db0f28" style="stroke-width: 1;"></path></g><g token="65" transform="matrix(1,0,0,1,-6.4,7.6)" class="shape"><path fill="rgba(0,0,0,0)" d="M 180.3 323.05q4.05 2.85 4.7 8.95q0.7 6.4 -3 11.75q-3.5 5.15 0.05 9.45q3.15 3.85 8.8 4.35q5.7 0.5 10.15 2.7q5.3 2.6 6.8 6.8q2.15 5.95 7.45 11.25q6.65 6.65 13.55 6.25q6.8 -0.4 4.5 -13.4q-1.95 -11.25 -5.9 -16.65q-2.1 -2.8 -0.8 -8.6q2.05 -9.6 2.2 -13.55q0.25 -7.3 -4.65 -9.15q-1.6 -0.6 -4.4 -0.8q-3.6 -0.2 -4.05 -0.3q-4.55 -0.85 -6.3 -2.6q-2.8 -2.85 -2.95 -10.1q-0.1 -6.8 -9.45 -6.45q-2.95 0.15 -6.45 0.95l-2.9 0.8q-8.6 3.1 -10.25 9.5q-1.5 5.75 2.9 8.85" stroke="#db0f28" style="stroke-width: 1;"></path></g><g token="64" transform="matrix(1,0,0,1,-6.4,7.6)" class="shape"><path fill="rgba(0,0,0,0)" d="M 229.4 393.65l-36.3 -76.6" stroke="#db0f28" style="stroke-width: 1;"></path></g><g token="63" transform="matrix(1,0,0,1,-6.4,7.6)" class="shape"><path fill="rgba(0,0,0,0)" d="M 188.65 346l19.25 2.15l9.65 -17.4" stroke="#db0f28" style="stroke-width: 1;"></path></g><g token="62" transform="matrix(1,0,0,1,-6.4,7.6)" class="shape"><path fill="rgba(0,0,0,0)" d="M 166.05 333.9q13.95 10.25 29.9 31.4q8 10.6 13.15 19.1" stroke="#fabd4f" style="stroke-width: 1;"></path></g><g token="61" transform="matrix(1,0,0,1,-6.4,7.6)" class="shape"><path fill="#fabd4f" d="M 150.65 325.9l0.95 1.75q1.35 2.05 3.1 3.65q5.7 5.25 13.65 4.35q-0.65 -2.6 -3.2 -5.1q-5.1 -5.05 -14.5 -4.65" style=""></path></g><g token="60" transform="matrix(1,0,0,1,-6.4,7.6)" class="shape"><path fill="#fabd4f" d="M 164.8 352.2l1.15 1.2q1.55 1.35 3.55 2q6.5 2 15.35 -3.75q-2.2 -1.75 -5.8 -2.6q-7.2 -1.65 -14.25 3.15" style=""></path></g><g token="59" transform="matrix(1,0,0,1,-6.4,7.6)" class="shape"><path fill="#fabd4f" d="M 181.45 369.3l0.9 1.4q1.25 1.6 3.1 2.6q5.95 3.25 15.8 -0.65q-1.8 -2.15 -5.2 -3.65q-6.75 -3 -14.6 0.3" style=""></path></g><g token="58" transform="matrix(1,0,0,1,-6.4,7.6)" class="shape"><path fill="#fabd4f" d="M 199.35 366.55q0.7 3.65 2.35 5.95q6.15 -8.6 4.4 -15.2q-0.55 -2.05 -1.8 -3.65l-1.15 -1.2q-5.1 6.8 -3.8 14.1" style=""></path></g><g token="57" transform="matrix(1,0,0,1,-6.4,7.6)" class="shape"><path fill="#fabd4f" d="M 184.85 332.65l-1.3 -1.05q-4.15 7.4 -1.9 14.45q1.1 3.55 3.05 5.6q5 -9.3 2.45 -15.6q-0.85 -2 -2.3 -3.4" style=""></path></g><g token="56" transform="matrix(1,0,0,1,157,423.75)" style="opacity: 0.5; visibility: visible;" class="movieclip"><g token="1" transform="matrix(1.1705,0,0,1.1694,0,0)" class="shape"><path fill="#e9e8ee" d="M 110.65 12.85q19 -2.25 19 -5.35q0 -3.1 -19 -5.3q-19 -2.2 -45.85 -2.2q-26.85 0 -45.8 2.2q-19 2.2 -19 5.3q0 3.1 19 5.35q19 2.2 45.8 2.2q26.8 0 45.85 -2.2" style=""></path></g></g><g token="55" transform="matrix(1,0,0,1,-6.4,7.6)" class="shape"><path fill="#170d54" d="M 283.85 426.7q8.45 -0.8 9.45 -0.8q1.4 0 1.85 -1.4l0.2 -1.45l-0.15 -3.35q-0.1 -1.5 -1.1 -2.1l-1 -0.3q-7.35 -0.95 -11.95 -0.95q-2.9 0 -7.25 -0.15l-3.8 -0.15q-1.45 -0.1 -1.85 4.05q-0.2 1.7 -0.2 5.8q0 1.45 1.6 1.65q1 0.1 4 -0.05q1.7 0 10.2 -0.8" style=""></path></g><g token="54" transform="matrix(3.1812,0,0,3.1837,193.5,276.45)" class="shape"><path fill="#febf9c" d="M 23.75 25l-5.45 0.3l0 1.5l2.55 12.9q2.1 -0.7 3.35 -1.45q0.85 -0.55 1 -1.65q0.05 -0.5 -0.05 -2.45q-0.05 -1.2 -0.75 -5.3l-0.65 -3.85" style=""></path></g><g token="53" transform="matrix(1,0,0,1,-6.4,7.6)" class="shape"><path fill="#febf9c" d="M 199.8 380.75q-0.2 2.85 0.25 4.45q0.8 2.95 3.6 4.95q4.3 3.05 8.95 4.8l8.75 -47.75l-16.4 0l-1.2 5.85q-1.3 6.5 -1.7 9.8q-0.65 5.25 -2.25 17.9" style=""></path></g><g token="52" transform="matrix(1,0,0,1,-6.4,7.6)" class="shape"><path fill="#fdb082" d="M 242.8 306.75l-6.3 7.35l-0.25 2.65q-0.55 2.9 -1.85 4.2q-2.05 2.05 -4.75 5.45l3.6 3.65q4.75 3.5 10.75 2.85q5.95 -0.6 9.25 -4.3l2.05 -3.55q-2.25 -0.3 -4.65 -1.65q-4.8 -2.75 -5.45 -8.1q-0.65 -5.35 -1.6 -7.5l-0.8 -1.05" style=""></path></g><g token="51" transform="matrix(1,0,0,1,-6.4,7.6)" class="shape"><path fill="#febf9c" d="M 256.15 291.4q-0.85 -2.35 -10.6 -4.15l-9.6 -1.3l-6.5 9.2l0.8 6.55q1.5 7.6 4.7 12.95q3.45 5.75 7.85 4.55q3.5 -1 5.8 -5.25q2.7 -4.95 5.2 -11.55q3.25 -8.55 2.35 -11" style=""></path></g><g token="50" transform="matrix(1,0,0,1,-6.4,7.6)" class="shape"><path fill="#febf9c" d="M 253.75 301.3l-0.55 1.2q-0.6 1.4 -0.8 2.25q-0.35 1.3 -0.25 1.65q0.1 0.6 1.25 0.4q1.2 -0.25 2.15 -2.1q0.9 -1.75 0.9 -3.4q0 -1.3 -1.35 -0.75l-1.35 0.75" style=""></path></g><g token="49" transform="matrix(1,0,0,1,-6.4,7.6)" class="shape"><path fill="#febf9c" d="M 229.2 304.55q0.65 0.8 1.1 1.05q1.55 0.7 1.55 -0.7q0 -1.65 -0.9 -3.35q-0.95 -1.85 -2.15 -2.1q-1.15 -0.25 -1.25 0.4q-0.1 0.35 0.25 1.65l0.5 1.55q0.25 0.7 0.9 1.5" style=""></path></g><g token="48" transform="matrix(1,0,0,1,-6.4,7.6)" class="shape"><path fill="#170d54" d="M 250.35 279.45l-4.8 -3.45q-1.2 -0.7 -3 -0.9q-3.6 -0.4 -6.6 1.95q-4.5 3.55 -5.7 5.1q-2.15 2.8 -2.15 7.2l-1.45 3.65q-0.65 4.25 3.3 7.1l-0.3 -3.4l1.95 -0.25q2.4 -0.7 4.55 -2.85l4 0.7q4.65 0.65 7.95 0.35q3.55 -0.3 6.15 -1.2q1.35 -0.45 1.95 -0.85l-0.6 3.45q-0.7 3.7 -1.3 4.9q0.7 -0.3 1.5 -0.95q1.6 -1.35 2.25 -3.3q0.65 -1.9 0.8 -4.3l0 -2.05q0.95 -0.75 2.05 -1.95q2.15 -2.4 2.75 -4.55q-2.55 -0.6 -5.5 -1.45q-5.9 -1.65 -7.8 -2.95" style=""></path></g><g token="47" transform="matrix(1,0,0,1,-6.4,7.6)" class="shape"><path fill="#1686f5" d="M 233.15 324.45q-1.3 -1.3 -2.4 -1.45q-1.65 -0.2 -3.7 -0.3q-4.2 -0.15 -6.4 0.45q-2.9 0.55 -3.5 0.85q-0.75 0.4 -0.15 2.2q2.1 6.05 2.95 9.55q2 8.45 0.55 13.45q-1.4 4.9 -3.45 26.9q-1.05 11 -1.8 21l33.7 1.45q5.9 0.3 11.75 -0.45q2.95 -0.35 4.7 -0.8q0.5 -4.3 0.75 -9.55q0.55 -10.55 -0.75 -15.25q-1.3 -4.7 -3.2 -12.95l-1.6 -7.3q-0.45 -4.4 -0.55 -9.35q-0.3 -9.85 1.2 -12.55q2.25 -3.25 2.6 -4q0.45 -0.85 -1.5 -1.6q-5.5 -2.1 -8.75 -2.1q-2.1 0 -2.9 0.2q-1.25 0.25 -2.2 1.25q-1.8 1.8 -3.2 2.6q-2.55 1.5 -5.1 1.1q-2.5 -0.4 -5 -1.9l-2.05 -1.45" style=""></path></g><g token="46" transform="matrix(1,0,0,1,-6.4,7.6)" class="shape"><path fill="#2832d7" d="M 221.85 327.25q-0.8 -1.8 -2.7 -2.9q-0.55 -0.3 -1.55 -0.2q-1.95 0.15 -4.05 1.95q-2.4 2.1 -4.65 6.55q-1.65 3.4 -2.85 7.35q-1.25 4.15 -2.1 8.3l2.95 1.2q3.5 1.25 6.5 1.35q4.8 0.15 7.95 0.45q2.1 -12.45 1.65 -18.05q-0.35 -4.15 -1.15 -6" style=""></path></g><g token="45" transform="matrix(1,0,0,1,-6.4,7.6)" class="shape"><path fill="#2832d7" d="M 259.4 328.95l-0.5 2.1q-0.55 2.65 -0.75 5.45q-0.3 4.45 1.45 15.8l7.35 -0.65q4.3 -0.3 9.4 -2.55q-1.3 -5.75 -2.25 -8.6q-1.35 -4.1 -2.95 -7.4q-2.75 -5.45 -5.5 -7q-2.7 -1.5 -4.75 0.55q-1 1 -1.5 2.3" style=""></path></g><g token="44" transform="matrix(1,0,0,1,-6.4,7.6)" class="shape"><path fill="#ca1130" d="M 224.15 400.55l15.9 5.15l16.9 -5.15l-32.8 0" style=""></path></g><g token="43" transform="matrix(1,0,0,1,-6.4,7.6)" class="shape"><path fill="#eb3b52" d="M 195.05 391.25q-4.15 -0.95 -7.05 -0.6q-2.25 0.3 -4.6 3.35q-2.45 3.25 -3.05 7.2q-0.5 3.4 1.55 5.8q1 1.2 2.1 1.7l6.1 1.9q21.25 5.6 77.15 16.75q1.7 0.35 2.85 -0.4q1.05 -0.7 1.45 -2q1.05 -3.65 0.8 -7q-0.1 -1.4 -2.3 -2.5l-2.2 -0.85q-8.2 -2.9 -41.3 -13.4l-31.5 -9.95" style=""></path></g><g token="42" transform="matrix(1,0,0,1,-6.4,7.6)" class="shape"><path fill="#170d54" d="M 209.55 427.5q3.7 0.3 4.8 -0.75l0.35 -1.15q-0.8 -8.6 -1.75 -9.25q-0.65 -0.4 -4.4 -0.3q-4.7 0.25 -6.95 0.3q-2.8 0.1 -7.7 0.8l-4.3 0.65q-1.2 0.2 -1.9 1.05q-0.35 0.45 -0.5 0.85l-0.2 0.95q-0.2 1.35 -0.1 3.05q0.1 1.7 1.65 2.45q0.8 0.35 1.55 0.4l7.5 0.3q8.25 0.35 11.95 0.65" style=""></path></g><g token="41" transform="matrix(1,0,0,1,-6.4,7.6)" class="shape"><path fill="#db0f28" d="M 298.7 394q-2.75 -4 -8.85 -3.1q-1.4 0.25 -15.45 4.35l-49.15 14.85q-9.15 3.2 -12.15 4.5q-2.15 0.9 -2.8 1.95q-0.45 0.7 -0.75 2.85q-0.2 1.95 0.7 4.65q0.95 2.7 2.05 3.15q0.95 0.45 8.3 -0.85q5.1 -0.9 19 -3.75q12.75 -2.6 33.15 -7.45q21.6 -5.1 25 -6.45q3.55 -1.45 3.8 -5.8q0.3 -4.35 -2.85 -8.9" style=""></path></g><g token="40" transform="matrix(1,0,0,1,-6.4,7.6)" class="shape"><path fill="#0e66b4" d="M 214.35 357.4q-1.6 0 -2.15 1q-0.3 0.45 -0.25 0.95l0 38.3q0 2.2 1.05 2.75q0.55 0.3 1.05 0.15l51.25 0q1.2 0 1.6 -1.3l0.15 -1.3l0 -37.65q0 -2 -1.2 -2.65l-1.2 -0.25l-50.3 0" style=""></path></g><g token="39" transform="matrix(1,0,0,1,-6.4,7.6)" class="shape"><path fill="#599fd2" d="M 236.75 379.3l3.1 2.45l2.45 -3.05l-3.1 -2.5l-2.45 3.1" style=""></path></g><g token="38" transform="matrix(1,0,0,1,0,324.7)" style="opacity: 0.5; visibility: visible;" class="movieclip"><g token="1" transform="matrix(0.9232,0,0,0.9236,0,0)" class="shape"><path fill="#e9e8ee" d="M 110.65 12.85q19 -2.25 19 -5.35q0 -3.1 -19 -5.3q-19 -2.2 -45.85 -2.2q-26.85 0 -45.8 2.2q-19 2.2 -19 5.3q0 3.1 19 5.35q19 2.2 45.8 2.2q26.8 0 45.85 -2.2" style=""></path></g></g><g token="37" transform="matrix(1,0,0,1,-5,2.45)" class="shape"><path fill="#2832d7" d="M 87.75 296.6q0 -6.75 -4.8 -11.55q-4.8 -4.85 -11.6 -4.85l-22.6 0q-6.75 0 -11.55 4.85q-4.85 4.8 -4.85 11.55l0 16.25q0 6.75 4.8 11.6q4.8 4.8 11.6 4.8l22.6 0q6.8 0 11.6 -4.8q4.85 -4.85 4.8 -11.6l0 -16.25" style=""></path></g><g token="36" transform="matrix(1,0,0,1,-5,2.45)" class="shape"><path fill="#2c2775" d="M 80.45 192.85q-1.9 -4.55 -5 -3.8q-3.25 1.8 -4.25 2.3q-0.95 0.4 -1.75 -0.1q-4.55 -2.6 -7.15 0.95q-1.3 1.8 -1.7 4.1q-3.35 1 -3.6 4.45q-0.15 1.75 0.4 3.25q-1.95 1.7 -1.55 4.45q0.4 3 3.55 4.3q2.85 1.15 11.8 -3.8l8.35 -5.15q2.1 -0.1 3.95 -1.4l1.45 -1.25q2.8 -4.25 0.85 -6.15q-1.2 -1.2 -4.05 -1.35q-0.95 0 -1.3 -0.8" style=""></path></g><g token="35" transform="matrix(1,0,0,1,-5,2.45)" class="shape"><path fill="#febf9f" d="M 78.95 209.55q0.55 -3.9 0.55 -4q0.8 -4.65 -3.05 -5.1q-4.05 0.45 -4.15 0.45l-2.15 1.4q-0.2 0.2 -0.4 -0.05l-0.15 -0.2q-0.7 -0.85 -1.6 -0.75l-0.75 0.3q-1.8 1.35 -0.3 3.5q0.7 0.85 0.35 2.05q-0.75 2.4 -2.4 4.25q-0.8 1 -3 1.25q-2.05 0 -2.2 0l-3.8 2.8l-0.1 0.05l-0.25 0.05l-0.75 3q-0.15 1.7 6 2.8q2.7 0.45 7.1 0.8l0.05 -0.1l-1.9 -2.7q-0.4 -0.6 0 -1.65q0.1 -0.35 0.7 -1.35l0.25 -0.45q0.85 -2.05 3.1 0q2.45 2.2 4.15 0.5l0.2 -0.2q3.3 -2.4 4.5 -6.65" style=""></path></g><g token="34" transform="matrix(1,0,0,1,-5,2.45)" class="shape"><path fill="#db0f28" d="M 55.55 215.6q-1.9 0.9 -5.25 5.8q-1.7 2.45 -3 4.75q-2.2 3.9 -4.15 20.6q-1 8.35 -1.55 15.9q29.55 0.25 30.05 -1q0.35 -0.85 0.2 -11.45q-0.15 -10.15 -0.55 -16.75q-0.3 -5.2 -2.15 -9.2l-1.8 -2.95q-3.9 -0.35 -8.25 -3.05l-3.55 -2.65" style=""></path></g><g token="33" transform="matrix(1,0,0,1,-5,2.45)" class="shape"><path fill="#febf9f" d="M 86.6 257.15q-2.8 0.35 -4.35 0.45q-1.6 0.1 -3.3 -0.2q-1.45 -0.4 -1.7 -0.4l-13.6 -3.05q-0.4 -0.15 -0.9 -0.6q-0.9 -0.95 -1.1 -2.45q-0.2 -1.55 -0.3 -7.4l-0.05 -5.6l-8.4 0.2l0.4 6.1q0.5 6.55 1.1 9.1q0.85 3.5 1.65 4.55q1.15 1.55 4.05 1.95q3.4 0.5 9.5 0.9q6.4 0.45 7.95 0.15q2.2 -0.45 9.25 1.4l1.1 0.15q1.15 -0.05 1.25 -0.95q0.1 -0.95 1.35 -0.55q1.15 0.35 1.35 0.95q0.15 0.6 0.75 0.75q0.65 0.1 0.9 -0.95q0.75 -3.5 -2.65 -4.3q-1.8 -0.4 -4.25 -0.2" style=""></path></g><g token="32" transform="matrix(1,0,0,1,-5,2.45)" class="shape"><path fill="#eb3b52" d="M 54.5 225.3q-2.95 3.55 -2.95 14l10.7 0q0.3 -15.4 -4.8 -15.4q-0.4 -0.1 -0.95 0.05q-1.1 0.25 -2 1.35" style=""></path></g><g token="31" transform="matrix(1,0,0,1,-5,2.45)" class="shape"><path fill="#0842ad" d="M 101.9 277.5l-6.55 17.25l5.85 25.6l6.9 0.2q-2.25 -15.05 -2.7 -19.7q-0.25 -2.95 -1.9 -13.45l-1.6 -9.9" style=""></path></g><g token="30" transform="matrix(1,0,0,1,-5,2.45)" class="shape"><path fill="#1068de" d="M 99.05 266.15q-3.15 -0.35 -12.7 -2.1q-9 -1.7 -9.3 -1.75l-0.05 0l-5.3 -0.6l-29.95 -1q-0.25 2.05 -0.3 7.4q-0.1 7.15 0.65 9.2q0.85 2.1 3.1 3.05q2.05 0.9 6.15 1.2q2.85 0.25 16.1 -0.3q9.65 -0.4 18.05 -0.9q0.65 -0.05 1.1 0.6q0.45 0.7 0.2 1.5l-10.25 36.45l6.05 3.25q13.95 -25.55 16.1 -31.65q1.8 -4.95 3.4 -10.9q1.75 -6.45 1.65 -8.2q0.15 -1.15 -0.4 -2.4q-1.05 -2.45 -4.3 -2.85" style=""></path></g><g token="29" transform="matrix(1,0,0,1,-5,2.45)" class="shape"><path fill="#0e66b4" d="M 115.1 243.35q-0.45 0.35 -0.8 0.85l-12.2 19.4q-0.5 0.75 -1.15 0.9l-0.55 0.05l-22.9 -3.6q-0.6 -0.1 -1.2 0.1q-0.8 0.25 -0.8 1q0.05 0.95 2.2 1.25l22.45 3.25l0.1 0q0.65 0.2 1.4 0q1.3 -0.35 2.1 -1.65q2.2 -3.75 12.5 -19.15l0.15 -0.2q0.85 -1.05 0.1 -2.15q-0.55 -0.75 -1.4 -0.05" style=""></path></g><g token="28" transform="matrix(1,0,0,1,-5,2.45)" class="shape"><path fill="#2b2675" d="M 76.5 318.9l-2.7 3.45q-0.85 1.2 -0.3 2.4l12.75 9.55q1 0.85 2.1 1q0.25 0.1 0.45 -0.2q0.95 -1.45 -0.85 -3q-1.35 -1.1 -3.5 -5.65l-1.9 -4.3l-6.05 -3.25" style=""></path></g><g token="27" transform="matrix(1,0,0,1,-5,2.45)" class="shape"><path fill="#2b2675" d="M 101.15 320.3l-0.1 0.1q-0.6 2.9 -0.8 4.8q-0.2 1.35 0.6 1.75l0.15 0.1l18.5 2.4l0.05 -0.05l0 -0.5l-0.05 -0.2l-0.15 -0.15l-0.2 -0.25l-0.3 -0.3l-1.95 -1q-1.85 -0.7 -5.45 -3.65q-3.3 -2.85 -3.5 -3.05l-6.8 0" style=""></path></g><g token="26" transform="matrix(1,0,0,1,347.25,377.75)" style="opacity: 0.5; visibility: visible;" class="movieclip"><g token="1" transform="matrix(1,0,0,1,0,0)" class="shape"><path fill="#e9e8ee" d="M 110.65 12.85q19 -2.25 19 -5.35q0 -3.1 -19 -5.3q-19 -2.2 -45.85 -2.2q-26.85 0 -45.8 2.2q-19 2.2 -19 5.3q0 3.1 19 5.35q19 2.2 45.8 2.2q26.8 0 45.85 -2.2" style=""></path></g></g><g token="25" transform="matrix(1,0,0,1,-12.4,8.15)" class="shape"><path fill="#febf9c" d="M 423.2 304.75l19.5 -7.5l-2.35 -3.45l-17.15 10.95" style=""></path></g><g token="24" transform="matrix(1,0,0,1,-12.4,8.15)" class="shape"><path fill="#09419e" d="M 445.6 323.35q7.75 -0.15 13.55 -0.9q5.2 -0.7 -2.3 -1.55l-8.55 -0.7q-3.15 0.2 -9.2 1.35q-6.5 1.25 -3.8 1.55q3.45 0.4 10.3 0.25" style=""></path></g><g token="23" transform="matrix(1,0,0,1,-12.4,8.15)" class="shape"><path fill="#1068de" d="M 401.8 312.95q-2.35 2.55 -2.55 5.75l-2 51.2l6.6 0l6.3 -50.95l8.1 -4.65l20.7 -10.55l5.75 -3.75l-5.35 -1.9l-35.25 12.95q-1.1 0.65 -2.3 1.9" style=""></path></g><g token="22" transform="matrix(1,0,0,1,-12.4,8.15)" class="shape"><path fill="#0842ad" d="M 458.95 300.75q-0.15 -0.65 -1 -0.15q-1.15 0.7 -1.65 0.7l-11.45 -1.7q-0.4 -0.05 -2.8 1.3l-31.7 16.2q-4.4 2.15 -4.9 6.55q-0.3 2.55 0.65 5l0.15 0.4l21.15 37.9q1.5 2.65 2.1 3.45q1.6 2.25 2.5 1.7l3.15 -3.1q0.7 -0.45 0.05 -2.5q-0.9 -2.3 -1.15 -2.95l-13.05 -36.05q-0.5 -1.4 0.25 -2q0.5 -0.35 1.25 -0.35l32.75 -5.1l0.8 -0.25q3.85 -1.85 4.1 -9.05q0.2 -5.15 -1.2 -10" style=""></path></g><g token="21" transform="matrix(1,0,0,1,-12.4,8.15)" class="shape"><path fill="#0e66b4" d="M 410.3 288.7q2.15 -0.1 2.75 -2.6q0.1 -0.35 0 -0.75l-2.55 -17.7q-0.2 -1.7 -0.8 -2.8q-0.8 -1.45 -2.55 -1.45l-29.7 0.1q-2.4 0 -3 1.75q-0.2 0.5 -0.1 1.2l2.75 19.05l0 0.05q0.5 2.5 2.1 2.8l13.7 0.1q0.5 0 0.5 0.55l0 4.95q0 0.5 -0.45 0.5l-7.05 0q-0.85 0 -1 1q-0.1 0.6 0 1.2l0 0.05q0.1 0.45 0.5 0.45l19.9 -0.15q0.05 0.35 0.05 -1.15q0 -0.9 -0.85 -1.1l-0.1 -0.05l-7.55 -0.05q-0.55 0 -0.55 -0.55l0.05 -5.2q0 -0.6 0.55 -0.5q1.15 0.05 6.7 0.2q5.3 0.15 6.7 0.1" style=""></path></g><g token="20" transform="matrix(1,0,0,1,-12.4,8.15)" class="shape"><path fill="#170d54" d="M 470.25 266.6q-3 -1 -4.1 -2.4q-0.7 -0.9 -1.8 -3.7l-0.9 -2.6q-1.45 -4.45 -4.7 -5.1l-2.95 0.3q-0.8 0.15 -1.65 0.45q-1.65 0.6 -1.65 1.35q0 0.7 2 3.55q0.95 1.45 1.95 2.7l5.1 3.4l2.25 5.7l-0.6 7.6q-0.7 8 -1.1 9.85q-0.4 1.85 1.8 1.9q1.3 0.05 4.5 -0.3q2.3 -0.05 2.55 -2.15q0 -0.6 -0.25 -0.9q-1.1 -1.55 0.15 -3.7q1.8 -3 2.05 -10.4q0.1 -2.6 -1.25 -4.35l-1.4 -1.2" style=""></path></g><g token="19" transform="matrix(1,0,0,1,-12.4,8.15)" class="shape"><path fill="#febf9c" d="M 447.75 244.35l-1.95 -2.4l-3.6 1.05l-8.55 -0.15l0.7 5.7q1.15 6.15 3.5 8.7l2.45 0.3q2.6 0.2 3.65 -0.5l1 -0.5q0.95 -0.1 0.95 1.75q0 3 0.3 6.5l1.3 0.95q1.95 0.65 5.15 -0.75q2.8 -1.55 3.85 -3.75l-4.3 -8l-4.25 -2.15l-0.2 -6.75" style=""></path></g><g token="18" transform="matrix(1,0,0,1,-12.4,8.15)" class="shape"><path fill="#170d54" d="M 457.2 245.45q-0.5 -5.05 -4.6 -10.6q-3.85 -5.2 -10.4 -3.15q-2.1 0.7 -4.15 2l-1.65 1.15q-0.8 -0.55 -2.1 -0.25l-1.1 0.4q-1.85 1.25 -2.9 4.4q-1.2 3.5 0.2 5.6q1.95 3.1 2.55 -0.8q-0.05 -0.65 0.45 -1.15q0.6 -0.55 1.55 0.5q1.05 1.15 3.45 1.3q2.25 0.1 5.3 -0.75q2.45 -0.7 2.65 1.35q0.1 1 -0.3 2.15q-0.5 2.1 0.3 3.15q2.6 3.85 6.3 2.5q1.85 -0.65 3.2 -2.1q1.65 -1.75 1.25 -5.7" style=""></path></g><g token="17" transform="matrix(1,0,0,1,-12.4,8.15)" class="shape"><path fill="#e8505c" d="M 455.5 251.25l-3.2 1.8q-0.1 0.4 0.3 1.25q0.2 0.4 0.4 0.75q0.6 -0.1 2.9 -1.8q0.1 -0.35 -0.4 -2" style=""></path></g><g token="16" transform="matrix(1,0,0,1,-12.4,8.15)" class="shape"><path fill="#fabd4f" d="M 440.75 267.45l-2.7 4q-1.4 2.15 -0.6 4.55q0.5 1.5 1.75 2.85q0.4 0.5 0.4 1.05q-0.2 2.6 -1.15 11.45q0 0.7 -0.35 3.35q-0.35 2.7 -0.65 4.2l21.9 3.35q1.65 -6.6 3.25 -15.45q2.3 -12.75 1.85 -17.8q-0.45 -5.25 -3.85 -7.05q-1.85 -1 -4 -0.8l-0.25 0q-4.4 4.3 -7.85 3.1q-1.1 -0.4 -1.95 -1.25l-0.65 -0.8q-2.05 1 -5.15 5.25" style=""></path></g><g token="15" transform="matrix(1,0,0,1,-12.4,8.15)" class="shape"><path fill="#febf9c" d="M 429.4 284.65q-3.8 -0.9 -5.85 0.05l-1.35 1.1q-0.25 0.9 0.5 2.05q0.75 1.2 0.8 0.55q0.15 -1.85 1.05 -1.5l4.75 1.75l21.7 5.45q3.75 1 4.45 -1.7l0.25 -0.7l3.75 -7.7q0.25 -0.6 0.1 -1.1l-0.15 -0.65q-0.15 -0.8 -0.9 -1.1l-3.5 -1.55q-0.7 -0.3 -1.35 0q-0.7 0.3 -0.9 1.05l-2.65 6.05q-0.45 1.35 -2.05 1.55q-1 0.1 -1.8 -0.2l-0.15 0l-16.7 -3.4" style=""></path></g><g token="14" transform="matrix(1,0,0,1,-12.4,8.15)" class="shape"><path fill="#f59e28" d="M 463.5 265.3q-0.25 -0.85 -0.8 -1.25q-2.3 -1.7 -4.6 1.25l-1.8 3.25q-1.8 4.9 -3.55 12.1q2.05 0.1 4.65 1.45q1.35 0.7 2.25 1.35q0.75 -1.4 2.25 -7.35q1.1 -4.45 1.65 -7.2q0.4 -1.75 -0.05 -3.6" style=""></path></g><g token="13" transform="matrix(1,0,0,1,-12.4,8.15)" class="shape"><path fill="#170d54" d="M 403.9 369.9l-6.65 0q-1.95 1.95 -5.5 3.6l-3.15 1.25q-1.55 0.5 -1.1 1.15q0.25 0.35 0.75 0.55l12.55 0q2.2 0 2.95 -0.4q0.4 -0.25 0.35 -0.45l-0.2 -5.7" style=""></path></g><g token="12" transform="matrix(1,0,0,1,-12.4,8.15)" class="shape"><path fill="#e8505c" d="M 428.25 293.75l0.05 -3.25q0 -0.9 -0.6 -1.3l-0.65 -0.25q-4.5 -0.25 -6.15 -0.15q-1.05 0.1 -1.3 0.65q-0.1 0.3 0 0.55l0 3.85l8.65 -0.1" style=""></path></g><g token="11" transform="matrix(1,0,0,1,-12.4,8.15)" class="shape"><path fill="#000235" d="M 418.35 293.6q-1.25 0 -1.7 0.4q-0.4 0.4 -0.5 1.45q-0.05 1.3 1.75 1.6l11 0.1q1.25 -0.05 1.75 -0.5q0.6 -0.55 0.4 -1.8q-0.15 -1.05 -1.8 -1.3l-10.9 0.05" style=""></path></g><g token="10" transform="matrix(1,0,0,1,-12.4,8.15)" class="shape"><path fill="#09419e" d="M 372.1 297.1q-0.95 0.55 -0.75 1.65q0.1 0.9 0.7 1.5q0.8 0.7 1.8 0.7l55.65 0q1.65 0 2.45 -0.45q0.85 -0.5 0.85 -1.7q0 -0.9 -0.95 -1.4q-0.7 -0.35 -1.45 -0.35l-57 -0.3q-0.8 0 -1.3 0.35" style=""></path></g><g token="9" transform="matrix(1,0,0,1,-12.4,8.15)" class="shape"><path fill="#09419e" d="M 394.75 300.8l-3.8 0l-15.9 13.95q-0.7 0.65 -1.45 2q-1.45 2.7 -1.55 6.4l-1.05 53.65l0.5 1.35q1.15 1.35 4.45 1.35l34.2 0l0.7 -0.2q0.7 -0.4 0.8 -1.45q0.1 -1.1 -0.65 -1.35q-0.35 -0.15 -1.6 -0.15l-34.95 0.15l0.3 -52.65q-0.2 -1.1 0.35 -2.9q1.15 -3.55 5.2 -6.85l14.45 -13.3" style=""></path></g><g token="8" transform="matrix(1,0,0,1,-12.4,8.15)" class="shape"><path fill="#09419e" d="M 443.8 372.85q-0.9 -0.15 -2.35 -0.05q-2.95 0.25 -5.75 1.6q-2.8 1.4 -2 2.2q0.4 0.4 1.35 0.5l12.6 0.2q5.65 0.2 7.5 -0.55q1.7 -0.65 0.6 -2.1q-0.85 -1.15 -5 -1.7l-4 -0.35l-0.05 -49.3l-2.45 0.05l-0.45 49.5" style=""></path></g><g token="7" transform="matrix(1,0,0,1,-12.4,8.15)" class="shape"><path fill="#180c54" d="M 434.8 365.65l-5.95 3.95l-5.05 9.75q-0.2 1.2 0.55 1.45q0.4 0.1 0.8 0l11.45 -9.1q1.65 -1.2 0.1 -3.75l-1.9 -2.3" style=""></path></g><g token="6" transform="matrix(1,0,0,1,-18.4,0.35)" class="shape"><path fill="#b2e6fe" d="M 220.75 83.5q-5.65 0 -9.65 4q-4 4.05 -4 9.7l0 6.95q0 5.65 4 9.65q4 4 9.65 4l68.55 0q5.65 0 9.65 -4q4 -4 4 -9.65l0 -20.65l-82.2 0" style=""></path></g><g token="5" transform="matrix(1,0,0,1,-18.4,0.35)" class="shape"><path fill="#0e66b4" d="M 225.2 89.05q-4.8 0 -8.2 3.4q-3.4 3.4 -3.4 8.2q0 4.85 3.4 8.25q3.4 3.4 8.2 3.4q4.85 0 8.25 -3.4q3.4 -3.4 3.4 -8.25q0 -4.8 -3.4 -8.2q-3.4 -3.4 -8.25 -3.4" style=""></path></g><g token="4" transform="matrix(1,0,0,1,194.2,89.4)" style="opacity: 1; visibility: visible;" class="movieclip"><g token="1" transform="matrix(1,0,0,1,0,0)" class="shape" style="visibility: hidden;"><path fill="#ff0000" d="M 12.6 0q-4.8 0 -8.2 3.4q-3.4 3.4 -3.4 8.2q0 4.85 3.4 8.25q3.4 3.4 8.2 3.4q4.85 0 8.25 -3.4q3.4 -3.4 3.4 -8.25q0 -4.8 -3.4 -8.2q-3.4 -3.4 -8.25 -3.4" style=""></path></g><g mask="url('#maskSla6sv2iq2bcz2')" class="maskGroup"><g token="13" transform="matrix(1,0,0,1,0,0)" class="shape"><path fill="#febf9c" d="M 23.75 25l-5.45 0.3l0 1.5l2.55 12.9q2.1 -0.7 3.35 -1.45q0.85 -0.55 1 -1.65q0.05 -0.5 -0.05 -2.45q-0.05 -1.2 -0.75 -5.3l-0.65 -3.85" style=""></path></g><g token="12" transform="matrix(1,0,0,1,0,0)" class="shape"><path fill="#febf9c" d="M 6.8 24.6l-5.15 0l-1.6 10.5q-0.15 2.05 1.2 3q1.35 0.95 2.8 1.5l2.75 -15" style=""></path></g><g token="11" transform="matrix(1,0,0,1,0,0)" class="shape"><path fill="#fdb082" d="M 13.8 12.3l-0.25 -0.35l-2 2.3q0 1.5 -0.65 2.15q-0.65 0.65 -1.5 1.7l1.15 1.15q1.5 1.1 3.35 0.9q1.9 -0.2 2.9 -1.35q0.5 -0.55 0.65 -1.1q-0.7 -0.1 -1.45 -0.55q-1.5 -0.85 -1.7 -2.5q-0.2 -1.7 -0.5 -2.35" style=""></path></g><g token="10" transform="matrix(1,0,0,1,0,0)" class="shape"><path fill="#f5a528" d="M 5.5 17.35q-0.25 0.15 -0.05 0.7q1.75 4.95 1.1 7.2q-0.7 2.45 -1.65 15.05l10.55 0.45q2.95 0.15 5.15 -0.4q0.65 -5.45 0 -7.8l-1.5 -6.35q-0.55 -5.5 0.2 -6.85q0.7 -1 0.8 -1.25q0.15 -0.3 -0.45 -0.5q-1.75 -0.65 -2.75 -0.65q-1.15 0 -1.6 0.45q-1.35 1.35 -2.6 1.15q-0.8 -0.1 -1.55 -0.6l-0.65 -0.45q-0.4 -0.45 -0.75 -0.5q-2.05 -0.25 -3.15 0.1q-0.9 0.2 -1.1 0.25" style=""></path></g><g token="9" transform="matrix(1,0,0,1,0,0)" class="shape"><path fill="#070707" d="M 6.1 17.45q-0.15 -0.1 -0.5 -0.05q-0.6 0.05 -1.25 0.6q-1.35 1.1 -2.35 4.35q-0.4 1.3 -0.65 2.6q1.45 0.75 2.95 0.8q1.5 0.05 2.5 0.15q0.65 -3.9 0.5 -5.65q-0.1 -1.3 -0.35 -1.9q-0.25 -0.55 -0.85 -0.9" style=""></path></g><g token="8" transform="matrix(1,0,0,1,0,0)" class="shape"><path fill="#070707" d="M 23.35 22.5q-1.25 -3.7 -2.65 -4.5q-0.85 -0.45 -1.5 0.15q-0.3 0.35 -0.45 0.75l-0.15 0.65q-0.2 0.85 -0.25 1.7q-0.1 1.4 0.45 4.95l2.3 -0.2q1.35 -0.1 2.95 -0.8q-0.4 -1.8 -0.7 -2.7" style=""></path></g><g token="7" transform="matrix(1,0,0,1,0,0)" class="shape"><path fill="#febf9c" d="M 17.3 11.35q-0.15 -0.45 -0.4 -0.45q-0.05 1 -0.25 1.95q0.8 -0.95 0.65 -1.5" style=""></path></g><g token="6" transform="matrix(1,0,0,1,0,0)" class="shape"><path fill="#febf9c" d="M 16.9 10.95q0.25 -1.65 0.15 -3.6q-0.1 -1.8 -2.05 -2.5l-1.9 -0.4q-0.95 0 -1.95 0.4q-1.95 0.7 -2 2.5q-0.1 1.35 0.1 3.6l0.25 1.95l0.15 0.65l0.45 0.8q0.95 1.2 1.45 1.45q0.6 0.35 1.55 0.35q0.9 0 1.5 -0.35q0.6 -0.35 1.45 -1.45l0.45 -0.75l0.15 -0.7q0.2 -0.95 0.25 -1.95" style=""></path></g><g token="5" transform="matrix(1,0,0,1,0,0)" class="shape"><path fill="#febf9c" d="M 9.25 10.9l-0.4 0.45q-0.1 0.25 0.2 0.8q0.2 0.45 0.45 0.7q-0.2 -0.95 -0.25 -1.95" style=""></path></g><g token="4" transform="matrix(1,0,0,1,0,0)" class="shape"><path fill="#51331f" d="M 16.8 5.05q-0.35 -0.45 -0.5 -0.75q-0.3 -0.6 0.1 -0.8q-0.2 -0.25 -0.5 -0.05q-0.25 0.15 -0.35 0.45l-0.15 0.45q-0.15 -0.95 -0.15 -1q-0.15 -0.45 -0.65 -0.75q-0.7 -0.35 -1.8 0.25q-1.35 0.75 -1.75 0.75q-0.7 0.05 -1.05 0.05q-0.6 -0.1 -0.75 -0.6l-0.25 0.3l-0.05 0.45q0.1 0.65 0.5 0.7q-0.6 -0.05 -0.75 -0.35q-0.05 0.15 0.15 0.55q-0.15 0 -0.4 -0.2q-0.2 -0.2 -0.25 -0.35q-0.25 0.35 0.05 0.85q0.7 0.6 0.7 0.55q-0.1 0.75 -0.65 2.2q-0.1 1 -0.1 1.2l0.35 1.5q0.15 0.55 0.6 1.2l0.2 -0.7q0.1 -0.35 0.1 -1.2q-0.05 -0.85 0.1 -1.25q0.4 -1.5 2.35 -1.15q1.1 0.25 2.05 -0.35q0.6 -0.35 0.9 -0.65q0.25 -0.35 0.35 -0.4q0.05 0.15 0.05 0.45q0 0.25 0.15 0.45q0.6 0.75 0.85 1.9q0.1 0.4 0.35 2.1l0.25 0.8q0.4 -0.5 0.65 -2q0.35 -1 0.15 -2.3q-0.1 -1.4 -0.85 -2.3" style=""></path></g><g token="3" transform="matrix(1,0,0,1,0,0)" class="shape"><path fill="#51331f" d="M 8.75 13.55q0 0.25 0.3 0.35q0.1 0.75 1.65 2.85q0.05 0.15 0.55 0.5q0.45 0.3 0.75 0.45q0.45 0.25 1 0.25q0.65 0 1.05 -0.25q1.1 -0.55 1.25 -0.95q1.6 -2.1 1.65 -2.85q0.3 -0.05 0.3 -0.35l-0.3 0.15q-0.1 -0.6 -0.1 -1.95q-0.1 0.75 -0.75 1.1q-0.55 0.45 -1 0.3l-0.4 -0.3q-0.75 -0.45 -1.1 -0.35q-0.55 0 -0.55 0.35l-0.1 0q0 -0.35 -0.5 -0.35q-0.4 -0.1 -1.15 0.35l-0.35 0.3q-0.45 0.15 -1 -0.3q-0.65 -0.45 -0.75 -1.1l-0.1 1.95l-0.35 -0.15M 14.45 13.6l0.45 0.25q-0.7 0.35 -1.05 0.2l-0.05 -0.05q-0.15 -0.1 -0.35 -0.05q-0.35 0.05 -0.4 0.05l-0.1 0l-0.35 -0.05q-0.25 -0.05 -0.4 0.05l0 0.05q-0.3 0.15 -1.1 -0.2l0.45 -0.25q0.6 -0.3 0.95 -0.3l0.45 -0.05l0.1 0l0.45 0.05q0.35 0 0.95 0.3" style=""></path></g><g token="2" transform="matrix(1,0,0,1,0,0)" class="shape"><path fill="#6a4734" d="M 9 13.9l0.4 0.1q0.6 0.15 1.15 0.1l1 -0.5q0.45 -0.3 0.95 -0.35l0.95 0q0.45 0 0.95 0.35l1 0.5q0.55 0.05 1.15 -0.1l0.4 -0.1q0.3 -0.2 0.3 -0.35l-0.3 0.1q-0.35 0.05 -0.85 -0.1q-0.5 -0.1 -0.85 -0.35l-0.2 -0.1l-0.35 -0.25q-0.65 -0.45 -1.1 -0.4q-0.55 0 -0.55 0.35l-0.1 0q0 -0.35 -0.55 -0.35q-0.45 -0.05 -1.1 0.4l-0.4 0.25q-0.1 0.1 -0.15 0.1q-0.35 0.25 -0.85 0.35q-0.5 0.15 -0.85 0.1l-0.35 -0.1q0 0.15 0.3 0.35" style=""></path></g></g></g><g token="3" transform="matrix(1,0,0,1,-18.4,-8.05)" class="shape"><path fill="rgba(0,0,0,0)" d="M 292.6 103.7l-47.55 0q-1.1 0 -1.95 -0.8q-0.8 -0.8 -0.8 -1.95l0 -0.6q0 -1.1 0.8 -1.95q0.85 -0.8 1.95 -0.8l47.55 0q1.15 0 1.95 0.8q0.8 0.85 0.8 1.95l0 0.6q0 1.15 -0.8 1.95q-0.8 0.8 -1.95 0.8" stroke="#0e66b4" style="stroke-width: 1;"></path></g><g token="2" transform="matrix(1,0,0,1,-18.4,0.35)" class="shape"><path fill="rgba(0,0,0,0)" d="M 292.6 103.7l-47.55 0q-1.1 0 -1.95 -0.8q-0.8 -0.8 -0.8 -1.95l0 -0.6q0 -1.1 0.8 -1.95q0.85 -0.8 1.95 -0.8l47.55 0q1.15 0 1.95 0.8q0.8 0.85 0.8 1.95l0 0.6q0 1.15 -0.8 1.95q-0.8 0.8 -1.95 0.8" stroke="#0e66b4" style="stroke-width: 1;"></path></g><g token="1" transform="matrix(1,0,0,1,-18.4,0.35)" class="shape"><path fill="rgba(0,0,0,0)" d="M 292.6 112.1l-47.55 0q-1.15 0 -1.95 -0.8q-0.8 -0.8 -0.8 -1.95l0 -0.6q0 -1.1 0.8 -1.9q0.8 -0.8 1.95 -0.8l47.55 0q1.15 0 1.95 0.8q0.8 0.8 0.8 1.9l0 0.6q0 1.15 -0.8 1.95q-0.8 0.8 -1.95 0.8" stroke="#0e66b4" style="stroke-width: 1;"></path></g></g><defs><mask mask-type="alpha" id="maskSla6sv2iq2bcum"><g token="1" transform="matrix(0.6301,0,0,0.628,-0.15,0)" class="shape" style="visibility: visible;"><path fill="#ff0000" d="M 12.6 0q-4.8 0 -8.2 3.4q-3.4 3.4 -3.4 8.2q0 4.85 3.4 8.25q3.4 3.4 8.2 3.4q4.85 0 8.25 -3.4q3.4 -3.4 3.4 -8.25q0 -4.8 -3.4 -8.2q-3.4 -3.4 -8.25 -3.4" style=""></path></g></mask><mask mask-type="alpha" id="maskSla6sv2iq2bcz2"><g token="1" transform="matrix(1,0,0,1,0,0)" class="shape" style="visibility: visible;"><path fill="#ff0000" d="M 12.6 0q-4.8 0 -8.2 3.4q-3.4 3.4 -3.4 8.2q0 4.85 3.4 8.25q3.4 3.4 8.2 3.4q4.85 0 8.25 -3.4q3.4 -3.4 3.4 -8.25q0 -4.8 -3.4 -8.2q-3.4 -3.4 -8.25 -3.4" style=""></path></g></mask><mask mask-type="alpha" id="maskSla6sv2iq2bcz8"><g token="1" transform="matrix(0.5548,0,0,0.5548,0,0)" class="shape" style="visibility: visible;"><path fill="#ff0000" d="M 12.6 0q-4.8 0 -8.2 3.4q-3.4 3.4 -3.4 8.2q0 4.85 3.4 8.25q3.4 3.4 8.2 3.4q4.85 0 8.25 -3.4q3.4 -3.4 3.4 -8.25q0 -4.8 -3.4 -8.2q-3.4 -3.4 -8.25 -3.4" style=""></path></g></mask><mask mask-type="alpha" id="maskSla6sv2iq2bcze"><g token="1" transform="matrix(0.4366,0,0,0.4344,-0.05,0)" class="shape" style="visibility: visible;"><path fill="#ff0000" d="M 12.6 0q-4.8 0 -8.2 3.4q-3.4 3.4 -3.4 8.2q0 4.85 3.4 8.25q3.4 3.4 8.2 3.4q4.85 0 8.25 -3.4q3.4 -3.4 3.4 -8.25q0 -4.8 -3.4 -8.2q-3.4 -3.4 -8.25 -3.4" style=""></path></g></mask></defs></svg>