<svg version="1.1" id="Livello_1" xmlns="http://www.w3.org/2000/svg"
xmlns:xlink="http://www.w3.org/1999/xlink" x="0px" y="0px"
viewBox="0 0 230 230" style="enable-background:new 0 0 230 230;"
xml:space="preserve">

<path class="st0" d="M71.3,19.3l3.8-1.8l2,4.2c-0.3,0.7-0.7,1.4-1.3,1.9c-0.6,0.6-1.3,1.1-2,1.4c-0.8,0.4-1.5,0.6-2.2,0.6
s-1.4-0.1-2-0.4S68.5,24.5,68,24c-0.5-0.6-0.9-1.2-1.3-2s-0.6-1.6-0.7-2.3c-0.1-0.7,0-1.4,0.1-2.1c0.2-0.6,0.5-1.2,1-1.7
c0.5-0.5,1-0.9,1.7-1.2c0.6-0.3,1.2-0.5,1.8-0.5c0.5-0.1,1,0,1.5,0.1s0.9,0.3,1.2,0.6c0.4,0.3,0.7,0.6,1,1l-1.9,1.2
c-0.2-0.2-0.3-0.4-0.5-0.6s-0.4-0.3-0.6-0.3c-0.2-0.1-0.4-0.1-0.7,0c-0.3,0-0.5,0.1-0.9,0.3c-0.8,0.4-1.3,1-1.4,1.7
c-0.1,0.8,0.1,1.7,0.6,2.8c0.5,1.1,1.1,1.9,1.8,2.3c0.7,0.4,1.5,0.4,2.4,0c0.4-0.2,0.8-0.4,1.1-0.7s0.5-0.5,0.7-0.8L74,20.2
L72.1,21L71.3,19.3z"></path>
<path class="st0" d="M79.3,10.7l7.1-2.2l0.6,1.9l-5,1.5l0.7,2.3l4.7-1.4l0.6,1.9l-4.7,1.4l0.8,2.6l5.3-1.6l0.4,1.9l-7.2,2.2
L79.3,10.7z"></path>
<path class="st0"
    d="M93.1,6.9l2-0.3l5.6,6.4l-1.1-7.1l2.2-0.4l1.7,10.8l-2,0.3l-5.6-6.3l1.1,7l-2.2,0.4L93.1,6.9z">
</path>
<path class="st0"
    d="M108.9,4.9l7.5-0.2v2l-5.2,0.1l0.1,2.4l4.9-0.1v2l-4.9,0.1l0.1,2.7l5.5-0.1l-0.2,2l-7.6,0.2L108.9,4.9z">
</path>
<path class="st0"
    d="M123.1,5.1l3.9,0.4c0.9,0.1,1.5,0.3,2.1,0.5c0.5,0.3,0.9,0.6,1.2,0.9c0.3,0.4,0.5,0.7,0.5,1.1
c0.1,0.4,0.1,0.8,0.1,1.2c-0.1,0.7-0.3,1.3-0.6,1.7c-0.3,0.5-0.8,0.8-1.4,1.1l1.7,4.9l-2.5-0.3l-1.4-4.3l-2.1-0.2l-0.5,4.1
l-2.2-0.2L123.1,5.1z M126.6,10.4c0.4,0,0.7,0,0.9,0c0.2-0.1,0.4-0.1,0.6-0.3c0.2-0.1,0.3-0.3,0.3-0.5c0.1-0.2,0.1-0.4,0.1-0.6
c0-0.2,0-0.4,0-0.6c0-0.2-0.1-0.4-0.3-0.5s-0.3-0.3-0.6-0.4c-0.3-0.1-0.6-0.2-1-0.2L125,7.1l-0.3,3L126.6,10.4z">
</path>
<path class="st0" d="M141.2,8l2.1,0.5l1.3,11.6l-2.4-0.6l-0.2-2.7l-3.7-0.9l-1.5,2.2l-2.3-0.6L141.2,8z M141.9,14.9l-0.3-4.1
l-2.2,3.5L141.9,14.9z"></path>
<path class="st0"
    d="M153,11.6l2.1,0.9l-3.4,8.3l4.8,1.9l-1,1.7l-6.7-2.7L153,11.6z"></path>
<path class="st0" d="M172.2,20.7l2.3,1.5l-2.3,8.3l6.9-5.2l2.2,1.5l-6.1,9.1l-1.7-1.2l4.1-6l-6.2,4.6l-1.5-1l2-7.4l-4.1,6l-1.7-1.2
L172.2,20.7z"></path>
<path class="st0" d="M189.2,33.6l1.6,1.5l-4.4,10.8l-1.8-1.7l1.1-2.4l-2.8-2.6l-2.4,1.3l-1.7-1.6L189.2,33.6z M186.5,40l1.7-3.8
l-3.6,2L186.5,40z"></path>
<path class="st0"
    d="M198,42.4l1.3,1.6l-2.8,8l5.6-4.5l1.4,1.7l-8.5,6.9l-1.3-1.6l2.7-8l-5.5,4.5l-1.4-1.7L198,42.4z">
</path>
<path class="st0" d="M209.2,57.9l1.1,1.9l-7.3,9.1l-1.2-2.1l1.7-2l-2-3.3l-2.6,0.5l-1.2-2L209.2,57.9z M204.8,63.2l2.7-3.1
l-4.1,0.9L204.8,63.2z"></path>
<path class="st0" d="M212.2,74.8l1.6,3.9l-4.3,1.8c-0.7-0.3-1.3-0.8-1.9-1.4c-0.6-0.6-1-1.3-1.3-2.1c-0.3-0.8-0.5-1.6-0.5-2.3
c0-0.7,0.2-1.4,0.4-1.9c0.3-0.6,0.7-1.1,1.3-1.6s1.3-0.9,2-1.2c0.8-0.3,1.6-0.5,2.3-0.6s1.4,0,2.1,0.2c0.6,0.2,1.2,0.5,1.7,1
s0.9,1.1,1.2,1.8c0.3,0.7,0.4,1.2,0.5,1.8c0,0.5,0,1-0.2,1.5c-0.1,0.4-0.4,0.8-0.7,1.2c-0.3,0.4-0.6,0.7-1,0.9l-1.1-2
c0.2-0.2,0.4-0.3,0.6-0.5c0.2-0.2,0.3-0.3,0.3-0.6c0.1-0.2,0.1-0.4,0.1-0.7c0-0.3-0.1-0.6-0.3-0.9c-0.3-0.8-0.9-1.3-1.7-1.5
c-0.8-0.1-1.7,0-2.8,0.5s-1.9,1-2.3,1.7s-0.5,1.5-0.1,2.4c0.2,0.4,0.4,0.8,0.6,1.1c0.2,0.3,0.5,0.5,0.8,0.8l1.7-0.7l-0.8-1.9
L212.2,74.8z"></path>
<path class="st0" d="M220.5,83.2l1.9,7.2l-1.9,0.5l-1.3-5l-2.3,0.6l1.3,4.7l-1.9,0.5L215,87l-2.6,0.7l1.4,5.3l-2,0.3l-2-7.3
L220.5,83.2z"></path>
<path class="st0" d="M223.8,97.1l0.5,3.8c0.1,0.9,0.1,1.6,0,2.1c-0.1,0.6-0.3,1-0.6,1.4s-0.6,0.6-1,0.8c-0.4,0.2-0.8,0.3-1.1,0.3
c-0.7,0.1-1.3,0-1.8-0.2s-1-0.6-1.4-1.1l-4.3,2.8l-0.3-2.4l3.8-2.4l-0.3-2.1l-4.1,0.5l-0.3-2.2L223.8,97.1z M219.4,101.7
c0,0.4,0.1,0.6,0.2,0.9c0.1,0.2,0.2,0.4,0.4,0.5s0.3,0.2,0.5,0.2s0.4,0,0.6,0c0.2,0,0.4-0.1,0.5-0.2c0.2-0.1,0.3-0.2,0.4-0.4
c0.1-0.2,0.2-0.4,0.2-0.6c0-0.3,0-0.6,0-1l-0.2-1.6l-3,0.4L219.4,101.7z"></path>
<path class="st0"
    d="M219.8,124.2l-0.3,4.2l-4.6-0.4c-0.5-0.6-0.8-1.3-1-2.1c-0.2-0.8-0.3-1.6-0.2-2.4c0.1-0.9,0.3-1.6,0.6-2.2
s0.8-1.1,1.3-1.5s1.2-0.7,1.9-0.8c0.7-0.2,1.5-0.2,2.4-0.1s1.7,0.3,2.4,0.5s1.3,0.7,1.7,1.2c0.5,0.5,0.8,1,1,1.7s0.3,1.3,0.2,2.1
c-0.1,0.7-0.2,1.3-0.4,1.8s-0.5,0.9-0.8,1.2c-0.3,0.3-0.7,0.6-1.1,0.8c-0.4,0.2-0.9,0.3-1.4,0.3l-0.1-2.3c0.3,0,0.5-0.1,0.7-0.2
s0.4-0.2,0.6-0.3s0.3-0.3,0.4-0.6c0.1-0.2,0.2-0.5,0.2-0.9c0.1-0.9-0.2-1.6-0.8-2.1s-1.5-0.8-2.7-0.9s-2.2,0-2.8,0.4
c-0.7,0.4-1.1,1.1-1.2,2.1c0,0.5,0,0.9,0,1.3c0.1,0.4,0.2,0.7,0.4,1.1l1.8,0.2l0.2-2.1L219.8,124.2z"></path>
<path class="st0" d="M223.3,135.5l-1.6,7.3l-1.9-0.4l1.1-5.1l-2.3-0.5l-1.1,4.8l-1.9-0.4l1.1-4.8l-2.6-0.6l-1.2,5.4l-1.9-0.7
l1.6-7.4L223.3,135.5z"></path>
<path class="st0"
    d="M219.8,149.3l-0.7,1.9l-8.3,1.7l6.7,2.5l-0.8,2.1l-10.3-3.8l0.7-1.9l8.2-1.8l-6.7-2.5l0.8-2.1L219.8,149.3z">
</path>
<path class="st0" d="M213.7,164l-3.5,6.6l-1.7-0.9l2.4-4.6l-2.1-1.1l-2.3,4.3l-1.7-0.9l2.3-4.3l-2.4-1.3l-2.6,4.9l-1.6-1.1l3.6-6.7
L213.7,164z"></path>
<path class="st0" d="M206.6,176.3l-2.3,3.1c-0.5,0.7-1,1.2-1.5,1.5s-1,0.5-1.4,0.6s-0.9,0-1.3-0.1c-0.4-0.1-0.7-0.3-1-0.5
c-0.6-0.4-1-0.9-1.2-1.4s-0.3-1.1-0.2-1.8l-5.1-0.9l1.4-2l4.4,0.9l1.3-1.7l-3.3-2.4l1.3-1.8L206.6,176.3z M200.3,176.7
c-0.2,0.3-0.4,0.6-0.4,0.8c-0.1,0.2-0.1,0.4-0.1,0.6c0,0.2,0.1,0.4,0.2,0.5c0.1,0.2,0.3,0.3,0.5,0.4c0.2,0.1,0.3,0.2,0.5,0.3
s0.4,0.1,0.6,0c0.2,0,0.4-0.1,0.6-0.3s0.4-0.4,0.7-0.7l0.9-1.3l-2.5-1.8L200.3,176.7z"></path>
<path class="st0" d="M195.2,190.6l-1.5,1.6l-10.7-4.6l1.7-1.8l2.4,1.1l2.7-2.8l-1.2-2.4l1.6-1.7L195.2,190.6z M188.8,187.8l3.8,1.8
l-1.9-3.7L188.8,187.8z"></path>
<path class="st0"
    d="M186.2,199.2l-1.8,1.4l-5.6-7l-4.1,3.2l-1-1.7l5.7-4.5L186.2,199.2z">
</path>
<path class="st0" d="M168.8,211.3l-2.5,1.2l-6.1-6.1l1.1,8.6l-2.4,1.2l-4.9-9.8l1.9-0.9l3.2,6.5l-1-7.7l1.6-0.8l5.5,5.4l-3.2-6.5
l1.8-0.9L168.8,211.3z"></path>
<path class="st0" d="M149.2,219.7l-2.1,0.7l-7.2-9.2l2.3-0.7l1.6,2.1l3.7-1.2l0.1-2.7l2.3-0.7L149.2,219.7z M145,214.2l2.5,3.3
l0.1-4.1L145,214.2z"></path>
<path class="st0"
    d="M137.2,223l-2,0.3l-5.6-6.4l1.2,7.1l-2.2,0.4l-1.8-10.8l2-0.3l5.6,6.3l-1.2-7l2.2-0.4L137.2,223z">
</path>
<path class="st0" d="M118.2,225.1H116l-4.3-10.9h2.5l0.9,2.5l3.8-0.1l0.8-2.5h2.4L118.2,225.1z M115.7,218.6l1.4,3.9l1.2-3.9H115.7
z"></path>
<path class="st0" d="M102,219.4l-4.2-0.5l0.6-4.6c0.6-0.5,1.3-0.8,2.1-1c0.8-0.2,1.6-0.2,2.4-0.1c0.9,0.1,1.6,0.3,2.2,0.7
s1.1,0.8,1.5,1.4c0.4,0.5,0.6,1.2,0.7,1.9s0.1,1.5,0,2.4s-0.3,1.7-0.6,2.3c-0.3,0.7-0.7,1.2-1.2,1.7c-0.5,0.4-1.1,0.8-1.7,1
c-0.7,0.2-1.4,0.2-2.1,0.1c-0.7-0.1-1.3-0.2-1.8-0.5c-0.5-0.2-0.9-0.5-1.2-0.9c-0.3-0.3-0.5-0.7-0.7-1.2c-0.2-0.4-0.3-0.9-0.3-1.4
h2.3c0,0.3,0.1,0.5,0.1,0.7c0.1,0.2,0.2,0.4,0.3,0.6c0.1,0.2,0.3,0.3,0.6,0.4c0.2,0.1,0.5,0.2,0.9,0.2c0.9,0.1,1.6-0.1,2.1-0.7
c0.5-0.6,0.8-1.5,1-2.7c0.1-1.2,0-2.2-0.3-2.9c-0.4-0.7-1-1.1-2-1.2c-0.5-0.1-0.9-0.1-1.3,0s-0.7,0.2-1.1,0.3l-0.2,1.8l2.1,0.2
L102,219.4z"></path>
<path class="st0" d="M90.6,222.5l-7.2-1.9l0.5-1.9l5,1.3l0.6-2.3l-4.7-1.2l0.5-1.9l4.7,1.2l0.7-2.6l-5.3-1.4L86,210l7.3,1.9
L90.6,222.5z"></path>
<path class="st0"
    d="M76.9,218.4l-3.6-1.5c-0.8-0.3-1.4-0.7-1.9-1.1c-0.4-0.4-0.7-0.8-0.9-1.2c-0.2-0.4-0.2-0.8-0.2-1.2
s0.1-0.8,0.3-1.1c0.3-0.7,0.6-1.2,1-1.5s1-0.6,1.7-0.6L73,205l2.3,0.9l0.2,4.5l2,0.8l1.6-3.8l2.1,0.9L76.9,218.4z M75.1,212.3
c-0.3-0.1-0.6-0.2-0.9-0.2c-0.2,0-0.5,0-0.6,0.1c-0.2,0.1-0.3,0.2-0.5,0.4c-0.1,0.2-0.2,0.4-0.3,0.6c-0.1,0.2-0.1,0.4-0.1,0.6
c0,0.2,0,0.4,0.1,0.6c0.1,0.2,0.2,0.4,0.4,0.5c0.2,0.2,0.5,0.3,0.9,0.5l1.5,0.6l1.2-2.8L75.1,212.3z"></path>
<path class="st0" d="M55.3,201.6l-3.5-2.4l2.6-3.8c0.8-0.1,1.5-0.1,2.3,0.1c0.8,0.2,1.5,0.5,2.2,1s1.3,1,1.7,1.6s0.6,1.2,0.7,1.9
c0.1,0.7,0,1.3-0.2,2s-0.6,1.4-1.1,2.1c-0.5,0.7-1,1.3-1.6,1.8s-1.2,0.8-1.8,0.9c-0.6,0.2-1.3,0.2-2,0.1s-1.3-0.4-1.9-0.8
c-0.6-0.4-1-0.8-1.4-1.2c-0.3-0.4-0.5-0.9-0.7-1.3c-0.1-0.5-0.1-0.9-0.1-1.4c0.1-0.5,0.2-0.9,0.4-1.3l2,1c-0.1,0.3-0.2,0.5-0.2,0.7
s0,0.4,0,0.7c0.1,0.2,0.2,0.4,0.3,0.6c0.2,0.2,0.4,0.4,0.7,0.6c0.7,0.5,1.5,0.6,2.2,0.3s1.4-0.9,2.1-1.9c0.7-1,1-1.9,1-2.7
s-0.4-1.5-1.2-2c-0.4-0.3-0.8-0.5-1.1-0.6s-0.7-0.2-1.1-0.2l-1,1.5l1.7,1.2L55.3,201.6z"></path>
<path class="st0" d="M43.8,199.1l-5.5-5l1.3-1.5l3.8,3.5l1.6-1.8l-3.6-3.3l1.3-1.5l3.6,3.3l1.8-2l-4.1-3.7l1.5-1.3l5.6,5.1
L43.8,199.1z"></path>
<path class="st0"
    d="M33.5,189.2l-1.3-1.6l2.6-8.1l-5.5,4.6l-1.4-1.7l8.4-7l1.3,1.6l-2.5,8l5.5-4.6l1.4,1.7L33.5,189.2z">
</path>
<path class="st0"
    d="M23.7,176.7l-4-6.3l1.7-1l2.8,4.4l2-1.3l-2.6-4.1l1.7-1l2.6,4.1l2.3-1.4l-2.9-4.7l1.8-0.9l4,6.4L23.7,176.7z">
</path>
<path class="st0"
    d="M16.5,164.4l-1.6-3.5c-0.4-0.8-0.6-1.5-0.6-2.1c-0.1-0.6,0-1.1,0.2-1.5s0.4-0.8,0.7-1c0.3-0.3,0.6-0.5,1-0.7
c0.6-0.3,1.2-0.4,1.8-0.4c0.5,0,1.1,0.3,1.6,0.7l3.3-4l1,2.2l-3,3.4l0.9,2l3.7-1.7l0.9,2L16.5,164.4z M19.3,158.7
c-0.1-0.3-0.3-0.6-0.5-0.8s-0.3-0.3-0.5-0.4c-0.2-0.1-0.4-0.1-0.6,0c-0.2,0-0.4,0.1-0.6,0.2c-0.2,0.1-0.3,0.2-0.5,0.3
c-0.1,0.1-0.2,0.3-0.3,0.5c-0.1,0.2-0.1,0.4,0,0.7c0,0.3,0.1,0.6,0.3,0.9l0.7,1.4l2.8-1.3L19.3,158.7z"></path>
<path class="st0" d="M9.7,147.4l-0.6-2.1l9.3-7.1l0.7,2.4l-2.2,1.6l1.1,3.7l2.7,0.1l0.7,2.3L9.7,147.4z M15.3,143.3l-3.4,2.4
l4.1,0.1L15.3,143.3z"></path>
<path class="st0"
    d="M6.7,135.4l-0.4-2.3l8.9-1.4l-0.8-5.1l2-0.1l1.1,7.1L6.7,135.4z">
</path>
<path class="st0" d="M4.7,114.2l0.2-2.7l8.3-2.3l-8-3.3l0.2-2.7l10.9,0.6l-0.1,2.1l-7.3-0.4l7.1,2.9l-0.1,1.8l-7.4,2.1l7.3,0.4
l-0.1,2.1L4.7,114.2z"></path>
<path class="st0" d="M7.1,93l0.5-2.1l11.6-1.7l-0.5,2.4L16,91.9l-0.8,3.7l2.3,1.4L17,99.3L7.1,93z M13.9,92.1l-4.1,0.5l3.6,2.1
L13.9,92.1z"></path>
<path class="st0"
    d="M10.1,81l0.7-1.9l8.3-1.7l-6.7-2.5l0.8-2.1l10.3,3.8l-0.7,1.9l-8.2,1.8l6.7,2.5l-0.8,2.1L10.1,81z">
</path>
<path class="st0" d="M17.6,63.5l1-1.9l11.6,1.6L29,65.4L26.4,65l-1.8,3.4l1.8,2l-1.1,2.1L17.6,63.5z M24.5,64.5l-4.1-0.7l2.8,3
L24.5,64.5z"></path>
<path class="st0" d="M30.6,52.1l2.5-3.4l3.7,2.7c0.1,0.8,0,1.5-0.2,2.3s-0.6,1.5-1.1,2.2s-1.1,1.2-1.7,1.6
c-0.6,0.4-1.2,0.6-1.9,0.6c-0.7,0-1.3-0.1-2-0.3s-1.4-0.6-2.1-1.1s-1.3-1.1-1.7-1.7c-0.4-0.6-0.7-1.2-0.9-1.9s-0.1-1.3,0-2
c0.2-0.7,0.5-1.3,0.9-1.9c0.4-0.6,0.8-1,1.3-1.3s0.9-0.5,1.3-0.6c0.5-0.1,0.9-0.1,1.4,0s0.9,0.2,1.3,0.4l-1.1,2
c-0.3-0.1-0.5-0.2-0.7-0.3s-0.4-0.1-0.7,0c-0.2,0-0.4,0.1-0.6,0.3s-0.4,0.4-0.6,0.7c-0.5,0.7-0.7,1.4-0.4,2.2
c0.3,0.7,0.9,1.5,1.9,2.2s1.9,1.1,2.7,1.1c0.8,0,1.5-0.4,2.1-1.2c0.3-0.4,0.5-0.8,0.6-1.1s0.2-0.7,0.2-1.1l-1.5-1.1l-1.2,1.7
L30.6,52.1z"></path>
<path class="st0" d="M33.6,40.7l5.2-5.4l1.4,1.4l-3.6,3.7l1.7,1.7l3.4-3.5l1.4,1.4l-3.4,3.5l1.9,1.9l3.8-3.9l1.2,1.5l-5.3,5.4
L33.6,40.7z"></path>
<path class="st0" d="M43.8,30.8l3.1-2.4c0.7-0.5,1.3-0.9,1.9-1.1c0.6-0.2,1.1-0.3,1.5-0.2s0.8,0.2,1.2,0.4c0.3,0.2,0.6,0.5,0.9,0.8
c0.4,0.6,0.7,1.1,0.8,1.6s0,1.1-0.3,1.7l4.6,2.3l-1.9,1.5l-4-2.1l-1.7,1.3l2.5,3.2l-1.8,1.4L43.8,30.8z M50,32.2
c0.3-0.2,0.5-0.4,0.6-0.6s0.2-0.4,0.2-0.6s0-0.4-0.1-0.6s-0.2-0.4-0.3-0.6s-0.3-0.3-0.4-0.4c-0.2-0.1-0.3-0.2-0.5-0.2
s-0.4,0-0.7,0.1s-0.5,0.3-0.8,0.5l-1.2,1l1.9,2.4L50,32.2z"></path>

</svg>