<?xml version="1.0" encoding="utf-8"?>
<!-- Generator: Adobe Illustrator 24.0.2, SVG Export Plug-In . SVG Version: 6.00 Build 0)  -->
<svg version="1.1" id="Layer_1" xmlns="http://www.w3.org/2000/svg" xmlns:xlink="http://www.w3.org/1999/xlink" x="0px" y="0px"
	 viewBox="0 0 25 25" style="enable-background:new 0 0 25 25;" xml:space="preserve">
<style type="text/css">
	.st0{fill:url(#SVGID_1_);}
</style>
<linearGradient id="SVGID_1_" gradientUnits="userSpaceOnUse" x1="-2.3552" y1="24.2135" x2="26.5001" y2="3.4267">
	<stop  offset="0" style="stop-color:#4C86C6"/>
	<stop  offset="0.3219" style="stop-color:#7C287D"/>
	<stop  offset="0.6462" style="stop-color:#ED2024;stop-opacity:0.85"/>
	<stop  offset="0.9976" style="stop-color:#4C86C6;stop-opacity:0.95"/>
</linearGradient>
<path class="st0" d="M24.8,25c-0.2,0-0.3-0.1-0.5-0.1c-7.5,0-15.1,0-22.6,0c-0.2,0-0.3,0-0.5,0c0-1.4,0-2.8,0-4.1
	c5.4,0,10.8,0,16.3,0c0,0,0-0.1,0-0.1C9.7,12.8,8,11,0,3c1-1,2-2,3-3c8,8,9.7,9.7,17.7,17.7c0-5.5,0-11,0-16.4c1.4,0,2.8,0,4.3,0
	c0,0.1-0.1,0.3-0.1,0.4c0,7.5,0,15.1,0,22.6c0,0.2,0,0.3,0.1,0.5C24.9,24.9,24.9,24.9,24.8,25z"/>
</svg>
