<?xml version="1.0" encoding="utf-8"?>
<!-- Generator: Adobe Illustrator 25.2.3, SVG Export Plug-In . SVG Version: 6.00 Build 0)  -->
<svg version="1.1" id="Layer_1" xmlns="http://www.w3.org/2000/svg" xmlns:xlink="http://www.w3.org/1999/xlink" x="0px" y="0px"
	 viewBox="0 0 300 300" style="enable-background:new 0 0 300 300;" xml:space="preserve">
<style type="text/css">
	.st0{fill:url(#SVGID_1_);}
	.st1{fill:url(#SVGID_2_);}
</style>
<g>
	
		<linearGradient id="SVGID_1_" gradientUnits="userSpaceOnUse" x1="80.6986" y1="306.4795" x2="80.6986" y2="95.2221" gradientTransform="matrix(1 0 0 -1 0 302)">
		<stop  offset="0" style="stop-color:#848484"/>
		<stop  offset="1" style="stop-color:#EAEAEA"/>
	</linearGradient>
	<path class="st0" d="M16.5,246.4h128.4v-74.1h-30V232H31.5l15-2.9v-69.5l-15-2.9h113.4v-106H16.5V246.4z M31.5,65.2h83.4v77.2H31.5
		l15-2.9V68L31.5,65.2z"/>
	
		<linearGradient id="SVGID_2_" gradientUnits="userSpaceOnUse" x1="219.3014" y1="303.6795" x2="219.3014" y2="92.4221" gradientTransform="matrix(1 0 0 -1 0 302)">
		<stop  offset="0" style="stop-color:#848484"/>
		<stop  offset="1" style="stop-color:#EAEAEA"/>
	</linearGradient>
	<path class="st1" d="M155.1,50.7v74.1h30V65h83.4l-15,2.9v69.6l15,2.9H155.1v106h128.4V50.7H155.1z M268.5,231.9h-83.4v-77.2h83.4
		l-15,2.9v71.5L268.5,231.9z"/>
</g>
</svg>
