<?xml version="1.0" encoding="utf-8"?>
<!-- Generator: Adobe Illustrator 25.2.3, SVG Export Plug-In . SVG Version: 6.00 Build 0)  -->
<svg version="1.1" id="Layer_1" xmlns="http://www.w3.org/2000/svg" xmlns:xlink="http://www.w3.org/1999/xlink" x="0px" y="0px"
	 viewBox="0 0 150 150" style="enable-background:new 0 0 150 150;" xml:space="preserve">
<style type="text/css">
	.st0{fill:#FFFFFF;}
</style>
<path id="Path_1055" class="st0" d="M75,0C33.6,0,0,33.6,0,75c0,34.4,23.5,64.5,56.9,72.8c6.7,1.7,13.6,2.5,20.4,2.2
	c1.2,0,2.3-0.1,3.4-0.2c0.2,0,0.4,0,0.7-0.1c7.5-0.6,14.9-2.4,21.9-5.3l0.2-0.1c0.7-0.3,1.5-0.6,2.2-1c8-3.4,15.4-8.1,21.9-13.8
	c9.8-9,16.5-20.8,19.4-33.7C158.6,56.1,135.7,14.5,96,3C89.1,1,82.1,0,75,0L75,0z M67.5,99.5c11.7,23.5,43.2,27.1,67.7,11.1
	c-11.3,19-30.8,31.6-52.8,34c-18.4-9-36.3-18.1-35.3-47.2c0.3-10,2.9-27.9,27.9-20.4c-7.5-12.5-25.1-12.5-35.1,0
	c-12,16.8-12.5,40.6,3.1,60.2C22.8,126.8,8.9,107.3,5.7,84.8c7.8-19.5,23-41.5,49.5-36.2C61.6,49.8,82.5,54.4,75,77
	c5-5,13.2-13.5,10-22.5c-10.6-30.2-47.6-32.6-72.6-10c0.3-0.8,0.6-1.6,0.9-2.3C24.2,21.6,44.6,7.9,67.7,5.4
	c19.1,7.8,37.4,22.7,37.4,49c0,15-12.5,25.1-30.1,22.5c5,5,12.5,10,22.5,7.5c10-2.5,19-9.9,22.5-25.1c3.5-15,0.3-30.9-10.8-45.4
	c21.2,11.9,34.6,34,35.6,58.2c-10.1,23.7-35.2,40.8-62.4,27.2C75,94.5,72.5,87,75,77C70,82,62.5,89.5,67.5,99.5z"/>
</svg>
