<?xml version="1.0" encoding="utf-8"?>
<!-- Generator: Adobe Illustrator 24.1.0, SVG Export Plug-In . SVG Version: 6.00 Build 0)  -->
<svg version="1.1" id="Layer_1" xmlns="http://www.w3.org/2000/svg" xmlns:xlink="http://www.w3.org/1999/xlink" x="0px" y="0px"
	 viewBox="0 0 150 150" style="enable-background:new 0 0 150 150;" xml:space="preserve">
<style type="text/css">
	.st0{fill:#000;}
	.st1{font-family:'ArialMT';}
	.st2{font-size:12px;}
	.st3{fill:#FFFFFF;}
</style>
<circle class="st0" cx="75" cy="75" r="75"/>
<text transform="matrix(1 0 0 1 90.8329 95.7007)" class="st1 st2"> </text>
<text transform="matrix(0.9916 0.1293 -0.1293 0.9916 100.5141 18.3805)" class="st1 st2"> </text>
<text transform="matrix(1 0 0 1 1.525879e-05 0)" class="st1 st2"> </text>
<g>
	<path class="st3" d="M24.4,54.5l-7.9-3.7l0.7-1.5l6.6,3l1.9-4l1.3,0.6L24.4,54.5z"/>
	<path class="st3" d="M30,41.5l1.2,0.8l-3.3,5.1l-7.3-4.8l3.3-5l1.2,0.8L22.8,42l1.8,1.2l2-3.1l1.1,0.8l-2,3.1l1.9,1.2L30,41.5z"/>
	<path class="st3" d="M31.5,31.1l-1.9,2.1L35,38l-1.1,1.3l-5.4-4.8l-1.9,2.1l-1.1-1l4.8-5.4L31.5,31.1z"/>
	<path class="st3" d="M34.3,30.3L33.5,29l-0.4,0.3l-1.1-1.2l1.2-1.1l1.1,1.3l0.7,1.4L34.3,30.3z"/>
	<path class="st3" d="M41.6,24c-0.1,0-0.2,0-0.4,0c-0.2,0-0.4,0-0.6,0.1c-0.2,0-0.5,0.1-0.7,0.2c-0.2,0.1-0.5,0.2-0.7,0.4
		c-0.4,0.3-0.6,0.5-0.7,0.8c-0.1,0.3,0,0.5,0.1,0.8c0.1,0.1,0.2,0.2,0.4,0.3c0.1,0,0.3,0.1,0.5,0c0.2,0,0.4-0.1,0.6-0.2
		s0.5-0.2,0.8-0.3c0.4-0.2,0.8-0.3,1.2-0.4c0.4-0.1,0.7-0.1,1-0.1c0.3,0,0.6,0.1,0.9,0.3c0.3,0.1,0.5,0.4,0.7,0.7
		c0.3,0.4,0.4,0.8,0.5,1.1c0,0.4,0,0.7-0.1,1.1s-0.3,0.7-0.6,1c-0.3,0.3-0.6,0.6-0.9,0.8c-0.5,0.4-1.1,0.7-1.8,0.9
		c-0.6,0.2-1.3,0.3-1.9,0.3l-0.2-1.6c0.1,0,0.3,0,0.5,0c0.2,0,0.5,0,0.8-0.1c0.3-0.1,0.6-0.1,0.9-0.3c0.3-0.1,0.6-0.3,0.9-0.5
		c0.8-0.5,1-1.1,0.6-1.5c-0.1-0.2-0.2-0.3-0.4-0.3c-0.2,0-0.4-0.1-0.6,0c-0.2,0-0.5,0.1-0.7,0.2c-0.3,0.1-0.6,0.2-0.9,0.3
		c-0.4,0.1-0.8,0.3-1.1,0.3c-0.3,0.1-0.6,0.1-0.9,0.1c-0.3,0-0.5-0.1-0.7-0.3c-0.2-0.1-0.4-0.3-0.6-0.6c-0.3-0.4-0.4-0.7-0.5-1.1
		c-0.1-0.4,0-0.7,0.1-1.1s0.3-0.7,0.5-1c0.2-0.3,0.5-0.6,0.9-0.9c0.5-0.4,1-0.6,1.5-0.7c0.5-0.1,1-0.2,1.5-0.2L41.6,24z"/>
	<path class="st3" d="M58.3,15.4l-2.6,0.9l2.4,6.8l-1.6,0.5l-2.4-6.8l-2.6,0.9L51,16.4l6.9-2.4L58.3,15.4z"/>
	<path class="st3" d="M62.4,13l1.5-0.3l4.9,7.9L67.1,21l-1.2-2l-3,0.6l-0.4,2.3l-1.7,0.3L62.4,13z M65.3,17.9l-1.8-3.1l-0.6,3.6
		L65.3,17.9z"/>
	<path class="st3" d="M70.4,20.6l-0.3-8.7l1.7-0.1l0.3,7.2l4.4-0.2l0.1,1.5L70.4,20.6z"/>
	<path class="st3" d="M78.3,20.5l1-8.6L81,12l-0.5,4.1l4.1-3.7l1.9,0.2l-3.8,3.4l2.9,5.2l-1.9-0.2l-2.2-4.1l-1.2,1L80,20.7
		L78.3,20.5z"/>
	<path class="st3" d="M101.6,24.7c-0.2,0.3-0.4,0.6-0.6,0.8c-0.2,0.2-0.5,0.3-0.8,0.4c-0.3,0.1-0.6,0.1-1,0s-0.7-0.2-1.1-0.3
		l-3.8-1.7l3.6-8l4.3,1.9c0.3,0.1,0.5,0.3,0.7,0.5c0.2,0.2,0.3,0.5,0.4,0.7c0.1,0.3,0.1,0.5,0.1,0.8c0,0.3-0.1,0.5-0.2,0.8
		c-0.2,0.4-0.4,0.7-0.8,1c-0.3,0.3-0.7,0.4-1.2,0.4c0.4,0.3,0.6,0.7,0.8,1.2C101.9,23.7,101.9,24.2,101.6,24.7z M100.2,23.7
		c0.1-0.1,0.1-0.3,0.1-0.4c0-0.2,0-0.3,0-0.4s-0.1-0.3-0.2-0.4s-0.2-0.2-0.3-0.2l-2.4-1.1l-0.9,2.1l2.3,1c0.1,0.1,0.3,0.1,0.4,0.1
		c0.1,0,0.3,0,0.4-0.1c0.1-0.1,0.3-0.1,0.4-0.2C100.1,24,100.2,23.9,100.2,23.7z M98.8,18l-0.9,2l2.1,0.9c0.3,0.1,0.5,0.1,0.8,0
		c0.3-0.1,0.5-0.3,0.6-0.6c0.1-0.3,0.2-0.6,0.1-0.8c-0.1-0.3-0.3-0.4-0.5-0.5L98.8,18z"/>
	<path class="st3" d="M106.3,28.6c0.3,0.2,0.7,0.3,1,0.4c0.3,0,0.6,0,0.9-0.2c0.3-0.1,0.6-0.3,0.8-0.6s0.5-0.5,0.7-0.8l2.5-3.7
		l1.4,0.9l-2.5,3.7c-0.3,0.5-0.7,0.9-1.1,1.3c-0.4,0.4-0.9,0.6-1.3,0.8c-0.5,0.2-1,0.2-1.5,0.1c-0.5-0.1-1.1-0.3-1.6-0.7
		c-0.6-0.4-1-0.8-1.3-1.3c-0.3-0.5-0.4-1-0.5-1.5c0-0.5,0-1,0.2-1.5s0.4-1,0.7-1.5l2.5-3.7l1.4,0.9l-2.5,3.7
		c-0.2,0.3-0.4,0.6-0.5,0.9c-0.1,0.3-0.2,0.6-0.2,0.9c0,0.3,0.1,0.6,0.2,0.9C105.8,28.2,106,28.4,106.3,28.6z"/>
	<path class="st3" d="M118.7,32.4c0-0.1,0-0.2-0.1-0.4c0-0.2-0.1-0.4-0.2-0.6c-0.1-0.2-0.2-0.4-0.3-0.7c-0.1-0.2-0.3-0.4-0.5-0.6
		c-0.3-0.3-0.7-0.5-0.9-0.5c-0.3,0-0.5,0.1-0.7,0.3c-0.1,0.1-0.2,0.3-0.2,0.4c0,0.1,0,0.3,0.1,0.5s0.2,0.4,0.3,0.6
		c0.1,0.2,0.3,0.5,0.5,0.8c0.2,0.4,0.4,0.7,0.6,1.1c0.2,0.3,0.3,0.7,0.3,1c0,0.3,0,0.6-0.1,0.9c-0.1,0.3-0.3,0.6-0.6,0.9
		c-0.3,0.3-0.7,0.6-1,0.7c-0.4,0.1-0.7,0.2-1.1,0.1s-0.7-0.2-1.1-0.4s-0.7-0.4-1-0.7c-0.5-0.5-0.9-1-1.2-1.5
		c-0.3-0.6-0.6-1.2-0.7-1.8l1.5-0.5c0,0.1,0,0.3,0.1,0.5c0.1,0.2,0.1,0.5,0.2,0.7c0.1,0.3,0.2,0.5,0.4,0.8c0.2,0.3,0.4,0.5,0.6,0.8
		c0.7,0.6,1.2,0.7,1.6,0.3c0.1-0.1,0.2-0.3,0.2-0.5c0-0.2,0-0.4-0.1-0.6c-0.1-0.2-0.2-0.4-0.3-0.7c-0.1-0.3-0.3-0.5-0.5-0.8
		c-0.2-0.4-0.4-0.7-0.5-1s-0.2-0.6-0.2-0.9c0-0.3,0-0.5,0.1-0.8c0.1-0.2,0.3-0.5,0.5-0.7c0.3-0.3,0.6-0.5,1-0.7s0.7-0.2,1.1-0.2
		s0.7,0.1,1.1,0.3c0.4,0.2,0.7,0.4,1,0.7c0.4,0.4,0.8,0.9,1,1.4s0.4,1,0.5,1.4L118.7,32.4z"/>
	<path class="st3" d="M116.4,39.4l6.7-5.6l1.1,1.3l-6.7,5.6L116.4,39.4z"/>
	<path class="st3" d="M124.8,41.1l-4.7,3l-0.9-1.4l7.4-4.7l0.7,1.1l-2.4,6.9l4.8-3l0.9,1.4l-7.4,4.6l-0.7-1.2L124.8,41.1z"/>
	<path class="st3" d="M128,56.3l-1.4,0.6l-2.3-5.6l8-3.4l2.3,5.5l-1.4,0.6l-1.6-3.9l-1.9,0.8l1.4,3.4l-1.3,0.5l-1.4-3.4l-2.1,0.9
		L128,56.3z"/>
	<path class="st3" d="M134.7,62.1c0-0.1,0.1-0.2,0.1-0.4c0.1-0.2,0.1-0.4,0.1-0.6c0-0.2,0.1-0.5,0.1-0.7c0-0.3,0-0.5-0.1-0.8
		c-0.1-0.5-0.3-0.8-0.5-0.9c-0.2-0.2-0.5-0.2-0.8-0.2c-0.2,0-0.3,0.1-0.4,0.2c-0.1,0.1-0.2,0.3-0.2,0.4c0,0.2-0.1,0.4-0.1,0.7
		c0,0.3,0,0.6,0,0.9c0,0.4,0,0.8-0.1,1.2c0,0.4-0.1,0.7-0.3,1c-0.1,0.3-0.3,0.5-0.5,0.7c-0.2,0.2-0.5,0.3-0.9,0.4
		c-0.5,0.1-0.9,0.1-1.2,0c-0.4-0.1-0.7-0.3-1-0.5c-0.3-0.2-0.5-0.5-0.7-0.9c-0.2-0.4-0.3-0.7-0.4-1.1c-0.2-0.6-0.2-1.3-0.2-2
		c0-0.7,0.2-1.3,0.4-1.9l1.6,0.4c-0.1,0.1-0.1,0.2-0.2,0.5c-0.1,0.2-0.1,0.5-0.2,0.7c-0.1,0.3-0.1,0.6-0.1,0.9c0,0.3,0,0.7,0.1,1
		c0.2,0.9,0.6,1.3,1.2,1.1c0.2,0,0.3-0.1,0.4-0.3c0.1-0.1,0.2-0.3,0.2-0.5c0-0.2,0.1-0.5,0.1-0.8c0-0.3,0-0.6,0-1
		c0-0.4,0-0.8,0.1-1.1c0.1-0.3,0.1-0.6,0.3-0.9c0.1-0.2,0.3-0.4,0.5-0.6c0.2-0.2,0.5-0.3,0.8-0.4c0.4-0.1,0.8-0.1,1.2-0.1
		c0.4,0.1,0.7,0.2,1,0.4c0.3,0.2,0.5,0.5,0.8,0.9c0.2,0.3,0.4,0.7,0.5,1.2c0.2,0.6,0.2,1.2,0.1,1.7c-0.1,0.5-0.2,1-0.3,1.5
		L134.7,62.1z"/>
	<path class="st3" d="M135.9,71.3c0.1-0.1,0.1-0.2,0.2-0.3c0.1-0.2,0.2-0.4,0.2-0.6c0.1-0.2,0.1-0.5,0.2-0.7c0-0.3,0-0.5,0-0.8
		c0-0.5-0.2-0.8-0.4-1c-0.2-0.2-0.4-0.3-0.8-0.3c-0.2,0-0.3,0.1-0.4,0.2c-0.1,0.1-0.2,0.2-0.3,0.4c-0.1,0.2-0.1,0.4-0.2,0.6
		c0,0.3-0.1,0.5-0.1,0.9c-0.1,0.4-0.2,0.8-0.2,1.2c-0.1,0.4-0.2,0.7-0.4,0.9c-0.2,0.3-0.4,0.5-0.6,0.6c-0.3,0.2-0.6,0.3-1,0.3
		c-0.5,0-0.9,0-1.2-0.1c-0.3-0.1-0.6-0.4-0.9-0.6c-0.2-0.3-0.4-0.6-0.5-1c-0.1-0.4-0.2-0.8-0.3-1.2c-0.1-0.7,0-1.3,0.1-2
		s0.4-1.3,0.7-1.8l1.5,0.6c-0.1,0.1-0.1,0.2-0.2,0.4c-0.1,0.2-0.2,0.4-0.3,0.7c-0.1,0.3-0.2,0.6-0.2,0.9c-0.1,0.3-0.1,0.7,0,1
		c0.1,0.9,0.4,1.4,1,1.3c0.2,0,0.3-0.1,0.5-0.2c0.1-0.1,0.2-0.3,0.3-0.5c0.1-0.2,0.1-0.5,0.2-0.7c0.1-0.3,0.1-0.6,0.2-1
		c0.1-0.4,0.2-0.8,0.3-1.1c0.1-0.3,0.2-0.6,0.4-0.8c0.2-0.2,0.4-0.4,0.6-0.5c0.2-0.1,0.5-0.2,0.8-0.2c0.4,0,0.8,0,1.2,0.1
		c0.4,0.1,0.7,0.3,0.9,0.6c0.3,0.3,0.5,0.6,0.6,1c0.2,0.4,0.3,0.8,0.3,1.2c0.1,0.6,0,1.2-0.1,1.7c-0.1,0.5-0.3,1-0.5,1.4L135.9,71.3
		z"/>
	<path class="st3" d="M131.7,82.9l1.5,0.3l-0.6,3.7l-1.5-0.2L131.7,82.9z"/>
	<path class="st3" d="M125.6,95.7l7.9,3.7l-0.7,1.5l-6.5-3.1l-1.9,4l-1.3-0.6L125.6,95.7z"/>
	<path class="st3" d="M120,108.6l-1.2-0.8l3.3-5.1l7.3,4.8l-3.3,5l-1.2-0.8l2.3-3.5l-1.8-1.2l-2,3.1l-1.1-0.8l2-3.1l-1.9-1.3
		L120,108.6z"/>
	<path class="st3" d="M118.5,119.1l1.9-2.1l-5.4-4.8l1.1-1.2l5.4,4.8l1.9-2.1l1.1,1l-4.8,5.4L118.5,119.1z"/>
	<path class="st3" d="M115.6,119.8l0.8,1.3l0.4-0.3l1.1,1.2l-1.2,1.1l-1.1-1.3l-0.6-1.4L115.6,119.8z"/>
	<path class="st3" d="M108.4,126.2c0.1,0,0.2,0,0.4,0c0.2,0,0.4,0,0.6-0.1c0.2,0,0.5-0.1,0.7-0.2c0.2-0.1,0.5-0.2,0.7-0.4
		c0.4-0.3,0.6-0.5,0.7-0.8c0.1-0.3,0-0.5-0.1-0.8c-0.1-0.1-0.2-0.2-0.4-0.3c-0.1,0-0.3-0.1-0.5,0c-0.2,0-0.4,0.1-0.6,0.2
		s-0.5,0.2-0.8,0.3c-0.4,0.2-0.8,0.3-1.2,0.4c-0.4,0.1-0.7,0.1-1,0.1s-0.6-0.1-0.9-0.3s-0.5-0.4-0.7-0.7c-0.3-0.4-0.4-0.8-0.5-1.1
		s0-0.7,0.1-1.1c0.1-0.3,0.3-0.7,0.6-1c0.3-0.3,0.6-0.6,0.9-0.8c0.5-0.4,1.1-0.7,1.8-0.9c0.6-0.2,1.3-0.3,1.9-0.3l0.2,1.6
		c-0.1,0-0.3,0-0.5,0s-0.5,0-0.8,0.1c-0.3,0.1-0.6,0.1-0.9,0.3c-0.3,0.1-0.6,0.3-0.9,0.5c-0.8,0.5-1,1.1-0.6,1.5
		c0.1,0.2,0.2,0.3,0.4,0.3c0.2,0,0.4,0.1,0.6,0c0.2,0,0.5-0.1,0.7-0.2c0.3-0.1,0.6-0.2,0.9-0.3c0.4-0.1,0.8-0.3,1.1-0.3
		c0.3-0.1,0.6-0.1,0.9-0.1c0.3,0,0.5,0.1,0.7,0.3c0.2,0.1,0.4,0.3,0.6,0.6c0.3,0.4,0.4,0.7,0.5,1.1c0.1,0.4,0,0.7-0.1,1.1
		c-0.1,0.4-0.3,0.7-0.5,1c-0.2,0.3-0.5,0.6-0.9,0.9c-0.5,0.4-1,0.6-1.5,0.7c-0.5,0.1-1,0.2-1.5,0.2L108.4,126.2z"/>
	<path class="st3" d="M91.6,134.6l2.6-0.9l-2.3-6.8l1.6-0.5l2.3,6.8l2.6-0.9l0.5,1.4l-6.9,2.3L91.6,134.6z"/>
	<path class="st3" d="M87.5,137l-1.5,0.3l-4.9-7.9l1.7-0.3l1.2,2l3-0.6l0.4-2.3l1.7-0.3L87.5,137z M84.6,132.2l1.8,3.1l0.6-3.6
		L84.6,132.2z"/>
	<path class="st3" d="M79.5,129.5l0.3,8.7l-1.7,0.1l-0.2-7.2l-4.4,0.1l0-1.5L79.5,129.5z"/>
	<path class="st3" d="M71.6,129.6l-1,8.6l-1.7-0.2l0.5-4.1l-4.1,3.7l-1.9-0.2l3.8-3.4l-2.9-5.2l1.9,0.2l2.2,4.1l1.2-1l0.3-2.6
		L71.6,129.6z"/>
	<path class="st3" d="M48.3,125.3c0.2-0.3,0.4-0.6,0.6-0.8s0.5-0.3,0.8-0.4c0.3-0.1,0.6-0.1,1,0c0.3,0.1,0.7,0.2,1,0.3l3.8,1.7
		L52,134l-4.2-1.9c-0.3-0.1-0.5-0.3-0.7-0.5c-0.2-0.2-0.3-0.5-0.4-0.7s-0.1-0.5-0.1-0.8c0-0.3,0.1-0.5,0.2-0.8
		c0.2-0.4,0.4-0.7,0.8-1c0.3-0.3,0.7-0.4,1.2-0.4c-0.4-0.3-0.6-0.7-0.8-1.2S48,125.8,48.3,125.3z M51.1,132l0.9-2l-2.1-0.9
		c-0.3-0.1-0.5-0.1-0.8,0c-0.3,0.1-0.5,0.3-0.6,0.6c-0.1,0.3-0.2,0.6-0.1,0.8c0.1,0.3,0.3,0.4,0.5,0.5L51.1,132z M49.7,126.2
		c-0.1,0.1-0.1,0.3-0.1,0.4c0,0.2,0,0.3,0,0.4c0,0.1,0.1,0.3,0.2,0.4c0.1,0.1,0.2,0.2,0.3,0.3l2.4,1.1l0.9-2.1l-2.3-1
		c-0.1-0.1-0.3-0.1-0.4-0.1c-0.1,0-0.3,0-0.4,0.1c-0.1,0.1-0.3,0.1-0.4,0.2C49.8,126,49.8,126.1,49.7,126.2z"/>
	<path class="st3" d="M43.6,121.4c-0.3-0.2-0.7-0.3-1-0.4c-0.3,0-0.6,0-0.9,0.2c-0.3,0.1-0.6,0.3-0.8,0.6c-0.2,0.2-0.5,0.5-0.7,0.8
		l-2.5,3.7l-1.4-0.9l2.5-3.7c0.3-0.5,0.7-0.9,1.1-1.3c0.4-0.4,0.9-0.6,1.3-0.8c0.5-0.2,1-0.2,1.5-0.1c0.5,0.1,1.1,0.3,1.6,0.7
		c0.6,0.4,1,0.8,1.3,1.3c0.3,0.5,0.4,1,0.5,1.5c0,0.5,0,1-0.2,1.5c-0.2,0.5-0.4,1-0.7,1.5l-2.5,3.7l-1.4-0.9l2.5-3.7
		c0.2-0.3,0.4-0.6,0.5-0.9s0.2-0.6,0.2-0.9c0-0.3-0.1-0.6-0.2-0.9C44.2,121.8,43.9,121.6,43.6,121.4z"/>
	<path class="st3" d="M31.2,117.5c0,0.1,0,0.2,0.1,0.4s0.1,0.4,0.2,0.6s0.2,0.4,0.3,0.7s0.3,0.4,0.5,0.6c0.3,0.3,0.6,0.5,0.9,0.5
		c0.3,0,0.5-0.1,0.7-0.3c0.1-0.1,0.2-0.3,0.2-0.4c0-0.1,0-0.3-0.1-0.5c-0.1-0.2-0.1-0.4-0.3-0.6c-0.1-0.2-0.3-0.5-0.5-0.8
		c-0.2-0.4-0.4-0.7-0.6-1.1c-0.2-0.3-0.3-0.7-0.3-1c0-0.3,0-0.6,0.1-0.9c0.1-0.3,0.3-0.6,0.6-0.9c0.3-0.3,0.7-0.6,1-0.7
		c0.4-0.1,0.7-0.1,1.1-0.1c0.4,0.1,0.7,0.2,1.1,0.4c0.3,0.2,0.7,0.4,1,0.7c0.5,0.5,0.9,1,1.2,1.6s0.5,1.2,0.7,1.8l-1.5,0.5
		c0-0.1,0-0.3-0.1-0.5c-0.1-0.2-0.1-0.5-0.2-0.7c-0.1-0.3-0.2-0.5-0.4-0.8s-0.4-0.5-0.6-0.8c-0.7-0.6-1.2-0.7-1.6-0.3
		c-0.1,0.1-0.2,0.3-0.2,0.5c0,0.2,0,0.4,0.1,0.6c0.1,0.2,0.2,0.4,0.3,0.7c0.1,0.3,0.3,0.5,0.5,0.8c0.2,0.4,0.4,0.7,0.5,1
		c0.1,0.3,0.2,0.6,0.2,0.9c0,0.3,0,0.5-0.1,0.8c-0.1,0.2-0.3,0.5-0.5,0.7c-0.3,0.3-0.6,0.5-1,0.7c-0.4,0.1-0.7,0.2-1.1,0.2
		c-0.4,0-0.7-0.1-1.1-0.3c-0.4-0.2-0.7-0.4-1-0.7c-0.4-0.4-0.8-0.9-1-1.4c-0.2-0.5-0.4-1-0.5-1.4L31.2,117.5z"/>
	<path class="st3" d="M33.6,110.5l-6.7,5.6l-1.1-1.3l6.7-5.6L33.6,110.5z"/>
	<path class="st3" d="M25.2,108.8l4.7-3l0.9,1.4l-7.4,4.6l-0.7-1.1l2.4-6.9l-4.8,3l-0.9-1.4l7.4-4.6l0.7,1.2L25.2,108.8z"/>
	<path class="st3" d="M22.1,93.6l1.4-0.6l2.3,5.6l-8,3.3l-2.3-5.5l1.4-0.6l1.6,3.9l1.9-0.8L19,95.6l1.3-0.5l1.4,3.4l2.1-0.9
		L22.1,93.6z"/>
	<path class="st3" d="M15.4,87.8c0,0.1-0.1,0.2-0.1,0.4c-0.1,0.2-0.1,0.4-0.1,0.6c0,0.2-0.1,0.5-0.1,0.7c0,0.3,0,0.5,0.1,0.8
		c0.1,0.5,0.3,0.8,0.5,0.9c0.2,0.2,0.5,0.2,0.8,0.2c0.2,0,0.3-0.1,0.4-0.2c0.1-0.1,0.2-0.3,0.2-0.4c0-0.2,0.1-0.4,0.1-0.7
		c0-0.3,0-0.6,0-0.9c0-0.4,0-0.8,0.1-1.2c0-0.4,0.1-0.7,0.3-1c0.1-0.3,0.3-0.5,0.5-0.7c0.2-0.2,0.5-0.3,0.9-0.4
		c0.5-0.1,0.9-0.1,1.2,0c0.4,0.1,0.7,0.3,1,0.5c0.3,0.2,0.5,0.5,0.7,0.9c0.2,0.4,0.3,0.7,0.4,1.1c0.2,0.6,0.2,1.3,0.2,2
		c0,0.7-0.2,1.3-0.4,1.9l-1.6-0.4c0.1-0.1,0.1-0.2,0.2-0.5c0.1-0.2,0.1-0.5,0.2-0.7c0.1-0.3,0.1-0.6,0.1-0.9c0-0.3,0-0.7-0.1-1
		c-0.2-0.9-0.6-1.3-1.2-1.1c-0.2,0-0.3,0.1-0.4,0.3c-0.1,0.1-0.2,0.3-0.2,0.5c0,0.2-0.1,0.5-0.1,0.8c0,0.3,0,0.6,0,1
		c0,0.4,0,0.8-0.1,1.1c-0.1,0.3-0.1,0.6-0.3,0.9c-0.1,0.2-0.3,0.4-0.5,0.6c-0.2,0.2-0.5,0.3-0.8,0.4c-0.4,0.1-0.8,0.1-1.2,0.1
		s-0.7-0.2-1-0.4c-0.3-0.2-0.5-0.5-0.8-0.9c-0.2-0.3-0.4-0.7-0.5-1.2c-0.2-0.6-0.2-1.2-0.1-1.7c0.1-0.5,0.2-1,0.3-1.5L15.4,87.8z"/>
	<path class="st3" d="M14.1,78.6c-0.1,0.1-0.1,0.2-0.2,0.3c-0.1,0.2-0.2,0.4-0.2,0.6c-0.1,0.2-0.1,0.5-0.2,0.7c0,0.3,0,0.5,0,0.8
		c0,0.5,0.2,0.8,0.4,1c0.2,0.2,0.4,0.3,0.8,0.3c0.2,0,0.3-0.1,0.4-0.2c0.1-0.1,0.2-0.2,0.3-0.4c0.1-0.2,0.1-0.4,0.2-0.6
		c0-0.3,0.1-0.6,0.1-0.9c0.1-0.4,0.2-0.8,0.3-1.2c0.1-0.4,0.2-0.7,0.4-0.9c0.2-0.3,0.4-0.5,0.6-0.6c0.3-0.2,0.6-0.3,1-0.3
		c0.5,0,0.9,0,1.2,0.1c0.3,0.1,0.6,0.4,0.9,0.6c0.2,0.3,0.4,0.6,0.5,1c0.1,0.4,0.2,0.8,0.3,1.2c0.1,0.7,0,1.3-0.1,2
		c-0.1,0.7-0.4,1.3-0.7,1.8l-1.5-0.6c0.1-0.1,0.2-0.2,0.2-0.4c0.1-0.2,0.2-0.4,0.3-0.7c0.1-0.3,0.2-0.6,0.2-0.9c0-0.3,0.1-0.7,0-1
		c-0.1-0.9-0.4-1.4-1-1.3c-0.2,0-0.3,0.1-0.5,0.2c-0.1,0.1-0.2,0.3-0.3,0.5c-0.1,0.2-0.1,0.5-0.2,0.7c-0.1,0.3-0.1,0.6-0.2,1
		c-0.1,0.4-0.2,0.8-0.3,1.1c-0.1,0.3-0.2,0.6-0.4,0.8c-0.2,0.2-0.4,0.4-0.6,0.5S15.4,84,15.1,84c-0.4,0-0.8,0-1.2-0.1
		c-0.4-0.1-0.7-0.3-0.9-0.6c-0.3-0.3-0.5-0.6-0.6-1c-0.2-0.4-0.3-0.8-0.3-1.2c-0.1-0.6,0-1.2,0.1-1.7c0.1-0.5,0.3-1,0.5-1.4
		L14.1,78.6z"/>
	<path class="st3" d="M18.4,67l-1.5-0.3l0.6-3.7l1.5,0.3L18.4,67z"/>
</g>
</svg>
