<?xml version="1.0" encoding="UTF-8"?>
<svg enable-background="new 0 0 1500 200" version="1.1" viewBox="0 0 1500 200" xml:space="preserve" xmlns="http://www.w3.org/2000/svg">

	
		
			<path d="m62.1 18.8h11.9l18.1 45.5 18.2-45.5h12.1l-22.4 54.7 24.6 58 46.4-113.6h13.7l-54.4 128.3h-11.2l-26.8-63.5-27.1 63.4h-11l-54.2-128.2h13.6l46.6 113.6 24.4-58-22.5-54.7z"/>
			<path d="m238.5 148c-6.9 0-13.2-1.3-18.9-3.9s-10.7-6.1-14.9-10.7c-4.2-4.5-7.5-9.7-9.8-15.6s-3.5-12.2-3.5-19c0-6.6 1.2-12.9 3.5-18.7s5.6-11 9.8-15.4 9.1-7.9 14.9-10.5 12-3.9 18.8-3.9c6.9 0 13.2 1.3 18.9 3.9s10.6 6.1 14.7 10.6 7.3 9.6 9.6 15.4 3.4 11.9 3.4 18.4v2.9c0 1-0.1 1.6-0.2 2h-80.6c0.4 5.1 1.5 9.7 3.5 14s4.5 8 7.7 11.1c3.1 3.1 6.7 5.6 10.7 7.3s8.3 2.6 12.9 2.6c3 0 6-0.4 9-1.3 3-0.8 5.8-2 8.3-3.4s4.8-3.2 6.9-5.3c2-2.1 3.6-4.4 4.7-7l10.7 2.9c-1.4 3.5-3.5 6.7-6.1 9.5-2.7 2.8-5.7 5.3-9.2 7.4s-7.3 3.7-11.6 4.9-8.6 1.8-13.2 1.8zm34.7-53.9c-0.4-5.1-1.5-9.7-3.5-13.8-2-4.2-4.5-7.7-7.6-10.8-3.1-3-6.6-5.4-10.7-7-4-1.7-8.3-2.5-12.9-2.5s-8.9 0.8-13 2.5-7.7 4-10.7 7c-3.1 3-5.5 6.6-7.4 10.8s-3 8.8-3.3 13.7h69.1z"/>
			<path d="M484.2,146.2V40.8l-46.8,81.5H430l-46.8-81.5v105.3h-12.6V17.9h13l50,87.8L484,17.9h12.8v128.3H484.2z"/>
			<path d="m558.3 148c-4.5 0-8.6-0.8-12.4-2.3s-7.1-3.6-9.9-6.2-5-5.8-6.6-9.3c-1.6-3.6-2.3-7.4-2.3-11.5s1-7.9 2.9-11.4 4.6-6.5 8.1-9 7.6-4.5 12.5-5.9c4.8-1.4 10.1-2.1 15.9-2.1 4.8 0 9.7 0.4 14.6 1.3 4.9 0.8 9.3 2 13.2 3.6v-8.5c0-8.3-2.3-14.9-7-19.8s-11.2-7.3-19.5-7.3c-4.8 0-9.8 1-14.8 2.9-5.1 1.9-10.2 4.7-15.4 8.3l-4.3-8.1c12.2-8.2 24-12.3 35.4-12.3 11.8 0 21.1 3.3 27.8 9.9s10.1 15.8 10.1 27.5v42.5c0 3.4 1.5 5.1 4.5 5.1v10.8c-2 0.4-3.6 0.5-4.7 0.5-3.1 0-5.6-0.8-7.3-2.3-1.7-1.6-2.7-3.7-2.8-6.5l-0.4-7.4c-4.3 5.7-9.8 10-16.3 13-6.7 3-13.8 4.5-21.3 4.5zm2.8-9.4c6.4 0 12.3-1.2 17.6-3.6 5.4-2.4 9.4-5.6 12.2-9.6 1.1-1.1 1.9-2.3 2.4-3.5 0.5-1.3 0.8-2.4 0.8-3.5v-15.4c-4.1-1.6-8.3-2.8-12.7-3.6s-8.9-1.3-13.5-1.3c-8.7 0-15.7 1.8-21.1 5.4s-8.1 8.4-8.1 14.3c0 2.9 0.6 5.6 1.7 8.1s2.7 4.7 4.7 6.6 4.4 3.3 7.1 4.4c2.9 1.1 5.8 1.7 8.9 1.7z"/>
			<path d="m709.3 146.2-34.7-48.2-20.2 18.8v29.4h-12.3v-131.9h12.3v89.6l52.9-51.7h13.9l-38.5 38.5 39.9 55.5h-13.3z"/>
			<path d="m782.6 148c-6.9 0-13.2-1.3-18.9-3.9s-10.7-6.1-14.9-10.7c-4.2-4.5-7.5-9.7-9.8-15.6s-3.5-12.2-3.5-19c0-6.6 1.2-12.9 3.5-18.7s5.6-11 9.8-15.4 9.1-7.9 14.9-10.5 12-3.9 18.8-3.9c6.9 0 13.2 1.3 18.9 3.9s10.6 6.1 14.7 10.6 7.3 9.6 9.6 15.4 3.4 11.9 3.4 18.4v2.9c0 1-0.1 1.6-0.2 2h-80.6c0.4 5.1 1.5 9.7 3.5 14s4.5 8 7.7 11.1c3.1 3.1 6.7 5.6 10.7 7.3s8.3 2.6 12.9 2.6c3 0 6-0.4 9-1.3 3-0.8 5.8-2 8.3-3.4s4.8-3.2 6.9-5.3c2-2.1 3.6-4.4 4.7-7l10.7 2.9c-1.4 3.5-3.5 6.7-6.1 9.5-2.7 2.8-5.7 5.3-9.2 7.4s-7.3 3.7-11.6 4.9c-4.2 1.2-8.6 1.8-13.2 1.8zm34.7-53.9c-0.4-5.1-1.5-9.7-3.5-13.8-2-4.2-4.5-7.7-7.6-10.8-3.1-3-6.6-5.4-10.7-7-4-1.7-8.3-2.5-12.9-2.5s-8.9 0.8-13 2.5-7.7 4-10.7 7c-3.1 3-5.5 6.6-7.4 10.8s-3 8.8-3.3 13.7h69.1z"/>
		
	
	
		
			<path d="m1013.2 146.2v-85l-33.1 63.2h-13.6l-33.1-63.2v84.9h-24.9v-128.2h26.7l37.9 73 38.3-73h26.6v128.3h-24.8z"/>
			<path d="m1096.4 148c-4.6 0-8.9-0.8-12.8-2.3-4-1.5-7.4-3.6-10.3-6.3s-5.1-5.9-6.8-9.5c-1.6-3.6-2.4-7.6-2.4-11.9 0-4.5 1-8.6 3-12.4s4.8-7 8.3-9.7c3.6-2.6 7.8-4.7 12.7-6.2s10.4-2.3 16.3-2.3c4.2 0 8.3 0.4 12.4 1.1 4 0.7 7.6 1.7 10.7 3.1v-5.4c0-6.3-1.8-11.1-5.3-14.5-3.6-3.4-8.8-5.1-15.8-5.1-5.1 0-10 0.9-14.8 2.7s-9.8 4.5-14.8 7.9l-7.4-15.4c12.2-8.1 25.3-12.1 39.4-12.1 13.6 0 24.2 3.3 31.7 10s11.3 16.3 11.3 29v29.4c0 2.5 0.5 4.3 1.4 5.4s2.4 1.7 4.4 1.8v20.6c-4.1 0.8-7.6 1.3-10.7 1.3-4.6 0-8.1-1-10.6-3.1-2.5-2-4-4.8-4.6-8.1l-0.5-5.2c-4.2 5.5-9.3 9.8-15.4 12.6-6 3.1-12.5 4.6-19.4 4.6zm6.9-17.7c4.1 0 8-0.7 11.7-2.2 3.7-1.4 6.5-3.4 8.6-5.8 2.6-2 4-4.3 4-6.9v-10.8c-2.9-1.1-6-2-9.4-2.6-3.4-0.7-6.6-1-9.8-1-6.3 0-11.4 1.4-15.4 4.2s-6 6.4-6 10.7c0 4.1 1.6 7.5 4.7 10.2 3.2 2.8 7 4.2 11.6 4.2z"/>
			<path d="m1220.4 146.7c-6.4 0-12.2-1.3-17.3-3.8-5.2-2.5-9.7-6-13.5-10.4s-6.7-9.5-8.8-15.3c-2-5.8-3.1-11.9-3.1-18.4 0-6.9 1.1-13.2 3.3-19.2 2.2-5.9 5.2-11.1 9-15.5 3.9-4.5 8.5-7.9 13.9-10.5 5.4-2.5 11.4-3.8 17.9-3.8 7.3 0 13.8 1.7 19.3 5s10.1 7.7 13.7 13.3v-16.6h21.1v90.2c0 7-1.3 13.2-4 18.8-2.7 5.5-6.3 10.2-10.9 14.1s-10.2 6.8-16.6 8.9c-6.4 2-13.5 3.1-21 3.1-10.4 0-19.1-1.7-26.1-5.1s-13.1-8.3-18.2-14.5l13.2-12.8c3.6 4.5 8.2 7.9 13.6 10.5 5.5 2.5 11.3 3.8 17.4 3.8 3.7 0 7.3-0.5 10.8-1.5 3.4-1 6.5-2.6 9.1-4.8s4.7-4.9 6.2-8.3 2.3-7.3 2.3-11.9v-11.9c-3.1 5.4-7.5 9.6-13.2 12.6-5.5 2.5-11.6 4-18.1 4zm8.1-19.3c2.6 0 5.2-0.4 7.6-1.3 2.4-0.8 4.6-2 6.7-3.4 2-1.4 3.9-3.1 5.4-5.1 1.6-1.9 2.8-4 3.6-6.1v-22.6c-2.2-5.5-5.6-10-10.2-13.4s-9.5-5.1-14.5-5.1c-3.7 0-7.1 0.8-10.1 2.4s-5.6 3.8-7.8 6.5-3.8 5.8-5 9.3c-1.1 3.5-1.7 7.1-1.7 10.8 0 3.9 0.7 7.5 2 10.8 1.3 3.4 3.2 6.3 5.5 8.9 2.3 2.5 5.1 4.5 8.2 6s6.6 2.3 10.3 2.3z"/>
			<path d="m1306.9 38.3v-24h24.2v24h-24.2zm0 107.9v-94.7h24.2v94.7h-24.2z"/>
			<path d="m1356.1 98.8c0-6.6 1.1-12.9 3.4-18.8s5.6-11.1 9.9-15.5c4.3-4.5 9.6-8 15.7-10.7 6.1-2.6 13.1-4 20.8-4 10.4 0 19.2 2.2 26.5 6.7s12.7 10.3 16.4 17.5l-23.7 7.2c-2-3.5-4.8-6.2-8.1-8-3.4-1.9-7.1-2.8-11.2-2.8-3.5 0-6.7 0.7-9.8 2.1-3 1.4-5.6 3.3-7.9 5.8-2.2 2.5-4 5.5-5.2 8.9-1.3 3.5-1.9 7.3-1.9 11.6 0 4.2 0.7 8.1 2 11.6s3.1 6.5 5.3 9 4.8 4.5 7.9 5.9c3 1.4 6.2 2.1 9.6 2.1 4.3 0 8.3-1.1 12-3.3s6.2-4.8 7.7-7.9l23.7 7.2c-3.3 7.2-8.6 13.1-16.1 17.7s-16.4 6.9-26.9 6.9c-7.7 0-14.6-1.3-20.8-4-6.1-2.6-11.4-6.2-15.7-10.7s-7.7-9.8-10-15.7c-2.5-6-3.6-12.3-3.6-18.8z"/>
		
	
	
		
			<path d="m1462.9 18.8h-9.8v25.5h-5.9v-25.5h-9.8v-5.2h25.6v5.2z"/>
			<path d="M1494,44.3V24l-7.9,15.2h-3.3l-7.9-15.2v20.4h-6V13.6h6.4l9.1,17.5l9.2-17.5h6.4v30.8H1494z"/>
		
	

</svg>
