<?xml version="1.0" encoding="utf-8"?>
<!-- Generator: Adobe Illustrator 25.2.3, SVG Export Plug-In . SVG Version: 6.00 Build 0)  -->
<svg version="1.1" id="Layer_1" xmlns="http://www.w3.org/2000/svg" xmlns:xlink="http://www.w3.org/1999/xlink" x="0px" y="0px"
	 viewBox="0 0 24 24" style="enable-background:new 0 0 24 24;" xml:space="preserve">
<style type="text/css">
	.st0{fill:#2B2B2B;}
</style>
<path id="Path_1056" class="st0" d="M14.8,8.7l-2.3-8.3c-0.1-0.3-0.4-0.5-0.7-0.4c-0.2,0-0.3,0.2-0.4,0.4L8.8,8.6
	C8.8,8.8,8.6,8.9,8.5,9l-7.3,2.3c-0.3,0.1-0.4,0.4-0.4,0.7c0.1,0.2,0.2,0.3,0.3,0.3l7.3,2.6c0.2,0.1,0.3,0.2,0.3,0.4l2.5,8.3
	c0.1,0.3,0.4,0.4,0.7,0.4c0.2-0.1,0.3-0.2,0.4-0.4l2.4-8.2c0-0.2,0.2-0.3,0.3-0.4l7.8-2.8c0.3-0.1,0.4-0.4,0.3-0.7
	c-0.1-0.2-0.2-0.3-0.4-0.3l-7.7-2.2C15,9,14.9,8.9,14.8,8.7z"/>
</svg>
