<?xml version="1.0" encoding="utf-8"?>
<!-- Generator: Adobe Illustrator 25.2.3, SVG Export Plug-In . SVG Version: 6.00 Build 0)  -->
<svg version="1.1" id="Layer_1" xmlns="http://www.w3.org/2000/svg" xmlns:xlink="http://www.w3.org/1999/xlink" x="0px" y="0px"
	 viewBox="0 0 500 500" style="enable-background:new 0 0 500 500;" xml:space="preserve">
<style type="text/css">
	.st0{opacity:5.000000e-02;fill:#444545;enable-background:new    ;}
</style>
<path id="Icon_awesome-phone-alt" class="st0" d="M14.3,353.3l109.4-46.9c9.6-4.1,20.7-1.3,27.3,6.7l48.4,59.2
	c76-35.8,137.2-97,173-173l-59.2-48.4c-8.1-6.6-10.8-17.7-6.7-27.3l46.9-109.4c4.5-10.4,15.8-16.1,26.9-13.6L481.8,24
	C492.5,26.5,500,36,500,46.9C500,297.4,297,500,46.9,500c-10.9,0-20.4-7.5-22.9-18.2L0.6,380.3C-1.9,369.2,3.8,357.9,14.3,353.3z"/>
</svg>
