<?xml version="1.0" encoding="utf-8"?>
<!-- Generator: Adobe Illustrator 25.2.3, SVG Export Plug-In . SVG Version: 6.00 Build 0)  -->
<svg version="1.1" id="Layer_1" xmlns="http://www.w3.org/2000/svg" xmlns:xlink="http://www.w3.org/1999/xlink" x="0px" y="0px"
	 viewBox="0 0 600 500" style="enable-background:new 0 0 600 500;" xml:space="preserve">
<style type="text/css">
	.st0{fill:url(#Path_1196_1_);}
	.st1{fill:url(#Path_1197_1_);}
	.st2{fill:url(#Path_1198_1_);}
	.st3{fill:url(#Path_1199_1_);}
	.st4{fill:url(#Path_1200_1_);}
	.st5{fill:url(#Path_1201_1_);}
	.st6{fill:url(#Path_1202_1_);}
	.st7{fill:url(#Path_1203_1_);}
	.st8{fill:url(#Path_1204_1_);}
	.st9{fill:url(#Path_1205_1_);}
</style>
<g id="_29" transform="translate(-2075.076 -2105.648)">
	
		<linearGradient id="Path_1196_1_" gradientUnits="userSpaceOnUse" x1="2176.9736" y1="2606.3027" x2="2176.2817" y2="2605.5225" gradientTransform="matrix(579.781 0 0 -501.6614 -1259527.375 1309615.25)">
		<stop  offset="0" style="stop-color:#3F3A74"/>
		<stop  offset="0.345" style="stop-color:#5166D7"/>
		<stop  offset="1" style="stop-color:#43F59F"/>
	</linearGradient>
	<path id="Path_1196" class="st0" d="M2555.1,2605.6c-9,0-18-1.4-26.6-3.9c-8.7-2.6-17.1-6-25.1-10.4c-8.1-4.4-15.9-9.4-23.2-14.9
		c-7.3-5.5-14.3-11.3-20.9-17.5c-8.5-7.9-16.7-16.9-24.6-25.6c-12-13.2-24.5-26.9-38.3-37c-6.7-5-14.2-9.1-22-12.1
		c-8.2-3.1-16.8-4.6-25.6-4.6c-4.8,0-9.5,0.4-14.2,1.2c-6.4,1.2-12.8,3-18.9,5.3c-6.2,2.3-12.5,5.1-18.6,7.8
		c-7.9,3.5-16.2,7.1-24.5,9.9c-8.5,2.9-17.4,4.6-26.3,4.9c-0.6,0-1.2,0-1.7,0h0c-6.2,0-12.4-0.8-18.5-2.3
		c-5.8-1.5-11.3-3.7-16.6-6.5c-5.3-2.8-10.2-6.2-14.9-10c-4.7-3.9-9.2-8.1-13.3-12.7c-16.8-18.3-30.3-42-42.2-62.8
		c-4.2-7.4-8.2-14.4-12.1-20.8c-10.1-16.4-21.5-35.7-29.6-56.1c-4.1-9.9-7.1-20.2-9.2-30.7c-1-5.2-1.6-10.4-1.9-15.7
		c-0.3-5.3-0.1-10.5,0.5-15.8c0.7-6.7,2.2-13.3,4.5-19.7c4-11.1,10.9-21,19.9-28.6c4.4-3.7,9.1-6.9,14.1-9.7
		c5.2-2.8,10.6-5.2,16.1-7.1c5.7-2,11.6-3.7,17.5-5c12.1-2.6,24.4-4.4,36.8-5.4c11.5-1,23.2-1.2,34.5-1.4c16.4-0.3,33.5-0.6,50-3.3
		c10-1.5,19.8-4.4,29-8.8c9.1-4.4,17.2-10.5,24-18c5.5-6.1,10.3-13.2,15.4-20.7c10.4-15.4,21.1-31.2,38.8-38.3
		c6.6-2.6,13.6-4,20.7-4c11.8,0,24.5,3.5,38.7,10.8c12.3,6.3,24.1,14.6,34.5,21.9c1.7,1.2,3.2,2.3,4.8,3.4
		c19.6,13.6,38.4,28.4,56.2,44.2c18.1,16.1,35,33.7,50.4,52.4c7.8,9.6,15,19.4,21.5,29.2c6.6,10,12.7,20.4,18.2,31.1
		c5.5,10.7,10.2,21.6,14.3,32.9c4.1,11.3,7.4,22.9,9.8,34.7c1.8,8.5,3.2,17.3,4.4,26.2c1.2,9.4,2.1,18.9,2.7,28.2
		c1.2,19.6,0.6,39.3-1.8,58.7c-2.6,20.7-7.5,39.5-14.4,55.8c-3.6,8.6-8,16.8-13.1,24.5c-5.1,7.7-11,14.7-17.7,21.1
		c-5.1,4.8-10.7,9-16.7,12.6c-6,3.6-12.4,6.4-19.1,8.4C2572.4,2604.4,2563.8,2605.6,2555.1,2605.6z M2348.7,2477.2
		c9,0,18,1.6,26.4,4.7c8.1,3.1,15.7,7.3,22.6,12.4c14,10.2,26.6,24,38.7,37.3c7.9,8.7,16,17.6,24.5,25.5c6.6,6.2,13.5,12,20.7,17.4
		c7.3,5.5,14.9,10.4,22.9,14.7c7.8,4.2,16.1,7.6,24.6,10.2c8.4,2.5,17.2,3.7,26,3.8c8.4,0,16.8-1.3,24.8-3.7
		c6.5-2,12.7-4.7,18.6-8.2c5.8-3.5,11.3-7.6,16.2-12.2c6.5-6.2,12.4-13.1,17.3-20.6c5-7.6,9.4-15.7,12.9-24.1
		c6.8-16.1,11.6-34.7,14.2-55.2c2.4-19.3,3-38.8,1.8-58.3c-0.5-9.3-1.4-18.7-2.6-28c-1.2-8.8-2.6-17.6-4.4-26
		c-2.4-11.7-5.7-23.1-9.7-34.4c-4-11.2-8.8-22.1-14.2-32.6c-5.4-10.6-11.5-20.9-18.1-30.8c-6.4-9.7-13.6-19.5-21.3-29
		c-15.3-18.7-32.1-36.1-50.1-52.2c-17.7-15.8-36.4-30.5-56-44.1c-1.6-1.1-3.1-2.2-4.8-3.4c-10.3-7.3-22.1-15.5-34.2-21.7
		c-13.8-7.1-26.1-10.6-37.5-10.6c-6.8,0-13.5,1.3-19.8,3.8c-4.1,1.7-8,3.8-11.5,6.5c-3.5,2.7-6.8,5.7-9.7,9
		c-6,6.6-11.3,14.4-16.4,21.9c-4.9,7.3-10,14.8-15.6,21c-7,7.7-15.4,14-24.8,18.6c-9.4,4.5-19.4,7.5-29.7,9
		c-16.7,2.7-33.8,3-50.4,3.3c-11.3,0.2-22.9,0.4-34.3,1.4c-12.2,0.9-24.4,2.7-36.4,5.3c-5.8,1.3-11.6,2.9-17.2,4.9
		c-5.4,1.9-10.7,4.2-15.7,7c-4.9,2.6-9.5,5.8-13.7,9.4c-8.7,7.4-15.3,16.9-19.2,27.6c-2.2,6.2-3.7,12.6-4.4,19.1
		c-0.6,5.1-0.7,10.2-0.5,15.4c0.3,5.1,0.9,10.3,1.8,15.3c2,10.3,5,20.5,9,30.2c8.1,20.2,19.5,39.4,29.5,55.7
		c3.9,6.4,7.9,13.4,12.1,20.8c11.8,20.8,25.2,44.3,41.8,62.4c4.1,4.4,8.4,8.6,13.1,12.4c4.5,3.7,9.3,6.9,14.5,9.7
		c5.1,2.7,10.5,4.9,16,6.3c5.8,1.5,11.8,2.3,17.8,2.3h0c0.6,0,1.1,0,1.7,0c8.7-0.3,17.4-1.9,25.6-4.8c8.3-2.7,16.4-6.3,24.3-9.8
		c6.1-2.7,12.4-5.5,18.7-7.8c6.3-2.4,12.7-4.2,19.3-5.4C2338.9,2477.6,2343.8,2477.2,2348.7,2477.2z"/>
	
		<linearGradient id="Path_1197_1_" gradientUnits="userSpaceOnUse" x1="2176.9644" y1="2606.2798" x2="2176.2725" y2="2605.4995" gradientTransform="matrix(535.2297 0 0 -458.9021 -1162558.125 1198180.75)">
		<stop  offset="0" style="stop-color:#3F3A74"/>
		<stop  offset="0.345" style="stop-color:#5166D7"/>
		<stop  offset="1" style="stop-color:#43F59F"/>
	</linearGradient>
	<path id="Path_1197" class="st1" d="M2406.8,2129.4c0.2,0,0.5,0,0.7,0c11.1,0.1,23,3.5,36.3,10.2c11.5,5.8,22.6,13.4,32.4,20.1
		c1.1,0.7,2.2,1.5,3.2,2.2c17.9,12.2,35,25.4,51.2,39.7c16.5,14.5,31.8,30.4,45.8,47.4c30.2,37,49.8,75.9,58.2,115.8
		c1.7,8.1,3.2,16.6,4.3,25.2c1.2,9,2,18.1,2.4,27.1c1,18.8,0.2,37.6-2.5,56.2c-2.7,18.4-7.3,35.1-13.7,49.7c-3.3,7.6-7.3,15-12,21.9
		c-4.6,6.8-10,13.2-16,18.8c-4.7,4.4-9.8,8.3-15.3,11.5c-5.5,3.3-11.4,5.9-17.5,7.8c-7.9,2.5-16.1,3.7-24.3,3.7
		c-6.8,0-13.6-0.8-20.2-2.4c-6.6-1.6-13.1-3.8-19.3-6.5c-12.6-5.7-24.4-13-35.2-21.6c-2-1.6-4.1-3.2-6.1-4.9
		c-2.1-1.8-4.4-3.7-6.6-5.7c-8-7.2-15.7-15.3-23.2-23.3c-11.3-12-23-24.4-36-33.5c-6.4-4.6-13.3-8.3-20.7-11
		c-7.7-2.8-15.8-4.2-23.9-4.1c-3.7,0-7.4,0.3-11.1,0.8c-4.5,0.6-8.9,1.5-13.2,2.8c-3.8,1.1-7.9,2.4-12.9,4.2c-2.8,1-5.7,2.1-8.4,3.1
		c-14.7,5.5-29.9,11.3-46.6,11.3c-0.3,0-0.6,0-0.9,0c-5.1-0.1-10.1-0.6-15.1-1.8c-4.7-1.1-9.3-2.7-13.7-4.7
		c-14.1-6.5-27.3-18-40.3-35.1c-11.4-14.8-21.2-32-29.9-47.1c-3.8-6.6-7.3-12.8-10.8-18.5c-7-11.5-14.4-23.9-20.8-37.2
		c-7.2-14.9-11.9-28.3-14.5-41c-1.1-5.1-1.7-10.3-2.1-15.5c-0.3-5.2-0.2-10.5,0.3-15.7c0.6-6.2,2-12.3,4-18.2
		c1.8-5.3,4.3-10.3,7.4-14.9c3-4.4,6.4-8.4,10.4-11.9c3.9-3.5,8.2-6.6,12.8-9.2c4.7-2.7,9.6-5,14.6-6.9c5.2-2,10.5-3.6,15.9-4.9
		c11.1-2.6,22.4-4.4,33.8-5.3c6.5-0.6,13.5-0.9,21.9-0.9c5.7,0,11.4,0.1,16.9,0.2c5.4,0.1,11.1,0.2,16.6,0.2
		c7.6,0.1,15.3-0.3,22.9-1c1.3-0.1,2.5-0.3,3.8-0.5c18.7-2.6,33.6-9.5,45.5-21.2c5.4-5.3,10.1-11.6,15.1-18.2
		c5-6.6,10.1-13.4,16.1-19.4c3-3,6.2-5.8,9.6-8.2c3.5-2.5,7.4-4.6,11.4-6.2h0C2393.6,2130.6,2400.2,2129.4,2406.8,2129.4z
		 M2540.1,2584.3c8,0,15.9-1.2,23.6-3.6c5.9-1.9,11.6-4.4,17-7.6c5.3-3.2,10.3-6.9,14.9-11.2c5.9-5.6,11.1-11.7,15.6-18.4
		c4.6-6.8,8.5-14,11.8-21.5c6.3-14.4,10.9-30.9,13.5-49.1c2.6-18.5,3.4-37.1,2.4-55.7c-0.4-8.9-1.2-18-2.4-26.9
		c-1.1-8.5-2.5-16.9-4.3-25c-8.4-39.5-27.8-78.1-57.7-114.7c-13.9-16.9-29.1-32.6-45.5-47.1c-16.1-14.2-33.1-27.5-50.9-39.6
		c-1.1-0.7-2.1-1.5-3.2-2.2c-9.7-6.6-20.7-14.2-32.1-19.9c-13-6.6-24.5-9.8-35.3-10c-0.2,0-0.5,0-0.7,0c-6.3,0-12.6,1.1-18.5,3.4
		c-15.9,6.2-26.1,19.8-36,32.9c-5.1,6.7-9.9,13.1-15.4,18.5c-12.3,12.1-27.6,19.2-46.9,21.9c-1.2,0.2-2.5,0.3-3.8,0.5
		c-7.7,0.8-15.4,1.1-23.1,1c-5.5,0-11.2-0.1-16.6-0.2c-5.5-0.1-11.2-0.2-16.8-0.2c-8.3,0-15.2,0.3-21.6,0.9
		c-11.3,0.9-22.4,2.7-33.4,5.3c-5.3,1.3-10.5,2.9-15.6,4.8c-4.9,1.8-9.7,4.1-14.2,6.7c-4.4,2.5-8.5,5.5-12.3,8.9
		c-3.8,3.4-7.1,7.2-10,11.4c-3,4.5-5.4,9.3-7.2,14.3c-2,5.7-3.3,11.6-3.9,17.6c-0.5,5.1-0.6,10.2-0.3,15.2c0.3,5.1,1,10.2,2,15.2
		c2.5,12.5,7.2,25.7,14.3,40.4c6.4,13.2,13.7,25.6,20.7,37c3.5,5.8,7.1,12,10.8,18.5c8.6,15.1,18.4,32.2,29.7,46.9
		c12.8,16.8,25.7,28,39.4,34.4c4.2,2,8.7,3.5,13.3,4.5c4.8,1.1,9.6,1.6,14.5,1.7c0.3,0,0.6,0,0.9,0c7.9-0.1,15.8-1.3,23.4-3.5
		c7.6-2.1,15.1-4.9,22.3-7.6c2.8-1,5.6-2.1,8.5-3.1c5.1-1.8,9.2-3.2,13.1-4.3c4.5-1.2,9-2.2,13.6-2.8c3.8-0.5,7.6-0.8,11.4-0.8
		c8.4,0,16.8,1.4,24.8,4.3c7.6,2.8,14.7,6.6,21.2,11.3c13.2,9.3,25,21.8,36.4,33.8c7.4,7.9,15.1,16,23.1,23.1c2.2,2,4.4,3.9,6.5,5.7
		c2,1.7,4.1,3.3,6,4.9c10.6,8.5,22.3,15.7,34.7,21.3c6.1,2.7,12.4,4.8,18.9,6.4C2526.9,2583.6,2533.5,2584.3,2540.1,2584.3z"/>
	
		<linearGradient id="Path_1198_1_" gradientUnits="userSpaceOnUse" x1="2176.9531" y1="2606.2522" x2="2176.2615" y2="2605.4719" gradientTransform="matrix(490.6399 0 0 -416.1721 -1065505 1086822.625)">
		<stop  offset="0" style="stop-color:#3F3A74"/>
		<stop  offset="0.345" style="stop-color:#5166D7"/>
		<stop  offset="1" style="stop-color:#43F59F"/>
	</linearGradient>
	<path id="Path_1198" class="st2" d="M2405.5,2153.2c0.2,0,0.4,0,0.6,0c10.6,0.1,21.9,3.2,34.6,9.5c11,5.4,21.5,12.4,30.8,18.6
		l1.4,0.9c16.1,10.7,31.6,22.5,46.2,35.3c14.9,13,28.6,27.1,41.2,42.3c27.1,33,44.8,67.8,52.7,103.7c1.6,7.5,3,15.3,4.1,23.3
		c1.1,8.3,1.8,16.7,2.2,25c0.9,17.3,0,34.6-2.5,51.7c-2.2,15.7-6.6,31.1-12.8,45.7c-3.1,7-6.8,13.8-11.1,20.2
		c-4.3,6.3-9.2,12.1-14.8,17.4c-4.2,4-8.9,7.5-13.9,10.5c-5,3-10.3,5.4-15.9,7.2c-7.5,2.4-15.3,3.6-23.1,3.6
		c-6.1,0-12.2-0.7-18.1-2.1c-5.9-1.4-11.8-3.2-17.4-5.6c-11.3-4.9-22-11.2-31.8-18.7c-1.8-1.3-3.7-2.8-5.6-4.3c-2-1.6-4-3.3-6.1-5
		c-7.5-6.5-14.8-13.8-21.8-20.9c-10.6-10.8-21.6-21.9-33.7-30.1c-6-4.1-12.5-7.4-19.3-9.8c-7.2-2.5-14.7-3.7-22.3-3.7
		c-2.6,0-5.2,0.1-7.8,0.4c-4.1,0.4-8.2,1-12.3,1.9c-3.5,0.8-7.2,1.7-11.9,3.1c-2.4,0.7-4.9,1.5-7.3,2.2c-12.7,3.8-25.9,7.8-40.2,7.8
		c-1.4,0-2.8,0-4.1-0.1c-4.6-0.2-9.1-0.9-13.6-2c-4.3-1.1-8.5-2.6-12.5-4.6c-12.9-6.3-25-17.1-37.1-33
		c-10.5-13.8-19.6-29.6-27.7-43.6c-3.3-5.7-6.4-11.1-9.5-16.1c-6-9.9-13-21.8-19-34.2c-6.5-13.6-10.9-26-13.2-37.7
		c-2-9.4-2.6-19.1-1.8-28.6c0.5-5.7,1.7-11.3,3.4-16.7c1.6-4.9,3.8-9.5,6.5-13.8c2.6-4.1,5.7-7.8,9.2-11.2c3.5-3.3,7.3-6.2,11.4-8.8
		c14.3-8.9,33.4-14.4,58.3-16.8c4.6-0.5,9.4-0.7,14.6-0.7c9,0,17.9,0.7,26.5,1.3c8.7,0.7,16.9,1.3,25.2,1.3c2,0,3.9,0,5.7-0.1
		c1.2,0,2.3-0.1,3.4-0.2c17-1.2,30.7-6.5,42.1-16.3c5.3-4.5,10-10,15-15.9c4.8-5.8,10-11.3,15.4-16.5c5.7-5.4,12.5-9.6,19.8-12.5h0
		C2393.3,2154.3,2399.4,2153.2,2405.5,2153.2z M2525.1,2565.5c7.6,0,15.1-1.2,22.4-3.5c5.4-1.7,10.5-4.1,15.4-7
		c4.9-2.9,9.4-6.3,13.5-10.2c5.4-5.1,10.3-10.8,14.4-17c4.2-6.2,7.9-12.9,10.9-19.8c6.2-14.4,10.4-29.6,12.7-45.1
		c2.5-17,3.3-34.1,2.5-51.2c-0.4-8.2-1.1-16.6-2.2-24.8c-1-7.9-2.4-15.6-4-23.1c-7.8-35.5-25.4-70-52.2-102.6
		c-12.5-15.1-26.2-29.1-40.9-42c-14.5-12.7-29.8-24.4-45.9-35.1l-1.4-0.9c-9.2-6.1-19.7-13.1-30.5-18.4c-12.4-6.1-23.3-9.1-33.5-9.2
		c-0.2,0-0.4,0-0.6,0c-5.8,0-11.6,1-17.1,3c-14.7,5.6-24.6,17.2-34.2,28.3c-5.1,5.9-9.9,11.5-15.3,16.2c-6,5.2-12.9,9.3-20.4,12
		c-7.5,2.7-15.3,4.3-23.2,4.8c-1.1,0.1-2.3,0.1-3.5,0.2c-1.9,0.1-3.8,0.1-5.8,0.1c-8.4,0-17-0.6-25.4-1.3
		c-8.6-0.6-17.4-1.3-26.3-1.3c-5.1,0-9.8,0.2-14.4,0.7c-24.6,2.4-43.3,7.7-57.3,16.4c-3.9,2.4-7.6,5.3-11,8.4
		c-3.4,3.2-6.3,6.8-8.8,10.7c-2.6,4.2-4.7,8.6-6.3,13.3c-1.7,5.2-2.8,10.7-3.3,16.2c-0.8,9.3-0.2,18.7,1.7,27.9
		c2.3,11.5,6.6,23.6,13,37.1c5.9,12.3,12.8,24.1,18.9,34c3.1,5.1,6.2,10.5,9.5,16.2c8,13.9,17.1,29.7,27.5,43.3
		c11.9,15.5,23.7,26.1,36.2,32.2c3.8,1.9,7.9,3.3,12,4.4c4.3,1.1,8.7,1.7,13.1,2c1.3,0.1,2.6,0.1,4,0.1c6.8-0.1,13.5-0.9,20.1-2.4
		c6.5-1.4,13.1-3.4,19.4-5.3c2.4-0.7,4.9-1.5,7.4-2.2c4.8-1.4,8.5-2.4,12.1-3.1c4.1-0.9,8.3-1.5,12.6-1.9c2.7-0.3,5.3-0.4,8-0.4
		c4,0,8.1,0.3,12,1c3.8,0.6,7.5,1.6,11.1,2.8c7,2.5,13.7,5.9,19.9,10.1c12.4,8.3,23.4,19.5,34.1,30.4c7,7.1,14.2,14.4,21.7,20.8
		c2.1,1.8,4.1,3.4,6,5c1.9,1.5,3.8,3,5.5,4.3c9.7,7.4,20.2,13.5,31.3,18.4c5.5,2.3,11.1,4.2,16.9,5.5
		C2513.3,2564.9,2519.2,2565.5,2525.1,2565.5z"/>
	
		<linearGradient id="Path_1199_1_" gradientUnits="userSpaceOnUse" x1="2176.9395" y1="2606.2185" x2="2176.2478" y2="2605.438" gradientTransform="matrix(446.1096 0 0 -373.4575 -968581.4375 975504.5)">
		<stop  offset="0" style="stop-color:#3F3A74"/>
		<stop  offset="0.345" style="stop-color:#5166D7"/>
		<stop  offset="1" style="stop-color:#43F59F"/>
	</linearGradient>
	<path id="Path_1199" class="st3" d="M2404.3,2177h0.5c10,0.1,20.6,2.9,32.6,8.5c10.6,5,20.8,11.6,29,16.9
		c14.4,9.3,28.2,19.6,41.1,30.8c13.2,11.4,25.5,23.8,36.6,37.2c11.1,13.3,20.8,27.8,29,43.1c8.1,15.3,14.2,31.6,18.1,48.5
		c1.6,6.9,2.9,14,3.8,21.4c1,7.5,1.7,15.2,2,22.9c0.7,15.8-0.1,31.6-2.5,47.2c-2.1,14.4-6.2,28.4-11.9,41.8
		c-2.9,6.4-6.3,12.6-10.3,18.4c-3.9,5.8-8.5,11.1-13.6,15.9c-3.8,3.6-8,6.8-12.6,9.5c-11,6.6-23.5,10.1-36.3,10.1
		c-5.4,0-10.7-0.6-16-1.7c-5.3-1.1-10.4-2.7-15.4-4.7c-10-4.1-19.6-9.4-28.4-15.7c-1.7-1.2-3.4-2.5-5.1-3.7
		c-1.8-1.4-3.7-2.9-5.6-4.4c-7.1-5.7-14-12.3-20.6-18.7c-9.9-9.5-20.2-19.4-31.6-26.7c-5.6-3.7-11.7-6.6-18-8.7
		c-6.7-2.2-13.7-3.3-20.8-3.3c-1.4,0-2.8,0-4.2,0.1c-3.9,0.2-7.6,0.5-11.3,1c-3.9,0.6-7.7,1.3-11,2c-1.9,0.4-3.8,0.8-5.7,1.2
		c-10.6,2.2-21.5,4.6-33,4.6c-2.9,0-5.7-0.1-8.6-0.4c-4.1-0.4-8.2-1.2-12.1-2.3c-3.9-1.1-7.6-2.6-11.2-4.5
		c-11.7-6.1-22.8-16.2-34-30.9c-9.7-12.7-18.1-27.3-25.6-40.1c-2.8-4.8-5.4-9.3-8-13.6c-12.4-20.4-24.4-42.4-29.1-65.5
		c-1.8-8.6-2.4-17.3-1.7-26.1c0.4-5.2,1.4-10.3,2.9-15.2c1.4-4.5,3.3-8.7,5.6-12.7c2.2-3.8,4.9-7.3,8-10.4c3-3.1,6.4-5.9,10-8.3
		c7.5-4.9,15.7-8.7,24.4-11.1c9.1-2.6,18.5-4.4,27.9-5.3c3.6-0.4,7.3-0.6,11-0.6c10.7,0,21,1.5,30.9,2.9c7.9,1.3,15.9,2.2,23.9,2.7
		c1,0,2,0.1,3.1,0.1c0.3,0,0.5,0,0.8,0c6.8,0.1,13.5-0.8,20-2.7c6.4-1.9,12.5-4.8,17.9-8.7c5.3-3.8,10.1-8.6,15.2-13.7
		c4.6-4.8,9.6-9.3,14.7-13.6c5.5-4.5,11.7-8.1,18.4-10.6l0,0C2393.1,2177.9,2398.7,2177,2404.3,2177z M2510,2546.8
		c12.4,0,24.5-3.4,35.1-9.8c4.4-2.6,8.4-5.7,12.1-9.2c5-4.7,9.4-9.9,13.2-15.5c3.9-5.7,7.2-11.7,10-18c5.7-13.1,9.7-27,11.8-41.1
		c2.4-15.5,3.2-31.1,2.5-46.7c-0.3-7.6-1-15.2-2-22.6c-1-7.2-2.2-14.4-3.8-21.1c-3.9-16.7-9.9-32.8-17.9-47.9
		c-8.1-15.2-17.7-29.5-28.7-42.7c-11.1-13.3-23.2-25.6-36.4-36.9c-12.9-11.1-26.6-21.3-40.9-30.6c-8.1-5.2-18.2-11.8-28.7-16.7
		c-11.6-5.5-22-8.2-31.6-8.3h-0.5c-5.4,0-10.7,0.9-15.7,2.6c-13.4,5-23,14.5-32.2,23.6c-5.2,5.2-10.1,10-15.5,13.9
		c-5.7,4.1-12,7.1-18.7,9.1c-6.7,1.9-13.7,2.8-20.7,2.8c-0.3,0-0.6,0-0.8,0c-1.1,0-2.1,0-3.1-0.1c-8.1-0.5-16.1-1.4-24.1-2.7
		c-9.9-1.4-20.1-2.9-30.6-2.9c-3.6,0-7.1,0.2-10.7,0.6c-9.3,0.9-18.5,2.6-27.5,5.2c-8.4,2.4-16.4,6-23.7,10.8c-3.5,2.3-6.7,5-9.6,8
		c-2.9,3-5.5,6.4-7.6,10c-2.3,3.8-4.1,7.9-5.4,12.2c-1.5,4.8-2.4,9.7-2.8,14.7c-0.6,8.5-0.1,17,1.7,25.4
		c4.6,22.8,16.6,44.6,28.8,64.7c2.6,4.3,5.2,8.8,8,13.6c7.4,12.8,15.8,27.2,25.4,39.8c10.9,14.4,21.7,24.2,33.1,30.2
		c3.4,1.8,7,3.2,10.7,4.3c3.8,1.1,7.8,1.8,11.7,2.3c2.8,0.3,5.5,0.4,8.3,0.4c11.3,0,22.1-2.3,32.5-4.5c1.9-0.4,3.8-0.8,5.7-1.2
		c3.3-0.7,7.2-1.4,11.1-2c3.8-0.5,7.7-0.8,11.6-1c1.5-0.1,2.9-0.1,4.4-0.1c7.3,0,14.6,1.1,21.5,3.4c6.5,2.2,12.8,5.2,18.6,9
		c11.6,7.4,21.9,17.3,32,27c6.6,6.3,13.4,12.8,20.4,18.5c1.8,1.5,3.7,2.9,5.5,4.3c1.7,1.3,3.4,2.5,5.1,3.7
		c8.6,6.2,18,11.4,27.8,15.4c4.9,1.9,9.9,3.5,15,4.6C2499.6,2546.2,2504.8,2546.7,2510,2546.8L2510,2546.8z"/>
	
		<linearGradient id="Path_1200_1_" gradientUnits="userSpaceOnUse" x1="2176.9226" y1="2606.176" x2="2176.2307" y2="2605.3955" gradientTransform="matrix(401.5869 0 0 -330.7761 -871674.375 864273)">
		<stop  offset="0" style="stop-color:#3F3A74"/>
		<stop  offset="0.345" style="stop-color:#5166D7"/>
		<stop  offset="1" style="stop-color:#43F59F"/>
	</linearGradient>
	<path id="Path_1200" class="st4" d="M2403.1,2200.8h0.3c9.2,0.1,18.9,2.4,29.8,7.2c9.7,4.3,18.9,9.8,26.7,14.7
		c12.7,7.9,24.7,16.7,36.1,26.3c11.6,9.8,22.3,20.5,32.1,32.1c9.7,11.6,18.3,24.1,25.4,37.4c7.1,13.3,12.6,27.4,16.1,42.1
		c1.5,6.2,2.7,12.8,3.6,19.4c0.9,6.8,1.5,13.8,1.8,20.7c0.6,14.3-0.2,28.6-2.6,42.8c-2,13-5.8,25.7-11.1,37.8
		c-5.1,11.7-12.5,22.3-21.8,31.1c-3.4,3.2-7.2,6.1-11.2,8.5c-10.2,6.2-21.8,9.5-33.7,9.5c-9.3-0.1-18.5-1.9-27.2-5.2
		c-8.7-3.3-17.1-7.6-24.8-12.8c-1.5-1-3.1-2.1-4.6-3.2c-1.7-1.2-3.4-2.4-5.1-3.7c-6.7-5.1-13.2-10.9-19.5-16.5
		c-9.3-8.3-18.9-17-29.5-23.3c-5.3-3.2-10.9-5.8-16.8-7.6c-6.2-1.9-12.7-2.9-19.2-2.9h-1.1c-0.8,0-1.7,0-2.5,0c-0.8,0-1.6,0-2.4,0
		c-2,0-3.4,0-4.8,0.1c-3.4,0.2-6.8,0.5-10,0.9c-1.3,0.1-2.6,0.3-3.9,0.4c-7.7,1-15.4,1.5-23.1,1.6c-5.3,0-10.6-0.4-15.9-1.3
		c-7.2-1.1-14.2-3.5-20.6-7c-10.6-6-20.7-15.4-30.9-28.9c-8.9-11.7-16.6-25-23.5-36.7c-2.2-3.8-4.3-7.4-6.4-10.8
		c-5.6-9.1-10.8-18.5-15.4-28.2c-4.8-9.9-8.4-20.3-10.7-31.1c-1.6-7.7-2.2-15.6-1.7-23.5c0.5-8.9,2.9-17.5,7-25.4
		c3.8-6.9,9-12.9,15.4-17.5c11.3-8.4,26.9-13.8,46.3-16.1c2.8-0.3,5.7-0.5,8.5-0.5c11.6,0,22.3,2.5,32.8,5
		c6.3,1.5,12.3,2.9,18.3,3.7c0.9,0.1,1.8,0.2,2.7,0.3c2.6,0.3,5.3,0.4,7.9,0.4c4.8,0,9.5-0.5,14.2-1.7c4.6-1.1,9.1-2.9,13.2-5.3
		c5.4-3.1,10.5-7.2,15.9-11.6c4.3-3.5,8.8-7.2,13.8-10.6c5.2-3.6,10.8-6.5,16.7-8.6l0,0C2392.8,2201.6,2397.9,2200.8,2403.1,2200.8z
		 M2494.8,2528c11.4,0,22.7-3.1,32.4-9.1c3.9-2.4,7.5-5.1,10.8-8.2c9-8.6,16.2-18.9,21.2-30.4c5.2-11.9,8.9-24.4,10.9-37.2
		c2.3-14,3.1-28.1,2.5-42.2c-0.3-6.9-0.9-13.8-1.8-20.5c-0.9-6.6-2.1-13.1-3.6-19.2c-3.5-14.5-8.9-28.4-15.9-41.5
		c-7.1-13.2-15.5-25.6-25.2-37c-9.7-11.5-20.3-22.1-31.8-31.8c-11.3-9.6-23.3-18.3-35.8-26.1c-7.7-4.8-16.8-10.3-26.3-14.5
		c-10.6-4.6-20-6.9-28.8-7h-0.3c-4.9,0-9.8,0.7-14.4,2.2c-12,4.3-21,11.7-29.7,18.8c-5.5,4.5-10.6,8.7-16.2,11.9
		c-4.3,2.5-9,4.3-13.9,5.5c-4.8,1.2-9.8,1.8-14.8,1.7c-2.7,0-5.5-0.2-8.2-0.5c-0.9-0.1-1.8-0.2-2.8-0.3c-6.1-0.9-12.1-2.3-18.5-3.8
		c-10.3-2.4-20.9-4.9-32.2-4.9c-2.7,0-5.5,0.2-8.2,0.5c-19,2.2-34.2,7.5-45.1,15.6c-6,4.4-11.1,10.2-14.7,16.7
		c-4,7.6-6.3,15.9-6.7,24.4c-0.5,7.7,0.1,15.3,1.6,22.9c2.3,10.5,5.8,20.8,10.5,30.5c4.6,9.6,9.7,18.9,15.3,27.9
		c2.1,3.5,4.2,7,6.4,10.8c6.8,11.7,14.6,24.9,23.4,36.5c10,13.2,19.8,22.5,30.1,28.3c6.2,3.4,12.8,5.6,19.8,6.7
		c5.1,0.8,10.3,1.3,15.5,1.2c7.6-0.1,15.3-0.7,22.9-1.6c1.3-0.1,2.6-0.3,3.9-0.4c3.2-0.3,6.7-0.7,10.2-0.9c1.4-0.1,2.9-0.1,4.9-0.1
		c0.8,0,1.6,0,2.4,0c0.8,0,1.6,0,2.4,0h1.1c6.8,0,13.5,1,20,3c6.1,1.9,11.9,4.6,17.3,7.9c10.8,6.5,20.5,15.2,29.9,23.6
		c6.2,5.6,12.7,11.4,19.3,16.3c1.7,1.3,3.4,2.5,5,3.6c1.5,1.1,3.1,2.1,4.6,3.1c7.6,5.1,15.8,9.3,24.3,12.5
		C2476.9,2526.2,2485.8,2527.9,2494.8,2528L2494.8,2528z"/>
	
		<linearGradient id="Path_1201_1_" gradientUnits="userSpaceOnUse" x1="2176.9006" y1="2606.1213" x2="2176.209" y2="2605.3408" gradientTransform="matrix(357.0791 0 0 -288.1399 -774799.75 753159.25)">
		<stop  offset="0" style="stop-color:#3F3A74"/>
		<stop  offset="0.345" style="stop-color:#5166D7"/>
		<stop  offset="1" style="stop-color:#43F59F"/>
	</linearGradient>
	<path id="Path_1201" class="st5" d="M2401.9,2224.6h0.2c8.4,0,17.2,1.9,27,5.9c8.4,3.5,16.5,7.7,24.3,12.4
		c10.9,6.5,21.3,13.8,31.1,21.9c9.9,8.2,19.2,17.3,27.5,27.1c8.4,9.8,15.7,20.4,21.9,31.7c6.2,11.3,10.9,23.3,14.1,35.7
		c2.9,11.8,4.6,24,5,36.2c0.5,12.8-0.4,25.6-2.6,38.3c-1.9,11.7-5.4,23-10.2,33.8c-4.7,10.5-11.4,20-19.7,28c-3,2.8-6.3,5.3-9.8,7.5
		c-9.4,5.8-20.2,8.9-31.3,8.8c-7.8-0.1-15.6-1.4-23-3.9c-7.4-2.5-14.5-5.8-21.2-9.9c-1.4-0.8-2.8-1.7-4.2-2.6c-1.5-0.9-3-2-4.5-3
		c-6.4-4.4-12.7-9.5-18.7-14.5c-8.3-6.8-16.8-13.8-26-19.1c-4.6-2.7-9.5-4.9-14.5-6.6c-5.3-1.8-10.8-2.8-16.3-3.2
		c-1.5-0.1-3-0.2-4.5-0.4c-1.7-0.2-3.3-0.3-5-0.4c-2.6-0.1-5.3-0.2-7.8-0.2l-1.3,0l-1.1,0c-5.9-0.1-12.1-0.2-18.2-0.7
		c-6.5-0.5-12.9-1.5-19.2-3c-6.3-1.4-12.3-3.8-17.8-7.1c-9.5-5.8-18.6-14.7-27.9-27.1c-8.1-10.8-15.2-22.9-21.5-33.5
		c-1.6-2.7-3.1-5.2-4.6-7.7c-5-8.1-9.5-16.5-13.6-25.2c-4.2-8.9-7.3-18.2-9.4-27.8c-1.4-6.9-2-13.9-1.6-21
		c0.9-16.5,7.1-29.7,18.3-39.2c5.5-4.5,11.6-8,18.3-10.5c7.1-2.6,14.6-4.4,22.1-5.3c2.3-0.3,4.6-0.4,6.9-0.4c12,0,22.6,3.8,32.9,7.5
		c4.7,1.7,9.1,3.2,13.6,4.5c0.8,0.2,1.6,0.4,2.4,0.6c4.6,1.1,9.3,1.7,14,1.7c6.2,0,12.3-1.1,18-3.4c5.8-2.3,11.5-5.9,17.5-9.8
		c7.6-4.9,16.3-10.4,26.8-14l0.1,0C2392.5,2225.2,2397.2,2224.6,2401.9,2224.6z M2479.4,2509.3c14.7,0,28.8-5.6,39.4-15.7
		c8.1-7.7,14.6-17,19.1-27.2c4.7-10.6,8.1-21.8,10-33.2c2.2-12.5,3-25.1,2.6-37.7c-0.4-12-2-24-4.9-35.6c-3.2-12.2-7.8-24-13.9-35.1
		c-6.1-11.1-13.4-21.6-21.6-31.2c-8.3-9.7-17.4-18.6-27.2-26.8c-9.7-8-20-15.2-30.8-21.7c-7.7-4.7-15.7-8.8-24-12.3
		c-9.5-3.8-18-5.7-26-5.7h-0.2c-4.4,0-8.8,0.6-13.1,1.9c-10.2,3.5-18.3,8.7-26.2,13.8c-6.1,3.9-11.8,7.6-17.9,10
		c-6,2.4-12.4,3.6-18.9,3.6c-4.9,0-9.8-0.6-14.6-1.8c-0.8-0.2-1.6-0.4-2.4-0.6c-4.6-1.2-9-2.8-13.8-4.5c-10.1-3.6-20.6-7.3-32.1-7.3
		c-2.2,0-4.4,0.1-6.6,0.4c-7.4,0.9-14.6,2.6-21.5,5.2c-6.4,2.3-12.3,5.7-17.5,10c-5.1,4.3-9.2,9.6-12.1,15.5
		c-3.2,6.9-5,14.3-5.3,21.9c-0.3,6.8,0.2,13.7,1.6,20.3c2,9.4,5.1,18.5,9.2,27.2c4,8.5,8.5,16.9,13.5,24.9c1.5,2.5,3,5,4.6,7.7
		c6.3,10.6,13.4,22.6,21.4,33.3c9.1,12.2,18,20.9,27.2,26.5c5.3,3.1,11.1,5.4,17.1,6.8c13,3.2,24.6,3.4,36.8,3.7l1.1,0l1.3,0
		c2.6,0,5.2,0.1,7.9,0.2c1.7,0.1,3.4,0.3,5.1,0.4c1.4,0.1,2.9,0.3,4.4,0.4c5.8,0.4,11.5,1.5,17,3.3c5.2,1.8,10.2,4.1,15,6.8
		c9.4,5.4,18,12.5,26.4,19.3c6,4.9,12.2,10,18.5,14.3c1.5,1,3,2,4.5,3c1.3,0.9,2.7,1.7,4.1,2.5c6.6,3.9,13.5,7.2,20.8,9.6
		C2464.3,2507.9,2471.8,2509.2,2479.4,2509.3L2479.4,2509.3z"/>
	
		<linearGradient id="Path_1202_1_" gradientUnits="userSpaceOnUse" x1="2176.8726" y1="2606.0493" x2="2176.1809" y2="2605.2688" gradientTransform="matrix(312.6018 0 0 -246.4517 -677991.5 644515.6875)">
		<stop  offset="0" style="stop-color:#3F3A74"/>
		<stop  offset="0.345" style="stop-color:#5166D7"/>
		<stop  offset="1" style="stop-color:#43F59F"/>
	</linearGradient>
	<path id="Path_1202" class="st6" d="M2273.7,2247.5c5.8,0.1,11.5,1.2,16.9,3.3c5.1,2,10.1,4.4,15,7c3.4,1.8,6.5,3.4,9.8,4.8
		c0.7,0.3,1.4,0.6,2,0.9c6.2,2.6,12.9,4,19.7,4.1c3,0,6-0.3,9-0.9c6.9-1.4,13.9-4.7,21.3-8.1c6.8-3.3,13.8-6.2,20.9-8.7l0.1,0
		c4.1-1.1,8.3-1.6,12.5-1.6h0c4.1,0,8.2,0.4,12.2,1.2c4,0.8,8,1.9,11.9,3.3c7.6,2.8,14.9,6.2,22,10.2c9.1,5.1,17.8,11,26,17.5
		c8.3,6.6,16,14,23,22c7,8,13.2,16.7,18.4,25.9c5.2,9.2,9.3,19.1,12.1,29.3c2.8,10.5,4.3,21.3,4.6,32.2c0.3,11.3-0.6,22.7-2.7,33.8
		c-4.5,23.8-13.6,42.2-26.9,54.6c-10.2,9.6-23.6,14.9-37.6,14.8c-6.3,0-12.6-1-18.6-2.7c-6-1.8-11.9-4.1-17.5-7
		c-1.2-0.6-2.4-1.3-3.7-2c-1.3-0.7-2.7-1.5-4-2.3c-6.4-3.8-12.6-8.4-18.6-12.7c-7.1-5.2-14.4-10.5-22.1-14.8c-3.8-2.2-7.9-4-12-5.6
		c-4.2-1.6-8.6-2.7-13.1-3.4c-1.7-0.3-3.4-0.6-5-1c-1.2-0.3-2.4-0.5-3.6-0.7c-1.6-0.3-3.3-0.6-4.9-0.8c-1.1-0.2-2.2-0.4-3.3-0.5
		c-10.5-1.8-21.7-3.9-34.1-8.3c-5.3-1.7-10.4-4.2-15.1-7.3c-8.5-5.8-16.9-14.3-25.4-25.9c-7.4-10.1-14-21.1-19.8-30.9
		c-0.7-1.2-1.4-2.3-2.1-3.4c-4.4-7.1-8.3-14.5-11.8-22.1c-3.6-7.8-6.3-16-8.1-24.5c-1.2-6.1-1.8-12.2-1.6-18.4
		c0.1-6.9,1.5-13.8,4.1-20.2c2.3-5.7,5.8-10.9,10.1-15.2c4.4-4.3,9.6-7.7,15.2-10.1c6.1-2.6,12.6-4.4,19.2-5.3
		C2269.9,2247.6,2271.8,2247.5,2273.7,2247.5z M2337,2270.1c-7.1-0.1-14.1-1.5-20.6-4.3c-0.6-0.2-1.4-0.6-2.1-0.9
		c-3.3-1.5-6.5-3.1-9.9-4.9c-9.5-5-19.3-10.1-30.7-10.1c-1.8,0-3.6,0.1-5.3,0.4c-6.4,0.8-12.6,2.6-18.5,5.1
		c-5.4,2.3-10.3,5.6-14.5,9.6c-8.5,8.3-13,19.7-13.5,33.7c-0.1,6,0.4,12,1.6,17.8c3.4,17.4,12.3,33.6,19.6,45.8
		c0.7,1.1,1.4,2.3,2.1,3.5c5.8,9.7,12.4,20.7,19.7,30.7c8.4,11.4,16.5,19.7,24.8,25.3c4.5,3,9.4,5.3,14.5,7
		c12.2,4.3,23.3,6.4,33.7,8.2c1.1,0.2,2.2,0.4,3.3,0.5c1.6,0.3,3.3,0.5,4.9,0.8c1.2,0.2,2.5,0.5,3.7,0.8c1.6,0.3,3.2,0.7,4.8,0.9
		c4.6,0.7,9.2,1.9,13.6,3.5c4.3,1.6,8.4,3.5,12.3,5.7c7.9,4.4,15.2,9.7,22.4,15c6,4.3,12.1,8.8,18.4,12.6c1.3,0.8,2.7,1.6,4,2.3
		c1.2,0.7,2.5,1.3,3.6,1.9c5.4,2.8,11.1,5.1,17,6.8c5.8,1.7,11.9,2.6,17.9,2.6c13.3,0.1,26.2-5,35.9-14.1
		c12.9-12,21.7-29.9,26.2-53.2c2.1-11,2.9-22.1,2.6-33.3c-0.3-10.7-1.8-21.3-4.5-31.6c-2.8-10-6.7-19.7-11.9-28.8
		c-5.1-9.1-11.2-17.6-18.1-25.5c-6.9-7.9-14.5-15.1-22.7-21.7c-8.1-6.4-16.7-12.2-25.7-17.3c-11.1-6.2-27.8-14.4-44.9-14.4h0
		c-4,0-7.9,0.5-11.8,1.5c-7,2.4-13.9,5.3-20.6,8.5c-7.5,3.5-14.6,6.8-21.8,8.3C2343.4,2269.8,2340.2,2270.1,2337,2270.1L2337,2270.1
		z"/>
	
		<linearGradient id="Path_1203_1_" gradientUnits="userSpaceOnUse" x1="2176.8513" y1="2605.981" x2="2176.1597" y2="2605.2007" gradientTransform="matrix(268.1902 0 0 -219.9016 -581326.25 575317.0625)">
		<stop  offset="0" style="stop-color:#3F3A74"/>
		<stop  offset="0.345" style="stop-color:#5166D7"/>
		<stop  offset="1" style="stop-color:#43F59F"/>
	</linearGradient>
	<path id="Path_1203" class="st7" d="M2284.9,2255.5c5.6,0.1,11.2,1.6,16.1,4.4c4.8,2.7,9.3,5.8,13.6,9.2c2.3,1.8,4.5,3.4,6.7,4.9
		c0.6,0.4,1.1,0.8,1.7,1.1h0c7.6,4.9,16.4,7.6,25.4,8c0.6,0,1.3,0.1,1.9,0.1c8.6,0,17.4-3,27.6-6.4c3.3-1.1,6.8-2.3,10.4-3.4l0.1,0
		l0.1,0c3.6-0.8,7.2-1.2,10.9-1.2h0.3c12.4,0,26,3.8,40.6,11.2c14.8,7.6,28.2,17.7,39.5,30c5.7,6.2,10.6,12.9,14.9,20.1
		c4.3,7.2,7.6,14.9,10,22.9c2.6,9.2,4,18.6,4.2,28.1c0.2,9.8-0.7,19.7-2.7,29.3c-4.3,20.7-12.3,36.7-23.9,47.4
		c-4.4,4.1-9.4,7.3-14.9,9.6c-6.3,2.5-13,3.8-19.7,3.8c-9.4-0.2-18.7-2.1-27.3-5.8c-1.1-0.4-2.2-0.9-3.2-1.4c-1.1-0.5-2.3-1-3.5-1.7
		c-6.9-3.6-13.7-7.5-20.2-11.7c-11.2-7-22.7-14.3-35.9-17.8c-1.8-0.5-3.4-1.1-5-1.7c-0.9-0.3-1.7-0.6-2.6-0.9
		c-0.7-0.2-1.4-0.5-2.1-0.7c-1.7-0.6-3.4-1.2-5.1-1.8c-10.2-3.7-20.1-7.9-29.7-12.8c-4.3-2.1-8.4-4.5-12.3-7.4
		c-7.5-5.9-14.9-13.8-22.6-24.3c-6.6-9-12.6-18.7-18-27.9c-3.7-6.2-7.1-12.6-10-19.1c-3-6.8-5.3-13.9-6.8-21.1
		c-1-5.2-1.6-10.5-1.6-15.8c0-6,0.9-11.9,2.6-17.6c1.6-5.1,4.1-9.8,7.5-14c3.3-4.1,7.5-7.4,12.1-9.9c5.1-2.7,10.6-4.4,16.3-5.3
		C2281.7,2255.6,2283.3,2255.5,2284.9,2255.5z M2350.3,2285.7c-0.7,0-1.4,0-2-0.1c-9.5-0.4-18.7-3.3-26.6-8.4h0
		c-0.6-0.4-1.2-0.7-1.7-1.2c-2.3-1.6-4.5-3.2-6.8-5c-8.5-6.4-17.2-13.1-28.2-13.1c-1.5,0-2.9,0.1-4.4,0.4c-5.4,0.8-10.7,2.5-15.5,5
		c-4.4,2.3-8.2,5.4-11.4,9.2c-3.2,3.9-5.6,8.4-7.1,13.2c-1.7,5.5-2.5,11.2-2.5,16.9c0,5.1,0.5,10.3,1.5,15.3
		c1.4,7.1,3.7,14,6.6,20.6c2.9,6.5,6.2,12.8,9.9,18.9c5.4,9.1,11.3,18.8,17.9,27.7c7.5,10.3,14.7,18,22.1,23.8
		c3.7,2.8,7.7,5.2,11.9,7.1c9.6,4.8,19.4,9,29.5,12.7c1.7,0.6,3.3,1.2,5.1,1.8c0.7,0.2,1.4,0.5,2.2,0.7c0.9,0.3,1.8,0.6,2.6,1
		c1.6,0.6,3.2,1.2,4.8,1.6c13.6,3.6,25.3,11,36.6,18.1c6.4,4.2,13.1,8.1,20,11.6c1.2,0.6,2.3,1.1,3.4,1.6c1,0.5,2.1,0.9,3.1,1.3
		c8.3,3.6,17.3,5.5,26.4,5.7c6.4,0,12.8-1.2,18.8-3.6c5.2-2.2,10-5.3,14.2-9.1c11.2-10.4,19-25.9,23.2-46.1c2-9.5,2.9-19.1,2.7-28.8
		c-0.1-9.3-1.5-18.6-4.1-27.5c-2.4-7.8-5.6-15.3-9.8-22.4c-4.2-7.1-9.1-13.7-14.6-19.7c-11.1-12-24.2-22-38.8-29.5
		c-14.2-7.2-27.5-10.9-39.5-10.9h-0.3c-3.5,0-6.9,0.4-10.3,1.1c-3.6,1.1-7,2.3-10.3,3.4C2368.3,2282.6,2359.3,2285.7,2350.3,2285.7
		L2350.3,2285.7z"/>
	
		<linearGradient id="Path_1204_1_" gradientUnits="userSpaceOnUse" x1="2176.8208" y1="2605.8967" x2="2176.1292" y2="2605.1165" gradientTransform="matrix(223.905 0 0 -193.7524 -484936.2188 507163.4062)">
		<stop  offset="0" style="stop-color:#3F3A74"/>
		<stop  offset="0.345" style="stop-color:#5166D7"/>
		<stop  offset="1" style="stop-color:#43F59F"/>
	</linearGradient>
	<path id="Path_1204" class="st8" d="M2296.1,2263.5c5.1,0,10.1,1.8,15.1,5.6c4.3,3.3,8.1,7.5,11.8,11.6c1.5,1.6,2.8,3.2,4.2,4.6
		c0.5,0.5,0.9,1,1.4,1.4c3.1,3.2,6.6,5.9,10.4,8.1c3.6,2.1,7.5,3.7,11.6,4.7c4,1,8,1.4,12.1,1.4c7.4,0,15.6-1.4,25.7-4.3l0.1,0
		l0.1,0c3.1-0.5,6.2-0.7,9.3-0.8c0.3,0,0.6,0,0.9,0c12,0.1,23.9,2.7,34.8,7.6c11.2,4.9,21.3,11.9,29.9,20.6
		c4.3,4.4,8.1,9.1,11.4,14.3c3.3,5.2,6,10.7,7.9,16.5c2.5,7.8,3.8,16,3.8,24.2c0,8.4-0.9,16.7-2.8,24.8c-1.6,7.6-4.2,14.9-7.5,21.9
		c-3.3,6.9-7.9,13.2-13.5,18.4c-3.5,3.3-7.6,5.9-11.9,7.9c-6.7,3-13.9,4.5-21.2,4.5c-5.8,0-11.5-0.8-17.1-2.3
		c-0.9-0.2-1.8-0.5-2.7-0.8c-1-0.3-2-0.6-3-1c-9.4-3.2-18.6-8.2-27.4-13c-6.2-3.4-12.7-6.9-19.2-9.8c-1.7-0.8-3.4-1.7-5-2.6
		c-0.5-0.3-1.1-0.6-1.7-0.9c-2.1-1.2-4.3-2.4-6.3-3.6c-8.9-5.5-17.4-11.6-25.3-17.3c-3.3-2.3-6.5-4.8-9.5-7.5
		c-6.7-6.4-12.9-13.3-18.4-20.8c-5.6-7.4-10.7-15.2-15.4-23.2c-3.1-5.2-5.8-10.6-8.2-16.1c-2.5-5.7-4.3-11.7-5.5-17.8
		c-0.8-4.4-1.4-8.8-1.5-13.2c-0.2-5,0.2-10.1,1.2-15c0.9-4.5,2.5-8.8,4.9-12.8c2.3-3.8,5.4-7.1,9-9.6c4.1-2.7,8.6-4.5,13.4-5.3
		C2293.5,2263.6,2294.8,2263.5,2296.1,2263.5z M2362.7,2303.5c-4.3,0-8.5-0.5-12.7-1.5c-4.3-1.1-8.4-2.8-12.3-5
		c-4-2.3-7.7-5.2-11-8.5c-0.4-0.4-0.9-0.9-1.4-1.4c-1.4-1.5-2.8-3-4.3-4.7c-3.6-4-7.3-8.2-11.4-11.3c-2-1.5-4.1-2.8-6.4-3.7
		c-2.3-0.9-4.7-1.4-7.1-1.4c-1.2,0-2.4,0.1-3.6,0.3c-9.3,1.7-16.3,6.3-20.8,13.8c-2.2,3.7-3.7,7.8-4.6,12c-0.9,4.7-1.3,9.6-1.1,14.4
		c0.2,4.3,0.7,8.6,1.5,12.8c2,10.5,6.3,21,13.4,33.2c4.6,7.9,9.7,15.6,15.2,23c5.4,7.3,11.5,14.2,18.1,20.5c2.9,2.6,6,5.1,9.2,7.3
		c7.9,5.7,16.4,11.7,25.2,17.2c2,1.2,4.1,2.4,6.2,3.6c0.6,0.3,1.1,0.6,1.7,1c1.5,0.9,3.1,1.7,4.8,2.5c6.6,2.9,13.1,6.4,19.4,9.9
		c8.7,4.8,17.8,9.7,27,12.8c1,0.4,2,0.7,2.9,0.9c0.9,0.3,1.8,0.5,2.6,0.7c5.4,1.4,10.9,2.2,16.4,2.2c7,0.1,13.8-1.4,20.2-4.2
		c4.1-1.9,7.9-4.4,11.3-7.5c5.4-5,9.7-11,12.9-17.7c3.3-6.8,5.7-14,7.3-21.3c1.9-8,2.8-16.1,2.8-24.3c0-7.9-1.2-15.8-3.7-23.4
		c-1.9-5.6-4.5-11-7.7-16c-3.2-5-6.9-9.7-11.1-13.9c-8.4-8.4-18.3-15.2-29.2-20c-10.6-4.8-22.1-7.3-33.8-7.4c-0.3,0-0.6,0-0.9,0
		c-3,0-6,0.3-8.9,0.7C2378.7,2302.1,2370.3,2303.5,2362.7,2303.5z"/>
	
		<linearGradient id="Path_1205_1_" gradientUnits="userSpaceOnUse" x1="2176.7732" y1="2605.7957" x2="2176.0815" y2="2605.0151" gradientTransform="matrix(180.0623 0 0 -168.8774 -389509.2188 442331.0625)">
		<stop  offset="0" style="stop-color:#3F3A74"/>
		<stop  offset="0.345" style="stop-color:#5166D7"/>
		<stop  offset="1" style="stop-color:#43F59F"/>
	</linearGradient>
	<path id="Path_1205" class="st9" d="M2408.8,2439.8c-1.1,0-2.2,0-3.3-0.1c-0.8,0-1.5-0.1-2.2-0.2c-7.2-0.7-14.2-2.6-20.9-5.5
		c-6.6-2.9-12.9-6.5-18.7-10.8c-1.9-1.4-3.8-2.9-5.6-4.5c-1.8-1.5-3.6-3.1-5.4-4.8l0,0c-6.8-6.8-14.1-14.2-21-21.8
		c-2.3-2.5-4.6-5.1-6.7-7.6l0,0c-1.5-1.8-3.1-3.7-4.6-5.6c-14-17-28.6-34.5-33-57.9v0c-0.9-4.9-1.5-9.8-1.8-14.7
		c-0.3-5,0-9.9,0.9-14.8c2.2-11,8.2-17.6,17.8-19.7h0c1.1-0.2,2.2-0.4,3.4-0.4c4.9,0,9.3,2.3,13.6,7c3.6,4,6.6,9.2,9.6,14.2
		c1.2,2,2.3,3.9,3.4,5.7c2.3,3.7,5,7.1,8.2,10c6,5.7,13.4,9.7,21.4,11.7c4,1,8.1,1.5,12.2,1.5c4.3,0,8.6-0.5,12.8-1.6l0.1,0l0.1,0
		c2.8-0.2,5.3-0.3,7.7-0.4c0.9,0,1.7,0,2.6,0c9.4-0.1,18.9,1.2,27.9,4c7.5,2.4,14.4,6.2,20.4,11.2c3,2.5,5.7,5.3,8,8.4
		c2.4,3.1,4.3,6.5,5.8,10.1c2.5,6.4,3.7,13.3,3.5,20.2c-0.2,6.9-1.2,13.7-3,20.4c-1.6,6.2-3.8,12.2-6.6,17.9
		c-2.8,5.7-6.7,10.9-11.4,15.2c-4.7,4.3-10.3,7.5-16.3,9.6C2421.5,2438.8,2415.1,2439.8,2408.8,2439.8z M2354.3,2412.2
		c1.8,1.6,3.5,3.2,5.3,4.7c1.8,1.5,3.7,3,5.5,4.4c5.6,4.2,11.8,7.8,18.2,10.5c6.4,2.8,13.2,4.6,20.2,5.3c0.7,0.1,1.4,0.1,2.1,0.2
		c1.1,0.1,2.1,0.1,3.2,0.1c6.1,0,12.2-1,17.9-3c5.7-2,11-5,15.4-9.1c4.5-4.1,8.1-9.1,10.8-14.5c2.8-5.5,4.9-11.4,6.4-17.4
		c1.8-6.5,2.7-13.1,2.9-19.8c0.2-6.6-1-13.1-3.3-19.2c-1.4-3.4-3.2-6.6-5.5-9.5c-2.2-2.9-4.8-5.6-7.7-8c-5.8-4.8-12.5-8.4-19.6-10.8
		c-8.8-2.7-17.9-4.1-27.1-3.9c-0.8,0-1.7,0-2.5,0c-2.4,0-4.8,0.2-7.5,0.4c-4.3,1.1-8.8,1.7-13.3,1.7c-4.3,0-8.6-0.5-12.8-1.6
		c-8.4-2.1-16.2-6.4-22.5-12.3c-3.3-3.1-6.2-6.7-8.6-10.5c-1.2-1.8-2.3-3.8-3.5-5.8c-2.9-4.9-5.8-10-9.3-13.8
		c-1.6-1.8-3.4-3.3-5.5-4.5c-1.9-1.1-4.1-1.7-6.3-1.7c-1,0-1.9,0.1-2.9,0.3c-2.2,0.5-4.4,1.3-6.3,2.4c-1.7,1-3.3,2.4-4.6,3.9
		c-2.6,3.3-4.3,7.2-5,11.4c-0.9,4.7-1.1,9.5-0.8,14.2c0.3,4.8,0.9,9.6,1.8,14.4c1.1,5.5,2.7,10.9,4.9,16.1c2.2,5,4.7,9.9,7.7,14.5
		c5.8,9.3,13,17.9,19.9,26.2c1.5,1.8,3.1,3.7,4.6,5.6c2.1,2.5,4.3,5,6.6,7.5C2340.2,2398.1,2347.4,2405.4,2354.3,2412.2
		L2354.3,2412.2z"/>
</g>
</svg>
