<?xml version="1.0" encoding="utf-8"?>
<!-- Generator: Adobe Illustrator 25.2.3, SVG Export Plug-In . SVG Version: 6.00 Build 0)  -->
<svg version="1.1" id="Layer_1" xmlns="http://www.w3.org/2000/svg" xmlns:xlink="http://www.w3.org/1999/xlink" x="0px" y="0px"
	 viewBox="0 0 600 500" style="enable-background:new 0 0 600 500;" xml:space="preserve">
<style type="text/css">
	.st0{fill:url(#Ellipse_2_1_);}
	.st1{fill:url(#Ellipse_3_1_);}
	.st2{fill:url(#Ellipse_4_1_);}
	.st3{fill:url(#Ellipse_5_1_);}
	.st4{fill:url(#Ellipse_6_1_);}
	.st5{fill:url(#Ellipse_7_1_);}
	.st6{fill:url(#Ellipse_8_1_);}
	.st7{fill:url(#Ellipse_9_1_);}
	.st8{fill:url(#Ellipse_10_1_);}
	.st9{fill:url(#Ellipse_11_1_);}
</style>
<g id="_30" transform="translate(-2573.271 -2089.081)">
	
		<linearGradient id="Ellipse_2_1_" gradientUnits="userSpaceOnUse" x1="2675.1089" y1="2589.0073" x2="2673.9365" y2="2588.8611" gradientTransform="matrix(256.611 -444.4633 -90.5966 -52.306 -448888.625 1326480.5)">
		<stop  offset="0" style="stop-color:#CE3996"/>
		<stop  offset="1" style="stop-color:#3675C8"/>
	</linearGradient>
	<path id="Ellipse_2" class="st0" d="M2822.7,2309.9c19.3-33.4,39.3-65,59.4-94c19.5-28,38.3-52.4,56-72.5
		c8.7-9.9,17.1-18.7,24.8-26c6.8-6.6,14-12.6,21.7-18.1c14-9.7,24.7-12.5,31.9-8.4c7.2,4.1,10.1,14.8,8.7,31.8
		c-0.9,9.4-2.5,18.7-4.8,27.8c-2.5,10.4-5.9,22-10.1,34.5c-8.6,25.3-20.3,53.9-34.8,84.8c-15,32-32.4,65.1-51.7,98.5
		c-19.3,33.4-39.3,65-59.4,94c-19.5,28-38.3,52.4-56,72.5c-8.7,9.9-17.1,18.7-24.8,26c-6.8,6.6-14,12.6-21.7,18.1
		c-14,9.7-24.7,12.5-31.9,8.4c-7.2-4.1-10.1-14.8-8.7-31.8c0.9-9.4,2.5-18.7,4.8-27.8c2.5-10.4,5.9-22,10.1-34.5
		c8.6-25.3,20.3-53.9,34.8-84.8C2786,2376.4,2803.4,2343.3,2822.7,2309.9z M2921.4,2366.9c19.2-33.3,36.6-66.4,51.6-98.3
		c14.5-30.8,26.1-59.2,34.7-84.5c4.2-12.4,7.6-24,10.1-34.3c2.3-9,3.8-18.2,4.7-27.4c0.6-7.9,0.3-14.4-0.9-19.3
		c-1.2-4.8-3.4-8.2-6.4-9.9c-3-1.7-7-1.9-11.8-0.6c-4.9,1.4-10.7,4.3-17.2,8.8c-7.6,5.4-14.7,11.3-21.4,17.8
		c-7.7,7.3-16,16-24.6,25.8c-17.6,20-36.4,44.3-55.8,72.3c-20.1,28.9-40.1,60.5-59.3,93.8c-19.2,33.3-36.6,66.4-51.6,98.3
		c-14.5,30.8-26.1,59.2-34.7,84.5c-4.2,12.4-7.6,23.9-10.1,34.3c-2.3,9-3.8,18.2-4.7,27.4c-0.6,7.9-0.3,14.4,0.9,19.3
		c1.2,4.8,3.4,8.2,6.4,9.9c3,1.7,7,1.9,11.8,0.6c4.9-1.4,10.7-4.3,17.2-8.8c7.6-5.4,14.7-11.3,21.4-17.8c7.7-7.3,16-16,24.6-25.8
		c17.6-20,36.4-44.3,55.8-72.3C2882.3,2431.8,2902.2,2400.2,2921.4,2366.9z"/>
	
		<linearGradient id="Ellipse_3_1_" gradientUnits="userSpaceOnUse" x1="2675.1133" y1="2588.8867" x2="2673.9407" y2="2588.7405" gradientTransform="matrix(283.2222 -409.8955 -83.603 -57.7665 -538178.25 1248160)">
		<stop  offset="0" style="stop-color:#CE3996"/>
		<stop  offset="1" style="stop-color:#3675C8"/>
	</linearGradient>
	<path id="Ellipse_3" class="st1" d="M2826.6,2306.8c21.3-30.8,43.1-59.8,64.9-86.3c21.1-25.6,41.2-47.7,59.9-65.8
		c9.2-8.9,18-16.7,26-23.2c7.1-5.8,14.6-11.1,22.4-15.8c14.3-8.3,24.9-10.2,31.6-5.6c6.6,4.6,8.6,15.2,5.9,31.5
		c-1.6,9-3.9,17.9-6.8,26.5c-3.2,9.8-7.4,20.8-12.5,32.6c-10.3,23.9-23.9,50.5-40.3,79.3c-17,29.7-36.5,60.4-57.7,91.2
		c-21.3,30.8-43.1,59.8-64.9,86.3c-21.1,25.6-41.2,47.7-59.9,65.8c-9.2,8.9-18,16.7-26,23.2c-7.1,5.8-14.6,11.1-22.4,15.8
		c-14.3,8.3-24.9,10.2-31.6,5.6s-8.6-15.2-5.9-31.5c1.6-9,3.9-17.9,6.8-26.5c3.2-9.8,7.4-20.8,12.5-32.6
		c10.3-23.8,23.9-50.5,40.3-79.3C2785.9,2368.3,2805.3,2337.6,2826.6,2306.8z M2917.7,2369.8c21.2-30.7,40.6-61.3,57.6-91
		c16.4-28.7,29.9-55.2,40.2-79c5-11.7,9.2-22.6,12.4-32.3c2.9-8.5,5.1-17.3,6.7-26.1c1.2-7.6,1.5-13.9,0.6-18.7
		c-0.8-4.8-2.6-8.2-5.4-10.1c-2.8-1.9-6.6-2.4-11.3-1.5c-4.8,0.9-10.7,3.4-17.3,7.2c-7.7,4.6-15.1,9.8-22.1,15.5
		c-8,6.5-16.7,14.2-25.9,23.1c-18.6,18-38.7,40-59.7,65.5c-21.7,26.4-43.5,55.4-64.8,86.1c-21.2,30.7-40.6,61.3-57.6,91
		c-16.4,28.7-29.9,55.2-40.2,79c-5,11.7-9.2,22.6-12.4,32.3c-2.9,8.5-5.1,17.3-6.7,26.1c-1.2,7.6-1.5,13.9-0.6,18.7
		c0.8,4.8,2.6,8.2,5.4,10.1c2.8,1.9,6.6,2.4,11.3,1.5c4.8-0.9,10.7-3.4,17.3-7.2c7.7-4.6,15.1-9.8,22.1-15.5
		c8-6.5,16.7-14.2,25.9-23.1c18.6-18,38.7-40,59.7-65.5C2874.6,2429.4,2896.4,2400.5,2917.7,2369.8z"/>
	
		<linearGradient id="Ellipse_4_1_" gradientUnits="userSpaceOnUse" x1="2675.1221" y1="2588.7644" x2="2673.9495" y2="2588.6182" gradientTransform="matrix(310.0126 -375.2272 -76.5711 -63.263 -628045.875 1169664)">
		<stop  offset="0" style="stop-color:#CE3996"/>
		<stop  offset="1" style="stop-color:#3675C8"/>
	</linearGradient>
	<path id="Ellipse_4" class="st2" d="M2830.6,2303.8c23.3-28.2,47-54.6,70.4-78.5c22.6-23.1,44.1-43,63.8-59
		c9.7-7.9,18.9-14.8,27.3-20.4c7.4-5.1,15.1-9.6,23.1-13.5c14.6-6.9,25.1-7.8,31.2-2.8c6.1,5,7.1,15.5,3.2,31.2
		c-2.3,8.6-5.3,17.1-8.9,25.3c-4,9.3-9,19.6-14.9,30.7c-12,22.4-27.4,47.2-45.9,73.8c-19.1,27.5-40.6,55.8-63.8,83.9
		c-23.3,28.2-47,54.6-70.4,78.5c-22.6,23.1-44.1,43-63.8,59c-9.7,7.9-18.9,14.8-27.3,20.4c-7.4,5.1-15.1,9.6-23.1,13.5
		c-14.6,6.9-25.1,7.8-31.2,2.8c-6.1-5-7.1-15.5-3.2-31.2c2.3-8.6,5.3-17.1,8.9-25.3c4-9.3,9-19.6,14.9-30.7
		c12-22.4,27.4-47.2,45.9-73.8C2785.8,2360.2,2807.3,2332,2830.6,2303.8z M2914,2372.7c23.2-28.1,44.7-56.3,63.7-83.7
		c18.4-26.5,33.8-51.2,45.7-73.5c5.9-11,10.9-21.2,14.8-30.4c3.5-8.1,6.4-16.4,8.7-24.9c1.8-7.3,2.6-13.4,2.2-18.2
		c-0.4-4.7-1.9-8.1-4.4-10.2c-2.5-2.1-6.2-2.9-10.9-2.4c-4.8,0.5-10.6,2.4-17.4,5.6c-7.9,3.8-15.5,8.3-22.8,13.3
		c-8.3,5.6-17.5,12.4-27.1,20.3c-19.6,15.9-41,35.7-63.6,58.8c-23.4,23.9-47,50.2-70.2,78.3c-23.2,28.1-44.6,56.3-63.7,83.7
		c-18.4,26.5-33.8,51.2-45.7,73.5c-5.9,11-10.9,21.2-14.8,30.4c-3.5,8.1-6.4,16.4-8.7,24.9c-1.8,7.3-2.6,13.4-2.2,18.2
		c0.4,4.7,1.9,8.1,4.4,10.2c2.5,2.1,6.2,2.9,10.9,2.4c4.8-0.5,10.6-2.4,17.4-5.6c7.9-3.8,15.5-8.3,22.8-13.3
		c8.3-5.6,17.4-12.4,27.1-20.3c19.6-15.9,41-35.7,63.6-58.8C2867.1,2427.2,2890.7,2400.8,2914,2372.7z"/>
	
		<linearGradient id="Ellipse_5_1_" gradientUnits="userSpaceOnUse" x1="2675.1353" y1="2588.6477" x2="2673.9629" y2="2588.5015" gradientTransform="matrix(336.4383 -340.7048 -69.5431 -68.6723 -716928.125 1091332.25)">
		<stop  offset="0" style="stop-color:#CE3996"/>
		<stop  offset="1" style="stop-color:#3675C8"/>
	</linearGradient>
	<path id="Ellipse_5" class="st3" d="M2834.4,2300.7c25.3-25.6,50.8-49.4,75.8-70.8c21.6-18.7,44.1-36.1,67.6-52.2
		c10.2-6.9,19.8-12.8,28.5-17.6c7.7-4.3,15.6-8.1,23.9-11.2c15-5.5,25.3-5.5,30.9,0c5.5,5.5,5.6,15.8,0.4,30.9
		c-3,8.3-6.7,16.3-10.9,24c-4.7,8.8-10.5,18.5-17.3,28.7c-15.8,23.7-33,46.5-51.4,68.3c-21.1,25.3-44.6,51.1-69.8,76.7
		c-25.3,25.6-50.8,49.4-75.8,70.8c-21.6,18.7-44.1,36.1-67.6,52.2c-10.2,6.9-19.8,12.8-28.5,17.6c-7.7,4.3-15.6,8.1-23.9,11.2
		c-15,5.5-25.3,5.5-30.9,0s-5.6-15.8-0.4-30.9c3-8.3,6.7-16.3,10.9-24c4.7-8.8,10.5-18.5,17.3-28.7c15.8-23.7,33-46.5,51.4-68.3
		C2785.7,2352.1,2809.2,2326.3,2834.4,2300.7z M2910.1,2375.5c25.2-25.5,48.6-51.3,69.7-76.5c18.3-21.7,35.4-44.4,51.2-68
		c6.7-10.2,12.5-19.8,17.2-28.5c4.2-7.6,7.7-15.5,10.7-23.6c2.4-6.9,3.7-12.9,3.7-17.6c0-4.6-1.1-8.1-3.4-10.4
		c-2.3-2.3-5.8-3.4-10.4-3.3c-4.7,0.1-10.6,1.4-17.5,3.9c-8.1,3.1-15.9,6.8-23.5,11c-8.7,4.8-18.2,10.7-28.3,17.5
		c-23.4,16.1-45.9,33.5-67.4,52c-25,21.4-50.4,45.1-75.6,70.6s-48.6,51.3-69.7,76.5c-18.3,21.7-35.4,44.4-51.2,68
		c-6.7,10.2-12.5,19.8-17.1,28.5c-4.2,7.6-7.7,15.5-10.7,23.6c-2.4,6.9-3.7,12.9-3.7,17.6c0,4.6,1.1,8.1,3.4,10.4s5.8,3.4,10.4,3.3
		c4.7-0.1,10.6-1.4,17.5-3.9c8.1-3.1,15.9-6.8,23.5-11c8.7-4.8,18.2-10.7,28.3-17.5c23.4-16.1,45.9-33.5,67.4-52
		C2859.5,2424.8,2884.9,2401,2910.1,2375.5z"/>
	
		<linearGradient id="Ellipse_6_1_" gradientUnits="userSpaceOnUse" x1="2675.1533" y1="2588.5413" x2="2673.9807" y2="2588.395" gradientTransform="matrix(363.0291 -306.0781 -62.486 -74.1126 -806327.625 1012801.8125)">
		<stop  offset="0" style="stop-color:#CE3996"/>
		<stop  offset="1" style="stop-color:#3675C8"/>
	</linearGradient>
	<path id="Ellipse_6" class="st4" d="M2838.4,2297.7c27.2-23,54.6-44.2,81.2-63.1c23-16.5,46.8-31.7,71.5-45.5
		c10.7-5.9,20.7-10.9,29.8-14.8c8-3.6,16.2-6.6,24.6-8.9c15.3-4,25.5-3.1,30.5,2.8c5,5.9,4.2,16.2-2.4,30.5
		c-3.7,7.9-8,15.5-12.9,22.7c-5.4,8.3-12.1,17.3-19.7,26.8c-17.8,22-36.8,42.9-56.9,62.8c-23.1,23.1-48.6,46.4-75.9,69.4
		c-27.2,23-54.6,44.2-81.2,63.1c-23,16.5-46.8,31.7-71.5,45.5c-10.7,5.9-20.7,10.9-29.8,14.8c-8,3.6-16.2,6.6-24.6,8.9
		c-15.3,4-25.5,3.1-30.5-2.8c-5-5.9-4.2-16.2,2.4-30.5c3.7-7.9,8-15.5,12.9-22.7c5.4-8.2,12-17.3,19.7-26.8
		c17.8-22,36.8-42.9,56.9-62.8C2785.6,2344,2811.1,2320.7,2838.4,2297.7z M2906.4,2378.4c27.2-22.9,52.7-46.2,75.7-69.3
		c20-19.8,39-40.7,56.7-62.6c7.6-9.5,14.1-18.4,19.5-26.6c4.8-7.1,9-14.6,12.7-22.3c3-6.6,4.8-12.4,5.2-17c0.4-4.6-0.4-8.1-2.4-10.6
		c-2.1-2.4-5.4-3.9-10-4.2c-4.7-0.3-10.6,0.4-17.7,2.3c-8.3,2.3-16.3,5.2-24.2,8.8c-9,3.9-18.9,8.9-29.5,14.7
		c-24.6,13.8-48.4,28.9-71.2,45.3c-26.6,18.8-53.9,40-81.1,62.9c-27.2,22.9-52.7,46.2-75.7,69.3c-20,19.8-39,40.7-56.7,62.6
		c-7.6,9.5-14.1,18.4-19.5,26.6c-4.8,7.1-9,14.6-12.7,22.3c-3,6.6-4.8,12.4-5.2,17c-0.4,4.6,0.4,8.1,2.4,10.6
		c2.1,2.4,5.4,3.9,10,4.2c4.7,0.3,10.6-0.4,17.7-2.3c8.3-2.3,16.3-5.2,24.2-8.8c9-3.9,18.9-8.9,29.5-14.7
		c24.6-13.8,48.4-28.9,71.2-45.3C2851.9,2422.5,2879.2,2401.3,2906.4,2378.4z"/>
	
		<linearGradient id="Ellipse_7_1_" gradientUnits="userSpaceOnUse" x1="2675.175" y1="2588.4519" x2="2674.0024" y2="2588.3057" gradientTransform="matrix(389.6076 -271.4404 -55.4147 -79.5386 -895730.6875 934204.875)">
		<stop  offset="0" style="stop-color:#CE3996"/>
		<stop  offset="1" style="stop-color:#3675C8"/>
	</linearGradient>
	<path id="Ellipse_7" class="st5" d="M2842.3,2294.7c29.2-20.4,58.4-39,86.7-55.3c24.4-14.3,49.6-27.2,75.4-38.7
		c11.2-4.9,21.6-8.9,31-12c8.2-2.8,16.7-5,25.3-6.6c15.6-2.6,25.7-0.7,30.1,5.6c4.4,6.3,2.7,16.5-5.2,30.2
		c-4.4,7.5-9.4,14.7-14.9,21.4c-6.2,7.7-13.6,16.1-22,24.9c-19.7,20.2-40.6,39.4-62.4,57.3c-25.1,20.9-52.7,41.8-82,62.2
		c-29.2,20.4-58.4,39-86.7,55.3c-24.4,14.3-49.6,27.2-75.4,38.7c-11.2,4.9-21.6,8.9-31,12c-8.2,2.8-16.7,5-25.3,6.6
		c-15.6,2.6-25.7,0.7-30.1-5.6c-4.4-6.3-2.7-16.5,5.2-30.2c4.4-7.5,9.4-14.7,14.9-21.4c6.2-7.7,13.6-16.1,22-24.9
		c19.7-20.2,40.6-39.4,62.4-57.3C2785.5,2336,2813.1,2315,2842.3,2294.7z M2902.6,2381.2c29.2-20.3,56.7-41.2,81.8-62
		c21.8-17.9,42.5-36.9,62.2-57.1c8.4-8.8,15.8-17.1,21.9-24.7c5.4-6.6,10.3-13.7,14.7-21.1c3.6-6.3,5.9-11.9,6.8-16.5
		c0.9-4.5,0.4-8.1-1.5-10.7c-1.8-2.6-5-4.3-9.6-5.1c-4.6-0.8-10.6-0.6-17.8,0.7c-8.4,1.5-16.8,3.7-24.9,6.5
		c-9.3,3.1-19.7,7.1-30.8,12c-25.7,11.5-50.8,24.3-75.1,38.6c-28.2,16.3-57.3,34.9-86.5,55.2c-29.2,20.3-56.7,41.2-81.8,62
		c-21.8,17.9-42.5,36.9-62.2,57.1c-8.4,8.7-15.8,17.1-21.9,24.7c-5.4,6.6-10.3,13.7-14.7,21.1c-3.6,6.3-5.9,11.9-6.8,16.5
		c-0.9,4.5-0.4,8.1,1.5,10.7s5,4.3,9.6,5.1c4.6,0.8,10.6,0.6,17.8-0.7c8.4-1.5,16.8-3.7,24.9-6.5c9.3-3.1,19.7-7.1,30.8-12
		c25.7-11.5,50.8-24.3,75.1-38.6C2844.3,2420.1,2873.4,2401.6,2902.6,2381.2z"/>
	
		<linearGradient id="Ellipse_8_1_" gradientUnits="userSpaceOnUse" x1="2675.1995" y1="2588.3835" x2="2674.0271" y2="2588.2373" gradientTransform="matrix(416.1722 -236.7936 -48.3332 -84.9472 -985122.8125 855538.6875)">
		<stop  offset="0" style="stop-color:#CE3996"/>
		<stop  offset="1" style="stop-color:#3675C8"/>
	</linearGradient>
	<path id="Ellipse_8" class="st6" d="M2846.3,2291.7c31.2-17.8,62.2-33.8,92.1-47.6c25.8-12.1,52.3-22.8,79.3-32
		c11.7-3.9,22.5-7,32.2-9.3c8.5-2.1,17.2-3.5,26-4.3c15.9-1.2,25.9,1.6,29.7,8.4c3.8,6.7,1.1,16.8-8,29.8
		c-5.1,7.1-10.8,13.9-17,20.1c-6.9,7.2-15.1,14.9-24.4,23c-21.7,18.5-44.4,35.8-68,51.8c-27.2,18.6-56.8,37.1-88,54.9
		c-31.2,17.8-62.2,33.8-92.1,47.6c-25.8,12.1-52.3,22.8-79.3,32c-11.7,3.9-22.5,7-32.2,9.3c-8.5,2.1-17.2,3.5-26,4.3
		c-15.9,1.2-25.9-1.6-29.7-8.4c-3.8-6.7-1.1-16.8,8-29.8c5.1-7.1,10.8-13.9,17-20.1c6.9-7.2,15.1-14.9,24.4-23
		c21.7-18.5,44.4-35.8,68-51.8C2785.4,2327.9,2815,2309.4,2846.3,2291.7z M2898.9,2384.1c31.2-17.7,60.7-36.2,87.8-54.8
		c23.5-15.9,46.1-33.2,67.7-51.6c9.2-8,17.4-15.7,24.2-22.8c6.1-6.2,11.6-12.8,16.7-19.8c4.2-6,7-11.4,8.3-15.9
		c1.3-4.5,1.1-8.1-0.5-10.9c-1.6-2.8-4.7-4.8-9.2-6c-4.6-1.2-10.6-1.5-18-1c-8.6,0.8-17.2,2.2-25.6,4.2c-9.6,2.2-20.4,5.3-32,9.2
		c-26.9,9.1-53.3,19.8-79,31.8c-29.8,13.8-60.8,29.8-91.9,47.5s-60.7,36.2-87.8,54.8c-23.5,15.9-46.1,33.2-67.7,51.6
		c-9.2,8-17.4,15.7-24.2,22.8c-6.1,6.2-11.6,12.8-16.7,19.8c-4.2,6-7,11.4-8.3,15.9c-1.3,4.5-1.1,8.1,0.5,10.9
		c1.6,2.8,4.7,4.8,9.2,6c4.6,1.2,10.6,1.5,18,1c8.6-0.8,17.2-2.2,25.6-4.2c9.6-2.2,20.4-5.3,32-9.2c26.9-9.1,53.3-19.8,79-31.8
		C2836.8,2417.8,2867.7,2401.9,2898.9,2384.1z"/>
	
		<linearGradient id="Ellipse_9_1_" gradientUnits="userSpaceOnUse" x1="2675.2256" y1="2588.3389" x2="2674.053" y2="2588.1926" gradientTransform="matrix(442.7117 -202.1381 -41.2495 -90.3424 -1074453.875 776814.5)">
		<stop  offset="0" style="stop-color:#CE3996"/>
		<stop  offset="1" style="stop-color:#3675C8"/>
	</linearGradient>
	<path id="Ellipse_9" class="st7" d="M2850.2,2288.6c33.2-15.2,66.1-28.6,97.6-39.9c30.5-10.9,58.4-19.4,83.1-25.2
		c12.2-2.9,23.4-5,33.5-6.5c8.8-1.3,17.8-2,26.7-2c16.2,0.2,26,4,29.3,11.1c3.3,7.2-0.4,17.1-10.8,29.4c-5.9,6.8-12.2,13.1-19,18.9
		c-7.6,6.7-16.7,13.7-26.8,21.1c-20.6,14.9-45.3,30.4-73.5,46.3c-29.2,16.4-60.8,32.5-94.1,47.6c-33.2,15.2-66.1,28.6-97.6,39.9
		c-30.5,10.9-58.4,19.4-83.1,25.2c-12.2,2.9-23.4,5-33.5,6.5c-8.8,1.3-17.8,2-26.7,2c-16.2-0.2-26-4-29.3-11.1
		c-3.3-7.2,0.4-17.1,10.8-29.4c5.9-6.8,12.2-13.1,19-18.9c7.6-6.7,16.7-13.7,26.8-21.1c20.6-14.9,45.3-30.4,73.5-46.3
		C2785.3,2319.8,2817,2303.8,2850.2,2288.6z M2895.1,2387c33.2-15.1,64.7-31.1,93.9-47.5c28.1-15.8,52.7-31.3,73.2-46.1
		c10.1-7.3,19-14.3,26.6-20.9c6.7-5.7,12.9-11.9,18.7-18.6c4.8-5.7,8.1-10.9,9.9-15.4c1.7-4.4,1.9-8.1,0.5-11.1s-4.3-5.3-8.7-6.9
		c-4.5-1.6-10.6-2.5-18.1-2.6c-8.8,0-17.6,0.7-26.3,2c-9.9,1.4-21.1,3.6-33.2,6.4c-24.6,5.8-52.5,14.2-82.8,25.1
		c-31.5,11.3-64.2,24.7-97.4,39.8c-33.2,15.1-64.7,31.1-93.9,47.5c-28.1,15.8-52.7,31.3-73.2,46.1c-10.1,7.3-19,14.3-26.6,20.9
		c-6.7,5.7-12.9,11.9-18.7,18.6c-4.8,5.7-8.1,10.9-9.9,15.4c-1.7,4.4-1.9,8.1-0.5,11.1c1.4,3,4.3,5.3,8.7,6.9
		c4.5,1.6,10.6,2.5,18.1,2.6c8.8,0,17.6-0.7,26.3-2c9.9-1.4,21.1-3.6,33.2-6.4c24.6-5.8,52.5-14.2,82.8-25.1
		C2829.2,2415.5,2862,2402.2,2895.1,2387z"/>
	
		<linearGradient id="Ellipse_10_1_" gradientUnits="userSpaceOnUse" x1="2675.2515" y1="2588.3174" x2="2674.0791" y2="2588.1711" gradientTransform="matrix(469.2319 -167.4829 -34.1601 -95.7053 -1163748 698007.5625)">
		<stop  offset="0" style="stop-color:#CE3996"/>
		<stop  offset="1" style="stop-color:#3675C8"/>
	</linearGradient>
	<path id="Ellipse_10" class="st8" d="M2854.2,2285.6c35.2-12.6,69.9-23.4,103-32.2c32-8.5,61.3-14.7,87-18.4
		c12.7-1.9,24.4-3.1,34.7-3.7c9.1-0.6,18.3-0.5,27.4,0.3c16.5,1.6,26.2,6.3,28.9,13.9s-1.9,17.4-13.6,29c-6.6,6.4-13.6,12.3-21,17.6
		c-8.4,6.1-18.2,12.6-29.2,19.1c-22.3,13.4-48.9,27.1-79,40.8c-31.2,14.2-64.9,27.8-100.1,40.4s-69.9,23.4-103,32.2
		c-32,8.5-61.3,14.7-87,18.4c-12.7,1.9-24.4,3.1-34.7,3.7c-9.1,0.6-18.3,0.5-27.4-0.3c-16.5-1.6-26.2-6.3-28.9-13.9
		c-2.7-7.6,1.9-17.4,13.6-29c6.6-6.4,13.6-12.3,21-17.6c8.4-6.1,18.2-12.6,29.2-19.1c22.3-13.4,48.9-27.1,79-40.8
		C2785.3,2311.8,2818.9,2298.2,2854.2,2285.6z M2891.4,2389.9c35.2-12.5,68.8-26.1,99.9-40.3c30.1-13.7,56.5-27.4,78.7-40.7
		c10.9-6.5,20.7-12.9,29-19c7.3-5.2,14.3-11,20.7-17.3c5.4-5.4,9.3-10.4,11.4-14.8c2.1-4.3,2.6-8.2,1.5-11.3s-3.9-5.8-8.3-7.8
		c-4.5-2.1-10.6-3.5-18.2-4.2c-9-0.8-18-0.9-27-0.3c-10.3,0.6-21.9,1.8-34.5,3.6c-25.6,3.7-54.8,9.9-86.7,18.4
		c-33.1,8.7-67.7,19.5-102.8,32.1s-68.8,26.1-99.9,40.3c-30.1,13.7-56.5,27.4-78.7,40.7c-10.9,6.5-20.7,12.9-29,19
		c-7.3,5.2-14.3,11-20.7,17.3c-5.4,5.4-9.3,10.4-11.4,14.8c-2.1,4.3-2.6,8.2-1.5,11.3c1.1,3.2,3.9,5.8,8.3,7.8
		c4.5,2.1,10.6,3.5,18.2,4.2c9,0.8,18,0.9,27,0.3c10.3-0.6,21.9-1.8,34.5-3.6c25.6-3.8,54.8-9.9,86.7-18.4
		C2821.6,2413.3,2856.2,2402.5,2891.4,2389.9z"/>
	
		<linearGradient id="Ellipse_11_1_" gradientUnits="userSpaceOnUse" x1="2675.2766" y1="2588.3174" x2="2674.104" y2="2588.1711" gradientTransform="matrix(495.7725 -132.9245 -27.0945 -101.0552 -1253034.625 619425.625)">
		<stop  offset="0" style="stop-color:#CE3996"/>
		<stop  offset="1" style="stop-color:#3675C8"/>
	</linearGradient>
	<path id="Ellipse_11" class="st9" d="M2858.1,2282.6c37.2-10,73.7-18.2,108.5-24.4c33.6-6,64.2-10,90.9-11.7
		c13.2-0.9,25.3-1.1,35.9-0.9c9.4,0.1,18.8,1,28.1,2.6c16.8,3,26.3,8.6,28.5,16.6c2.1,8-3.4,17.6-16.3,28.7
		c-7.3,6-15,11.4-23.1,16.3c-9.1,5.6-19.7,11.4-31.6,17.2c-24,11.9-52.4,23.8-84.5,35.3c-33.2,12-69,23.1-106.2,33.1
		s-73.7,18.2-108.5,24.4c-33.6,6-64.2,10-90.9,11.7c-13.2,0.9-25.3,1.1-35.9,0.9c-9.4-0.1-18.8-1-28.1-2.6
		c-16.8-3-26.3-8.6-28.5-16.6c-2.1-8,3.4-17.6,16.3-28.7c7.3-6,15-11.4,23.1-16.3c9.1-5.6,19.7-11.4,31.6-17.2
		c24-11.9,52.4-23.8,84.5-35.3C2785.2,2303.7,2820.9,2292.6,2858.1,2282.6z M2887.7,2392.8c37.2-10,72.8-21.1,106-33
		c32-11.6,60.4-23.4,84.3-35.2c11.8-5.8,22.3-11.6,31.3-17.1c8-4.8,15.6-10.1,22.7-16c6-5.1,10.4-9.9,13-14.3
		c2.5-4.3,3.4-8.2,2.5-11.5s-3.6-6.3-7.9-8.8c-4.4-2.5-10.6-4.5-18.4-5.9c-9.2-1.5-18.4-2.4-27.7-2.5c-10.6-0.3-22.6,0-35.7,0.9
		c-26.6,1.7-57.1,5.6-90.6,11.7c-34.7,6.2-71.1,14.4-108.3,24.4c-37.1,10-72.8,21.1-106,33c-32,11.5-60.4,23.4-84.3,35.2
		c-11.8,5.8-22.3,11.6-31.3,17.1c-8,4.8-15.6,10.1-22.7,16c-6,5.1-10.4,9.9-13,14.3c-2.5,4.3-3.4,8.2-2.5,11.5
		c0.9,3.4,3.6,6.3,7.9,8.8c4.4,2.5,10.6,4.5,18.4,5.9c9.2,1.5,18.4,2.4,27.7,2.5c10.6,0.3,22.6,0,35.7-0.9
		c26.6-1.7,57.1-5.6,90.6-11.6C2814.1,2411,2850.5,2402.8,2887.7,2392.8z"/>
</g>
</svg>
