<?xml version="1.0" encoding="utf-8"?>
<!-- Generator: Adobe Illustrator 25.2.3, SVG Export Plug-In . SVG Version: 6.00 Build 0)  -->
<svg version="1.1" id="Layer_1" xmlns="http://www.w3.org/2000/svg" xmlns:xlink="http://www.w3.org/1999/xlink" x="0px" y="0px"
	 viewBox="0 0 600 500" style="enable-background:new 0 0 600 500;" xml:space="preserve">
<style type="text/css">
	.st0{fill:url(#Ellipse_13_1_);}
	.st1{fill:url(#Ellipse_14_1_);}
	.st2{fill:url(#Ellipse_15_1_);}
	.st3{fill:url(#Ellipse_16_1_);}
	.st4{fill:url(#Ellipse_17_1_);}
	.st5{fill:url(#Ellipse_18_1_);}
	.st6{fill:url(#Ellipse_19_1_);}
	.st7{fill:url(#Ellipse_20_1_);}
	.st8{fill:url(#Ellipse_21_1_);}
	.st9{fill:url(#Ellipse_22_1_);}
</style>
<g id="_26" transform="translate(-623.779 -2105.648)">
	
		<linearGradient id="Ellipse_13_1_" gradientUnits="userSpaceOnUse" x1="725.611" y1="2605.6167" x2="725.611" y2="2604.6182" gradientTransform="matrix(140.6285 0 0 -140.5934 -101117.8438 368438.1875)">
		<stop  offset="0" style="stop-color:#D91698"/>
		<stop  offset="1" style="stop-color:#E8A37C"/>
	</linearGradient>
	<path id="Ellipse_13" class="st0" d="M923.8,2105.6c14,0,27.7,4.1,39.2,12c11.3,7.6,20.1,18.3,25.4,30.9
		c9.2,21.8,6.8,46.9-6.5,66.6c-7.6,11.3-18.3,20.1-30.9,25.4c-21.8,9.2-46.9,6.8-66.6-6.5c-11.3-7.6-20.1-18.3-25.4-30.9
		c-9.2-21.8-6.8-46.9,6.5-66.6c7.6-11.3,18.3-20.1,30.9-25.4C905.1,2107.5,914.4,2105.6,923.8,2105.6z M923.8,2243.4
		c37.4,0,67.6-30.3,67.6-67.7c0-27.2-16.3-51.7-41.3-62.3c-34.4-14.5-74.1,1.6-88.6,36s1.6,74.1,36,88.6
		C905.8,2241.7,914.7,2243.5,923.8,2243.4z"/>
	
		<linearGradient id="Ellipse_14_1_" gradientUnits="userSpaceOnUse" x1="725.5516" y1="2605.8015" x2="725.5516" y2="2604.803" gradientTransform="matrix(171.3094 0 0 -171.2758 -123369.9922 448425.8125)">
		<stop  offset="0" style="stop-color:#D91698"/>
		<stop  offset="1" style="stop-color:#E8A37C"/>
	</linearGradient>
	<path id="Ellipse_14" class="st1" d="M923.8,2115c17,0,33.7,5.1,47.8,14.6c13.7,9.3,24.5,22.3,31,37.6c11.3,26.6,8.3,57.1-7.9,81.1
		c-9.3,13.7-22.3,24.5-37.6,31c-26.6,11.3-57.1,8.3-81.1-7.9c-13.7-9.3-24.5-22.3-31-37.6c-11.3-26.6-8.3-57.1,7.9-81.1
		c9.3-13.7,22.3-24.5,37.6-31C901,2117.3,912.3,2115,923.8,2115z M923.8,2283.4c16.5,0,32.7-4.9,46.4-14.2
		c13.3-9,23.8-21.7,30.1-36.5c10.9-25.8,8.1-55.4-7.6-78.7c-9-13.3-21.7-23.8-36.5-30.1c-25.8-10.9-55.4-8.1-78.7,7.6
		c-13.3,9-23.8,21.7-30.1,36.5c-10.9,25.8-8.1,55.4,7.6,78.7c9,13.3,21.7,23.8,36.5,30.1C901.7,2281.2,912.7,2283.4,923.8,2283.4z"
		/>
	
		<linearGradient id="Ellipse_15_1_" gradientUnits="userSpaceOnUse" x1="725.5103" y1="2605.9299" x2="725.5103" y2="2604.9316" gradientTransform="matrix(201.9101 0 0 -201.9121 -145564.0781 528293)">
		<stop  offset="0" style="stop-color:#D91698"/>
		<stop  offset="1" style="stop-color:#E8A37C"/>
	</linearGradient>
	<path id="Ellipse_15" class="st2" d="M923.8,2124.3c6.8,0,13.6,0.7,20.3,2c12.9,2.6,25.1,7.8,36,15.2
		c16.2,10.9,28.9,26.3,36.5,44.3c2.6,6.1,4.5,12.4,5.9,18.9c2.7,13.4,2.7,27.2,0,40.6c-2.6,12.9-7.8,25.1-15.2,36
		c-10.9,16.2-26.3,28.9-44.3,36.5c-6.1,2.6-12.4,4.5-18.9,5.9c-13.4,2.7-27.2,2.7-40.6,0c-12.9-2.6-25.1-7.8-36-15.2
		c-16.2-10.9-28.9-26.3-36.5-44.3c-2.6-6.1-4.5-12.4-5.9-18.9c-2.7-13.4-2.7-27.2,0-40.6c2.6-12.9,7.8-25.1,15.2-36
		c10.9-16.2,26.3-28.9,44.3-36.5c6.1-2.6,12.4-4.5,18.9-5.9C910.2,2125,917,2124.3,923.8,2124.3z M923.8,2323.4
		c19.6,0,38.7-5.8,54.9-16.8c15.8-10.7,28.2-25.7,35.6-43.2c12.9-30.6,9.5-65.7-9.1-93.2c-10.7-15.8-25.7-28.2-43.2-35.6
		c-30.6-12.9-65.7-9.5-93.2,9.1c-15.8,10.7-28.2,25.7-35.6,43.2c-12.9,30.6-9.5,65.7,9.1,93.2c10.7,15.8,25.7,28.2,43.2,35.6
		C897.6,2320.8,910.6,2323.4,923.8,2323.4z"/>
	
		<linearGradient id="Ellipse_16_1_" gradientUnits="userSpaceOnUse" x1="725.4797" y1="2606.0247" x2="725.4797" y2="2605.0264" gradientTransform="matrix(232.5863 0 0 -232.5866 -167812.8438 608260.1875)">
		<stop  offset="0" style="stop-color:#D91698"/>
		<stop  offset="1" style="stop-color:#E8A37C"/>
	</linearGradient>
	<path id="Ellipse_16" class="st3" d="M923.8,2133.7c7.9,0,15.7,0.8,23.4,2.4c14.9,3,29,9,41.5,17.5c18.7,12.6,33.3,30.3,42.1,51.1
		c3,7,5.2,14.3,6.8,21.8c3.1,15.4,3.1,31.4,0,46.8c-3,14.9-9,29-17.5,41.5c-12.6,18.7-30.3,33.3-51.1,42.1c-7,3-14.3,5.2-21.8,6.8
		c-15.4,3.1-31.4,3.1-46.8,0c-14.9-3-29-9-41.5-17.5c-18.7-12.6-33.3-30.3-42.1-51.1c-3-7-5.2-14.3-6.8-21.8
		c-3.1-15.4-3.1-31.4,0-46.8c3-14.9,9-29,17.5-41.5c12.6-18.7,30.3-33.3,51.1-42.1c7-3,14.3-5.2,21.8-6.8
		C908.1,2134.5,915.9,2133.7,923.8,2133.7z M923.8,2363.3c7.7,0,15.4-0.8,22.9-2.3c14.5-3,28.3-8.8,40.6-17.1
		c18.3-12.3,32.6-29.7,41.1-50c2.9-6.9,5.1-14,6.6-21.3c3.1-15.1,3.1-30.7,0-45.8c-3-14.5-8.8-28.3-17.1-40.6
		c-12.3-18.3-29.7-32.6-50-41.1c-6.9-2.9-14-5.1-21.3-6.6c-15.1-3.1-30.7-3.1-45.8,0c-14.5,3-28.3,8.8-40.6,17.1
		c-18.3,12.3-32.6,29.7-41.1,50c-2.9,6.9-5.1,14-6.6,21.3c-3.1,15.1-3.1,30.7,0,45.8c3,14.5,8.8,28.3,17.1,40.6
		c12.3,18.3,29.7,32.6,50,41.1c6.9,2.9,14,5.1,21.3,6.6C908.4,2362.6,916.1,2363.3,923.8,2363.3z"/>
	
		<linearGradient id="Ellipse_17_1_" gradientUnits="userSpaceOnUse" x1="725.4564" y1="2606.0974" x2="725.4564" y2="2605.0989" gradientTransform="matrix(263.2544 0 0 -263.2562 -190055.8125 688214.3125)">
		<stop  offset="0" style="stop-color:#D91698"/>
		<stop  offset="1" style="stop-color:#E8A37C"/>
	</linearGradient>
	<path id="Ellipse_17" class="st4" d="M923.8,2143c8.9,0,17.8,0.9,26.5,2.7c16.8,3.4,32.8,10.2,47,19.8
		c21.1,14.3,37.7,34.3,47.6,57.8c3.4,8,5.9,16.2,7.7,24.7c3.6,17.5,3.6,35.5,0,53c-3.4,16.8-10.2,32.8-19.8,47
		c-14.3,21.1-34.3,37.7-57.8,47.6c-8,3.4-16.2,5.9-24.7,7.7c-17.5,3.6-35.5,3.6-53,0c-16.8-3.4-32.8-10.2-47-19.8
		c-21.1-14.3-37.7-34.3-47.6-57.8c-3.4-8-5.9-16.2-7.7-24.7c-3.6-17.5-3.6-35.5,0-53c3.4-16.8,10.2-32.8,19.8-47
		c14.3-21.1,34.3-37.7,57.8-47.6c8-3.4,16.2-5.9,24.7-7.7C906,2143.9,914.9,2143,923.8,2143z M923.8,2403.3c8.7,0,17.4-0.9,26-2.6
		c16.5-3.4,32.1-10,46.1-19.4c20.7-14,36.9-33.7,46.7-56.7c3.3-7.8,5.8-15.9,7.5-24.2c3.5-17.1,3.5-34.8,0-51.9
		c-3.4-16.5-10-32.1-19.4-46.1c-14-20.7-33.7-36.9-56.7-46.7c-7.8-3.3-15.9-5.8-24.2-7.5c-17.1-3.5-34.8-3.5-51.9,0
		c-16.5,3.4-32.1,10-46.1,19.4c-20.7,14-36.9,33.7-46.7,56.7c-3.3,7.8-5.8,15.9-7.5,24.2c-3.5,17.1-3.5,34.8,0,51.9
		c3.4,16.5,10,32.1,19.4,46.1c14,20.7,33.7,36.9,56.7,46.7c7.8,3.3,15.9,5.8,24.2,7.5C906.4,2402.4,915.1,2403.3,923.8,2403.3z"/>
	
		<linearGradient id="Ellipse_18_1_" gradientUnits="userSpaceOnUse" x1="725.4379" y1="2606.1548" x2="725.4379" y2="2605.1565" gradientTransform="matrix(293.9275 0 0 -293.9277 -212302.3438 768173.4375)">
		<stop  offset="0" style="stop-color:#D91698"/>
		<stop  offset="1" style="stop-color:#E8A37C"/>
	</linearGradient>
	<path id="Ellipse_18" class="st5" d="M923.8,2152.3c9.9,0,19.8,1,29.6,3c18.8,3.8,36.6,11.3,52.5,22.1
		c23.6,15.9,42.1,38.3,53.2,64.6c3.8,8.9,6.6,18.1,8.6,27.5c4,19.5,4,39.6,0,59.1c-3.8,18.8-11.3,36.6-22.1,52.5
		c-15.9,23.6-38.3,42.1-64.6,53.2c-8.9,3.8-18.1,6.6-27.5,8.6c-19.5,4-39.6,4-59.1,0c-18.8-3.8-36.6-11.3-52.5-22.1
		c-23.6-15.9-42.1-38.3-53.2-64.6c-3.8-8.9-6.6-18.1-8.6-27.5c-4-19.5-4-39.6,0-59.1c3.8-18.8,11.3-36.6,22.1-52.5
		c15.9-23.6,38.3-42.1,64.6-53.2c8.9-3.8,18.1-6.6,27.5-8.6C903.9,2153.3,913.8,2152.3,923.8,2152.3z M923.8,2443.3
		c9.8,0,19.5-1,29.1-2.9c18.4-3.8,36-11.1,51.6-21.7c23.2-15.6,41.3-37.7,52.2-63.4c3.7-8.7,6.5-17.8,8.4-27.1
		c3.9-19.2,3.9-38.9,0-58.1c-3.8-18.4-11.1-36-21.7-51.6c-15.6-23.2-37.7-41.3-63.4-52.2c-8.7-3.7-17.8-6.5-27.1-8.4
		c-19.2-3.9-38.9-3.9-58.1,0c-18.4,3.8-36,11.1-51.6,21.7c-23.2,15.6-41.3,37.7-52.2,63.4c-3.7,8.7-6.5,17.8-8.4,27.1
		c-3.9,19.2-3.9,38.9,0,58.1c3.8,18.4,11.1,36,21.7,51.6c15.6,23.2,37.7,41.3,63.4,52.2c8.7,3.7,17.8,6.5,27.1,8.4
		C904.3,2442.3,914,2443.3,923.8,2443.3z"/>
	
		<linearGradient id="Ellipse_19_1_" gradientUnits="userSpaceOnUse" x1="725.4229" y1="2606.2014" x2="725.4229" y2="2605.2031" gradientTransform="matrix(324.5966 0 0 -324.6013 -234546.0156 848138.125)">
		<stop  offset="0" style="stop-color:#D91698"/>
		<stop  offset="1" style="stop-color:#E8A37C"/>
	</linearGradient>
	<path id="Ellipse_19" class="st6" d="M923.8,2161.7c11,0,21.9,1.1,32.7,3.3c20.7,4.2,40.4,12.5,57.9,24.4
		c26.1,17.6,46.4,42.4,58.7,71.3c4.1,9.8,7.3,20,9.4,30.4c4.4,21.5,4.4,43.8,0,65.3c-4.2,20.7-12.5,40.4-24.4,57.9
		c-17.6,26.1-42.4,46.4-71.3,58.7c-9.8,4.1-20,7.3-30.4,9.4c-21.5,4.4-43.8,4.4-65.3,0c-20.7-4.2-40.4-12.5-57.9-24.4
		c-26.1-17.6-46.4-42.4-58.7-71.3c-4.1-9.8-7.3-20-9.4-30.4c-4.4-21.5-4.4-43.8,0-65.3c4.2-20.7,12.5-40.4,24.4-57.9
		c17.6-26.1,42.4-46.4,71.3-58.7c9.8-4.1,20-7.3,30.4-9.4C901.9,2162.8,912.8,2161.7,923.8,2161.7z M923.8,2483.2
		c10.8,0,21.6-1.1,32.1-3.2c20.4-4.2,39.8-12.3,57-24c25.6-17.3,45.7-41.7,57.8-70.2c4.1-9.6,7.2-19.7,9.3-29.9
		c4.3-21.2,4.3-43.1,0-64.3c-4.2-20.4-12.3-39.8-24-57c-17.3-25.6-41.7-45.7-70.2-57.8c-9.6-4.1-19.7-7.2-29.9-9.3
		c-21.2-4.3-43.1-4.3-64.3,0c-20.4,4.2-39.8,12.3-57,24c-25.6,17.3-45.7,41.7-57.8,70.2c-4.1,9.6-7.2,19.7-9.3,29.9
		c-4.3,21.2-4.3,43.1,0,64.3c4.2,20.4,12.3,39.8,24,57c17.3,25.6,41.7,45.7,70.2,57.8c9.6,4.1,19.7,7.2,29.9,9.3
		C902.2,2482.1,913,2483.2,923.8,2483.2z"/>
	
		<linearGradient id="Ellipse_20_1_" gradientUnits="userSpaceOnUse" x1="725.4104" y1="2606.24" x2="725.4104" y2="2605.2417" gradientTransform="matrix(355.2724 0 0 -355.2742 -256794.5156 928100.875)">
		<stop  offset="0" style="stop-color:#D91698"/>
		<stop  offset="1" style="stop-color:#E8A37C"/>
	</linearGradient>
	<path id="Ellipse_20" class="st7" d="M923.8,2171c12,0,24,1.2,35.7,3.6c22.7,4.6,44.2,13.7,63.4,26.7c28.5,19.2,50.8,46.4,64.3,78
		c4.5,10.7,8,21.9,10.3,33.3c4.8,23.6,4.8,47.9,0,71.5c-4.6,22.7-13.7,44.2-26.7,63.4c-19.2,28.5-46.4,50.8-78,64.3
		c-10.7,4.5-21.9,8-33.3,10.3c-23.6,4.8-47.9,4.8-71.5,0c-22.7-4.6-44.2-13.7-63.4-26.7c-28.5-19.2-50.8-46.4-64.3-78
		c-4.5-10.7-8-21.9-10.3-33.3c-4.8-23.6-4.8-47.9,0-71.5c4.6-22.7,13.7-44.2,26.7-63.4c19.2-28.5,46.4-50.8,78-64.3
		c10.7-4.5,21.9-8,33.3-10.3C899.8,2172.2,911.8,2171,923.8,2171z M923.8,2523.2c11.8,0,23.6-1.2,35.2-3.6
		c22.4-4.6,43.6-13.5,62.5-26.3c28.1-19,50.1-45.7,63.3-76.9c4.5-10.6,7.9-21.6,10.2-32.8c4.7-23.2,4.7-47.2,0-70.5
		c-4.6-22.4-13.5-43.6-26.3-62.5c-19-28.1-45.7-50.1-76.9-63.3c-10.6-4.5-21.6-7.9-32.8-10.2c-23.2-4.7-47.2-4.7-70.5,0
		c-22.4,4.6-43.6,13.5-62.5,26.3c-28.1,19-50.1,45.7-63.3,76.9c-4.5,10.6-7.9,21.6-10.2,32.8c-4.7,23.2-4.7,47.2,0,70.5
		c4.6,22.4,13.5,43.6,26.3,62.5c19,28.1,45.7,50.1,76.9,63.3c10.6,4.5,21.6,7.9,32.8,10.2C900.1,2522,911.9,2523.2,923.8,2523.2z"/>
	
		<linearGradient id="Ellipse_21_1_" gradientUnits="userSpaceOnUse" x1="725.4" y1="2606.2725" x2="725.4" y2="2605.2742" gradientTransform="matrix(385.9389 0 0 -385.9374 -279036.2812 1008038.5)">
		<stop  offset="0" style="stop-color:#D91698"/>
		<stop  offset="1" style="stop-color:#E8A37C"/>
	</linearGradient>
	<path id="Ellipse_21" class="st8" d="M923.8,2180.4c13,0,26,1.3,38.8,3.9c24.6,5,48.1,14.9,68.9,29c31,20.9,55.2,50.4,69.8,84.8
		c4.9,11.7,8.7,23.8,11.2,36.2c5.2,25.6,5.2,52,0,77.7c-5,24.6-14.9,48.1-29,68.9c-20.9,31-50.4,55.2-84.8,69.8
		c-11.7,4.9-23.8,8.7-36.2,11.2c-25.6,5.2-52,5.2-77.7,0c-24.6-5-48.1-14.9-68.9-29c-31-20.9-55.2-50.4-69.8-84.8
		c-4.9-11.7-8.7-23.8-11.2-36.2c-5.2-25.6-5.2-52,0-77.7c5-24.6,14.9-48.1,29-68.9c20.9-31,50.4-55.2,84.8-69.8
		c11.7-4.9,23.8-8.7,36.2-11.2C897.7,2181.7,910.7,2180.4,923.8,2180.4z M923.8,2563.1c12.9,0,25.7-1.3,38.3-3.9
		c24.3-5,47.4-14.7,68-28.6c30.6-20.6,54.5-49.7,68.9-83.6c4.9-11.5,8.6-23.5,11.1-35.7c5.2-25.3,5.2-51.3,0-76.6
		c-5-24.3-14.7-47.4-28.6-68c-20.6-30.6-49.7-54.5-83.6-68.9c-11.5-4.9-23.5-8.6-35.7-11.1c-25.3-5.1-51.3-5.1-76.6,0
		c-24.3,5-47.4,14.7-68,28.6c-30.6,20.6-54.5,49.7-68.9,83.6c-4.9,11.5-8.6,23.5-11.1,35.7c-5.1,25.3-5.1,51.3,0,76.6
		c5,24.3,14.7,47.4,28.6,68c20.6,30.6,49.7,54.5,83.6,68.9c11.5,4.9,23.5,8.6,35.7,11.1C898.1,2561.9,910.9,2563.1,923.8,2563.1z"/>
	
		<linearGradient id="Ellipse_22_1_" gradientUnits="userSpaceOnUse" x1="725.3911" y1="2606.3003" x2="725.3911" y2="2605.3018" gradientTransform="matrix(416.6129 0 0 -416.6089 -301283.5 1087997.75)">
		<stop  offset="0" style="stop-color:#D91698"/>
		<stop  offset="1" style="stop-color:#E8A37C"/>
	</linearGradient>
	<path id="Ellipse_22" class="st9" d="M923.8,2189.7c14.1,0,28.1,1.4,41.9,4.2c26.6,5.4,51.9,16.1,74.4,31.3
		c33.4,22.6,59.6,54.4,75.3,91.5c5.3,12.6,9.4,25.7,12.1,39c5.6,27.7,5.6,56.2,0,83.8c-5.4,26.6-16.1,51.9-31.3,74.4
		c-22.6,33.4-54.4,59.6-91.5,75.3c-12.6,5.3-25.7,9.4-39,12.1c-27.7,5.6-56.2,5.6-83.8,0c-26.6-5.4-51.9-16.1-74.4-31.3
		c-33.4-22.6-59.6-54.4-75.3-91.5c-5.3-12.6-9.4-25.7-12.1-39c-5.6-27.7-5.6-56.2,0-83.8c5.4-26.6,16.1-51.9,31.3-74.4
		c22.6-33.4,54.4-59.6,91.5-75.3c12.6-5.3,25.7-9.4,39-12.1C895.7,2191.1,909.7,2189.7,923.8,2189.7z M923.8,2603.1
		c13.9,0,27.8-1.4,41.4-4.2c26.3-5.4,51.2-15.9,73.5-30.9c33-22.3,58.9-53.7,74.4-90.4c5.3-12.4,9.3-25.3,12-38.6
		c5.6-27.3,5.6-55.5,0-82.8c-5.4-26.3-15.9-51.2-30.9-73.5c-22.3-33-53.7-58.9-90.4-74.4c-12.4-5.3-25.3-9.3-38.6-12
		c-27.3-5.6-55.5-5.6-82.8,0c-26.3,5.4-51.2,15.9-73.5,30.9c-33,22.3-58.9,53.7-74.4,90.4c-5.3,12.4-9.3,25.3-12,38.6
		c-5.6,27.3-5.6,55.5,0,82.8c5.4,26.3,15.9,51.2,30.9,73.5c22.3,33,53.7,58.9,90.4,74.4c12.4,5.3,25.3,9.3,38.6,12
		C896,2601.7,909.9,2603.1,923.8,2603.1z"/>
</g>
</svg>
