<?xml version="1.0" encoding="utf-8"?>
<!-- Generator: Adobe Illustrator 25.2.3, SVG Export Plug-In . SVG Version: 6.00 Build 0)  -->
<svg version="1.1" id="Layer_1" xmlns="http://www.w3.org/2000/svg" xmlns:xlink="http://www.w3.org/1999/xlink" x="0px" y="0px"
	 viewBox="0 0 600 500" style="enable-background:new 0 0 600 500;" xml:space="preserve">
<style type="text/css">
	.st0{fill:url(#Path_1206_1_);}
	.st1{fill:url(#Path_1207_1_);}
	.st2{fill:url(#Path_1208_1_);}
	.st3{fill:url(#Path_1209_1_);}
	.st4{fill:url(#Path_1210_1_);}
	.st5{fill:url(#Path_1211_1_);}
	.st6{fill:url(#Path_1212_1_);}
	.st7{fill:url(#Path_1213_1_);}
	.st8{fill:url(#Path_1214_1_);}
	.st9{fill:url(#Ellipse_12_1_);}
</style>
<g id="_28" transform="translate(-1598.509 -2105.648)">
	
		<linearGradient id="Path_1206_1_" gradientUnits="userSpaceOnUse" x1="1699.0227" y1="2603.8201" x2="1700.37" y2="2605.7" gradientTransform="matrix(165.7855 0 0 -167.9817 -279903.1875 439952.7812)">
		<stop  offset="0" style="stop-color:#41EA7B"/>
		<stop  offset="1" style="stop-color:#EFEF76"/>
	</linearGradient>
	<path id="Path_1206" class="st0" d="M1983.8,2228.8c2.9,0,5.8,0.7,8.4,2.1c3,1.6,5.9,3.4,8.6,5.5c11.8,8.9,18.8,20.9,20.3,34.5
		c0.5,3.1,0.8,6.2,1,9.4v0.1c-0.1,3.1-0.4,6.3-0.8,9.4c-0.4,3-0.7,6-0.8,9.1v0.1v0.1c-0.3,3.2-0.6,6.4-1,9.4c-1.1,9.5-2.8,19-5,28.4
		c-0.9,3.8-1.9,7.5-3,11.1l0,0.1c-0.7,1.9-1.4,3.8-2,5.6c-0.6,1.7-1.2,3.5-1.9,5.2c-1.2,3.2-2.6,7.1-4,10.7l0,0l0,0
		c-0.5,1-1,2-1.5,3.1c-3.1,6.4-6.9,14.4-13,17.2c-1.4,0.7-3,1-4.6,1c-1.4,0-2.7-0.2-4-0.7c-5.5-1.8-10.9-3.9-16.2-6.1
		c-0.9-0.4-1.9-0.8-2.8-1.1c-2.8-1.1-6-2.4-9.4-3.6l-0.1,0l-0.1,0c-5.6-3.1-11.9-4.9-18.3-5.5c-1.3-0.1-2.5-0.2-3.8-0.2
		c-1.7,0-3.5,0.1-5.2,0.3c-2.9,0.4-5.7,1-8.4,2c-2.7,1-5.3,2.1-7.8,3.5l0,0l0,0c-2,0.9-3.9,2.1-5.7,3.4c-1.8,1.3-3.4,2.7-5.5,4.4
		l0,0c-1,0.8-2.1,1.8-3.1,2.7c-3.8,3.4-7.7,6.9-13.1,6.9c-0.4,0-0.9,0-1.3-0.1c-3.8-0.3-7.4-1.6-10.5-3.7c-3-2.1-5.6-4.7-7.6-7.9
		c-4-6.4-5.9-13.9-5.3-21.4c0.2-3.5,0.7-7,1.3-10.4l0-0.1l0-0.1c0.4-1.2,0.7-2.3,1.1-3.5c0.5-1.9,1.1-3.8,1.9-5.6l0,0
		c1.3-2.5,2.8-4.9,4.6-7.2c1.5-2,3.3-4.2,5.4-6.5l0.1-0.1l0.2-0.1c3.2-1.8,6.2-3.9,9-6.3c2.6-2.2,4.9-4.7,7-7.4l0.1-0.1
		c3.5-4,6.1-8.7,7.6-13.7c1.5-4.9,2.1-10,2-15.1c-0.1-3.5-0.4-7.1-1-10.6l0-0.1v-0.1c-0.2-3.8-1.7-7.7-3.2-11.5
		c-1.5-3.4-2.6-7-3.2-10.7c-0.6-3.9,0.3-7.9,2.4-11.2l0-0.1l0.1-0.1c1.7-2.1,4.1-3.4,6.8-3.6h0.1c0.2,0,0.4,0,0.7,0
		c1.9-0.1,3.8,0.4,5.5,1.3l0.1,0c3.1,2.2,6,4.6,8.8,7.3c4.9,4.6,9.6,9,15.8,9.9c1.1,0.2,2.1,0.2,3.2,0.2c2.5,0,4.9-0.4,7.2-1.3
		c2.3-0.8,4.5-2,6.6-3.4c4.3-2.8,8.3-6.7,12.1-10.4c3.6-3.6,7.4-6.9,11.5-9.9l0,0c2.1-1.4,4.3-2.5,6.7-3.4
		C1978.8,2229.2,1981.3,2228.8,1983.8,2228.8z M2019.5,2280.3c-0.1-3-0.4-6.1-0.9-9.1l0-0.1c-1.4-13-8.1-24.3-19.3-32.8
		c-2.6-2-5.4-3.7-8.3-5.3c-2.2-1.2-4.7-1.8-7.2-1.8c-4.5,0.2-8.9,1.6-12.6,4.3c-4,2.9-7.7,6.2-11.2,9.7c-8,7.7-16.4,15.7-27.6,15.7
		c-1.2,0-2.4-0.1-3.6-0.3h0c-3.4-0.6-6.6-1.9-9.4-4c-2.7-2-5.3-4.2-7.8-6.6c-2.6-2.6-5.4-4.9-8.4-7c-1.3-0.6-2.8-1-4.3-0.9
		c-0.2,0-0.3,0-0.5,0c-2,0.2-3.8,1.2-5,2.7c-4.1,6.4-1.6,12.8,1,19.7c1.5,4,3.1,8,3.3,12.2c0.6,3.6,1,7.2,1,10.9
		c0.2,12.4-3.1,22.3-10.2,30.5c-2.2,2.8-4.6,5.4-7.3,7.7c-2.9,2.5-5.9,4.6-9.2,6.5c-2,2.2-3.7,4.2-5.1,6.1c-1.6,2.1-3.1,4.4-4.3,6.8
		c-0.7,1.7-1.3,3.4-1.7,5.2c-0.3,1.2-0.7,2.4-1.1,3.6c-0.6,3.3-1.1,6.7-1.3,10.1v0c-0.3,3.5,0,7,0.9,10.3c0.8,3.4,2.2,6.6,4,9.5
		c1.8,2.8,4.1,5.3,6.9,7.1c2.8,1.9,6,3,9.3,3.3h0c0.4,0,0.7,0.1,1.1,0.1c4.5,0,7.8-3,11.4-6.2c1-0.9,2.1-1.9,3.2-2.8
		c2-1.8,3.8-3.2,5.6-4.6c1.9-1.4,3.9-2.6,6.1-3.6c2.6-1.4,5.3-2.6,8.1-3.6c2.9-1,5.9-1.7,9-2.1h0c1.8-0.2,3.7-0.3,5.5-0.3
		c1.3,0,2.7,0.1,4,0.2c6.7,0.6,13.2,2.5,19.2,5.7c3.4,1.2,6.6,2.5,9.4,3.6c0.9,0.4,1.9,0.8,2.8,1.1c5.2,2.1,10.6,4.3,16,6h0
		c1,0.4,2.1,0.5,3.2,0.6c1.2,0,2.4-0.3,3.6-0.8c5.3-2.4,8.9-10,11.7-16c0.5-1.1,1-2.2,1.5-3.2c1.5-3.6,2.8-7.4,4-10.6
		c0.6-1.7,1.2-3.5,1.9-5.2c0.7-1.8,1.3-3.8,2-5.6c1.1-3.5,2.1-7.2,3-11c2.2-9.3,3.9-18.6,5-28.1c0.4-3,0.7-6.1,1-9.3
		c0.1-3.1,0.4-6.2,0.8-9.3C2019.1,2286.4,2019.4,2283.4,2019.5,2280.3L2019.5,2280.3z"/>
	
		<linearGradient id="Path_1207_1_" gradientUnits="userSpaceOnUse" x1="1699.0162" y1="2603.929" x2="1700.3636" y2="2605.8088" gradientTransform="matrix(200.1407 0 0 -192.0044 -338311.4375 502562.9062)">
		<stop  offset="0" style="stop-color:#41EA7B"/>
		<stop  offset="1" style="stop-color:#EFEF76"/>
	</linearGradient>
	<path id="Path_1207" class="st1" d="M1986.8,2220.2c4.6-0.1,9.1,1.2,13,3.5c3.4,2,6.6,4.3,9.6,6.8c6,4.9,11.2,10.8,15.3,17.5
		c4.2,6.9,7.1,14.5,8.6,22.4l0.1,0.7c0.7,3.3,1.2,6.7,1.5,10.1c0.3,4.7,0.2,9.3-0.2,14c-0.1,2.4-0.3,5-0.3,7.5
		c-0.1,3.1-0.4,6.3-0.6,9.4c0,0.5-0.1,1.1-0.1,1.6c-1,11.8-3.1,23.5-6.2,35c-1.1,4.1-2.5,8.8-4.3,13.5c-1.7,4.4-3.6,8.7-5.6,13
		l-0.2,0.5c-1.8,4.1-3.8,8.1-6,12.1l-0.4,0.7c-2.4,4.4-5.1,8.6-8.1,12.6c-3.7,4.8-7.3,8-11.2,9.8c-2.3,1.1-4.8,1.7-7.4,1.7
		c-0.9,0-1.7-0.1-2.6-0.2c-8-1.1-15.9-2.7-23.7-4.7c-2.3-0.6-4.6-1.1-6.8-1.7c-1.7-0.4-3.4-0.9-5.1-1.3l-0.1,0l-0.1,0
		c-9.7-3.9-20-5.9-30.4-5.9c-0.6,0-1.2,0-1.8,0c-3.3,0.1-6.6,0.4-9.9,1c-2.5,0.4-5,1.1-7.3,1.7c-0.6,0.2-1.2,0.3-1.8,0.5
		c-2.3,0.6-4.5,1.3-6.7,2.2c-1.5,0.6-3.1,1.4-4.6,2.1c-0.6,0.3-1.3,0.6-1.9,0.9c-1,0.5-2.1,1-3.1,1.5c-3.8,1.9-7.7,3.9-12.4,3.9
		c-1.4,0-2.8-0.2-4.2-0.5c-4.1-1-7.9-2.9-11.2-5.5c-3.3-2.6-6.1-5.8-8.4-9.3c-2.3-3.6-4.1-7.5-5.3-11.6c-1.2-4.1-1.9-8.3-2.1-12.5
		c-0.1-4,0-8,0.3-12l0-0.1l0-0.1c0.3-1.3,0.5-2.6,0.7-3.8c0.3-2.3,0.8-4.6,1.4-6.9c1-3,2.3-5.9,3.8-8.6c1.3-2.6,2.9-5.2,4.7-8
		l0.1-0.1l0.1-0.1c3-2.8,5.7-5.8,8.3-9c2.4-3.1,4.7-6.4,6.9-9.8c3.4-5.3,6.2-11.1,8.3-17.1c2-5.7,3.4-11.7,4.2-17.7
		c0.4-2.6,0.6-5.3,0.7-7.9c0.1-1.4,0.2-2.8,0.3-4.2c0.2-3.9,0-7.8-0.5-11.6c-0.6-4.1-0.7-8.3-0.4-12.5c0.5-4.5,2.5-8.8,5.7-12.1
		c2.1-2.2,4.9-3.7,7.9-4.1c1-0.2,1.9-0.2,2.9-0.2c1.4,0,2.8,0.2,4.2,0.6c4.3,1.7,8.5,3.7,12.4,6.2c2.9,1.8,5.9,3.4,9,4.8
		c3.1,1.4,6.5,2.4,9.9,2.8c1.4,0.2,2.7,0.2,4.1,0.2c11.5,0,21-5.7,30.2-11.1c5.1-3.1,9.9-6,15.1-7.9
		C1978.8,2221,1982.8,2220.2,1986.8,2220.2z M1984.1,2409.9c2.2,0,4.4-0.5,6.3-1.4c3.5-1.7,6.8-4.6,10.3-9.1c2.9-3.9,5.6-8,7.9-12.3
		l0.4-0.7c2.2-3.8,4.1-7.8,5.9-11.8l0.2-0.5c2-4.3,3.9-8.6,5.6-12.9c1.8-4.6,3.2-9.3,4.3-13.3c3.1-11.3,5.1-22.9,6.2-34.5
		c0-0.5,0.1-1.1,0.1-1.6c0.3-3,0.6-6.2,0.6-9.2c0-2.6,0.2-5.1,0.3-7.6c0.4-4.5,0.4-9.1,0.2-13.7c-0.3-3.3-0.8-6.6-1.5-9.8l-0.1-0.7
		c-1.4-7.6-4.2-14.9-8.2-21.5c-3.9-6.4-8.9-12.1-14.7-16.8c-2.9-2.4-6-4.6-9.3-6.6c-3.5-2.1-7.6-3.2-11.7-3.2
		c-3.7,0-7.4,0.8-10.9,2.1c-4.9,1.9-9.7,4.7-14.7,7.7c-4.7,2.9-9.5,5.6-14.6,7.8c-5.3,2.4-11.1,3.6-16.9,3.7c-1.5,0-2.9-0.1-4.4-0.3
		c-7.7-0.9-13.9-4.5-19.9-8c-3.8-2.4-7.8-4.4-11.9-6c-1.1-0.3-2.2-0.5-3.4-0.5c-0.8,0-1.7,0.1-2.5,0.2c-2.5,0.4-4.7,1.6-6.5,3.4
		c-2.8,2.9-4.6,6.7-5,10.8c-0.3,4-0.2,8,0.4,11.9c0.6,4,0.7,8.1,0.5,12.1c-0.1,1.4-0.2,2.8-0.3,4.1c-0.2,2.6-0.4,5.4-0.8,8.1
		c-0.8,6.2-2.3,12.3-4.3,18.2c-2.2,6.2-5.1,12.1-8.6,17.6c-2.2,3.4-4.5,6.8-7,10c-2.6,3.2-5.4,6.3-8.4,9.2c-1.7,2.7-3.2,5.3-4.5,7.7
		c-1.4,2.7-2.6,5.4-3.6,8.3c-0.6,2.1-1.1,4.3-1.3,6.5c-0.2,1.3-0.4,2.6-0.7,3.9c-0.3,3.9-0.4,7.8-0.3,11.6c0.1,4,0.8,8,2,11.9
		c1.2,3.9,2.9,7.6,5,11c2.1,3.3,4.7,6.3,7.8,8.7c3,2.4,6.5,4.1,10.2,5.1c1.2,0.3,2.4,0.5,3.6,0.5c4.1,0,7.6-1.8,11.3-3.6
		c1-0.5,2.1-1.1,3.2-1.5c0.6-0.3,1.3-0.6,1.9-0.9c1.5-0.7,3.1-1.4,4.7-2.1c2.3-0.9,4.6-1.7,7-2.3c0.6-0.2,1.2-0.3,1.8-0.5
		c2.4-0.6,4.9-1.3,7.5-1.8c3.4-0.6,6.8-1,10.2-1.1c0.6,0,1.2,0,1.9,0c10.7,0,21.3,2.1,31.3,6.1c1.7,0.4,3.4,0.8,5,1.3
		c2.2,0.6,4.5,1.1,6.8,1.7c7.7,1.9,15.5,3.5,23.4,4.6C1982.6,2409.8,1983.4,2409.9,1984.1,2409.9L1984.1,2409.9z"/>
	
		<linearGradient id="Path_1208_1_" gradientUnits="userSpaceOnUse" x1="1699.0061" y1="2604.0386" x2="1700.3535" y2="2605.9185" gradientTransform="matrix(235.5519 0 0 -223.0339 -398514.9062 583436.6875)">
		<stop  offset="0" style="stop-color:#41EA7B"/>
		<stop  offset="1" style="stop-color:#EFEF76"/>
	</linearGradient>
	<path id="Path_1208" class="st2" d="M1987.7,2210.9c7-0.1,13.9,1.8,19.9,5.6c3.7,2.4,7.3,5.1,10.6,8c6.7,5.8,12.5,12.6,17.1,20.1
		c4.7,7.7,8.2,16.2,10.3,25.1c1,4,1.8,8.1,2.4,12.2c0.6,6,0.8,12,0.6,18c0,2.1,0,4.2,0,6.4c0,3.9-0.2,7.9-0.5,11.8l0,0.7
		c-0.9,14.1-3.4,28-7.4,41.6c-1.6,5.4-3.5,10.7-5.7,15.9c-1.9,4.5-4.3,9.4-7.4,15.2c-2.5,4.9-5.3,9.7-8.4,14.3
		c-3.3,5-6.9,9.8-10.8,14.4c-4.7,5.3-9.3,9.1-14.1,11.4c-3.5,1.7-7.4,2.6-11.4,2.6h-0.1c-9.5-0.1-18.9-0.8-28.3-2.1
		c-4.3-0.6-9-1.4-14.3-2.4l-0.1,0l-0.1,0c-8.2-2.5-16.6-4.3-25-5.4c-4.3-0.6-8.2-0.9-12-1.1c-1.7-0.1-3.4-0.1-5.1-0.1
		c-2,0-4,0-6.2,0.1c-2.4,0.1-4.8,0.3-7.2,0.6c-1.1,0.1-2.2,0.2-3.3,0.3c-2.9,0.2-5.4,0.5-7.8,0.9c-1.5,0.3-3,0.5-4.4,0.8
		c-1,0.2-2.1,0.4-3.2,0.6c-1.1,0.2-2.1,0.4-3.2,0.6c-3.2,0.8-6.5,1.2-9.8,1.3c-3,0-6-0.6-8.9-1.7c-8.3-3.2-15.6-9.4-21.1-18.1
		c-5.2-8.2-8.4-17.4-9.4-27c-0.5-4.5-0.7-9-0.7-13.5v-0.1l0-0.1c0.1-1.3,0.2-2.7,0.3-4c0.1-2.8,0.4-5.5,0.9-8.2
		c0.8-3.4,1.7-6.8,3-10.1c1.1-3.1,2.4-6.2,4-9.6l0-0.1l0.1-0.1c2.4-3.5,4.9-7.3,7.5-11.8c2.1-3.5,4-7.1,5.9-10.6
		c0.3-0.5,0.5-1,0.8-1.5c6.8-12.8,12-26.5,15.4-40.6c0.6-2.4,1.2-4.8,1.7-7.2c0.5-2.1,1-4.3,1.5-6.4c0.9-3.8,1.6-7.7,2-11.6
		c0.4-4.8,1.4-9.5,2.8-14.1c0.8-2.4,1.9-4.6,3.2-6.8c1.5-2.4,3.3-4.5,5.4-6.4c2.5-2.3,5.6-3.9,9-4.6c1.8-0.4,3.6-0.6,5.4-0.6
		c0.9,0,1.7,0.1,2.6,0.2c5.7,0.9,10.9,2.8,16.5,4.8c6.7,2.4,13.6,4.9,21.5,5.6c1.7,0.2,3.5,0.2,5.2,0.2c12.2,0,22.6-3.7,32.7-7.3
		c6.9-2.4,13.4-4.7,20.1-5.8C1982.8,2211.1,1985.2,2210.9,1987.7,2210.9z M1982.9,2431.6c3.6,0,7.1-0.8,10.3-2.4
		c4.4-2.2,8.8-5.7,13.3-10.8c3.8-4.5,7.4-9.2,10.7-14.1c3-4.5,5.7-9.2,8.2-14.1c3.1-5.8,5.4-10.6,7.3-15c2.1-5.1,4-10.3,5.6-15.6
		c4-13.4,6.4-27.1,7.3-41l0-0.7c0.3-3.8,0.5-7.8,0.5-11.6c0-2.2,0-4.3,0-6.4c0.2-5.9,0-11.8-0.6-17.7c-0.6-4-1.3-8-2.3-11.9
		c-2-8.6-5.4-16.8-10-24.3c-4.5-7.3-10.1-13.9-16.6-19.5c-3.3-2.8-6.7-5.4-10.3-7.8c-5.5-3.5-12-5.4-18.5-5.2c-2.3,0-4.7,0.2-7,0.6
		c-6.5,1-12.9,3.3-19.7,5.7c-10.3,3.6-21,7.4-33.5,7.4c-1.8,0-3.6-0.1-5.4-0.2c-8.3-0.7-15.3-3.3-22.1-5.7c-5.4-1.9-10.5-3.8-16-4.7
		c-0.7-0.1-1.5-0.2-2.2-0.2c-1.6,0-3.3,0.2-4.9,0.6c-2.9,0.6-5.6,2-7.8,4c-3.7,3.3-6.4,7.5-7.9,12.2c-1.3,4.4-2.2,9-2.7,13.6
		c-0.4,4-1.1,8-2,11.9c-0.5,2.1-1,4.2-1.5,6.3c-0.5,2.4-1.1,4.8-1.7,7.3c-3.5,14.3-8.8,28.1-15.7,41.1l-0.8,1.5
		c-1.9,3.5-3.8,7.2-5.9,10.7c-2.7,4.5-5.1,8.3-7.5,11.8c-1.5,3.3-2.8,6.3-3.9,9.3c-1.2,3.2-2.1,6.4-2.9,9.8
		c-0.5,2.6-0.8,5.2-0.9,7.9c-0.1,1.3-0.2,2.7-0.3,4.1c0,4.4,0.2,8.8,0.7,13.2c1,9.2,4.1,18.1,9,25.9c5.3,8.2,12.1,14.1,19.9,17.1
		c2.5,1,5.2,1.5,8,1.5c3.1-0.1,6.2-0.5,9.3-1.3c1-0.2,2.1-0.4,3.2-0.6c1-0.2,2.1-0.4,3.1-0.6c1.5-0.3,3-0.6,4.5-0.8
		c2.4-0.4,5-0.7,8-1c1.1-0.1,2.2-0.2,3.3-0.3c2.3-0.2,4.8-0.5,7.3-0.6c2.2-0.1,4.3-0.2,6.3-0.2c1.8,0,3.5,0,5.2,0.1
		c3.9,0.2,7.9,0.5,12.2,1.1c8.6,1.1,17.1,2.9,25.4,5.4c5.3,1,10,1.7,14.2,2.4c9.3,1.3,18.6,2,28,2.1L1982.9,2431.6z"/>
	
		<linearGradient id="Path_1209_1_" gradientUnits="userSpaceOnUse" x1="1698.9987" y1="2604.126" x2="1700.3459" y2="2606.0059" gradientTransform="matrix(271.8527 0 0 -256.2231 -460230.7188 669938.9375)">
		<stop  offset="0" style="stop-color:#41EA7B"/>
		<stop  offset="1" style="stop-color:#EFEF76"/>
	</linearGradient>
	<path id="Path_1209" class="st3" d="M1873.6,2200.5c0.2,0,0.4,0,0.6,0c7.6,0.2,14.7,1.7,22.2,3.3c7.4,1.7,14.8,2.9,22.4,3.5
		c2.3,0.2,4.6,0.2,6.9,0.2c11.7,0,22.1-1.9,32.3-3.8c9.2-1.7,17.9-3.3,26.6-3.3h0c0.3,0,0.6,0,1,0c11.5,0.1,21.5,3.1,29.7,8.8
		c4.1,2.9,7.9,6,11.6,9.3c7.4,6.7,13.7,14.3,19,22.7c5.3,8.6,9.4,18,12,27.8c1.3,4.5,2.3,9,3.1,13.5c1.2,7.9,1.4,15.5,1.6,23.6
		c0,1.2,0.1,2.4,0.1,3.7c0.1,4.6-0.1,9.3-0.3,14c-0.8,16.4-3.7,32.5-8.6,48.2c-2,6.2-4.3,12.3-7,18.3c-2.5,5.5-5.5,11.1-9.1,17.3
		c-3.2,5.6-6.7,11-10.5,16.1c-8.6,11.3-18.2,22.6-30.1,28.5c-4.1,2-8.5,3.3-13,3.7c-6.3,0.6-12.7,0.9-19,0.9c-4.6,0-9.3-0.2-14-0.5
		c-5.3-0.4-10.8-1-16.8-1.8l-0.1,0l-0.1,0c-8.9-2.1-18.2-3.8-28.4-5.3c-5-0.7-9.4-1.3-13.5-1.7c-3.9-0.4-7.9-0.7-12.7-1
		c-2.1-0.1-4.2-0.2-6.2-0.3c-1.9-0.1-3.7-0.1-5.5-0.2c-3.4-0.2-6.2-0.3-8.8-0.3c-1,0-2,0-2.9,0c-2,0-3.8,0-5.7-0.1
		c-0.9,0-1.8,0-2.6-0.1c-7-0.1-13.5-0.3-21.3-4.2c-4.6-2.4-8.9-5.4-12.7-9c-3.8-3.7-7.2-7.8-10.1-12.3c-2.9-4.5-5.3-9.4-7.2-14.4
		c-1.9-5-3.3-10.2-4.2-15.4c-0.8-5-1.4-10-1.7-15.1v0v0c0-1.3,0-2.6,0-3.9c-0.1-3.3,0-6.6,0.3-9.8c0.5-3.9,1.2-7.7,2.2-11.5
		c0.9-3.6,2-7.3,3.3-11.1l0-0.1l0-0.1c2.1-4.5,4.3-9.1,6.3-13.7l0.4-0.9c1.1-2.4,2.2-4.8,3.2-7.2c1.1-2.4,2.1-4.8,3.2-7.2
		c6.1-13.4,12-28.1,18.3-46.3c0.6-1.8,1.3-3.6,1.9-5.4c1.1-3.2,2.2-6.5,3.5-9.7c1.4-3.6,2.5-7.1,3.6-10.5
		c3.6-11.3,7.1-21.9,18.3-31.1c3-2.4,6.4-4.1,10.1-5.1C1868,2201,1870.8,2200.5,1873.6,2200.5z M1925.7,2210.1c-2.4,0-4.7-0.1-7-0.2
		c-7.7-0.6-15.3-1.8-22.7-3.6c-7.4-1.6-14.4-3-21.8-3.3c-0.2,0-0.3,0-0.5,0c-2.6,0-5.1,0.4-7.6,1.1c-3.4,0.9-6.5,2.5-9.2,4.6
		c-4.7,3.8-8.6,8.6-11.4,14c-2.5,5.1-4.5,10.5-6.1,15.9c-1.1,3.5-2.3,7-3.7,10.7c-1.2,3.1-2.3,6.3-3.4,9.6c-0.6,1.8-1.2,3.6-1.9,5.4
		c-6.4,18.3-12.3,33-18.4,46.5c-1.1,2.4-2.2,4.8-3.2,7.2c-1.1,2.4-2.2,4.8-3.3,7.2l-0.4,0.9c-2.1,4.5-4.2,9.2-6.3,13.6
		c-1.3,3.8-2.3,7.3-3.2,10.8c-0.9,3.7-1.6,7.4-2.1,11.2c-0.3,3.2-0.4,6.4-0.3,9.5c0,1.3,0,2.6,0,3.9c0.3,5,0.9,9.9,1.7,14.8
		c0.9,5.1,2.2,10.1,4.1,14.9c1.9,4.9,4.2,9.5,7,13.9c5.9,9.1,13.4,16.2,21.7,20.4c7.2,3.7,13.5,3.8,20.2,3.9c0.9,0,1.8,0,2.6,0.1
		c1.9,0.1,3.7,0.1,5.7,0.1c1,0,1.9,0,2.9,0c2.7,0,5.5,0.1,8.9,0.3c1.8,0.1,3.6,0.2,5.5,0.2c2,0.1,4.1,0.1,6.3,0.3
		c4.8,0.3,8.9,0.6,12.8,1c4.2,0.4,8.6,1,13.6,1.7c10.2,1.5,19.5,3.2,28.5,5.3c5.9,0.8,11.3,1.3,16.6,1.7c4.6,0.3,9.2,0.5,13.8,0.5
		c6.2,0,12.5-0.3,18.8-0.9c4.2-0.4,8.3-1.6,12.1-3.5c11.5-5.7,20.8-16.7,29.3-27.8c3.8-5.1,7.2-10.4,10.3-15.9
		c3.6-6.1,6.5-11.7,9-17.1c2.6-5.9,4.9-11.9,6.9-18c4.9-15.4,7.7-31.4,8.5-47.5c0.2-4.7,0.4-9.3,0.3-13.8c0-1.2-0.1-2.5-0.1-3.7
		c-0.2-8-0.4-15.6-1.6-23.3c-0.8-4.5-1.8-8.9-3-13.3c-2.6-9.6-6.5-18.7-11.7-27.1c-5.1-8.2-11.3-15.7-18.5-22.2
		c-3.6-3.3-7.4-6.3-11.4-9.1c-7.8-5.4-17.3-8.2-28.3-8.3c-0.3,0-0.6,0-0.9,0h0c-8.5,0-17.1,1.6-26.2,3.2
		C1948.2,2208.1,1937.6,2210.1,1925.7,2210.1L1925.7,2210.1z"/>
	
		<linearGradient id="Path_1210_1_" gradientUnits="userSpaceOnUse" x1="1698.9949" y1="2604.1995" x2="1700.3422" y2="2606.0793" gradientTransform="matrix(308.8262 0 0 -293.8154 -523090.375 767915.125)">
		<stop  offset="0" style="stop-color:#41EA7B"/>
		<stop  offset="1" style="stop-color:#EFEF76"/>
	</linearGradient>
	<path id="Path_1210" class="st4" d="M1871.2,2186.8c8,0.1,15.9,0.7,23.8,1.8c6.5,0.7,13.2,1.5,20.4,1.8c3.3,0.2,6.6,0.3,10.1,0.3
		c9.2,0,17.8-0.6,26.2-1.1c7.8-0.5,15.1-1,22.4-1c5.6,0,11.2,0.3,16.7,1.1c5.6,0.8,11,2.1,16.3,4c5.7,2.1,11,4.9,15.9,8.5
		c4.4,3.3,8.6,6.8,12.6,10.6c8,7.5,15,16.1,20.8,25.4c5.9,9.5,10.5,19.8,13.7,30.5c1.5,4.9,2.8,9.9,3.8,14.9
		c1.8,9.6,2.3,19,2.8,30.2c0.2,5.4,0.1,10.9-0.1,15.5c-0.7,18.6-4,37-9.8,54.7c-2.3,7-5.1,13.9-8.3,20.6
		c-3.2,6.7-6.9,13.2-10.8,19.5c-3.8,6.2-8,12.2-12.6,17.9c-8.8,10.7-20.8,23.9-35.4,31.2c-4.6,2.3-9.5,3.9-14.5,4.8
		c-11.3,2-22.8,3-34.4,3c-1.1,0-2.2,0-3.3,0c-6.2-0.1-12.7-0.5-19.2-1.1h0l0,0c-10.6-1.8-21-3.5-31.7-5.2l-1.1-0.2
		c-4.8-0.8-9.3-1.5-13.9-2.1c-3.4-0.5-6.7-1-9.9-1.4c-1.4-0.2-2.8-0.4-4.2-0.6c-1.2-0.2-2.4-0.3-3.6-0.5c-3.3-0.4-6.4-0.9-9.5-1.4
		c-3.5-0.6-6.7-1.1-9.8-1.6c-3-0.5-6.4-1-9.7-1.6l-1.1-0.2c-8.3-1.6-16.2-3.1-24.9-8.5c-4.9-3-9.4-6.6-13.4-10.7
		c-4.1-4.2-7.8-8.8-10.9-13.8c-6.4-10-10.9-21.1-13.5-32.7c-1.2-5.5-2.1-11-2.7-16.6l0-0.1c-0.1-1.1-0.1-2.3-0.2-3.4
		c-0.3-4-0.4-8-0.3-12c0.2-4.4,0.7-8.7,1.4-13c0.7-4.1,1.5-8.4,2.6-12.7l0,0l0,0c2.3-6.9,4.1-12.3,5.9-17.3c1.9-5.2,4-11.1,6.3-16.8
		l1.1-2.7c6.9-17.3,13.4-33.6,20.1-49.3c0.2-0.6,0.5-1.1,0.7-1.7c2.2-5.2,4.3-10,6.7-14.8c1.3-2.6,2.5-5.2,3.7-7.6
		c3.3-6.9,6.4-13.4,10.5-19.6c4.4-6.7,9.9-12.5,16.3-17.2c3.4-2.5,7.2-4.3,11.3-5.6c3.2-1,6.5-1.7,9.8-2
		C1866.5,2186.9,1868.7,2186.8,1871.2,2186.8z M1925.5,2193.1c-3.6,0-6.9-0.1-10.3-0.3c-7.2-0.3-14-1.1-20.5-1.8
		c-7.8-1-15.7-1.6-23.5-1.7c-2.4,0-4.6,0.1-6.8,0.2c-3.1,0.3-6.2,0.9-9.2,1.9c-3.8,1.2-7.3,2.9-10.5,5.2
		c-6.2,4.5-11.5,10.1-15.7,16.5c-4,6-7.1,12.4-10.3,19.3c-1.2,2.5-2.4,5.1-3.7,7.7c-2.4,4.7-4.5,9.6-6.7,14.7l-0.7,1.7
		c-6.7,15.7-13.2,32-20.1,49.2l-1.1,2.7c-2.3,5.6-4.4,11.5-6.2,16.7c-1.8,5-3.6,10.3-5.9,17.2c-1,4.2-1.9,8.4-2.6,12.4
		c-0.7,4.2-1.1,8.4-1.4,12.7c-0.1,3.9,0,7.8,0.3,11.7c0.1,1.1,0.1,2.2,0.2,3.3c0.6,5.5,1.5,10.9,2.7,16.3
		c2.5,11.3,6.9,22.1,13.1,31.9c3.1,4.8,6.6,9.3,10.6,13.4c3.9,4,8.2,7.5,12.9,10.4c3.8,2.3,7.8,4.1,12,5.4c4,1.1,8,2.1,12,2.8
		l1.1,0.2c3.2,0.6,6.5,1.1,9.6,1.6c3.1,0.5,6.3,1,9.9,1.6c3.1,0.5,6.1,0.9,9.4,1.4c1.2,0.2,2.4,0.3,3.6,0.5c1.4,0.2,2.8,0.4,4.2,0.6
		c3.2,0.4,6.5,0.9,9.9,1.4c4.6,0.7,9.3,1.4,13.9,2.1l1.1,0.2c10.7,1.7,21.2,3.4,31.7,5.2c6.5,0.6,12.9,1,19,1.1c1.1,0,2.2,0,3.2,0
		c11.4,0,22.7-1,33.9-3c4.8-0.8,9.5-2.4,13.8-4.6c14.2-7.1,25.9-20.1,34.6-30.6c4.5-5.6,8.7-11.5,12.5-17.6
		c3.9-6.2,7.5-12.6,10.7-19.2c3.2-6.6,5.9-13.4,8.2-20.3c5.8-17.5,9-35.7,9.7-54c0.2-4.6,0.3-10,0.1-15.3c-0.5-11.1-1-20.4-2.8-29.9
		c-1-4.9-2.2-9.8-3.7-14.6c-3.1-10.5-7.6-20.6-13.4-29.9c-5.7-9.1-12.6-17.5-20.4-24.9c-3.9-3.7-8.1-7.2-12.4-10.4
		c-4.7-3.4-9.8-6.2-15.3-8.2c-5.1-1.8-10.4-3.2-15.8-3.9c-5.4-0.8-10.9-1.1-16.3-1.1c-7.2,0-14.5,0.5-22.2,1
		C1943.4,2192.6,1934.7,2193.1,1925.5,2193.1L1925.5,2193.1z"/>
	
		<linearGradient id="Path_1211_1_" gradientUnits="userSpaceOnUse" x1="1698.9918" y1="2604.2585" x2="1700.3391" y2="2606.1384" gradientTransform="matrix(346.1047 0 0 -332.9443 -586468.75 869895.75)">
		<stop  offset="0" style="stop-color:#41EA7B"/>
		<stop  offset="1" style="stop-color:#EFEF76"/>
	</linearGradient>
	<path id="Path_1211" class="st5" d="M1876.5,2172.2c7.2,0,14.6,0.4,22.3,0.7c4.3,0.2,8.7,0.4,13.2,0.6c8.9,0.3,17.5,0.4,25.8,0.4
		c10.5,0.1,20.4,0.1,30,0.7c9.5,0.5,18.9,1.9,28.1,4.1c6.1,1.5,12,3.5,17.7,6.1c6,2.7,11.8,6.1,17,10.1c4.8,3.7,9.3,7.6,13.7,11.8
		c8.7,8.4,16.3,17.8,22.7,28c6.5,10.4,11.7,21.5,15.4,33.2c1.8,5.3,3.2,10.8,4.4,16.3c2.4,11.5,3.3,23.2,3.9,33.1
		c0.3,4.9,0.3,10.3,0.1,17c-0.5,20.9-4.2,41.5-11,61.3c-2.7,7.9-5.9,15.5-9.6,23c-3.8,7.4-7.9,14.7-12.6,21.6
		c-4.5,6.9-9.4,13.4-14.8,19.7c-5.8,6.7-12,13-18.6,18.9c-6.7,5.9-14.1,11-22,15.1c-5.1,2.6-10.5,4.6-16,5.9
		c-13.9,3.3-28.1,5.1-42.3,5.5c-1.7,0-3.4,0.1-5,0.1c-5.4,0-11-0.2-16.6-0.6l-0.1,0c-12.8-1.6-24.2-3.3-35-5.1
		c-5-0.8-10.3-1.8-16.4-2.9c-5-0.9-10.3-1.9-15.4-3c-4.7-1-9.6-2-14.4-3.2c-3.5-0.9-7.1-1.8-10.9-2.9c-4.1-1.1-7.6-2.2-10.7-3.2
		c-9.9-3.2-18.8-6.4-28.2-13.1c-5.2-3.7-9.9-7.8-14.2-12.5c-4.4-4.7-8.3-9.8-11.8-15.2c-3.5-5.5-6.6-11.2-9.2-17.2
		c-2.6-5.9-4.7-12.1-6.3-18.4c-1.6-6-2.8-12.1-3.7-18.2l0-0.1c-0.1-0.7-0.2-1.4-0.2-2c-0.6-4.9-1-9.9-1.2-14.8
		c0-4.8,0.2-9.6,0.6-14.4c0.4-4.6,1.1-9.4,1.9-14.2l0-0.1c1.6-7,3.3-13.7,5.1-20c2.1-7.4,4.1-13.4,6.1-19.1
		c6.9-19.7,14.9-39,24.1-57.7c2.9-5.8,6-12,9.6-17.9l1-1.7c5.2-8.7,10.1-17,16-24.6c6.2-8.1,13.6-15.1,22.1-20.8
		c3.9-2.6,8-4.6,12.4-6.1c3.5-1.2,7.1-2.1,10.7-2.7C1861.6,2172.6,1869,2172.1,1876.5,2172.2z M1938.8,2502.9c1.7,0,3.3,0,5-0.1
		c14.1-0.4,28.1-2.2,41.8-5.4c5.4-1.3,10.6-3.2,15.5-5.7c7.7-4,15-9,21.5-14.8c6.6-5.8,12.7-12,18.4-18.6
		c5.3-6.1,10.2-12.6,14.6-19.4c4.6-6.9,8.7-14,12.4-21.4c3.7-7.3,6.8-14.9,9.5-22.7c6.7-19.5,10.4-39.9,10.9-60.6
		c0.2-6.7,0.1-12-0.1-16.8c-0.6-9.8-1.4-21.4-3.8-32.7c-1.2-5.4-2.6-10.8-4.4-16c-3.7-11.5-8.8-22.4-15.1-32.6
		c-6.3-10.1-13.8-19.3-22.3-27.6c-4.3-4.1-8.7-8-13.4-11.6c-5.1-3.9-10.7-7.2-16.5-9.8c-5.6-2.5-11.4-4.5-17.3-5.9
		c-9.1-2.2-18.3-3.6-27.7-4.1c-9.6-0.6-19.4-0.7-29.9-0.7c-8.3,0-16.9-0.1-25.9-0.4c-4.5-0.2-8.9-0.4-13.2-0.6
		c-7.7-0.4-15-0.7-22.2-0.7c-7.3-0.1-14.7,0.4-21.9,1.5c-3.5,0.6-7,1.5-10.3,2.6c-4.2,1.4-8.2,3.4-11.9,5.8
		c-18,12.1-27,27.2-37.3,44.6l-1,1.7c-3.5,5.9-6.6,12-9.5,17.8c-9.1,18.7-17.1,37.8-24,57.4c-2,5.6-3.9,11.6-6,19
		c-1.8,6.2-3.5,12.9-5.1,19.9c-0.8,4.7-1.5,9.4-1.9,14c-0.4,4.7-0.6,9.4-0.6,14.2c0.1,4.9,0.5,9.7,1.2,14.6c0.1,0.7,0.2,1.3,0.2,2
		c0.9,6,2.1,12,3.7,17.9c1.6,6.1,3.7,12.2,6.2,18c2.5,5.8,5.5,11.5,9,16.8c3.4,5.3,7.2,10.3,11.5,14.9c4.2,4.5,8.8,8.6,13.8,12.1
		c4.3,3,8.8,5.6,13.6,7.7c4.7,2.1,9.5,3.7,13.9,5.1c3.1,1,6.6,2.1,10.6,3.2c3.8,1,7.3,2,10.8,2.9c4.7,1.2,9.6,2.2,14.3,3.2
		c5.1,1.1,10.4,2.1,15.4,3c6,1.1,11.4,2.1,16.4,2.9c10.8,1.8,22.2,3.5,34.9,5.1C1927.9,2502.8,1933.5,2502.9,1938.8,2502.9z"/>
	
		<linearGradient id="Path_1212_1_" gradientUnits="userSpaceOnUse" x1="1698.989" y1="2604.3069" x2="1700.3363" y2="2606.1868" gradientTransform="matrix(383.7419 0 0 -373.5789 -650456.9375 975799.75)">
		<stop  offset="0" style="stop-color:#41EA7B"/>
		<stop  offset="1" style="stop-color:#EFEF76"/>
	</linearGradient>
	<path id="Path_1212" class="st6" d="M1889.8,2156.2c6.3,0,12.7,0.1,18.7,0.3c16.2,0.4,32.9,0.8,48.6,2.4c17.1,1.7,31.1,4.6,43.9,9
		c6.6,2.2,13,4.9,19.1,8.1c6.4,3.3,12.5,7.3,18.2,11.8c5.1,4.1,10,8.5,14.7,13.1c9.3,9.3,17.6,19.5,24.6,30.7
		c7.1,11.3,12.8,23.3,17.1,35.9c2.2,6.5,3.9,12.2,5.1,17.6c2.6,11.8,4.3,23.9,5,36c0.4,5.6,0.5,11.6,0.4,18.6
		c-0.4,23.1-4.5,46-12.2,67.9c-3.1,8.7-6.7,17.2-10.9,25.4c-4.3,8.2-9,16.1-14.3,23.7c-5.1,7.5-10.8,14.7-16.9,21.4
		c-6.6,7.3-13.7,14.1-21.2,20.4c-7.6,6.3-15.9,11.8-24.6,16.4c-5.6,2.9-11.5,5.2-17.6,7c-15.3,4.4-31.1,7.1-47,8
		c-4.3,0.2-8.6,0.4-12.9,0.4c-3.7,0-7.4-0.1-11.2-0.3h0c-13.1-1.1-26-2.8-38.3-5c-6-1.1-12-2.3-17.9-3.6c-5.8-1.3-11.5-2.6-16.8-4.1
		c-6.2-1.6-11.2-3.1-15.7-4.6c-4-1.3-8-2.7-11.9-4.2c-4.2-1.6-8.1-3.1-11.8-4.7c-9.6-4.2-20-9.3-30.4-17.5
		c-5.4-4.3-10.4-9.1-15-14.2c-4.6-5.2-8.9-10.8-12.7-16.7c-3.8-5.9-7.2-12.2-10.1-18.6c-2.9-6.4-5.4-13-7.4-19.8
		c-1.9-6.5-3.5-13.1-4.7-19.7l0,0c-1-6.5-1.9-12.4-2.3-18.4c-0.3-5.1-0.4-10.3-0.2-15.9c0.2-5.2,0.6-10.5,1.2-15.8l0,0
		c1.2-7.8,2.6-15.4,4.3-22.8c1.8-7.7,3.7-14.7,5.8-21.4c6.9-22,15.9-43.2,27-63.4c4.2-7.6,7.9-13.8,11.7-19.4
		c5.8-8.5,12.7-18.4,20.8-27.3c7.9-8.7,16.9-16.3,26.9-22.6c4.3-2.6,8.9-4.9,13.6-6.6c3.8-1.4,7.7-2.6,11.7-3.5
		c7.4-1.6,14.9-2.7,22.4-3.2C1873.5,2156.5,1880.9,2156.2,1889.8,2156.2z M1927.4,2527.7c4.3,0,8.6-0.1,12.8-0.4
		c15.7-0.9,31.3-3.6,46.4-8c5.9-1.7,11.7-4,17.2-6.8c8.6-4.5,16.7-9.9,24.2-16.1c7.5-6.2,14.5-12.9,21-20.1
		c6-6.7,11.6-13.7,16.7-21.2c5.2-7.5,9.9-15.4,14.1-23.5c4.2-8.1,7.8-16.5,10.8-25c7.6-21.6,11.7-44.2,12.1-67.1
		c0.1-6.8,0-12.8-0.4-18.4c-0.7-12-2.3-23.9-4.9-35.6c-1.2-5.3-2.9-11-5.1-17.4c-4.2-12.4-9.9-24.3-16.9-35.4
		c-6.9-11-15-21.1-24.2-30.2c-4.6-4.6-9.4-8.9-14.5-12.9c-5.5-4.4-11.5-8.2-17.8-11.5c-6.1-3.1-12.3-5.8-18.8-8
		c-12.6-4.3-26.4-7.1-43.3-8.8c-15.7-1.6-32.3-2-48.4-2.4c-6-0.1-12.4-0.3-18.7-0.3c-8.9,0-16.2,0.3-23,0.8
		c-7.4,0.6-14.8,1.6-22.1,3.2c-3.9,0.9-7.7,2-11.4,3.4c-4.6,1.7-9,3.8-13.2,6.4c-9.8,6.1-18.6,13.6-26.3,22.1
		c-8,8.8-14.9,18.6-20.6,27c-3.7,5.5-7.4,11.6-11.6,19.2c-11,20.1-19.9,41.1-26.8,62.9c-2.1,6.6-4,13.6-5.8,21.2
		c-1.7,7.3-3.1,14.9-4.3,22.5c-0.6,5.2-1,10.4-1.2,15.5c-0.2,5.5-0.1,10.7,0.2,15.7c0.4,5.9,1.2,11.7,2.2,18.1
		c1.2,6.6,2.8,13.1,4.7,19.5c2,6.7,4.4,13.2,7.3,19.5c2.9,6.3,6.2,12.4,10,18.3c3.7,5.8,7.9,11.3,12.4,16.4
		c4.5,5.1,9.4,9.7,14.7,13.9c4.6,3.6,9.5,6.9,14.6,9.8c4.3,2.4,9,4.7,15.2,7.4c3.6,1.6,7.4,3.1,11.6,4.7c3.9,1.4,7.8,2.8,11.8,4.1
		c4.4,1.5,9.4,2.9,15.5,4.5c5.3,1.4,10.9,2.8,16.7,4c5.8,1.3,11.8,2.5,17.8,3.5c12.2,2.2,25,3.8,38.1,4.9
		C1920,2527.6,1923.8,2527.7,1927.4,2527.7L1927.4,2527.7z"/>
	
		<linearGradient id="Path_1213_1_" gradientUnits="userSpaceOnUse" x1="1698.9861" y1="2604.3469" x2="1700.3334" y2="2606.2268" gradientTransform="matrix(421.7971 0 0 -415.168 -715155.875 1084191.25)">
		<stop  offset="0" style="stop-color:#41EA7B"/>
		<stop  offset="1" style="stop-color:#EFEF76"/>
	</linearGradient>
	<path id="Path_1213" class="st7" d="M1898.6,2139.5c2.1,0,4.3,0,6.5,0c17.8,0.1,35.5,1.5,53,4.2c16.5,2.5,32.6,6.9,48,13.3
		c7.1,2.9,13.9,6.3,20.6,10.2c6.8,4,13.2,8.4,19.3,13.4c5.5,4.5,10.7,9.3,15.7,14.4c10,10.1,18.8,21.3,26.4,33.3
		c7.7,12.2,14,25.1,18.8,38.7c2.4,6.7,4.3,12.9,5.8,19c3.1,12.8,5.2,25.8,6.1,38.9c0.5,6.3,0.7,13.1,0.6,20.1
		c-0.2,25.4-4.8,50.5-13.4,74.4c-3.4,9.5-7.5,18.8-12.2,27.7c-4.8,9-10.1,17.6-16,25.9c-5.8,8.2-12.2,15.9-19,23.2
		c-16.3,17.2-33.5,30.5-51.2,39.5c-6.2,3.2-12.6,5.9-19.2,8c-16.7,5.5-34,9.1-51.6,10.6c-6.5,0.5-13.1,0.8-19.7,0.8
		c-2.3,0-4.6,0-6.8-0.1h0c-14-0.7-27.9-2.4-41.6-4.9c-6.5-1.2-13-2.6-19.3-4.2c-6.2-1.5-12.3-3.2-18.1-5.1
		c-6.2-1.9-11.7-3.9-16.9-5.9c-4.2-1.7-8.5-3.4-12.9-5.4c-4.5-2-8.8-4.1-12.8-6.3c-13.2-7.1-23.3-13.8-32.6-22
		c-11.3-10-21.2-21.5-29.3-34.2c-8.3-12.9-14.8-26.7-19.6-41.3c-2.3-7-4.2-14.1-5.7-21.3v0c-1.6-8-2.6-14.1-3.1-19.9
		c-0.6-5.7-0.9-11.5-0.9-17.3c-0.1-5.7,0.1-11.5,0.5-17.3v0c0.8-8.5,1.9-17,3.5-25.5c1.6-8.3,3.5-16.3,5.6-23.7
		c6.9-24.2,17-47.4,29.8-69c4.3-7.2,8.9-14.1,13.8-20.8c7.6-10.3,16-20.1,25.2-29c9.4-9.1,19.8-17,31.1-23.6
		c4.8-2.7,9.7-5.1,14.8-7.1c4.1-1.6,8.4-3.1,12.7-4.2C1852.7,2141.8,1873.1,2139.5,1898.6,2139.5z M1917.1,2552.6
		c6.5,0,13.1-0.3,19.5-0.8c17.4-1.5,34.5-5,51-10.5c6.5-2.1,12.8-4.8,18.8-7.9c17.4-8.9,34.4-22.1,50.5-39
		c6.8-7.2,13.1-14.9,18.8-23c5.8-8.2,11.1-16.7,15.8-25.6c4.7-8.8,8.7-18,12.1-27.4c8.5-23.6,13-48.5,13.2-73.6
		c0.1-6.9-0.1-13.6-0.6-19.9c-0.9-13-2.9-25.9-6-38.5c-1.5-6-3.4-12.1-5.8-18.8c-4.8-13.4-11-26.2-18.6-38.2
		c-7.5-11.9-16.2-22.9-26.1-32.9c-4.9-5-10.1-9.7-15.5-14.2c-6-4.9-12.3-9.3-19-13.2c-6.5-3.8-13.3-7.2-20.3-10
		c-15.2-6.3-31.1-10.7-47.4-13.1c-17.4-2.6-35-4-52.7-4.2c-2.2,0-4.4,0-6.5,0c-25.2,0-45.4,2.3-63.6,7.3c-4.2,1.2-8.3,2.5-12.4,4.2
		c-5,2-9.8,4.3-14.5,7c-11.1,6.5-21.4,14.3-30.6,23.2c-9.1,8.9-17.4,18.5-24.9,28.7c-4.9,6.6-9.5,13.5-13.7,20.6
		c-12.8,21.5-22.7,44.5-29.6,68.5c-2.1,7.3-4,15.2-5.6,23.5c-1.6,8.4-2.7,16.8-3.5,25.2c-0.4,5.7-0.6,11.5-0.5,17.1
		c0.1,5.8,0.4,11.5,0.9,17.1c0.6,5.7,1.5,11.7,3.1,19.7c1.5,7.1,3.4,14.1,5.7,21c4.7,14.3,11.2,28,19.3,40.7
		c8,12.5,17.7,23.9,28.9,33.7c9.2,8,19.1,14.7,32.1,21.7c4,2.1,8.2,4.2,12.6,6.2c4.4,2,8.6,3.7,12.8,5.4c5.1,2,10.6,3.9,16.8,5.9
		c5.8,1.8,11.8,3.5,18,5c6.3,1.6,12.7,3,19.2,4.1c13.6,2.5,27.4,4.1,41.3,4.8C1912.6,2552.6,1914.8,2552.6,1917.1,2552.6z"/>
	
		<linearGradient id="Path_1214_1_" gradientUnits="userSpaceOnUse" x1="1698.9834" y1="2604.3801" x2="1700.3307" y2="2606.26" gradientTransform="matrix(460.2374 0 0 -457.0315 -780509.6875 1193297.75)">
		<stop  offset="0" style="stop-color:#41EA7B"/>
		<stop  offset="1" style="stop-color:#EFEF76"/>
	</linearGradient>
	<path id="Path_1214" class="st8" d="M1899.6,2122.6c0.7,0,1.4,0,2.1,0c19.3,0.1,38.5,2.1,57.4,5.9c9.1,1.9,18,4.3,26.8,7.3
		c8.6,2.9,17.1,6.3,25.3,10.3c15.2,7.3,29.5,16.5,42.5,27.3c5.8,4.9,11.4,10.2,16.7,15.6c10.6,11,20.1,23,28.3,35.9
		c8.3,13,15.1,26.9,20.5,41.4c2.5,6.6,4.7,13.5,6.5,20.4c3.6,13.7,6,27.7,7.2,41.8c0.6,7.1,0.9,14.4,0.8,21.6
		c-0.1,38.8-9.8,76.9-28.1,111c-5.3,9.7-11.2,19.1-17.7,28c-6.5,8.8-13.5,17.2-21.2,25c-17.4,17.7-36.4,32-56.4,42.3
		c-6.7,3.5-13.7,6.5-20.8,9.1c-18.1,6.7-37,11.1-56.2,13.1c-8.6,0.9-17.2,1.4-25.8,1.4c-1.1,0-2.1,0-3.2,0h0
		c-15.1-0.4-30.1-2-44.9-4.8c-6.9-1.3-13.9-2.9-20.7-4.8c-6.6-1.8-13.2-3.8-19.5-6.1c-6.2-2.2-12.3-4.6-18.2-7.3
		c-4.8-2.1-9.4-4.4-13.9-6.7c-4.8-2.5-9.4-5.1-13.8-7.8c-12.5-7.6-24.2-16.4-34.8-26.4c-11.8-11.2-22.2-23.8-31-37.4
		c-8.9-13.8-16.2-28.6-21.6-44.2c-2.6-7.5-4.9-15.1-6.8-22.8v0c-1.8-7.7-3.1-14.7-4-21.4c-0.8-6.2-1.4-12.5-1.7-18.8
		c-0.3-6.2-0.3-12.6-0.1-18.9v0c0.7-18.3,3.4-36.5,8.1-54.2c3.5-13.3,8.1-26.3,13.6-38.9c5.4-12.4,11.8-24.3,19.1-35.8
		c4.9-7.7,10.2-15.1,16-22.2c19.4-23.9,40.6-42.1,64.8-55.4c5.2-2.8,10.5-5.4,16-7.7c4.6-1.9,9.2-3.6,13.6-5
		c11.9-3.8,24.2-6.5,36.6-8.3C1873.7,2123.4,1886.6,2122.6,1899.6,2122.6z M1907.4,2577.6c8.5,0,17.1-0.4,25.6-1.3
		c19-2,37.7-6.4,55.7-13c7-2.6,13.8-5.6,20.5-9c19.8-10.2,38.6-24.3,55.8-41.8c7.5-7.8,14.5-16,20.9-24.7
		c6.5-8.8,12.4-18.1,17.6-27.7c18.2-33.8,27.7-71.5,27.8-109.9c0-7.1-0.2-14.3-0.8-21.4c-1.2-14-3.5-27.8-7.1-41.4
		c-1.8-6.8-4-13.6-6.4-20.1c-5.3-14.3-12.1-28-20.3-40.9c-8.1-12.8-17.5-24.7-28-35.5c-5.3-5.4-10.8-10.6-16.5-15.5
		c-12.8-10.7-26.9-19.8-41.9-27c-8.1-3.9-16.5-7.3-25-10.2c-8.7-2.9-17.5-5.3-26.5-7.2c-18.7-3.9-37.8-5.8-56.9-5.9
		c-0.7,0-1.4,0-2.1,0c-12.8,0-25.6,0.8-38.3,2.6c-12.3,1.7-24.4,4.5-36.2,8.2c-4.4,1.4-8.9,3.1-13.4,4.9c-5.4,2.2-10.6,4.7-15.8,7.5
		c-23.9,13.2-44.9,31.1-64.1,54.8c-5.7,7-10.9,14.4-15.8,22c-7.2,11.3-13.5,23.1-18.9,35.4c-5.5,12.5-10,25.4-13.5,38.6
		c-4.6,17.6-7.3,35.6-8,53.7c-0.2,6.2-0.2,12.5,0.1,18.6c0.3,6.2,0.9,12.5,1.7,18.6c0.9,6.6,2.2,13.6,4,21.2
		c1.8,7.6,4.1,15.2,6.7,22.6c5.4,15.3,12.6,30,21.4,43.6c8.7,13.5,18.9,25.9,30.6,37c10.5,9.9,22.1,18.6,34.4,26.1
		c4.4,2.7,9,5.3,13.7,7.7c4.4,2.3,9,4.5,13.8,6.7c5.9,2.6,11.9,5,18,7.2c6.3,2.2,12.8,4.3,19.3,6c6.8,1.8,13.7,3.4,20.6,4.7
		c14.7,2.8,29.6,4.4,44.5,4.7C1905.3,2577.6,1906.4,2577.6,1907.4,2577.6L1907.4,2577.6z"/>
	
		<linearGradient id="Ellipse_12_1_" gradientUnits="userSpaceOnUse" x1="1698.9811" y1="2604.4082" x2="1700.3284" y2="2606.2881" gradientTransform="matrix(499.4969 0 0 -499.497 -847255.9375 1303973.375)">
		<stop  offset="0" style="stop-color:#41EA7B"/>
		<stop  offset="1" style="stop-color:#EFEF76"/>
	</linearGradient>
	<path id="Ellipse_12" class="st9" d="M1898.5,2105.6c16.9,0,33.8,1.7,50.4,5.1c32,6.5,62.4,19.3,89.4,37.6
		c40.2,27.1,71.7,65.3,90.6,110c6.4,15.1,11.3,30.8,14.6,46.9c6.8,33.2,6.8,67.5,0,100.8c-6.5,32-19.3,62.4-37.6,89.4
		c-27.1,40.2-65.3,71.7-110,90.6c-15.1,6.4-30.8,11.3-46.9,14.6c-33.2,6.8-67.5,6.8-100.8,0c-32-6.5-62.4-19.3-89.4-37.6
		c-40.2-27.1-71.7-65.3-90.6-110c-6.4-15.1-11.3-30.8-14.6-46.9c-6.8-33.2-6.8-67.5,0-100.8c6.5-32,19.3-62.4,37.6-89.4
		c27.1-40.2,65.3-71.7,110-90.6c15.1-6.4,30.8-11.3,46.9-14.6C1864.7,2107.3,1881.6,2105.6,1898.5,2105.6z M1898.5,2603.2
		c16.8,0,33.5-1.7,49.9-5c31.7-6.5,61.7-19.1,88.5-37.2c39.8-26.9,70.9-64.7,89.7-108.9c6.3-15,11.2-30.5,14.4-46.5
		c6.7-32.9,6.7-66.9,0-99.8c-6.5-31.7-19.1-61.7-37.2-88.5c-26.9-39.8-64.7-70.9-108.9-89.7c-15-6.3-30.5-11.2-46.5-14.4
		c-32.9-6.7-66.9-6.7-99.8,0c-31.7,6.5-61.7,19.1-88.5,37.2c-39.8,26.9-70.9,64.7-89.7,108.9c-6.3,15-11.2,30.5-14.4,46.5
		c-6.7,32.9-6.7,66.9,0,99.8c6.5,31.7,19.1,61.7,37.2,88.5c26.9,39.8,64.7,70.9,108.9,89.7c15,6.3,30.5,11.2,46.5,14.4
		C1865,2601.5,1881.8,2603.2,1898.5,2603.2z"/>
</g>
</svg>
