<?xml version="1.0" encoding="utf-8"?>
<!-- Generator: Adobe Illustrator 25.4.1, SVG Export Plug-In . SVG Version: 6.00 Build 0)  -->
<svg version="1.1" id="Layer_1" xmlns="http://www.w3.org/2000/svg" xmlns:xlink="http://www.w3.org/1999/xlink" x="0px" y="0px"
	 viewBox="0 0 60 60" style="enable-background:new 0 0 60 60;" xml:space="preserve">
<g>
	<g>
		<defs>
			<polygon id="SVGID_1_" points="60,31.5 35.5,31.1 58.3,40 57,43 34.7,33.1 52.3,50 50,52.3 33.1,34.7 42.9,57 40,58.3 31.1,35.5 
				31.6,59.9 28.4,59.9 28.9,35.5 20,58.3 17.1,57 26.9,34.7 9.9,52.3 7.7,50 25.3,33.1 2.9,43 1.7,40 24.4,31.1 0,31.6 0,28.3 
				24.4,28.9 1.7,20 2.9,17 25.3,26.9 7.7,10 9.9,7.7 26.9,25.3 17.1,3 20,1.7 28.9,24.5 28.4,0.1 31.6,0.1 31.1,24.5 40,1.7 
				42.9,3 33.1,25.3 50,7.7 52.3,10 34.7,26.9 57,17 58.3,20 35.5,28.9 60,28.3 			"/>
		</defs>
		<use xlink:href="#SVGID_1_"  style="overflow:visible;"/>
		<clipPath id="SVGID_00000132786437324668501460000007550833208703222459_">
			<use xlink:href="#SVGID_1_"  style="overflow:visible;"/>
		</clipPath>
	</g>
</g>
</svg>
