<?xml version="1.0" encoding="utf-8"?>
<!-- Generator: Adobe Illustrator 25.2.3, SVG Export Plug-In . SVG Version: 6.00 Build 0)  -->
<svg version="1.1" id="Layer_1" xmlns="http://www.w3.org/2000/svg" xmlns:xlink="http://www.w3.org/1999/xlink" x="0px" y="0px"
	 viewBox="0 0 100 100" style="enable-background:new 0 0 100 100;" xml:space="preserve">
<style type="text/css">
	.st0{fill:#444444;}
</style>
<path id="_04" class="st0" d="M77.7,8.4l-21,33L83.6,13L58,42.5l30.8-24L59,43.7l34-19.2L59.8,45.1l36.5-13.9L60.4,46.7l38.2-8.3
	l-37.8,9.9l39-2.5L61,49.9l38.9,3.3l-39-1.7l38,9.1l-38.4-7.5l36.2,14.7L59.9,54.7l33.6,19.9L59.1,56.1l30.3,24.7L58.1,57.4
	l26.3,28.9L56.9,58.5L78.6,91l-23-31.6l16.6,35.4L54.1,60.2l11.1,37.5l-12.7-37L58,99.4l-7-38.4L50.5,100l-1.2-39.1l-6.2,38.6
	l4.6-38.8L35.8,97.9l10.3-37.7l-17.3,35l15.8-35.7L22.3,91.6l21-33L16.4,87L42,57.5l-30.8,24L41,56.3L7,75.5l33.2-20.6L3.6,68.8
	l35.9-15.4L1.4,61.6l37.8-9.9l-39,2.5L39,50.1L0.1,46.8l39,1.7l-38-9.1l38.4,7.5L3.3,32.2l36.8,13.1L6.4,25.4l34.4,18.5L10.6,19.2
	l31.3,23.4L15.6,13.7l27.5,27.8L21.4,9l23,31.6L27.8,5.2l18.1,34.7L34.8,2.4l12.7,37L42,0.6l7,38.4L49.5,0l1.2,39.1l6.2-38.6
	l-4.6,38.8L64.2,2.1L53.9,39.8l17.3-35L55.4,40.5L77.7,8.4z"/>
</svg>
