<?xml version="1.0" encoding="utf-8"?>
<!-- Generator: Adobe Illustrator 25.4.0, SVG Export Plug-In . SVG Version: 6.00 Build 0)  -->
<svg version="1.1" id="Layer_1" xmlns="http://www.w3.org/2000/svg" xmlns:xlink="http://www.w3.org/1999/xlink" x="0px" y="0px"
	 viewBox="0 0 286 785.03" style="enable-background:new 0 0 286 785.03;" xml:space="preserve">
<style type="text/css">
	.st0{fill:#0A0A0A;}
	.st1{fill:#9D9FA2;}
	.st2{fill:#AAACAF;}
	.st3{fill:#6C6E70;}
	.st4{fill:#707274;}
	.st5{fill:#FFFFFF;}
	.st6{fill:#49494B;}
	.st7{fill:#6B6C6F;}
	.st8{fill:#7D7F81;}
</style>
<path class="st0" d="M111.44,36.79c-0.29-0.68-0.59-1.35-0.88-2.03c-0.29-2.08,1.29-3.43,2-5.13c1.57-1.07,2.15-2.81,3.09-4.34
	c2.32-3.78,2.76-9.41,9.26-9.33c1.02,0.01,2.18-2.28,3.06-3.64c2.31-3.58,8.05-6.17,12.39-5.44c3.58-1.36,7.16,1.52,10.75,0.02
	c3.35-1.16,6.91-1.14,10.3-2.64c2.96-1.32,6.21,0.72,9.33,1.8c4.7,1.62,6.62,6.02,10.07,8.83c0.49,0.47,0.84,1.02,1.01,1.68
	c0.08,2.53,2.13,4.08,3.08,6.17c4.21,4.94,3.95,11.07,3.66,16.85c-0.13,2.65-0.19,5.15,0.43,7.64c1.53,6.12-2.17,11.41-2.6,17.22
	c-0.06,0.78-1.03,1.44-0.37,2.54c3.88,6.52,0.58,12.38-1.99,18.15c-0.98,2.21-2.92,4.4-5.63,4.29c-2.8-0.12-3.04,1.57-3.07,3.36
	c-0.05,2.68-3.28,5.6,0.35,8.05c2.92,1.97,4.61,4.69,5.14,8.09c0.26,1.66,1.19,2.58,2.46,3.47c11.94,8.37,17.67,20.75,21.64,34.16
	c0.59,2,1.62,3.05,3.19,4.04c6.42,4.04,12.82,8.09,19.19,12.2c11.55,7.45,19.21,17.48,22.65,31.15c3.98,15.8,5.15,31.92,6.72,47.98
	c1.43,14.7,1.97,29.46,5.21,43.96c1.17,5.25-0.45,10.88,0.05,15.95c0.76,7.75-0.32,15.09-1.09,22.58c-0.15,1.46-0.55,2.92-0.99,4.33
	c-1.24,3.99-1.77,7.93-2.05,12.18c-0.34,5.1-1.46,11.02-4.63,15.71c-1.42,2.11-2.63,4.28-3.02,6.69
	c-1.93,11.78-9.45,20.38-16.43,29.27c-1.16,1.47-2.26,2.8-2.28,4.76c-0.17,13.55-4.01,26.65-4.95,40.1c-0.15,2.2-0.88,3.46-3.33,3
	c-0.81-0.15-1.64-0.19-2.46-0.25c-6.66-0.43-6.77-0.33-7.08,6.37c-0.58,12.49-5.15,24.14-7.61,36.24
	c-3.82,18.72-8.99,37.19-11.72,56.11c-1.07,7.4-0.07,15.09-0.28,22.63c-0.59,21.41,0.44,42.95-3.5,64.13
	c-5.38,29-11.28,57.91-17.04,86.84c-0.88,4.41,0.46,9.14-2.17,13.31c-1.01,1.59-0.89,3.86-3.21,4.64c-1.74,0.58-1.06,2.2-0.99,3.42
	c0.55,9.05,0.93,18.15,2.89,27c1.05,4.73,3.14,9.38,5.54,13.61c1.88,3.32,0.85,4.24-2.09,5.2c-2.52,0.83-5,1.68-7.69,1.46
	c-11.18-0.93-22.38-0.68-33.58-0.75c-5.17-0.04-5.65-0.93-3.5-5.35c0.14-0.29,0.53-0.59,0.5-0.83c-0.97-6.67-0.32-13.39-0.63-20.08
	c-0.1-2.02-1.97-1.34-3.13-1.23c-7.25,0.68-11.99-3.02-15.1-9.01c-6.24-12.04-11.97-24.29-12.38-38.23
	c-0.06-1.97-0.28-4.11,0.34-5.89c3.51-9.99,2.03-20.23,1.92-30.42c-0.04-3.19-1.6-5.67-2.88-8.29c-3.9-7.94-7.17-15.98-5.29-25.14
	c0.19-0.91,0.15-2.1-0.28-2.88c-5.14-9.48-7.04-20.18-11.5-29.95c-3.63-7.95-4.45-16.74-6.01-25.35
	c-4.05-22.3-1.24-44.76-2.61-67.12c-0.86-13.96-0.88-28.01-2.75-41.87c-1.67-12.38-4.41-24.62-6.6-36.94
	c-0.23-1.28-0.76-2.13-1.87-2.67c-4.29-2.1-4.92-5.23-2.96-9.4c1.89-4.01,1.67-8.32,1.32-12.64c-0.16-1.98-0.73-3.49-2.44-4.53
	c-0.42-0.25-0.74-0.67-1.17-0.91c-16.2-9.18-19.66-24.97-21.73-41.6c-0.75-6.01-1.85-12.01-3.28-17.9
	c-4.5-18.55-7.22-37.37-6.24-56.4c0.71-13.77,3.71-27.41,4.95-41.18c1.59-17.59,5.7-34.78,7.36-52.35
	c0.99-10.51,5.63-19.93,10.62-29.11c1.06-1.95,2.76-3.25,4.54-4.47c4.5-3.08,9.05-6.18,14.23-7.9c10.31-3.41,17.41-8.58,20.42-20.44
	c3.16-12.47,13.74-19.19,26.23-22.17c0.96-0.23,1.94-0.21,2.65-1.06c4.98-5.87,7.52-12.39,5.47-20.19c-0.3-1.15-0.65-1.79-1.94-1.4
	c-4.84,1.45-6.29-2.21-7.08-5.46c-1.51-6.14-3.92-12.5,0.53-18.54c0.59-0.8,0.12-1.45-0.13-2.25c-2.02-6.53-1.3-13.1,0-19.65
	C112.28,38.64,112.87,37.61,111.44,36.79z"/>
<path class="st1" d="M147.55,10.72c-3.59,2.35-7.16,0.41-10.75-0.02c1.14-1.47-1.07-1.31-1.08-2.6
	C140.14,6.74,143.21,12.05,147.55,10.72z"/>
<path class="st2" d="M177.18,20.75c0.02-0.68,0.04-1.36,0.07-2.05c4.27-0.23,4.54,2.9,4.94,5.92
	C179.58,24.54,178.66,22.29,177.18,20.75z"/>
<path class="st3" d="M177.18,20.75c2.09,0.74,3.39,2.51,5.01,3.87c-0.28,0.64-0.57,1.29-0.85,1.93
	C179.02,25.28,177.11,23.72,177.18,20.75z"/>
<path class="st3" d="M108.99,33.46c-0.06,1.95-1.09,3.51-2,5.13C105.97,36.22,106.97,34.64,108.99,33.46z"/>
<path class="st4" d="M107.88,40.61c0.79-0.03,1.68-0.04,1.82,0.95c0.14,1.04-0.44,1.74-1.52,1.93
	C108.08,42.53,107.98,41.57,107.88,40.61z"/>
<path class="st5" d="M140.77,492.04c-0.1,7.75-0.19,15.5-0.32,23.25c-0.15,9.37-0.55,18.63-2,28.01
	c-1.63,10.55-1.08,21.47-0.44,32.26c1.4,23.76,0.25,47.5-1.44,71.2c-0.63,8.85-2.53,17.61-3.85,26.41
	c-2.71,0.22-0.61-2.38-1.79-3.06c-1.07-4.22,0-8.27,0.58-12.46c1.35-9.83,1.31-19.54-7.3-26.76c-0.97-0.81-1.44-1.86-1.26-3.06
	c1.08-7.42-1.64-14.73-0.73-22.12c0.65-5.23-0.75-10.33-0.59-15.59c0.3-10.05,3.13-19.89,2.58-29.92
	c-1.12-20.42,1.55-40.44,5.59-60.33c2.37-11.68,7.15-22.78,8.8-34.86c1.27,4.78,2.28,9.5,3.96,14.03c-1.41,1.79-0.71,3.89-0.89,5.87
	C141.43,487.3,142.29,489.82,140.77,492.04z"/>
<path class="st6" d="M140.77,492.04c0.02-2.63,0.04-5.25,0.07-7.88c0.5-0.64,1.07-0.65,1.7-0.2
	C142.04,486.68,144.47,490.03,140.77,492.04z"/>
<path class="st7" d="M130.93,670.1c1.05,0.75-0.02,2.75,1.79,3.06c0.04,1.45,0.51,2.93-0.48,4.62
	C129.99,675.38,130.61,672.71,130.93,670.1z"/>
<path class="st8" d="M142.54,483.96c-0.57,0.07-1.13,0.14-1.7,0.2c0.04-1.89-1.21-4.21,1.72-5.13
	C142.55,480.68,142.55,482.32,142.54,483.96z"/>
</svg>
