<?xml version="1.0" encoding="utf-8"?>
<!-- Generator: Adobe Illustrator 25.2.3, SVG Export Plug-In . SVG Version: 6.00 Build 0)  -->
<svg version="1.1" id="Layer_1" xmlns="http://www.w3.org/2000/svg" xmlns:xlink="http://www.w3.org/1999/xlink" x="0px" y="0px"
	 viewBox="0 0 80 80" style="enable-background:new 0 0 80 80;" xml:space="preserve">
<style type="text/css">
	.st0{fill:url(#SVGID_1_);}
	.st1{fill:url(#SVGID_2_);}
	.st2{fill:url(#SVGID_3_);}
	.st3{fill:url(#SVGID_4_);}
	.st4{fill:url(#SVGID_5_);}
	.st5{fill:url(#SVGID_6_);}
	.st6{fill:url(#SVGID_7_);}
	.st7{fill:url(#SVGID_8_);}
</style>
<g>
	
		<linearGradient id="SVGID_1_" gradientUnits="userSpaceOnUse" x1="11.0845" y1="73.3783" x2="70.5028" y2="8.885" gradientTransform="matrix(1 0 0 -1 0 82)">
		<stop  offset="0" style="stop-color:#2D4DE0"/>
		<stop  offset="0.324" style="stop-color:#9F71F0"/>
		<stop  offset="0.84" style="stop-color:#E76592"/>
		<stop  offset="1" style="stop-color:#F8EF6F"/>
	</linearGradient>
	<path class="st0" d="M40,57.5c-10.3,0-20-1.7-27.3-4.9C5.2,49.3,1,44.9,1,40.1s4.2-9.2,11.7-12.5c7.3-3.2,17-4.9,27.3-4.9
		c11.2,0,21.9,2.1,29.3,5.8c0.4,0.2,0.6,0.7,0.4,1.2c-0.1,0.3-0.2,0.6-0.2,0.9c0,1.3,1,2.3,2.3,2.3c0.7,0,1.3-0.3,1.7-0.8
		c0.3-0.4,0.9-0.4,1.2-0.1c2.8,2.4,4.3,5.2,4.3,8c0,4.8-4.2,9.2-11.7,12.5C60,55.7,50.3,57.5,40,57.5L40,57.5z M40,24.4
		c-10.1,0-19.5,1.7-26.6,4.8C6.5,32.2,2.8,36,2.8,40.1S6.6,48,13.4,51c7.1,3.1,16.5,4.8,26.6,4.8s19.5-1.7,26.6-4.8
		c6.9-3,10.6-6.8,10.6-10.9c0-2.1-1-4.2-3.1-6.2c-0.7,0.5-1.5,0.7-2.4,0.7c-2.2,0-4.1-1.8-4.1-4c0-0.3,0-0.6,0.1-0.9
		C60.7,26.3,50.7,24.4,40,24.4L40,24.4z"/>
	
		<linearGradient id="SVGID_2_" gradientUnits="userSpaceOnUse" x1="10.8838" y1="73.1934" x2="70.3022" y2="8.7002" gradientTransform="matrix(1 0 0 -1 0 82)">
		<stop  offset="0" style="stop-color:#2D4DE0"/>
		<stop  offset="0.324" style="stop-color:#9F71F0"/>
		<stop  offset="0.84" style="stop-color:#E76592"/>
		<stop  offset="1" style="stop-color:#F8EF6F"/>
	</linearGradient>
	<path class="st1" d="M24.6,75.7c-1.7,0-3.3-0.4-4.6-1.2c-2-1.2-3.5-3.1-4.4-5.8c-0.1-0.3,0-0.5,0.1-0.8c0.2-0.2,0.4-0.4,0.7-0.4
		c1.2-0.1,2.1-1.1,2.1-2.3c0-1.3-1-2.3-2.3-2.3c-0.2,0-0.3,0-0.5,0.1c-0.3,0.1-0.5,0-0.7-0.2s-0.3-0.4-0.3-0.7
		c-0.1-8.7,3.5-19.9,9.8-30.7c9-15.6,21.6-26.5,30.6-26.5c1.7,0,3.3,0.4,4.6,1.2c2.2,1.3,3.8,3.5,4.7,6.7c2.3,8.6-1.3,22.9-9.1,36.4
		C46.2,64.8,33.6,75.7,24.6,75.7L24.6,75.7z M17.6,69.1c0.8,1.8,1.8,3.1,3.2,3.9c1.1,0.6,2.3,0.9,3.7,0.9c3.9,0,8.9-2.5,14.1-6.9
		c5.4-4.7,10.6-11.2,15-18.7c7.6-13.1,11.1-26.8,8.9-35c-0.7-2.7-2-4.6-3.8-5.6c-1.1-0.6-2.3-0.9-3.7-0.9c-3.9,0-8.9,2.5-14.1,6.9
		c-5.4,4.7-10.6,11.2-15,18.7c-5.8,10-9.3,20.7-9.5,28.9c2.2,0.1,3.9,1.9,3.9,4C20.3,67.1,19.2,68.6,17.6,69.1L17.6,69.1z"/>
	
		<linearGradient id="SVGID_3_" gradientUnits="userSpaceOnUse" x1="10.8715" y1="73.1821" x2="70.2899" y2="8.6889" gradientTransform="matrix(1 0 0 -1 0 82)">
		<stop  offset="0" style="stop-color:#2D4DE0"/>
		<stop  offset="0.324" style="stop-color:#9F71F0"/>
		<stop  offset="0.84" style="stop-color:#E76592"/>
		<stop  offset="1" style="stop-color:#F8EF6F"/>
	</linearGradient>
	<path class="st2" d="M54.9,75.7L54.9,75.7c-9,0-21.7-11-30.8-26.7c-4.8-8.3-8.1-17.1-9.3-24.7c0-0.3,0.1-0.6,0.3-0.8
		c0.2-0.2,0.5-0.3,0.8-0.2c0.1,0,0.3,0,0.4,0c1.3,0,2.3-1,2.3-2.3s-1-2.3-2.3-2.3c-0.3,0-0.5,0-0.8,0.1s-0.6,0.1-0.8-0.1
		c-0.2-0.2-0.4-0.4-0.4-0.7c0-6.1,1.9-10.4,5.4-12.4c1.4-0.8,2.9-1.2,4.6-1.2c9,0,21.7,11,30.8,26.7c7.9,13.6,11.5,28,9.1,36.6
		c-0.8,3.2-2.4,5.4-4.7,6.7C58.2,75.2,56.7,75.7,54.9,75.7L54.9,75.7z M16.7,25.1c1.3,7.2,4.5,15.3,8.9,23
		c4.4,7.6,9.6,14.1,15.1,18.8c5.2,4.5,10.3,7,14.2,7c1.4,0,2.7-0.3,3.8-0.9c1.8-1.1,3.1-3,3.9-5.7c2.2-8.2-1.3-22.1-9-35.3
		c-4.4-7.6-9.6-14.1-15.1-18.8c-5.2-4.5-10.3-7-14.2-7c-1.4,0-2.7,0.3-3.8,0.9c-3.3,1.9-4.3,6.2-4.5,9.8c0.1,0,0.1,0,0.2,0
		c2.2,0,4.1,1.8,4.1,4C20.3,23.1,18.7,24.9,16.7,25.1L16.7,25.1z"/>
	
		<linearGradient id="SVGID_4_" gradientUnits="userSpaceOnUse" x1="32.9972" y1="93.5668" x2="92.4157" y2="29.0736" gradientTransform="matrix(1 0 0 -1 0 82)">
		<stop  offset="0" style="stop-color:#2D4DE0"/>
		<stop  offset="0.324" style="stop-color:#9F71F0"/>
		<stop  offset="0.84" style="stop-color:#E76592"/>
		<stop  offset="1" style="stop-color:#F8EF6F"/>
	</linearGradient>
	<path class="st3" d="M71.8,34.6c-2.2,0-4.1-1.8-4.1-4s1.8-4,4.1-4c2.2,0,4.1,1.8,4.1,4S74,34.6,71.8,34.6z M71.8,28.3
		c-1.3,0-2.3,1-2.3,2.3s1,2.3,2.3,2.3s2.3-1,2.3-2.3S73.1,28.3,71.8,28.3z"/>
	
		<linearGradient id="SVGID_5_" gradientUnits="userSpaceOnUse" x1="-14.4178" y1="49.8828" x2="45.0006" y2="-14.6104" gradientTransform="matrix(1 0 0 -1 0 82)">
		<stop  offset="0" style="stop-color:#2D4DE0"/>
		<stop  offset="0.324" style="stop-color:#9F71F0"/>
		<stop  offset="0.84" style="stop-color:#E76592"/>
		<stop  offset="1" style="stop-color:#F8EF6F"/>
	</linearGradient>
	<path class="st4" d="M16.2,69.4c-2.2,0-4.1-1.8-4.1-4c0-2.2,1.8-4,4.1-4c2.2,0,4.1,1.8,4.1,4C20.3,67.6,18.5,69.4,16.2,69.4z
		 M16.2,63c-1.3,0-2.3,1-2.3,2.3s1,2.3,2.3,2.3s2.3-1,2.3-2.3C18.5,64.1,17.5,63,16.2,63z"/>
	
		<linearGradient id="SVGID_6_" gradientUnits="userSpaceOnUse" x1="7.658" y1="70.2215" x2="67.0764" y2="5.7282" gradientTransform="matrix(1 0 0 -1 0 82)">
		<stop  offset="0" style="stop-color:#2D4DE0"/>
		<stop  offset="0.324" style="stop-color:#9F71F0"/>
		<stop  offset="0.84" style="stop-color:#E76592"/>
		<stop  offset="1" style="stop-color:#F8EF6F"/>
	</linearGradient>
	<path class="st5" d="M16.2,25.1c-2.2,0-4.1-1.8-4.1-4s1.8-4,4.1-4c2.2,0,4.1,1.8,4.1,4S18.5,25.1,16.2,25.1z M16.2,18.8
		c-1.3,0-2.3,1-2.3,2.3s1,2.3,2.3,2.3s2.3-1,2.3-2.3C18.5,19.8,17.5,18.8,16.2,18.8z"/>
	
		<linearGradient id="SVGID_7_" gradientUnits="userSpaceOnUse" x1="7.8669" y1="70.414" x2="67.2853" y2="5.9207" gradientTransform="matrix(1 0 0 -1 0 82)">
		<stop  offset="0" style="stop-color:#2D4DE0"/>
		<stop  offset="0.324" style="stop-color:#9F71F0"/>
		<stop  offset="0.84" style="stop-color:#E76592"/>
		<stop  offset="1" style="stop-color:#F8EF6F"/>
	</linearGradient>
	<path class="st6" d="M48,50.4H30.5c-0.5,0-0.9-0.4-0.9-0.9v-6.3c0-2.3,1.8-4.1,4.1-4.1h11.2c2.2,0,4,1.8,4,4v6.4
		C48.9,50,48.5,50.4,48,50.4L48,50.4z M31.4,48.6h15.8v-5.5c0-1.2-1-2.2-2.3-2.2H33.7c-1.3,0-2.3,1-2.3,2.3V48.6z"/>
	
		<linearGradient id="SVGID_8_" gradientUnits="userSpaceOnUse" x1="14.671" y1="76.6825" x2="74.0894" y2="12.1893" gradientTransform="matrix(1 0 0 -1 0 82)">
		<stop  offset="0" style="stop-color:#2D4DE0"/>
		<stop  offset="0.324" style="stop-color:#9F71F0"/>
		<stop  offset="0.84" style="stop-color:#E76592"/>
		<stop  offset="1" style="stop-color:#F8EF6F"/>
	</linearGradient>
	<path class="st7" d="M39.3,37.7c-3.1,0-5.6-2.5-5.6-5.6s2.5-5.6,5.6-5.6s5.6,2.5,5.6,5.6S42.4,37.7,39.3,37.7z M39.3,28.3
		c-2.1,0-3.9,1.7-3.9,3.8s1.7,3.8,3.9,3.8c2.1,0,3.9-1.7,3.9-3.8C43.1,30,41.4,28.3,39.3,28.3z"/>
</g>
</svg>
