<?xml version="1.0" encoding="utf-8"?>
<!-- Generator: Adobe Illustrator 25.2.3, SVG Export Plug-In . SVG Version: 6.00 Build 0)  -->
<svg version="1.1" id="Layer_1" xmlns="http://www.w3.org/2000/svg" xmlns:xlink="http://www.w3.org/1999/xlink" x="0px" y="0px"
	 viewBox="0 0 80 80" style="enable-background:new 0 0 80 80;" xml:space="preserve">
<style type="text/css">
	.st0{fill:url(#SVGID_1_);}
</style>
<linearGradient id="SVGID_1_" gradientUnits="userSpaceOnUse" x1="7.4611" y1="79.2591" x2="70.9953" y2="6.5085" gradientTransform="matrix(1 0 0 -1 0 82)">
	<stop  offset="0" style="stop-color:#2D4DE0"/>
	<stop  offset="0.324" style="stop-color:#9F71F0"/>
	<stop  offset="0.84" style="stop-color:#E76592"/>
	<stop  offset="1" style="stop-color:#F8EF6F"/>
</linearGradient>
<path class="st0" d="M16.6,1c-0.6,0-1.1,0.5-1.1,1.1v41.7H2.1c-0.6,0-1.1,0.5-1.1,1.1v33C1,78.5,1.5,79,2.1,79h33
	c0.6,0,1.1-0.5,1.1-1.1V64.5h41.7c0.6,0,1.1-0.5,1.1-1.1V2.1C79,1.5,78.5,1,77.9,1H16.6z M17.7,3.2h59.1v59.1H36.2V44.9
	c0-0.6-0.5-1.1-1.1-1.1H17.6L17.7,3.2z M55.9,12.5c-0.6,0-1.1,0.5-1.1,1.1s0.5,1.1,1.1,1.1h7.8l-22,22c-0.4,0.4-0.4,1.1,0,1.5
	c0.2,0.2,0.5,0.3,0.8,0.3l0,0c0.3,0,0.6-0.1,0.8-0.3l0,0l21.9-21.9v7.6c0,0.6,0.5,1.1,1.1,1.1s1.1-0.5,1.1-1.1V13.6
	c0-0.6-0.5-1.1-1.1-1.1H55.9z M3.2,46h12.3v17.5c0,0.6,0.5,1.1,1.1,1.1h17.5v12.3H3.3L3.2,46z M17.7,46h16.4v16.4H17.7V46z"/>
</svg>
