<?xml version="1.0" encoding="utf-8"?>
<!-- Generator: Adobe Illustrator 25.2.3, SVG Export Plug-In . SVG Version: 6.00 Build 0)  -->
<svg version="1.1" id="Layer_1" xmlns="http://www.w3.org/2000/svg" xmlns:xlink="http://www.w3.org/1999/xlink" x="0px" y="0px"
	 viewBox="0 0 80 80" style="enable-background:new 0 0 80 80;" xml:space="preserve">
<style type="text/css">
	.st0{fill:url(#SVGID_1_);}
</style>
<linearGradient id="SVGID_1_" gradientUnits="userSpaceOnUse" x1="-4.9129" y1="67.6728" x2="67.6428" y2="-2.6283" gradientTransform="matrix(1 0 0 -1 0 82)">
	<stop  offset="0" style="stop-color:#2D4DE0"/>
	<stop  offset="0.324" style="stop-color:#9F71F0"/>
	<stop  offset="0.84" style="stop-color:#E76592"/>
	<stop  offset="1" style="stop-color:#F8EF6F"/>
</linearGradient>
<path class="st0" d="M71.5,69.5c-0.1-0.1-0.2-0.1-0.3-0.1s-0.2,0-0.3,0.1s-0.2,0.2-0.2,0.4v3H51.2c5.2-2.3,9.6-6,12.8-10.7
	s5-10.2,5.3-15.8c0.3-5.7-1.1-11.3-3.8-16.3c-2.8-5-6.8-9.1-11.8-11.8s-10.6-4.1-16.2-3.9c-5.7,0.2-11.2,2-15.9,5.2
	c-0.7-0.8-1.7-1.2-2.8-1.2c-1.1,0-2.1,0.4-2.8,1.1c-0.8,0.7-1.2,1.7-1.2,2.8c-0.4,0.1-0.9,0.1-1.3,0.1c-3.1,0-6.1-1.6-7.8-4.2
	s-2-5.9-0.8-8.8s3.9-4.9,6.9-5.5c3.1-0.5,6.2,0.5,8.4,2.8l-2.1,0.9l0,0c-0.1,0.1-0.2,0.2-0.2,0.3c0,0.2,0.1,0.4,0.3,0.6l6.3,4.3
	c0.1,0.1,0.3,0.1,0.4,0.1c0.1-0.1,0.2-0.2,0.2-0.3L26.3,5c0-0.2-0.1-0.4-0.2-0.6c-0.1-0.1-0.3-0.1-0.4-0.1l-3,1.2
	C20.1,2.3,16.1,0.6,12,1.1s-7.6,3-9.4,6.7s-1.5,8.1,0.7,11.6s6,5.6,10.1,5.6c0.7,0,1.5-0.1,2.2-0.2c0,0,0,0.1,0.1,0.1l0,0
	C12,29.2,9.5,34.4,8.5,40c-0.9,5.6-0.3,11.3,1.9,16.6L8,57.7l0,0c-0.1,0.1-0.2,0.2-0.2,0.3c0,0.2,0.1,0.4,0.3,0.6l6.3,4.3
	c0.1,0.1,0.3,0.1,0.4,0.1c0.1-0.1,0.2-0.2,0.2-0.3l1.2-7.6c0-0.2-0.1-0.4-0.2-0.6c-0.1-0.1-0.3-0.1-0.4-0.1L13,55.5
	c-2-4.9-2.5-10.2-1.6-15.4s3.3-10,6.8-13.9c0.2,0,0.5,0.1,0.8,0.1c1.1,0,2.1-0.4,2.8-1.2s1.2-1.8,1.2-2.8c0-0.1,0-0.2,0-0.3l0,0
	c4.8-3.4,10.6-5.1,16.4-5c5.9,0.1,11.6,2,16.3,5.5s8.2,8.4,10,14s1.7,11.6-0.1,17.2c-1.9,5.6-5.4,10.4-10.2,13.9
	C50.6,71,44.9,72.9,39,72.9H2.7c-0.7,0-1.3,0.6-1.3,1.3c0,0.7,0.6,1.3,1.3,1.3h67.9v3c0,0.2,0.1,0.3,0.2,0.4c0.2,0.1,0.5,0.1,0.7,0
	l6.9-4.3c0.1-0.1,0.2-0.2,0.2-0.3S78.5,74,78.4,74L71.5,69.5z"/>
</svg>
