<?xml version="1.0" encoding="utf-8"?>
<!-- Generator: Adobe Illustrator 25.2.3, SVG Export Plug-In . SVG Version: 6.00 Build 0)  -->
<svg version="1.1" id="Layer_1" xmlns="http://www.w3.org/2000/svg" xmlns:xlink="http://www.w3.org/1999/xlink" x="0px" y="0px"
	 viewBox="0 0 80 80" style="enable-background:new 0 0 80 80;" xml:space="preserve">
<style type="text/css">
	.st0{fill:url(#SVGID_1_);}
	.st1{fill:url(#SVGID_2_);}
	.st2{fill:url(#SVGID_3_);}
	.st3{fill:url(#SVGID_4_);}
	.st4{fill:url(#SVGID_5_);}
	.st5{fill:url(#SVGID_6_);}
	.st6{fill:url(#SVGID_7_);}
	.st7{fill:url(#SVGID_8_);}
	.st8{fill:url(#SVGID_9_);}
	.st9{fill:url(#SVGID_10_);}
	.st10{fill:url(#SVGID_11_);}
</style>
<g>
	
		<linearGradient id="SVGID_1_" gradientUnits="userSpaceOnUse" x1="18.8391" y1="93.762" x2="92.6363" y2="19.119" gradientTransform="matrix(1 0 0 -1 0 82)">
		<stop  offset="0" style="stop-color:#2D4DE0"/>
		<stop  offset="0.324" style="stop-color:#9F71F0"/>
		<stop  offset="0.84" style="stop-color:#E76592"/>
		<stop  offset="1" style="stop-color:#F8EF6F"/>
	</linearGradient>
	<path class="st0" d="M37.4,16.2V40c0,2.3,1.9,4.2,4.2,4.2h25.7l7.8,7.8c0.4,0.4,1,0.7,1.6,0.7c0.3,0,0.6-0.1,0.9-0.2
		c0.9-0.4,1.4-1.2,1.4-2.1V16.2c0-2.3-1.9-4.2-4.2-4.2H41.7C39.3,11.8,37.4,13.8,37.4,16.2L37.4,16.2z M76.5,16.2v33.5l-7.4-7.4
		c-0.4-0.4-1-0.7-1.6-0.7H41.7c-0.9,0-1.7-0.7-1.7-1.7V16c0-0.9,0.7-1.7,1.7-1.7h33.1C75.7,14.4,76.5,15.2,76.5,16.2L76.5,16.2z"/>
	
		<linearGradient id="SVGID_2_" gradientUnits="userSpaceOnUse" x1="3.5536" y1="78.6497" x2="77.3508" y2="4.0066" gradientTransform="matrix(1 0 0 -1 0 82)">
		<stop  offset="0" style="stop-color:#2D4DE0"/>
		<stop  offset="0.324" style="stop-color:#9F71F0"/>
		<stop  offset="0.84" style="stop-color:#E76592"/>
		<stop  offset="1" style="stop-color:#F8EF6F"/>
	</linearGradient>
	<path class="st1" d="M2.5,41.5c0.3,0.1,0.6,0.2,0.9,0.2C4,41.8,4.6,41.5,5,41l7.8-7.8h19.6v-2.6H12.7c-0.6,0-1.2,0.2-1.6,0.7
		l-7.4,7.4V5.2c0-0.9,0.7-1.7,1.7-1.7h33.1c0.9,0,1.7,0.7,1.7,1.7v2.2h2.6V5.2c0-2.3-1.9-4.2-4.2-4.2H5.5C3.2,1.1,1.3,3,1.3,5.2
		v34.2C1.1,40.4,1.7,41.2,2.5,41.5L2.5,41.5z"/>
	
		<linearGradient id="SVGID_3_" gradientUnits="userSpaceOnUse" x1="14.0367" y1="89.014" x2="87.8339" y2="14.371" gradientTransform="matrix(1 0 0 -1 0 82)">
		<stop  offset="0" style="stop-color:#2D4DE0"/>
		<stop  offset="0.324" style="stop-color:#9F71F0"/>
		<stop  offset="0.84" style="stop-color:#E76592"/>
		<stop  offset="1" style="stop-color:#F8EF6F"/>
	</linearGradient>
	<path class="st2" d="M51.4,28.3c0,1.3-1.1,2.4-2.4,2.4c-1.3,0-2.4-1.1-2.4-2.4S47.7,26,49,26S51.4,27,51.4,28.3"/>
	
		<linearGradient id="SVGID_4_" gradientUnits="userSpaceOnUse" x1="18.6986" y1="93.6231" x2="92.4958" y2="18.9801" gradientTransform="matrix(1 0 0 -1 0 82)">
		<stop  offset="0" style="stop-color:#2D4DE0"/>
		<stop  offset="0.324" style="stop-color:#9F71F0"/>
		<stop  offset="0.84" style="stop-color:#E76592"/>
		<stop  offset="1" style="stop-color:#F8EF6F"/>
	</linearGradient>
	<path class="st3" d="M60.6,28.3c0,1.3-1.1,2.4-2.4,2.4c-1.3,0-2.4-1.1-2.4-2.4s1.1-2.4,2.4-2.4C59.6,26,60.6,27,60.6,28.3"/>
	
		<linearGradient id="SVGID_5_" gradientUnits="userSpaceOnUse" x1="23.3921" y1="98.2634" x2="97.1893" y2="23.6204" gradientTransform="matrix(1 0 0 -1 0 82)">
		<stop  offset="0" style="stop-color:#2D4DE0"/>
		<stop  offset="0.324" style="stop-color:#9F71F0"/>
		<stop  offset="0.84" style="stop-color:#E76592"/>
		<stop  offset="1" style="stop-color:#F8EF6F"/>
	</linearGradient>
	<path class="st4" d="M69.9,28.3c0,1.3-1.1,2.4-2.4,2.4s-2.4-1.1-2.4-2.4s1.1-2.4,2.4-2.4S69.9,27,69.9,28.3"/>
	
		<linearGradient id="SVGID_6_" gradientUnits="userSpaceOnUse" x1="-20.8319" y1="54.5405" x2="52.9653" y2="-20.1025" gradientTransform="matrix(1 0 0 -1 0 82)">
		<stop  offset="0" style="stop-color:#2D4DE0"/>
		<stop  offset="0.324" style="stop-color:#9F71F0"/>
		<stop  offset="0.84" style="stop-color:#E76592"/>
		<stop  offset="1" style="stop-color:#F8EF6F"/>
	</linearGradient>
	<path class="st5" d="M12.3,53.9c-3.8,0-7,3.1-7,7s3.1,7,7,7c3.1,0,5.8-2.1,6.6-4.9c0.2-0.6,0.3-1.3,0.3-2c0-2.5-1.3-4.7-3.3-5.9
		C14.9,54.2,13.6,53.9,12.3,53.9L12.3,53.9z M12.3,65.1c-2.4,0-4.4-2-4.4-4.4s2-4.4,4.4-4.4s4.4,2,4.4,4.4
		C16.7,63.2,14.7,65.1,12.3,65.1z"/>
	
		<linearGradient id="SVGID_7_" gradientUnits="userSpaceOnUse" x1="-28.9972" y1="46.4678" x2="44.8001" y2="-28.1753" gradientTransform="matrix(1 0 0 -1 0 82)">
		<stop  offset="0" style="stop-color:#2D4DE0"/>
		<stop  offset="0.324" style="stop-color:#9F71F0"/>
		<stop  offset="0.84" style="stop-color:#E76592"/>
		<stop  offset="1" style="stop-color:#F8EF6F"/>
	</linearGradient>
	<path class="st6" d="M3.6,78.9c0-3.3,2.7-5.9,5.9-5.9h5.4c3.3,0,5.9,2.7,5.9,5.9h2.6c0-4.7-3.8-8.5-8.5-8.5H9.5
		c-4.7,0-8.5,3.8-8.5,8.5H3.6z"/>
	
		<linearGradient id="SVGID_8_" gradientUnits="userSpaceOnUse" x1="-6.8972" y1="68.3172" x2="66.9" y2="-6.3258" gradientTransform="matrix(1 0 0 -1 0 82)">
		<stop  offset="0" style="stop-color:#2D4DE0"/>
		<stop  offset="0.324" style="stop-color:#9F71F0"/>
		<stop  offset="0.84" style="stop-color:#E76592"/>
		<stop  offset="1" style="stop-color:#F8EF6F"/>
	</linearGradient>
	<path class="st7" d="M32.8,60.9c0,0.7,0.1,1.4,0.3,2c0.9,2.8,3.5,4.9,6.6,4.9s5.8-2.1,6.6-4.9c0.2-0.6,0.3-1.3,0.3-2
		c0-3.2-2.1-5.8-5-6.7c-0.6-0.2-1.3-0.3-1.9-0.3s-1.3,0.1-1.9,0.3C34.9,55,32.8,57.7,32.8,60.9L32.8,60.9z M39.7,56.5
		c2.4,0,4.4,2,4.4,4.4s-2,4.4-4.4,4.4s-4.4-2-4.4-4.4C35.3,58.5,37.3,56.5,39.7,56.5z"/>
	
		<linearGradient id="SVGID_9_" gradientUnits="userSpaceOnUse" x1="-15.0905" y1="60.2169" x2="58.7067" y2="-14.4262" gradientTransform="matrix(1 0 0 -1 0 82)">
		<stop  offset="0" style="stop-color:#2D4DE0"/>
		<stop  offset="0.324" style="stop-color:#9F71F0"/>
		<stop  offset="0.84" style="stop-color:#E76592"/>
		<stop  offset="1" style="stop-color:#F8EF6F"/>
	</linearGradient>
	<path class="st8" d="M28.5,78.9h2.6c0-3.3,2.7-5.9,5.9-5.9h5.4c3.3,0,5.9,2.7,5.9,5.9h2.6c0-4.7-3.8-8.5-8.5-8.5H37
		C32.3,70.3,28.5,74.2,28.5,78.9z"/>
	
		<linearGradient id="SVGID_10_" gradientUnits="userSpaceOnUse" x1="7.0133" y1="82.0701" x2="80.8105" y2="7.4271" gradientTransform="matrix(1 0 0 -1 0 82)">
		<stop  offset="0" style="stop-color:#2D4DE0"/>
		<stop  offset="0.324" style="stop-color:#9F71F0"/>
		<stop  offset="0.84" style="stop-color:#E76592"/>
		<stop  offset="1" style="stop-color:#F8EF6F"/>
	</linearGradient>
	<path class="st9" d="M67.1,67.8c3.8,0,7-3.1,7-7s-3.1-7-7-7c-1.3,0-2.6,0.4-3.7,1c-2,1.2-3.3,3.4-3.3,5.9c0,0.7,0.1,1.4,0.3,2
		C61.4,65.8,64,67.8,67.1,67.8L67.1,67.8z M67.1,56.5c2.4,0,4.4,2,4.4,4.4s-2,4.4-4.4,4.4s-4.4-2-4.4-4.4
		C62.8,58.5,64.7,56.5,67.1,56.5z"/>
	
		<linearGradient id="SVGID_11_" gradientUnits="userSpaceOnUse" x1="-1.2345" y1="73.9159" x2="72.5628" y2="-0.7271" gradientTransform="matrix(1 0 0 -1 0 82)">
		<stop  offset="0" style="stop-color:#2D4DE0"/>
		<stop  offset="0.324" style="stop-color:#9F71F0"/>
		<stop  offset="0.84" style="stop-color:#E76592"/>
		<stop  offset="1" style="stop-color:#F8EF6F"/>
	</linearGradient>
	<path class="st10" d="M55.9,78.9h2.6c0-3.3,2.7-5.9,5.9-5.9h5.4c3.3,0,5.9,2.7,5.9,5.9h2.6c0-4.7-3.8-8.5-8.5-8.5h-5.4
		C59.7,70.3,55.9,74.2,55.9,78.9L55.9,78.9z"/>
</g>
</svg>
