<?xml version="1.0" encoding="utf-8"?>
<!-- Generator: Adobe Illustrator 25.2.3, SVG Export Plug-In . SVG Version: 6.00 Build 0)  -->
<svg version="1.1" id="Layer_1" xmlns="http://www.w3.org/2000/svg" xmlns:xlink="http://www.w3.org/1999/xlink" x="0px" y="0px"
	 viewBox="0 0 80 80" style="enable-background:new 0 0 80 80;" xml:space="preserve">
<style type="text/css">
	.st0{fill:url(#SVGID_1_);}
	.st1{fill:url(#SVGID_2_);}
	.st2{fill:url(#SVGID_3_);}
</style>
<g>
	
		<linearGradient id="SVGID_1_" gradientUnits="userSpaceOnUse" x1="14.8633" y1="74.1582" x2="63.2984" y2="10.4278" gradientTransform="matrix(1 0 0 -1 0 82)">
		<stop  offset="0" style="stop-color:#2D4DE0"/>
		<stop  offset="0.324" style="stop-color:#9F71F0"/>
		<stop  offset="0.84" style="stop-color:#E76592"/>
		<stop  offset="1" style="stop-color:#F8EF6F"/>
	</linearGradient>
	<path class="st0" d="M44.7,3c0.5,0,0.9,0.2,1.2,0.5s0.5,0.8,0.5,1.2v1c0,0.5-0.2,0.9-0.5,1.2c-0.3,0.3-0.8,0.5-1.2,0.5h-0.9h-2v2
		V12v1.8l1.8,0.2c5.9,0.7,11.5,3,16.1,6.7l1.4,1.1l1.3-1.3l1.8-1.8c0.3-0.3,0.7-0.5,1.1-0.5s0.8,0.2,1.1,0.5
		c0.3,0.3,0.5,0.7,0.5,1.1s-0.2,0.8-0.5,1.1l-1.7,1.7l-1.3,1.3l1.1,1.4c0,0,0.4,0.5,0.6,0.7c5.4,6.9,7.7,15.8,6.3,24.5
		c-1.4,9-6.7,16.9-14.4,21.7C52,75.4,46.2,77,40.2,77c-3.1,0-6.1-0.4-9-1.3c-8.7-2.6-15.9-8.8-19.7-17l-1-2.4
		c-0.6-1.7-1.1-3.4-1.4-5.2l-0.4-2.4c-0.1-1.1-0.2-2.1-0.2-3.2c0-0.8,0.1-1.6,0.1-2.5l0.3-2.4c1.1-6.8,4.4-13.1,9.4-17.9
		s11.5-7.8,18.3-8.6l1.8-0.2V12V9.4v-2h-2h-0.9c-0.5,0-0.9-0.2-1.2-0.5s-0.5-0.8-0.5-1.2v-1c0-0.5,0.2-0.9,0.5-1.2S35.1,3,35.5,3
		L44.7,3 M44.7,1h-9.3c-1,0-1.9,0.4-2.6,1.1c-0.7,0.7-1.1,1.6-1.1,2.6v1c0,1,0.4,1.9,1.1,2.6c0.7,0.7,1.6,1.1,2.6,1.1h0.9V12l0,0
		l0,0c-7.3,0.8-14.1,4-19.5,9.1c-5.3,5.1-8.8,11.8-10,19l-0.3,2.5c-0.1,0.9-0.1,1.8-0.1,2.7c0,1.2,0.1,2.3,0.2,3.5L7,51.3
		c0.3,1.9,0.9,3.8,1.5,5.6l1,2.5c4,8.8,11.7,15.4,20.9,18.2c3.1,0.9,6.4,1.4,9.6,1.4c6.3,0,12.4-1.7,17.9-5.1
		c8.2-5.1,13.8-13.6,15.3-23.1c1.5-9.2-0.9-18.7-6.7-26c-0.2-0.2-0.6-0.7-0.6-0.7l1.7-1.7c0.7-0.7,1.1-1.6,1.1-2.5
		c0-1-0.4-1.9-1-2.5c-0.7-0.7-1.6-1-2.5-1l0,0c-1,0-1.9,0.4-2.5,1.1l-1.8,1.8l0,0C56,15.4,50,12.9,43.8,12.2V9.4h0.9
		c1,0,1.9-0.4,2.6-1.1c0.7-0.7,1.1-1.6,1.1-2.6v-1c0-1-0.4-1.9-1.1-2.6C46.6,1.4,45.7,1,44.7,1L44.7,1z"/>
	
		<linearGradient id="SVGID_2_" gradientUnits="userSpaceOnUse" x1="12.7737" y1="72.57" x2="61.2088" y2="8.8397" gradientTransform="matrix(1 0 0 -1 0 82)">
		<stop  offset="0" style="stop-color:#2D4DE0"/>
		<stop  offset="0.324" style="stop-color:#9F71F0"/>
		<stop  offset="0.84" style="stop-color:#E76592"/>
		<stop  offset="1" style="stop-color:#F8EF6F"/>
	</linearGradient>
	<path class="st1" d="M40.1,72.3c-0.7,0-1.4,0-2.1-0.1C29.7,71.5,22,67,17.5,60L16,57.4c-1.9-3.7-2.9-7.9-2.9-12
		c0-0.9,0.1-1.9,0.2-2.9l0.4-2.5c1.7-8.2,7.1-15.3,14.6-18.9s16.4-3.6,23.9,0.2C59.7,25,65,32.2,66.6,40.4c1.5,8.2-0.9,16.8-6.4,23
		C55.1,69,47.7,72.3,40.1,72.3z M17.8,56.5l1.4,2.5c4.2,6.4,11.3,10.7,19,11.3c7.7,0.6,15.4-2.5,20.5-8.2s7.4-13.7,5.9-21.3
		c-1.4-7.6-6.4-14.2-13.3-17.7s-15.2-3.5-22.1-0.2c-6.9,3.4-12,9.9-13.6,17.5l-0.4,2.4c-0.1,0.8-0.1,1.7-0.1,2.6
		C15.2,49.2,16.1,53.1,17.8,56.5z"/>
	
		<linearGradient id="SVGID_3_" gradientUnits="userSpaceOnUse" x1="19.1117" y1="77.3869" x2="67.5468" y2="13.6566" gradientTransform="matrix(1 0 0 -1 0 82)">
		<stop  offset="0" style="stop-color:#2D4DE0"/>
		<stop  offset="0.324" style="stop-color:#9F71F0"/>
		<stop  offset="0.84" style="stop-color:#E76592"/>
		<stop  offset="1" style="stop-color:#F8EF6F"/>
	</linearGradient>
	<path class="st2" d="M30.2,38.3L30.2,38.3c-0.5-0.5-0.6-1.2-0.1-1.8c0.5-0.5,1.2-0.6,1.8-0.1l8.4,7.3l13.9-12.5
		c0.5-0.4,1.3-0.4,1.7,0.1c0.5,0.5,0.4,1.3-0.1,1.7L42.1,45.3l2.1,1.8l0,0c0.5,0.4,0.6,1.2,0.1,1.8c-0.4,0.5-1.2,0.6-1.8,0.1l-2.3-2
		L38,49c-0.5,0.4-1.3,0.4-1.7-0.1c-0.5-0.5-0.4-1.3,0.1-1.7l2-1.8L30.2,38.3z"/>
</g>
</svg>
