<?xml version="1.0" encoding="utf-8"?>
<!-- Generator: Adobe Illustrator 25.2.3, SVG Export Plug-In . SVG Version: 6.00 Build 0)  -->
<svg version="1.1" id="Layer_1" xmlns="http://www.w3.org/2000/svg" xmlns:xlink="http://www.w3.org/1999/xlink" x="0px" y="0px"
	 viewBox="0 0 80 80" style="enable-background:new 0 0 80 80;" xml:space="preserve">
<style type="text/css">
	.st0{fill:url(#SVGID_1_);}
	.st1{fill:url(#SVGID_2_);}
	.st2{fill:url(#SVGID_3_);}
	.st3{fill:url(#SVGID_4_);}
	.st4{fill:url(#SVGID_5_);}
	.st5{fill:url(#SVGID_6_);}
	.st6{fill:url(#SVGID_7_);}
	.st7{fill:url(#SVGID_8_);}
	.st8{fill:url(#SVGID_9_);}
	.st9{fill:url(#SVGID_10_);}
	.st10{fill:url(#SVGID_11_);}
	.st11{fill:url(#SVGID_12_);}
	.st12{fill:url(#SVGID_13_);}
</style>
<g>
	
		<linearGradient id="SVGID_1_" gradientUnits="userSpaceOnUse" x1="12.5255" y1="84.6313" x2="83.2367" y2="6.7467" gradientTransform="matrix(1 0 0 -1 0 82)">
		<stop  offset="0" style="stop-color:#2D4DE0"/>
		<stop  offset="0.324" style="stop-color:#9F71F0"/>
		<stop  offset="0.84" style="stop-color:#E76592"/>
		<stop  offset="1" style="stop-color:#F8EF6F"/>
	</linearGradient>
	<path class="st0" d="M37.1,12.1c0-0.7-0.6-1.3-1.3-1.3H16c-0.7,0-1.3,0.6-1.3,1.3s0.6,1.3,1.3,1.3h19.8
		C36.5,13.3,37.1,12.8,37.1,12.1z"/>
	
		<linearGradient id="SVGID_2_" gradientUnits="userSpaceOnUse" x1="21.8976" y1="93.1401" x2="92.6088" y2="15.2555" gradientTransform="matrix(1 0 0 -1 0 82)">
		<stop  offset="0" style="stop-color:#2D4DE0"/>
		<stop  offset="0.324" style="stop-color:#9F71F0"/>
		<stop  offset="0.84" style="stop-color:#E76592"/>
		<stop  offset="1" style="stop-color:#F8EF6F"/>
	</linearGradient>
	<path class="st1" d="M55.1,17c-0.1,0.7,0.5,1.3,1.2,1.4s1.3-0.5,1.4-1.2l0.1-1.2c0.1-2.3-0.6-4.5-2.1-6.1s-3.6-2.5-5.9-2.5h-0.5
		c-2.3,0-4.4,0.9-5.9,2.5s-2.3,3.8-2.2,6.1l0.5,7.6c0.3,4.7,3.7,8.4,7.6,8.4h0.4c3.9,0,7.4-3.8,7.7-8.4c0-0.7-0.5-1.3-1.2-1.3
		s-1.3,0.5-1.3,1.2c-0.2,3.3-2.5,6.1-5.2,6.1h-0.4c-2.6,0-4.9-2.7-5.1-6.1l-0.5-7.6c-0.1-1.6,0.4-3.1,1.5-4.2c1-1.1,2.5-1.7,4.1-1.7
		h0.5c1.6,0,3,0.6,4.1,1.7c1,1.1,1.6,2.6,1.5,4.2L55.1,17z"/>
	
		<linearGradient id="SVGID_3_" gradientUnits="userSpaceOnUse" x1="10.5525" y1="82.84" x2="81.2636" y2="4.9554" gradientTransform="matrix(1 0 0 -1 0 82)">
		<stop  offset="0" style="stop-color:#2D4DE0"/>
		<stop  offset="0.324" style="stop-color:#9F71F0"/>
		<stop  offset="0.84" style="stop-color:#E76592"/>
		<stop  offset="1" style="stop-color:#F8EF6F"/>
	</linearGradient>
	<path class="st2" d="M35.2,40v5.5c0,0.7,0.6,1.3,1.3,1.3h27.4c0.7,0,1.3-0.6,1.3-1.3V34.1c0-2.2-1.8-4.1-4.1-4.1h-4.2
		c-0.5,0-0.9,0.3-1.1,0.7c0,0-2.3,4.6-6.3,5.7c-4-1-6.3-5.7-6.3-5.7c-0.3-0.6-1-0.9-1.7-0.6c-0.6,0.3-0.9,1-0.6,1.7
		c0.1,0.2,2.8,5.8,8.1,7c0.2,0.1,0.5,0.1,0.8,0.1c4.3-0.9,7-4.8,7.9-6.4h3.4c0.9,0,1.6,0.7,1.6,1.6v10.2H37.8v-6.6
		c0-0.5-0.3-0.9-0.6-1.1c-0.4-0.2-0.9-0.2-1.3,0l-7.3,4.7L17,29.3c-0.5-0.5-1.3-0.5-1.8,0s-0.5,1.3,0,1.8l12.2,12.8
		c0.4,0.4,1.1,0.5,1.6,0.2L35.2,40z"/>
	
		<linearGradient id="SVGID_4_" gradientUnits="userSpaceOnUse" x1="29.1602" y1="99.7338" x2="99.8712" y2="21.8491" gradientTransform="matrix(1 0 0 -1 0 82)">
		<stop  offset="0" style="stop-color:#2D4DE0"/>
		<stop  offset="0.324" style="stop-color:#9F71F0"/>
		<stop  offset="0.84" style="stop-color:#E76592"/>
		<stop  offset="1" style="stop-color:#F8EF6F"/>
	</linearGradient>
	<path class="st3" d="M26.3,3.5H67c0.8,0,1.5,0.7,1.5,1.5v33c0,0.7,0.6,1.3,1.3,1.3s1.3-0.6,1.3-1.3V5c0-2.2-1.8-4-4-4H26.4
		c-0.7,0-1.3,0.6-1.3,1.3C25.1,3,25.6,3.5,26.3,3.5L26.3,3.5z"/>
	
		<linearGradient id="SVGID_5_" gradientUnits="userSpaceOnUse" x1="-0.2926" y1="72.9938" x2="70.4185" y2="-4.8909" gradientTransform="matrix(1 0 0 -1 0 82)">
		<stop  offset="0" style="stop-color:#2D4DE0"/>
		<stop  offset="0.324" style="stop-color:#9F71F0"/>
		<stop  offset="0.84" style="stop-color:#E76592"/>
		<stop  offset="1" style="stop-color:#F8EF6F"/>
	</linearGradient>
	<path class="st4" d="M9.8,45.1H20c0.7,0,1.3-0.6,1.3-1.3s-0.6-1.3-1.3-1.3H9.8c-0.8,0-1.5-0.7-1.5-1.5V5c0-0.8,0.7-1.5,1.5-1.5h6.4
		c0.7,0,1.3-0.6,1.3-1.3s-0.6-1.3-1.3-1.3H9.8c-2.2,0-4,1.8-4,4v36C5.8,43.3,7.6,45.1,9.8,45.1L9.8,45.1z"/>
	
		<linearGradient id="SVGID_6_" gradientUnits="userSpaceOnUse" x1="4.62" y1="77.4539" x2="75.3311" y2="-0.4307" gradientTransform="matrix(1 0 0 -1 0 82)">
		<stop  offset="0" style="stop-color:#2D4DE0"/>
		<stop  offset="0.324" style="stop-color:#9F71F0"/>
		<stop  offset="0.84" style="stop-color:#E76592"/>
		<stop  offset="1" style="stop-color:#F8EF6F"/>
	</linearGradient>
	<path class="st5" d="M16.1,25.3h12.4c0.7,0,1.3-0.6,1.3-1.3c0-0.7-0.6-1.3-1.3-1.3H16.1c-0.7,0-1.3,0.6-1.3,1.3
		C14.8,24.7,15.3,25.3,16.1,25.3L16.1,25.3z"/>
	
		<linearGradient id="SVGID_7_" gradientUnits="userSpaceOnUse" x1="6.9711" y1="79.5884" x2="77.6821" y2="1.7038" gradientTransform="matrix(1 0 0 -1 0 82)">
		<stop  offset="0" style="stop-color:#2D4DE0"/>
		<stop  offset="0.324" style="stop-color:#9F71F0"/>
		<stop  offset="0.84" style="stop-color:#E76592"/>
		<stop  offset="1" style="stop-color:#F8EF6F"/>
	</linearGradient>
	<path class="st6" d="M16.1,19.4h10.3c0.7,0,1.3-0.6,1.3-1.3c0-0.7-0.6-1.3-1.3-1.3H16.1c-0.7,0-1.3,0.6-1.3,1.3
		C14.8,18.9,15.3,19.4,16.1,19.4L16.1,19.4z"/>
	
		<linearGradient id="SVGID_8_" gradientUnits="userSpaceOnUse" x1="-17.6818" y1="57.2061" x2="53.0292" y2="-20.6785" gradientTransform="matrix(1 0 0 -1 0 82)">
		<stop  offset="0" style="stop-color:#2D4DE0"/>
		<stop  offset="0.324" style="stop-color:#9F71F0"/>
		<stop  offset="0.84" style="stop-color:#E76592"/>
		<stop  offset="1" style="stop-color:#F8EF6F"/>
	</linearGradient>
	<path class="st7" d="M18.1,62.9c-0.2,2.5-1.9,4.7-3.9,4.7h-0.3c-1.7,0-3.7-1-3.9-3.9c0-0.7-0.6-1.2-1.3-1.2c-0.7,0-1.2,0.6-1.2,1.3
		c0.2,3.7,2.9,6.2,6.4,6.2h0.3c3.3,0,6.2-3.2,6.4-7l0.4-6.1c0.1-1.9-0.5-3.7-1.8-5.1c-1.3-1.4-3.1-2.1-5-2.1h-0.4
		c-1.9,0-3.7,0.7-4.9,2.1C7.6,53.2,7,55,7.1,56.9c0,0.7,0.6,1.2,1.3,1.2c0.7,0,1.2-0.6,1.2-1.3c-0.1-1.2,0.3-2.4,1.1-3.2
		c0.8-0.8,1.9-1.3,3.1-1.3h0.4c1.2,0,2.3,0.5,3.1,1.3c0.8,0.8,1.2,2,1.1,3.2L18.1,62.9z"/>
	
		<linearGradient id="SVGID_9_" gradientUnits="userSpaceOnUse" x1="-25.8223" y1="49.8155" x2="44.8888" y2="-28.0691" gradientTransform="matrix(1 0 0 -1 0 82)">
		<stop  offset="0" style="stop-color:#2D4DE0"/>
		<stop  offset="0.324" style="stop-color:#9F71F0"/>
		<stop  offset="0.84" style="stop-color:#E76592"/>
		<stop  offset="1" style="stop-color:#F8EF6F"/>
	</linearGradient>
	<path class="st8" d="M21.3,71.4H6.7c-2.1,0-3.9,1.8-3.9,3.9v2.5c0,0.7,0.6,1.3,1.3,1.3c0.7,0,1.3-0.6,1.3-1.3v-2.5
		c0-0.7,0.6-1.4,1.4-1.4h14.6c0.7,0,1.4,0.6,1.4,1.4v2.5c0,0.7,0.6,1.3,1.3,1.3c0.7,0,1.3-0.6,1.3-1.3v-2.5
		C25.1,73.1,23.4,71.4,21.3,71.4L21.3,71.4z"/>
	
		<linearGradient id="SVGID_10_" gradientUnits="userSpaceOnUse" x1="-3.4844" y1="70.096" x2="67.2266" y2="-7.7887" gradientTransform="matrix(1 0 0 -1 0 82)">
		<stop  offset="0" style="stop-color:#2D4DE0"/>
		<stop  offset="0.324" style="stop-color:#9F71F0"/>
		<stop  offset="0.84" style="stop-color:#E76592"/>
		<stop  offset="1" style="stop-color:#F8EF6F"/>
	</linearGradient>
	<path class="st9" d="M44,62.9c-0.2,2.5-1.9,4.7-3.9,4.7h-0.3c-1.7,0-3.7-1-3.9-3.9c0-0.7-0.6-1.2-1.3-1.2c-0.7,0-1.2,0.6-1.2,1.3
		c0.2,3.7,2.9,6.2,6.4,6.2h0.3c3.3,0,6.2-3.2,6.4-7l0.4-6.1c0.1-1.9-0.5-3.7-1.8-5.1c-1.3-1.4-3.1-2.1-5-2.1h-0.4
		c-1.9,0-3.7,0.7-4.9,2.1c-1.3,1.4-1.9,3.2-1.8,5.1c0,0.7,0.6,1.2,1.3,1.2c0.7,0,1.2-0.6,1.2-1.3c-0.1-1.2,0.3-2.4,1.1-3.2
		c0.8-0.8,1.9-1.3,3.1-1.3h0.4c1.2,0,2.3,0.5,3.1,1.3s1.2,2,1.1,3.2L44,62.9z"/>
	
		<linearGradient id="SVGID_11_" gradientUnits="userSpaceOnUse" x1="-11.6045" y1="62.7238" x2="59.1066" y2="-15.1608" gradientTransform="matrix(1 0 0 -1 0 82)">
		<stop  offset="0" style="stop-color:#2D4DE0"/>
		<stop  offset="0.324" style="stop-color:#9F71F0"/>
		<stop  offset="0.84" style="stop-color:#E76592"/>
		<stop  offset="1" style="stop-color:#F8EF6F"/>
	</linearGradient>
	<path class="st10" d="M47.2,71.4H32.6c-2.1,0-3.9,1.8-3.9,3.9v2.5c0,0.7,0.6,1.3,1.3,1.3c0.7,0,1.3-0.6,1.3-1.3v-2.5
		c0-0.7,0.6-1.4,1.4-1.4h14.6c0.7,0,1.4,0.6,1.4,1.4v2.5c0,0.7,0.6,1.3,1.3,1.3s1.3-0.6,1.3-1.3v-2.5C51.1,73.1,49.4,71.4,47.2,71.4
		L47.2,71.4z"/>
	
		<linearGradient id="SVGID_12_" gradientUnits="userSpaceOnUse" x1="10.713" y1="82.9858" x2="81.4241" y2="5.1011" gradientTransform="matrix(1 0 0 -1 0 82)">
		<stop  offset="0" style="stop-color:#2D4DE0"/>
		<stop  offset="0.324" style="stop-color:#9F71F0"/>
		<stop  offset="0.84" style="stop-color:#E76592"/>
		<stop  offset="1" style="stop-color:#F8EF6F"/>
	</linearGradient>
	<path class="st11" d="M69.9,62.9c-0.2,2.5-1.9,4.7-3.9,4.7h-0.3c-1.7,0-3.7-1-3.9-3.9c0-0.7-0.6-1.2-1.3-1.2s-1.2,0.6-1.2,1.3
		c0.2,3.7,2.9,6.2,6.4,6.2H66c3.3,0,6.2-3.2,6.4-7l0.4-6.1c0.1-1.9-0.5-3.7-1.8-5.1c-1.3-1.4-3.1-2.1-5-2.1h-0.4
		c-1.9,0-3.7,0.7-4.9,2.1c-1.3,1.4-1.9,3.2-1.8,5.1c0,0.7,0.6,1.2,1.3,1.2s1.2-0.6,1.2-1.3c-0.1-1.2,0.3-2.4,1.1-3.2
		s1.9-1.3,3.1-1.3H66c1.2,0,2.3,0.5,3.1,1.3s1.2,2,1.1,3.2L69.9,62.9z"/>
	
		<linearGradient id="SVGID_13_" gradientUnits="userSpaceOnUse" x1="2.5839" y1="75.6052" x2="73.2949" y2="-2.2794" gradientTransform="matrix(1 0 0 -1 0 82)">
		<stop  offset="0" style="stop-color:#2D4DE0"/>
		<stop  offset="0.324" style="stop-color:#9F71F0"/>
		<stop  offset="0.84" style="stop-color:#E76592"/>
		<stop  offset="1" style="stop-color:#F8EF6F"/>
	</linearGradient>
	<path class="st12" d="M73.1,71.4H58.5c-2.1,0-3.9,1.8-3.9,3.9v2.5c0,0.7,0.6,1.3,1.3,1.3s1.3-0.6,1.3-1.3v-2.5
		c0-0.7,0.6-1.4,1.4-1.4h14.6c0.7,0,1.4,0.6,1.4,1.4v2.5c0,0.7,0.6,1.3,1.3,1.3s1.3-0.6,1.3-1.3v-2.5C77,73.1,75.2,71.4,73.1,71.4
		L73.1,71.4z"/>
</g>
</svg>
