<?xml version="1.0" encoding="utf-8"?>
<!-- Generator: Adobe Illustrator 25.2.3, SVG Export Plug-In . SVG Version: 6.00 Build 0)  -->
<svg version="1.1" id="Layer_1" xmlns="http://www.w3.org/2000/svg" xmlns:xlink="http://www.w3.org/1999/xlink" x="0px" y="0px"
	 viewBox="0 0 280 150" style="enable-background:new 0 0 280 150;" xml:space="preserve">
<style type="text/css">
	.st0{fill:#FFFFFF;}
</style>
<g>
	<path class="st0" d="M54,95c0-3.6,0-7.2,0-10.8c0-0.5,0.1-0.9,0.1-1.5c1.1-0.1,2.1-0.1,3.2-0.2c0,3.9-0.1,7.6,0,11.4
		c0,2,0.2,4.1,0.6,6.1c1.4,7.2,5.5,11.8,12.7,13.7c3.9,1,7.8,1.1,11.8,1.1l3.3-0.1V110h-1.1c-3-0.1-6.1-0.2-9.1-0.5
		c-9.1-0.9-13.4-5.7-13.6-14.8c-0.1-3.6,0-7.2,0-10.8v-2l2-0.3c5.8-0.9,11.5-2.2,17-4.3c4.3-1.7,8.4-3.7,11.6-7.1
		c4.9-5.2,4.5-12.2-0.9-18.3c0.1,1.4,0.4,3.1,0.2,4.7c-0.6,3.9-3.1,6.8-6,9.4c-5.2,4.6-11.4,7.4-18,9.4c-1.9,0.6-3.8,1-5.9,1.6
		c0-0.7-0.1-1.1-0.1-1.5c0-6.2,0-12.4,0-18.6v-3h-4.7c0,0,0,6.1,0,8.8c0,4.7,0,9.4,0,14l0,1.3L54,78.4c0,0-0.2-16.9,0.1-25
		C54.3,46.3,58,42.1,65,40.7c3.2-0.6,6.4-0.8,9.7-0.9h3.1V35c0,0-9.5,0.1-13.7,0.8c-5.9,0.9-10.4,4-12.9,9.7
		c-1.5,3.5-1.9,7.1-1.9,10.8c0,7,0,13.9,0,20.9c0,0.5-0.1,1-0.1,1.6c-1.2,0.1-2.3,0.2-3.5,0.3c0-0.6,0-1.1,0-1.5c0-7,0-14,0-21
		l0-2.9H41v1.3c0,7.6,0,15.2,0,22.9l0,1.4h-1.4C35.9,79,32,79,28.2,78.8c-8.3-0.4-16.5-1.7-24.7-3.3c-1.1-0.2-2.3-0.4-3.4-0.6
		C0.1,74.9,0,75,0,75.1c6.1,3.6,12.9,5.4,19.9,6.3c7,1,14,1,21.3,1.7c-0.1,4.7,0,10-0.5,14.9c-0.5,5.2-3.5,8.8-8.6,10.3
		c-2.3,0.7-4.7,1-7.1,1.3c-2.6,0.3-5.1,0.3-7.8,0.4c0,1.5,0,3,0,4.9c4.4-0.3,8.7-0.3,12.9-0.9c9.1-1.2,14.8-7.4,15.3-16.5
		c0.3-4.3,0.2-8.5,0.3-12.8c0-0.5,0-1,0-1.7h3.6l0,1.3c-0.1,2.9,0,5.7,0,8.6v3.1H54L54,95z"/>
	<g>
		<g>
			<path class="st0" d="M116.5,86.6V62.5h5.5v24.6c0,2.5-0.7,4.4-2.2,5.7c-1.5,1.3-3.6,2-6.3,2c-1.4,0-2.6-0.1-3.8-0.4l-0.2-4.3
				c1.3,0.4,2.5,0.5,3.4,0.5c1.3,0,2.2-0.3,2.8-0.9C116.2,89,116.5,88,116.5,86.6z"/>
			<path class="st0" d="M142.7,86.5h-15v-24h15.2l-0.5,4.2h-9.3v5.7h8.4v4.2h-8.4v5.8h10.1L142.7,86.5z"/>
			<path class="st0" d="M163.1,86.5h-14.8v-24h5.5v19.8h9.7L163.1,86.5z"/>
			<path class="st0" d="M182.2,86.5h-14.8v-24h5.5v19.8h9.7L182.2,86.5z"/>
			<path class="st0" d="M194.7,86.5h-5.4v-8.6l-8.1-15.5h5.7l5.1,11.5l5-11.5h5.7l-8.1,15.5V86.5z"/>
			<path class="st0" d="M212.2,86.5h-5.4v-24h14.7l-0.5,4.2h-8.8V73h7.4v4.1h-7.4V86.5z"/>
			<path class="st0" d="M231.7,86.5h-5.4v-24h5.4V86.5z"/>
			<path class="st0" d="M237.6,85.5l-0.2-4.7c2.8,1.3,5.2,2,7.2,2c2.8,0,4.3-0.9,4.3-2.7c0-1.2-1.4-2.3-4.1-3.3
				c-0.8-0.3-1.5-0.6-2.1-0.8c-0.5-0.2-1.2-0.6-2-1.1c-0.8-0.5-1.4-1-1.8-1.4c-0.4-0.5-0.8-1.1-1.2-1.9c-0.3-0.8-0.5-1.6-0.5-2.5
				c0-2.1,0.8-3.8,2.5-5.1c1.7-1.3,3.8-1.9,6.3-1.9c2.7,0,5.2,0.6,7.7,1.8l-1.5,3.7c-2.1-0.9-4.1-1.3-6-1.3c-1-0.1-1.9,0.2-2.5,0.7
				c-0.6,0.5-0.9,1.2-0.9,1.9c0,0.8,0.4,1.4,1.2,2c0.6,0.4,1.7,1,3.3,1.7c1.6,0.7,2.6,1.1,3,1.3c1.2,0.6,2.2,1.4,3,2.5
				c0.8,1.1,1.1,2.3,1.1,3.6c0,2.1-0.9,3.8-2.7,5.1c-1.8,1.3-4.1,1.9-7,1.9C242.2,87,239.8,86.5,237.6,85.5z"/>
			<path class="st0" d="M264.4,86.5H259v-24h5.4v9.7h9.2v-9.7h5.4v24h-5.4V76.4h-9.2V86.5z"/>
		</g>
		<g>
			<path class="st0" d="M134.8,107.7h-1.9V96.1h-4v-1.5h9.9l-0.3,1.5h-3.7V107.7z"/>
			<path class="st0" d="M149.7,107.7h-7.8V94.5h7.9l-0.2,1.5h-5.8v4.3h5.1v1.5h-5.1v4.3h6.2L149.7,107.7z"/>
			<path class="st0" d="M153.1,101.2c0-2.1,0.6-3.8,1.7-5.1c1.1-1.2,2.7-1.9,4.8-1.9c1.3,0,2.6,0.3,3.9,0.8l-0.4,1.4
				c-1.2-0.5-2.3-0.7-3.5-0.7c-1.5,0-2.6,0.5-3.4,1.4c-0.8,0.9-1.1,2.2-1.1,4c0,1.7,0.4,3,1.2,3.9c0.8,0.9,1.9,1.4,3.4,1.4
				c1.3,0,2.6-0.3,3.7-1l-0.1,1.7c-1,0.6-2.2,0.9-3.7,0.9c-2.1,0-3.7-0.6-4.9-1.8C153.7,105,153.1,103.4,153.1,101.2z"/>
			<path class="st0" d="M169.1,107.7h-1.9V94.5h1.9v5.7h6.7v-5.7h1.9v13.2h-1.9v-5.9h-6.7V107.7z"/>
			<path class="st0" d="M183.9,107.7H182V94.5h1.8l7.1,10.4V94.5h1.8v13.2h-1.8l-7.1-10.2V107.7z"/>
			<path class="st0" d="M202.7,94.3c2,0,3.6,0.6,4.6,1.8c1.1,1.2,1.6,2.9,1.6,5.1c0,2.1-0.5,3.7-1.6,5c-1,1.2-2.6,1.9-4.6,1.9
				c-2.1,0-3.6-0.6-4.7-1.9c-1-1.2-1.5-2.9-1.5-5c0-2.1,0.5-3.8,1.6-5C199.1,94.9,200.7,94.3,202.7,94.3z M202.7,106.5
				c1.3,0,2.4-0.5,3.1-1.4c0.7-0.9,1.1-2.2,1.1-3.9c0-1.6-0.4-3-1.1-3.9c-0.7-1-1.8-1.4-3.1-1.4c-1.3,0-2.4,0.5-3.1,1.4
				c-0.7,1-1.1,2.3-1.1,3.9c0,1.6,0.4,2.9,1.1,3.9C200.3,106,201.3,106.5,202.7,106.5z"/>
			<path class="st0" d="M220.4,107.7h-7.7V94.5h1.9v11.7h6L220.4,107.7z"/>
			<path class="st0" d="M229.1,94.3c2,0,3.6,0.6,4.6,1.8c1.1,1.2,1.6,2.9,1.6,5.1c0,2.1-0.5,3.7-1.6,5c-1,1.2-2.6,1.9-4.6,1.9
				c-2.1,0-3.6-0.6-4.7-1.9c-1-1.2-1.5-2.9-1.5-5c0-2.1,0.5-3.8,1.6-5C225.6,94.9,227.1,94.3,229.1,94.3z M229.1,106.5
				c1.3,0,2.4-0.5,3.1-1.4c0.7-0.9,1.1-2.2,1.1-3.9c0-1.6-0.4-3-1.1-3.9c-0.7-1-1.8-1.4-3.1-1.4c-1.3,0-2.4,0.5-3.1,1.4
				c-0.7,1-1.1,2.3-1.1,3.9c0,1.6,0.4,2.9,1.1,3.9C226.7,106,227.8,106.5,229.1,106.5z"/>
			<path class="st0" d="M238.5,101.2c0-2.1,0.6-3.8,1.8-5c1.2-1.3,2.9-1.9,4.9-1.9c1.3,0,2.5,0.2,3.8,0.7l-0.4,1.4
				c-1.1-0.4-2.2-0.6-3.3-0.6c-1.5,0-2.6,0.5-3.5,1.5c-0.8,1-1.2,2.2-1.2,3.8c0,1.6,0.4,2.9,1.2,3.9c0.8,1,1.9,1.4,3.4,1.4
				c1.3,0,2.3-0.2,3.1-0.5v-3.8H245l0.3-1.3h4.4v6.2c-1.3,0.7-2.8,1-4.6,1c-2.1,0-3.7-0.6-4.9-1.9
				C239,104.8,238.5,103.2,238.5,101.2z"/>
			<path class="st0" d="M255.6,107.7h-1.9V94.5h1.9V107.7z"/>
			<path class="st0" d="M267.7,107.7h-7.8V94.5h7.9l-0.2,1.5h-5.8v4.3h5.1v1.5h-5.1v4.3h6.2L267.7,107.7z"/>
			<path class="st0" d="M271.3,107.1l-0.1-1.8c1.4,0.7,2.7,1.1,4,1.1c0.9,0,1.6-0.2,2.1-0.6c0.5-0.4,0.8-0.9,0.8-1.6
				c0-0.9-0.8-1.6-2.4-2.2c-0.5-0.2-0.9-0.3-1.2-0.4c-0.3-0.1-0.7-0.3-1.1-0.5c-0.5-0.3-0.8-0.5-1.1-0.8c-0.3-0.3-0.5-0.6-0.7-1
				c-0.2-0.4-0.3-0.9-0.3-1.4c0-1.1,0.4-2,1.2-2.6c0.8-0.7,1.9-1,3.3-1c1.4,0,2.7,0.3,3.9,0.9l-0.6,1.4c-1.1-0.5-2.2-0.7-3.3-0.7
				c-0.8,0-1.4,0.2-1.9,0.5c-0.4,0.4-0.7,0.9-0.7,1.5c0,0.9,0.8,1.7,2.4,2.3c0.6,0.2,1.1,0.4,1.5,0.6c0.4,0.2,0.8,0.4,1.3,0.8
				c0.5,0.3,0.9,0.7,1.1,1.2c0.3,0.5,0.4,1,0.4,1.5c0,1.1-0.5,2-1.4,2.7c-0.9,0.7-2.1,1-3.4,1C273.7,108,272.4,107.7,271.3,107.1z"
				/>
		</g>
	</g>
</g>
</svg>
