<?xml version="1.0" encoding="utf-8"?>
<!-- Generator: Adobe Illustrator 25.2.3, SVG Export Plug-In . SVG Version: 6.00 Build 0)  -->
<svg version="1.1" id="Layer_1" xmlns="http://www.w3.org/2000/svg" xmlns:xlink="http://www.w3.org/1999/xlink" x="0px" y="0px"
	 viewBox="0 0 280 150" style="enable-background:new 0 0 280 150;" xml:space="preserve">
<style type="text/css">
	.st0{fill:#FFFFFF;}
	.st1{fill:#676767;}
</style>
<g>
	<path class="st0" d="M222.2,89.7c0.3,0,0.6,0,0.9,0c0.7,0,0.8,0.1,0.8,0.8c0.1,0.8,0.1,1.6,0.1,2.4c0,0.2,0,0.4,0.1,0.7
		c0.3-0.3,0.5-0.6,0.7-0.8c1.4-1.6,3.1-2.9,5.3-3.3c1.7-0.4,3.3-0.3,4.9,0.3c2,0.7,3.4,2,4.3,3.9c0.6,1.2,0.9,2.4,1.1,3.7
		c0.4,2.6,0.4,5.2-0.4,7.8c-0.8,2.8-2.3,5-5,6.2c-2.4,1.1-4.9,1.1-7.4,0.3c-1.1-0.4-2.1-1.1-2.9-2c-0.2-0.2-0.3-0.4-0.5-0.5
		c-0.1,1.2-0.1,2.4-0.1,3.5c0,1.2,0,2.3,0,3.5c0,1.2,0,2.4,0,3.5c-0.5,0.2-1.1,0.2-2,0.1C222,119.3,222,90.7,222.2,89.7z
		 M224.2,101.3c0,1.8,0,3.5,0,5.3c0,0.3,0,0.6,0.2,0.8c1.1,1.6,2.5,2.8,4.5,3.1c0.8,0.1,1.7,0.2,2.5,0.1c2.3-0.1,4.1-1.1,5.4-3
		c0.6-0.8,0.9-1.7,1.2-2.6c0.7-2.1,0.7-4.3,0.5-6.6c-0.1-1.4-0.4-2.9-1.1-4.2c-0.8-1.6-2.2-2.7-4-3.1c-2.4-0.5-4.7-0.1-6.7,1.4
		c-0.8,0.7-1.5,1.4-2.2,2.3c-0.3,0.3-0.4,0.7-0.4,1.1C224.2,97.7,224.2,99.5,224.2,101.3z"/>
	<path class="st0" d="M172.2,108c-1.4,1.5-3,2.6-4.9,3.3c-3.2,1.1-6.4,1.3-9.6,0.3c-3.7-1-6.3-3.3-7.9-6.7c-2.1-4.6-2.3-9.3-0.4-14
		c1.9-4.8,5.6-7.5,10.8-8.3c2.4-0.4,4.8-0.2,7.2,0.6c1.6,0.6,3,1.5,4.3,2.6c0.1,0.1,0.1,0.1,0.2,0.2c0,0.1,0,0.1,0,0.1
		c-0.8,1.4-1,1.3-2,0.5c-2.5-1.9-5.4-2.5-8.5-2.3c-1.3,0.1-2.5,0.4-3.7,0.9c-3,1.3-5.2,3.5-6.3,6.6c-1.4,4-1.4,8,0.3,11.9
		c1.9,4.4,5.5,6.6,10.2,6.8c1.2,0,2.4-0.1,3.5-0.3c1.7-0.3,3.3-1.1,4.6-2.3c0.2-0.2,0.4-0.4,0.7-0.6c0.4-0.3,0.6-0.3,1,0
		C171.8,107.6,172,107.8,172.2,108z"/>
	<path class="st0" d="M197.8,100.8c0,2-0.3,4-1.1,5.8c-1.6,3.6-4.4,5.4-8.2,5.6c-1.3,0.1-2.6,0-3.9-0.4c-3.2-0.9-5.3-3.1-6.3-6.2
		c-1-3.3-1.1-6.6,0.1-9.8c1.3-3.8,4-6,8.1-6.4c1.6-0.2,3.1-0.1,4.7,0.4c3.2,1,5.1,3.2,6.1,6.3C197.5,97.5,197.8,99.1,197.8,100.8z
		 M179.6,101c0,0.5,0,1.1,0.1,1.8c0.2,1.4,0.5,2.8,1.2,4.1c0.9,1.7,2.3,2.9,4.2,3.5c1.6,0.5,3.2,0.5,4.9,0.1c2.6-0.7,4.2-2.4,5-4.9
		c1-3.1,1-6.2,0.1-9.3c-1-3.2-3.1-5-6.5-5.3c-3.7-0.3-6.7,1.3-8.1,5C179.8,97.5,179.7,99.2,179.6,101z"/>
	<path class="st0" d="M205.9,111.9c-0.7,0-1.3,0-2,0c-0.2-0.5-0.2-21.1,0-22.2c0.3,0,0.6,0,0.9,0c0.7,0,0.8,0.1,0.8,0.8
		c0.1,1.1,0.1,2.2,0.1,3.2c0,0.3,0,0.6,0,0.9c0.1,0,0.1,0,0.2,0c0.1-0.2,0.2-0.4,0.3-0.6c0.5-1,1.1-2,2-2.8c1.5-1.6,3.4-2.1,5.6-1.9
		c1.3,0.1,2,0.4,2.7,0.8c-0.1,0.4-0.1,0.8-0.2,1.2c-0.1,0.5-0.3,0.6-0.8,0.5c-0.6-0.2-1.2-0.4-1.9-0.4c-2.5-0.3-4.5,0.5-6,2.5
		c-0.7,1-1.2,2.1-1.6,3.2c-0.1,0.3-0.1,0.6-0.1,0.9c0,4.3,0,8.6,0,12.9C205.9,111.3,205.9,111.6,205.9,111.9z"/>
	<path class="st0" d="M229.8,32c-0.3,0.9-0.6,1.9-1,2.8c-0.3,0-0.5,0-0.8,0c-0.3-0.9-0.6-1.9-1-2.8c0,0-0.1,0-0.1,0
		c-0.2,0.9-0.3,1.8-0.5,2.8c-0.3,0-0.6,0-0.9,0c0.3-1.7,0.6-3.3,0.9-4.9c0.3,0,0.6,0,0.9,0c0.4,1,0.7,2.1,1.1,3.2c0,0,0.1,0,0.1,0
		c0.4-1.1,0.7-2.1,1.1-3.2c0.3,0,0.6,0,0.9,0c0.3,1.6,0.6,3.2,0.8,4.9c-0.3,0-0.6,0-0.9,0c-0.2-0.9-0.3-1.8-0.5-2.8
		C229.8,32,229.8,32,229.8,32z"/>
	<path class="st0" d="M223.5,30.8c-0.3,0-0.6-0.1-0.9-0.1c0-0.3,0-0.6,0-0.9c0.9,0,1.8,0,2.7,0c0,0.3,0,0.6,0,0.9
		c-0.3,0-0.5,0.1-0.8,0.1c0,1.3,0,2.6,0,3.9c-0.4,0-0.6,0-1,0C223.5,33.5,223.5,32.2,223.5,30.8z"/>
	<g>
		<path id="XMLID_18_" class="st0" d="M74,49.7c0,9.4-6.2,15.6-17.8,15.6h-6.5v11.2c0,1.6-0.7,2-2,2h-6.7c-1.2,0-2-0.4-2-2V36
			c0-1.2,0.4-2,2-2h15.2C68,34.1,74,40.4,74,49.7z M63.8,49.9c0-3.5-2.3-6.3-7.6-6.3h-6.5v12.6h6.5C61.5,56.2,63.8,53.3,63.8,49.9z"
			/>
		<path id="XMLID_15_" class="st0" d="M112.5,78.5h-7.1c-1.5,0-2-0.4-2.6-2l-1.9-5.3H84.4l-1.9,5.3c-0.5,1.6-1.1,2-2.6,2h-7.1
			c-1.5,0-1.5-1.1-1.1-1.9l15-40.5c0.5-1.4,1.3-2.1,2.8-2.1H96c1.5,0,2.2,0.7,2.8,2.1l14.9,40.5C114,77.4,114,78.5,112.5,78.5z
			 M97.8,61.7l-5.1-14.9l-5.1,14.9H97.8z"/>
		<path id="XMLID_13_" class="st0" d="M143.9,36v5.6c0,1.2-0.4,2-2,2h-10.3v33c0,1.6-0.7,2-2,2H123c-1.2,0-2-0.4-2-2v-33h-10.4
			c-1.6,0-2-0.7-2-2V36c0-1.2,0.4-2,2-2h31.3C143.5,34.1,143.9,34.8,143.9,36z"/>
		<path id="XMLID_11_" class="st0" d="M184,78.5h-8c-1.6,0-2.4-0.6-3.4-2l-7.3-10.9c-0.6-0.8-0.7-1.6-0.7-3.4v-5.4c0-1.2,0.4-2,2-2
			h1.4c3.3,0,6.4-2.3,6.4-5.5c0-3.5-2.7-5.7-6.2-5.7h-9v33c0,1.6-0.7,2-2,2h-6.7c-1.2,0-1.9-0.4-1.9-2V36.1c0-1.2,0.3-2,1.9-2h17
			c7.4,0,10.6,1.5,13.4,4.3c2.5,2.4,3.9,6.3,3.9,10.6c0,7.1-5.2,12-9.4,13.4l9.5,13.8C185.6,77.3,185.3,78.5,184,78.5z"/>
		<polygon class="st1" points="198.1,78.5 219.6,78.5 208.8,46.8 		"/>
		<path class="st0" d="M229.7,76.6l-14.9-40.4c-0.6-1.4-1.3-2.1-2.8-2.1h-6.5c-1.5,0-2.2,0.7-2.8,2.1l-15,40.4
			c-0.3,0.8-0.3,1.9,1.1,1.9h7.1h0.8h1.2l10.7-31.7l10.7,31.7h1.8h0.1h7.1C230,78.5,230,77.4,229.7,76.6z"/>
	</g>
</g>
</svg>
