<?xml version="1.0" encoding="utf-8"?>
<!-- Generator: Adobe Illustrator 25.2.3, SVG Export Plug-In . SVG Version: 6.00 Build 0)  -->
<svg version="1.1" id="Layer_1" xmlns="http://www.w3.org/2000/svg" xmlns:xlink="http://www.w3.org/1999/xlink" x="0px" y="0px"
	 viewBox="0 0 280 150" style="enable-background:new 0 0 280 150;" xml:space="preserve">
<style type="text/css">
	.st0{fill:#FFFFFF;}
</style>
<g>
	<path class="st0" d="M134,70.4c0,0,8.1,8.8,20.5,9.6c11.1,0.7,31.6,0.7,44.6,0.7c10.2,0,8.4,9.3,1.8,9.5c-2.8,0.2-10,0.2-13.5,0.4
		c-5.8,0-44.9,0-44.9,0l-14,18.6c0,0,57.9-1.2,74.4-1.2c14.9,0,22.3-11.9,21.2-24.4c-0.9-9.8-8.1-16-20.4-16.1
		c-14.6-0.4-29.1-0.5-43.5,0c0,0-4,0-7.7,0.2C151,67.4,134,70.4,134,70.4z"/>
	<path class="st0" d="M143.1,69.1"/>
	<path class="st0" d="M175.9,56.5"/>
	<path class="st0" d="M183.1,42.6c-13.9,8.1-30.7,13.7-46.3,15.6c-20.7,2.5-32.1,17.4-36.7,44.2c7.7-23.7,20.7-31.2,35.8-34.4
		c2.1-0.4,4.2-0.9,6.3-1.4c9.8-1.8,24.2-2.3,33.7-8.8L183.1,42.6z"/>
	<path class="st0" d="M100.5,110c3.5-15.8,12.1-31.6,27.4-37.9c-7.2,13-8.6,11.1-7.7,37.9C114.3,110,107.1,110,100.5,110z"/>
	<polygon class="st0" points="178.7,57.9 186.4,40 221.4,40 207,57.9 	"/>
	<path class="st0" d="M108.2,68.9c-5.6-6.5-0.5,0-27-28.9H56.6c-0.2,0-0.5,0.2-0.7,0.2c1.1,1.2,2.6,3.7,3.7,4.9
		c4.4,4.6,27.9,28.6,38.1,41.8c0,0,0.9,11.8,0.9,11.1c5.6-24.2,15.4-38.4,40.2-41.9c14.7-2.1,29.5-5.6,43.2-15.4
		C152.1,38.6,125.7,41.9,108.2,68.9z"/>
</g>
</svg>
