<?xml version="1.0" encoding="utf-8"?>
<!-- Generator: Adobe Illustrator 25.2.3, SVG Export Plug-In . SVG Version: 6.00 Build 0)  -->
<svg version="1.1" id="Layer_1" xmlns="http://www.w3.org/2000/svg" xmlns:xlink="http://www.w3.org/1999/xlink" x="0px" y="0px"
	 viewBox="0 0 280 150" style="enable-background:new 0 0 280 150;" xml:space="preserve">
<style type="text/css">
	.st0{fill:#FFFFFF;}
</style>
<g>
	<g>
		<path class="st0" d="M38.3,68.7l-3-0.5v5.7v35.9h-5.2V68.2l-3,0.5C19.6,70,12.7,74,7.8,79.9c-5,6-7.8,13.7-7.8,21.5v13.4h5.1
			v-13.4c0-12.7,8.2-23.6,20-27V115h15.3V74.5c11.7,3.4,20,14.3,20,27v13.4h5.1v-13.4c0-7.9-2.8-15.5-7.8-21.5
			C52.6,74,45.8,70,38.3,68.7z"/>
		<path class="st0" d="M53.8,56.4L53.8,56.4C53.7,44.6,44.3,35,32.7,35s-21.1,9.6-21.1,21.4h0v5.1h42.2L53.8,56.4z M16.6,56.4
			c0-9,7.2-16.2,16-16.2s16,7.3,16,16.2H16.6z"/>
	</g>
	<g>
		<path class="st0" d="M95.2,69.4c-4.5,0-8.6,0.4-12,0.9v43.9c2.9,0.3,6.2,0.5,10.3,0.5c8.5,0,15.3-2.2,19.4-6.4
			c4.1-4.1,6.3-10.1,6.3-17.3c0-7.2-2.3-12.4-6.2-16C109.1,71.3,103.3,69.4,95.2,69.4z M94.5,110.1c-2.2,0-4.3-0.1-5.7-0.3V74.6
			c1.5-0.3,3.7-0.6,6.6-0.6c12,0,17.8,6.7,17.8,17.2C113.2,103.2,106.6,110.1,94.5,110.1z"/>
		<path class="st0" d="M160.1,69.7l-7.8,21.6c-2,5.6-3.5,10.5-4.6,15h-0.2c-1.1-4.6-2.6-9.5-4.4-15l-7.5-21.6h-7.2l-3.1,44.6h5.4
			l1.2-19.1c0.4-6.7,0.7-14.2,0.8-19.7h0.1c1.2,5.3,3,11.1,5.1,17.3l7.1,21.2h4.3l7.7-21.6c2.2-6.2,4-11.7,5.5-16.9h0.2
			c-0.1,5.6,0.3,13,0.7,19.3l1.1,19.6h5.5l-2.7-44.6L160.1,69.7L160.1,69.7z"/>
		<polygon class="st0" points="173.1,74.6 186.4,74.6 186.4,114.3 192.1,114.3 192.1,74.6 205.5,74.6 205.5,69.7 173.1,69.7 		"/>
		<path class="st0" d="M229.1,73.8c3.6,0,6.7,0.8,8.8,1.9l1.4-4.7c-1.5-0.8-4.9-2-10.4-2c-13.6,0-22.9,9.5-22.9,23.4
			c0,14.6,9.3,22.6,21.7,22.6c5.3,0,9.5-1.1,11.6-2.1l-1.2-4.6c-2.3,1.1-5.8,1.9-9.2,1.9c-10.7,0-16.8-7-16.8-17.9
			C212,80.5,218.9,73.8,229.1,73.8z"/>
		<path class="st0" d="M265,69.7h-6.8l-14.9,44.6h5.9l4.6-14h15.5l4.7,14h6L265,69.7z M254.9,95.8l4.3-12.9c0.8-2.7,1.6-5.4,2.2-8.1
			h0.1c0.7,2.6,1.3,5.2,2.3,8.1l4.3,12.8H254.9z"/>
	</g>
</g>
</svg>
