<?xml version="1.0" encoding="utf-8"?>
<!-- Generator: Adobe Illustrator 25.2.3, SVG Export Plug-In . SVG Version: 6.00 Build 0)  -->
<svg version="1.1" id="Layer_1" xmlns="http://www.w3.org/2000/svg" xmlns:xlink="http://www.w3.org/1999/xlink" x="0px" y="0px"
	 viewBox="0 0 280 150" style="enable-background:new 0 0 280 150;" xml:space="preserve">
<style type="text/css">
	.st0{fill:#FFFFFF;}
</style>
<g>
	<g>
		<path class="st0" d="M64.9,60.1c0,4.4-0.1,8.6,0,12.7c0.1,2.7,2.1,4.8,4.9,5.2c1.4,0.2,2.8,0.2,4.3,0.3c0,0.8,0,1.6,0,2.5
			c-8.1,0-16.2,0-24.3,0c0-0.8,0-1.6,0-2.5c0.9-0.1,1.8-0.1,2.7-0.3c2.1-0.4,3-1.3,3.3-3.5c0.1-0.9,0.2-1.9,0.2-2.8
			c0-9,0-18.1,0-27.1c0-0.9-0.1-1.9-0.2-2.8c-0.3-2-1.1-2.9-3.1-3.3c-0.9-0.2-1.8-0.2-2.8-0.3c0-1.1,0-2.1,0-3.3
			c0.3,0,0.6-0.1,0.9-0.1c9.7,0,19.3,0,29,0.1c4,0,8.1,0.3,11.9,1.9c3.4,1.5,6.3,3.4,7.6,7.2c1.2,3.5,0,7-3.1,9.6
			c-3.2,2.7-7.1,3.9-11.1,4.8c-0.3,0.1-0.5,0.1-1,0.2c15.6,18.6,31.2,37.1,46.8,55.8c-0.9,0.2-1.7,0.4-2.4,0.5
			c-0.3,0-0.6-0.2-0.9-0.4c-10.7-11.4-21.3-22.9-32.1-34.1c-6.7-6.9-13.8-13.3-20.7-19.9c-0.2-0.2-0.6-0.5-0.9-0.5
			C70.9,60.1,68,60.1,64.9,60.1z M65,55.9c2.1,0,4.1,0.1,6.2,0c1.8-0.1,3.6-0.2,5.3-0.5c2.8-0.4,5.6-1.1,8.2-2.6
			c4-2.3,4.3-7.3,0.5-10c-1-0.7-2.1-1.3-3.2-1.8c-5.5-2.1-11.2-1.5-16.9-0.9C65,45.5,65,50.6,65,55.9z"/>
		<path class="st0" d="M106.2,78.6l-1.2,0v-1.1l1.1-0.1c0.4-0.1,0.9-0.1,1.4-0.1c1.3-0.2,2.1-0.9,2.4-2.2c0.2-0.8,0.2-1.5,0.2-2.3
			c0-8.6,0-17.1,0-25.7c0-0.5,0-0.9-0.1-1.4c-0.3-2.4-1-3.1-3.5-3.3c-1.4-0.1-1.4-0.1-1.4-1.2c3.5,0,6.9,0,10.3,0
			c2.4,0,4.8-0.1,7.2,0c1.4,0.1,2.7,0.3,4.1,0.6c0.3,0.1,0.5,0.4,0.7,0.7c4.8,8.2,9.7,16.4,14.5,24.6c0.2,0.3,0.3,0.5,0.6,0.9
			c2-3.9,4-7.6,6-11.3c2.5-4.8,5-9.5,7.6-14.3c0.2-0.3,0.5-0.6,0.8-0.6c1.7-0.1,3.5,0,5.3,0c0,0.8,0,1.4,0,2.1
			c-0.1,0-2.2,0.2-2.2,0.2l-0.7,1.6c0,0,0,0.1-0.1,0.1c-5.5,10.1-11.1,20.2-16.7,30.3l-0.9,1.2l-3.1,0.1l-0.6-1.1
			c-6.3-10.3-12.5-20.6-18.7-30.9c-0.3-0.5-0.5-1-0.9-1.4c-0.3-0.3-0.8-0.4-1.2-0.4c-0.3,0-0.7,0.4-0.8,0.6
			c-0.2,0.6-0.4,1.3-0.4,1.9c0,9.2,0,18.3,0,27.5c0,2.7,0.9,3.6,3.6,3.8l1.1,0.1v1.1C120.7,78.6,110.8,78.7,106.2,78.6z"/>
		<path class="st0" d="M161,78.3l-0.7,0l-3.1-0.1l0-2.1l0.8-0.9c1.7-2.7,3.2-5.6,4.6-8.4c4.1-8.1,8-16.1,12.1-24.2
			c0.2-0.3,0.7-0.7,1.1-0.7c2-0.3,3.2,0.2,4.1,2.3c4.5,9.7,9.3,19.2,14,28.8c0.8,1.6,1.5,3.1,2.3,4.7c0.2,0.3,0.7,0.6,1,0.6
			c1.5,0.1,3.1,0,4.7,0c0,0.8,0,1.5,0,2.2c-4.4,0-8.8,0-13.2,0c-0.5-4.5-3.3-8.2-4.6-12.4c-0.7-2.2-1.9-2.8-4.1-2.7
			c-4.1,0.2-8.1,0.1-12.2,0c-0.9,0-1.4,0.3-1.7,1.1c-1.6,3.7-3.3,7.4-5,11L161,78.3z M182.1,63c-2.4-4.7-4.7-9.3-7.1-14
			c-2.3,4.8-4.5,9.3-6.7,14C172.9,63,177.4,63,182.1,63z"/>
	</g>
	<g>
		<path class="st0" d="M120.9,84.8c1.3,0,2.5,0.1,3.6,0.9c1.2,0.9,1.5,2.4,1.5,3.4c0,1.8-0.8,3.1-1.8,3.7c-0.9,0.6-2,0.7-3.3,0.7
			h-4.8v-8.7H120.9z M117.6,86v6.3h3.1c1,0,2.1-0.1,2.9-0.7c0.8-0.7,0.9-1.6,0.9-2.4c0-0.6-0.1-1.6-0.8-2.3c-0.8-0.7-2.1-0.8-3-0.8
			H117.6z"/>
		<path class="st0" d="M136.5,86.4v1.1h-5.8v1.8h3.5v1.1h-3.5v2.1h5.9v1.1h-7.2v-7.1H136.5z"/>
		<path class="st0" d="M146.2,86.4l-3.9,7.1h-1l-4.1-7.1h1.4l3.2,5.7l3.1-5.7H146.2z"/>
		<path class="st0" d="M155.6,86.4v1.1h-5.8v1.8h3.5v1.1h-3.5v2.1h5.9v1.1h-7.2v-7.1H155.6z"/>
		<path class="st0" d="M159.4,86.4v6.1h5.5v1.1H158v-7.1H159.4z"/>
		<path class="st0" d="M167.1,88.1c0-0.4,0-1,0.4-1.3c0.3-0.3,1-0.4,1.3-0.4h5.2c0.5,0,1.1,0,1.4,0.4c0.3,0.3,0.4,0.9,0.4,1.3v3.7
			c0,0.4,0,1-0.4,1.3c-0.3,0.3-0.9,0.4-1.4,0.4h-5.1c-0.6,0-1.1-0.1-1.4-0.3c-0.3-0.3-0.4-0.9-0.4-1.3V88.1z M174.3,92.4v-5h-5.9v5
			H174.3z"/>
		<path class="st0" d="M185,86.4c0.5,0,0.9,0,1.2,0.4c0.3,0.3,0.3,0.6,0.3,1v1.6c0,0.3,0,0.7-0.3,1c-0.3,0.3-0.8,0.4-1.2,0.4h-4.7
			v2.8H179v-7.1H185z M180.3,87.4v2.2h4.1c0.1,0,0.4,0,0.6-0.2c0.2-0.2,0.2-0.4,0.2-0.5v-0.9c0-0.3-0.1-0.4-0.2-0.5
			c-0.2-0.2-0.4-0.2-0.6-0.2H180.3z"/>
		<path class="st0" d="M194,91l3.3-4.6h1.2v7.1h-1.2v-4.8c0-0.3,0-0.7,0.1-1c-0.1,0.2-0.2,0.7-0.5,1l-2.7,3.7h-0.4l-2.8-3.6
			c-0.2-0.3-0.4-0.6-0.5-1l0,1v4.8h-1.1v-7.1h1.1L194,91z"/>
		<path class="st0" d="M209.2,86.4v1.1h-5.8v1.8h3.5v1.1h-3.5v2.1h5.9v1.1H202v-7.1H209.2z"/>
		<path class="st0" d="M217.9,91c0.3,0.3,0.6,0.5,0.9,1c-0.1-0.5-0.1-1-0.1-1.3v-4.3h1.2v7.1H219l-5.3-4.7c-0.2-0.1-0.5-0.5-0.8-1
			c0.1,0.6,0.1,0.9,0.1,1.3v4.4h-1.2v-7.1h1L217.9,91z"/>
		<path class="st0" d="M226.8,93.5h-1.3v-6.1h-3.4v-1.1h8.1v1.1h-3.4V93.5z"/>
	</g>
</g>
</svg>
