<?xml version="1.0" encoding="utf-8"?>
<!-- Generator: Adobe Illustrator 25.2.3, SVG Export Plug-In . SVG Version: 6.00 Build 0)  -->
<svg version="1.1" id="Layer_1" xmlns="http://www.w3.org/2000/svg" xmlns:xlink="http://www.w3.org/1999/xlink" x="0px" y="0px"
	 viewBox="0 0 280 150" style="enable-background:new 0 0 280 150;" xml:space="preserve">
<style type="text/css">
	.st0{fill:url(#SVGID_1_);}
	.st1{fill:url(#SVGID_2_);}
	.st2{fill:#FFFFFF;}
</style>
<g>
	<linearGradient id="SVGID_1_" gradientUnits="userSpaceOnUse" x1="66.0921" y1="112.866" x2="66.0921" y2="37.9339">
		<stop  offset="0" style="stop-color:#E6E7E7"/>
		<stop  offset="3.654046e-02" style="stop-color:#EEEFEF"/>
		<stop  offset="0.1055" style="stop-color:#FAFAFA"/>
		<stop  offset="0.1918" style="stop-color:#FFFFFF"/>
		<stop  offset="0.341" style="stop-color:#FAFAFA"/>
		<stop  offset="0.4548" style="stop-color:#EFEFEF"/>
		<stop  offset="0.5185" style="stop-color:#E6E7E7"/>
		<stop  offset="0.585" style="stop-color:#F1F1F1"/>
		<stop  offset="0.6802" style="stop-color:#FBFBFB"/>
		<stop  offset="0.8515" style="stop-color:#FFFFFF"/>
		<stop  offset="0.9147" style="stop-color:#F7F7F7"/>
		<stop  offset="0.9885" style="stop-color:#E9E9EA"/>
		<stop  offset="1" style="stop-color:#E6E7E7"/>
	</linearGradient>
	<polygon class="st0" points="59.4,37.9 58.7,112.9 73.5,102.1 73.3,48.3 	"/>
	<linearGradient id="SVGID_2_" gradientUnits="userSpaceOnUse" x1="41.1748" y1="75.5645" x2="102.554" y2="75.5645">
		<stop  offset="0" style="stop-color:#FFFFFF"/>
		<stop  offset="0.6101" style="stop-color:#FCFCFC"/>
		<stop  offset="0.8296" style="stop-color:#F3F3F3"/>
		<stop  offset="0.9858" style="stop-color:#E7E8E9"/>
		<stop  offset="1" style="stop-color:#E6E7E7"/>
	</linearGradient>
	<polygon class="st1" points="73.5,75.9 102.6,70.2 90,60.8 41.2,75.7 89.6,90.3 102.6,80.9 	"/>
	<polygon class="st2" points="59.4,37.9 102.6,70.2 102.6,53.4 71.3,30 	"/>
	<polygon class="st2" points="58.7,112.9 102.6,80.9 102.6,96.6 71.3,120 	"/>
	<g>
		<g>
			<path class="st2" d="M126.8,63.9c1.1,0.6,2,1.4,2.7,2.5c0.7,1,1,2.2,1,3.5c0,1.4-0.4,2.6-1.1,3.6c-0.7,1.1-1.7,1.9-2.9,2.4
				c1.7,0.5,3,1.3,4,2.6c1,1.2,1.5,2.8,1.5,4.6c0,1.6-0.4,3-1.1,4.3c-0.7,1.2-1.7,2.2-3,2.9c-1.3,0.7-2.7,1.1-4.3,1.1h-9.1
				c-0.4,0-0.8-0.1-1-0.3c-0.3-0.2-0.4-0.5-0.4-0.8V64.1c0-0.3,0.1-0.6,0.3-0.8c0.2-0.2,0.5-0.3,0.8-0.3h8.9
				C124.4,63,125.7,63.3,126.8,63.9z M126.9,73.6c1-0.9,1.5-2.2,1.5-3.7c0-1.5-0.5-2.6-1.4-3.4c-1-0.8-2.2-1.2-3.8-1.2h-7.8V75h7.8
				C124.6,75,125.9,74.5,126.9,73.6z M126.8,88.4c0.9-0.5,1.7-1.2,2.2-2.2c0.5-0.9,0.8-2,0.8-3.1c0-1.1-0.3-2.2-0.8-3.1
				c-0.5-0.9-1.3-1.6-2.2-2.1c-0.9-0.5-2-0.8-3.2-0.8h-8.4v12h8.4C124.8,89.2,125.9,89,126.8,88.4z"/>
			<path class="st2" d="M151.4,72.6c1.4,0.8,2.5,2,3.3,3.5c0.8,1.5,1.2,3.2,1.2,5c0,0.3-0.1,0.6-0.3,0.7c-0.2,0.2-0.4,0.3-0.8,0.3
				h-15.2c0.1,1.4,0.4,2.7,1.1,3.8c0.7,1.1,1.6,2,2.7,2.6c1.1,0.6,2.4,0.9,3.8,0.9c0.9,0,1.9-0.2,2.9-0.5c1-0.3,1.7-0.8,2.3-1.3
				c0.2-0.2,0.5-0.3,0.8-0.3c0.3,0,0.5,0.1,0.7,0.2c0.3,0.2,0.4,0.5,0.4,0.8c0,0.2-0.1,0.5-0.3,0.7c-0.8,0.7-1.8,1.3-3,1.7
				c-1.2,0.5-2.4,0.7-3.6,0.7c-1.9,0-3.6-0.4-5.1-1.3c-1.5-0.9-2.7-2.1-3.5-3.6c-0.8-1.5-1.3-3.3-1.3-5.2c0-2,0.4-3.7,1.2-5.2
				c0.8-1.5,1.9-2.7,3.3-3.6c1.4-0.9,3-1.3,4.8-1.3C148.4,71.4,150,71.8,151.4,72.6z M141.9,75.3c-1.3,1.3-2.1,2.9-2.3,5h14.1
				c-0.2-2.1-0.9-3.7-2.2-5c-1.3-1.3-2.9-1.9-4.9-1.9C144.8,73.4,143.2,74,141.9,75.3z"/>
			<path class="st2" d="M175.4,74.6c0.1,0.2,0.2,0.4,0.2,0.6c0,0.3-0.2,0.6-0.6,0.8c-0.2,0.1-0.4,0.1-0.5,0.1
				c-0.4,0-0.7-0.2-0.9-0.5c-1.2-1.6-3-2.4-5.2-2.4c-1.5,0-2.7,0.3-3.5,1c-0.9,0.6-1.3,1.4-1.3,2.4c0,1,0.4,1.7,1.3,2.3
				c0.8,0.6,2.2,1,4.2,1.3c2.6,0.4,4.4,1,5.5,2.1c1.1,1,1.7,2.2,1.7,3.6c0,1.1-0.4,2.1-1.1,2.9c-0.7,0.8-1.7,1.5-2.9,2
				c-1.2,0.5-2.5,0.7-3.9,0.7c-1.4,0-2.8-0.2-4.1-0.7c-1.3-0.5-2.4-1.3-3.3-2.3c-0.2-0.2-0.3-0.4-0.3-0.7c0-0.3,0.2-0.6,0.5-0.8
				c0.1-0.1,0.4-0.2,0.6-0.2c0.3,0,0.6,0.1,0.8,0.4c1.2,1.5,3.2,2.2,5.8,2.2c1.9,0,3.3-0.3,4.2-1c0.9-0.7,1.4-1.5,1.4-2.6
				c0-1.9-1.9-3.1-5.6-3.7c-2.3-0.3-4.1-1-5.3-1.9c-1.2-0.9-1.8-2.1-1.8-3.4c0-1.8,0.6-3.1,1.9-4.1c1.3-1,3-1.5,5.1-1.5
				C171.5,71.3,173.8,72.4,175.4,74.6z"/>
			<path class="st2" d="M182.3,81.3L182.3,81.3c0-1.9,0.5-3.6,1.4-5.2c0.9-1.5,2.1-2.7,3.6-3.6c1.5-0.9,3.2-1.3,5.1-1.3
				c1.9,0,3.6,0.4,5.2,1.3c1.5,0.9,2.8,2.1,3.6,3.6c0.9,1.5,1.3,3.3,1.3,5.2c0,1.9-0.4,3.6-1.3,5.2c-0.9,1.5-2.1,2.8-3.6,3.6
				c-1.5,0.9-3.3,1.3-5.2,1.3c-1.7,0-3.2-0.5-4.7-1.1C182.4,88.4,182.3,81.3,182.3,81.3z M196.5,88.5c1.2-0.7,2.2-1.7,2.9-2.9
				c0.7-1.2,1.1-2.6,1.1-4.1s-0.4-2.9-1.1-4.1c-0.7-1.2-1.7-2.2-2.9-2.9c-1.2-0.7-2.6-1.1-4.1-1.1c-1.5,0-2.9,0.4-4.1,1.1
				c-1.2,0.7-2.2,1.7-2.9,2.9c-0.7,1.2-1,2.6-1,4.1s0.3,2.9,1,4.1c0.7,1.2,1.6,2.2,2.9,2.9c1.2,0.7,2.6,1.1,4.1,1.1
				C194,89.6,195.3,89.2,196.5,88.5z"/>
			<path class="st2" d="M212.2,64.4c0.3,0.3,0.5,0.7,0.5,1.2c0,0.5-0.2,0.9-0.5,1.2c-0.3,0.3-0.7,0.5-1.2,0.5
				c-0.5,0-0.9-0.2-1.2-0.5c-0.3-0.3-0.5-0.7-0.5-1.2c0-0.5,0.2-0.9,0.5-1.2c0.3-0.3,0.7-0.4,1.2-0.4
				C211.5,64,211.9,64.1,212.2,64.4z M210.3,71.8c0.2-0.2,0.5-0.3,0.8-0.3c0.3,0,0.6,0.1,0.8,0.3c0.2,0.2,0.3,0.5,0.3,0.8v17.7
				c0,0.3-0.1,0.6-0.3,0.8c-0.2,0.2-0.5,0.3-0.8,0.3c-0.3,0-0.6-0.1-0.8-0.3c-0.2-0.2-0.3-0.5-0.3-0.8V72.6
				C210,72.3,210.1,72,210.3,71.8z"/>
			<path class="st2" d="M234.4,72.4c1.4,0.7,2.5,1.8,3.3,3.2c0.8,1.4,1.2,3.1,1.2,5v9.8c0,0.3-0.1,0.6-0.3,0.8
				c-0.2,0.2-0.5,0.3-0.8,0.3c-0.3,0-0.6-0.1-0.8-0.3c-0.2-0.2-0.3-0.5-0.3-0.8v-9.8c0-2.3-0.6-4.1-1.9-5.3c-1.3-1.2-3-1.8-5.1-1.8
				c-1.3,0-2.5,0.2-3.5,0.7c-1.1,0.5-1.9,1.2-2.5,2.1c-0.6,0.9-0.9,1.9-0.9,2.9v11.1c0,0.3-0.1,0.6-0.3,0.8
				c-0.2,0.2-0.5,0.3-0.8,0.3c-0.3,0-0.6-0.1-0.8-0.3c-0.2-0.2-0.3-0.5-0.3-0.8V72.6c0-0.3,0.1-0.6,0.3-0.8c0.2-0.2,0.5-0.3,0.8-0.3
				c0.3,0,0.6,0.1,0.8,0.3c0.2,0.2,0.3,0.5,0.3,0.8v1.9c0.8-1,1.8-1.8,3-2.4c1.2-0.6,2.5-0.9,3.9-0.9
				C231.4,71.3,233,71.6,234.4,72.4z"/>
		</g>
		<g>
			<path class="st2" d="M183.1,98.8c-0.2,0-0.3-0.1-0.5-0.2c-0.1-0.1-0.2-0.3-0.2-0.5V82.3c0-0.2,0.1-0.3,0.2-0.5
				c0.1-0.1,0.3-0.2,0.5-0.2c0.2,0,0.3,0.1,0.5,0.2c0.1,0.1,0.2,0.3,0.2,0.5v15.2"/>
		</g>
		<g>
			<path class="st2" d="M193.2,112.4c0.1,0.1,0.2,0.3,0.2,0.4c0,0.2-0.1,0.3-0.2,0.4c-0.1,0.1-0.3,0.2-0.5,0.2h-9.6
				c-0.2,0-0.3-0.1-0.5-0.2c-0.1-0.1-0.2-0.3-0.2-0.5V97c0-0.2,0.1-0.3,0.2-0.5c0.1-0.1,0.3-0.2,0.5-0.2c0.2,0,0.3,0.1,0.5,0.2
				c0.1,0.1,0.2,0.3,0.2,0.5v15.2h9C192.9,112.2,193.1,112.3,193.2,112.4z"/>
			<path class="st2" d="M209.7,112.8c0,0.2-0.1,0.3-0.2,0.5c-0.1,0.1-0.3,0.2-0.5,0.2c-0.3,0-0.5-0.1-0.6-0.4l-1.6-3.9h-8.9
				l-1.6,3.9c-0.1,0.3-0.3,0.4-0.6,0.4c-0.2,0-0.4-0.1-0.5-0.2c-0.1-0.1-0.2-0.3-0.2-0.5c0-0.1,0-0.2,0.1-0.3l6.6-15.7
				c0.1-0.3,0.3-0.5,0.6-0.5c0.3,0,0.5,0.2,0.6,0.5l6.6,15.7C209.7,112.6,209.7,112.7,209.7,112.8z M206.3,108l-4-9.4l-3.9,9.4
				H206.3z"/>
			<path class="st2" d="M221.1,96.9c0.7,0.4,1.2,0.8,1.6,1.5c0.4,0.6,0.6,1.3,0.6,2.1c0,0.8-0.2,1.5-0.7,2.2c-0.4,0.6-1,1.1-1.7,1.5
				c1,0.3,1.8,0.8,2.4,1.5c0.6,0.8,0.9,1.7,0.9,2.8c0,1-0.2,1.8-0.6,2.6c-0.4,0.8-1,1.3-1.8,1.8c-0.8,0.4-1.6,0.6-2.6,0.6h-5.5
				c-0.3,0-0.5-0.1-0.6-0.2c-0.2-0.1-0.2-0.3-0.2-0.5V97c0-0.2,0.1-0.4,0.2-0.5c0.1-0.1,0.3-0.2,0.5-0.2h5.4
				C219.7,96.3,220.4,96.5,221.1,96.9z M221.2,102.7c0.6-0.6,0.9-1.3,0.9-2.2c0-0.9-0.3-1.6-0.9-2.1c-0.6-0.5-1.3-0.7-2.3-0.7h-4.7
				v5.9h4.7C219.8,103.6,220.6,103.3,221.2,102.7z M221.1,111.6c0.6-0.3,1-0.7,1.3-1.3c0.3-0.6,0.5-1.2,0.5-1.9
				c0-0.7-0.2-1.3-0.5-1.8c-0.3-0.5-0.8-1-1.3-1.3c-0.6-0.3-1.2-0.5-1.9-0.5h-5v7.2h5C219.9,112.1,220.6,112,221.1,111.6z"/>
			<path class="st2" d="M236.2,96.9c0.9,0.5,1.5,1.1,2,1.8c0.1,0.1,0.1,0.2,0.1,0.3c0,0.1,0,0.2-0.1,0.3c-0.1,0.1-0.2,0.2-0.3,0.2
				c-0.1,0-0.1,0-0.3,0c-0.3,0-0.5-0.1-0.6-0.3c-0.9-1.3-2.1-1.9-3.7-1.9c-1.2,0-2.2,0.3-2.8,0.8c-0.7,0.5-1,1.3-1,2.3
				c0,0.8,0.3,1.5,1,2.1c0.7,0.6,1.7,0.9,3.1,1.2c1.8,0.3,3.2,0.9,4,1.7c0.8,0.8,1.3,1.9,1.3,3.2c0,1-0.2,1.9-0.7,2.6
				c-0.4,0.7-1.1,1.3-1.9,1.7c-0.8,0.4-1.7,0.6-2.8,0.6c-1.4,0-2.6-0.3-3.6-0.8c-1-0.6-1.8-1.3-2.3-2.3c0-0.1-0.1-0.2-0.1-0.3
				c0-0.2,0.1-0.3,0.2-0.4c0.1-0.1,0.3-0.2,0.5-0.2c0.3,0,0.5,0.1,0.6,0.4c0.4,0.7,1,1.3,1.8,1.7c0.8,0.4,1.7,0.6,2.8,0.6
				c1.3,0,2.2-0.3,3-0.9c0.7-0.6,1.1-1.5,1.1-2.7c0-1-0.4-1.8-1.1-2.5c-0.7-0.6-1.8-1.1-3.1-1.3c-1.6-0.2-2.9-0.8-3.8-1.6
				c-0.9-0.8-1.4-1.8-1.4-3c0-0.8,0.2-1.6,0.6-2.2c0.4-0.6,1-1.2,1.8-1.5c0.8-0.4,1.7-0.5,2.7-0.5C234.3,96.1,235.3,96.4,236.2,96.9
				z"/>
		</g>
	</g>
</g>
</svg>
