<?xml version="1.0" encoding="utf-8"?>
<!-- Generator: Adobe Illustrator 25.2.3, SVG Export Plug-In . SVG Version: 6.00 Build 0)  -->
<svg version="1.1" id="Layer_1" xmlns="http://www.w3.org/2000/svg" xmlns:xlink="http://www.w3.org/1999/xlink" x="0px" y="0px"
	 viewBox="0 0 280 150" style="enable-background:new 0 0 280 150;" xml:space="preserve">
<style type="text/css">
	.st0{fill:#FFFFFF;}
</style>
<g>
	<g>
		<path class="st0" d="M63.3,85.2c-1.6-1.5-3.4-3.1-5-4.5c6.1-11.6,2.2-27.5-10.5-35.1c-12.3-7.3-28.1-3.9-36.4,8
			c-8.1,11.7-5.7,27.8,5.5,36.6c11.3,9,26.1,7,34.6-0.6c-4-5-8-10-11-15.7c8.2,5.4,15.3,12.1,22.1,19.3c5.3-4.5,10.8-8.8,17.2-11.8
			c-3.6,6.1-8.2,11.2-13.3,16.1c4.6,5.5,9.1,11.1,12.5,17.4c-6.1-3.9-11.5-8.7-16.6-13.7c-5.3,4.6-10.9,8.8-17.2,11.9
			c3.6-6,8.1-11.1,13.1-16c-0.4-0.4-0.8-0.8-1.1-1.2c-0.4-0.4-0.7-0.8-1.1-1.2c-8,6.6-17.2,9.2-27.4,7.7c-9-1.3-16.3-5.8-21.8-13
			c-10.9-14.4-8.8-34.7,4.8-46.3C25,31.7,45.2,32.2,58.1,45.1C71.4,58.5,69,77.4,63.3,85.2z"/>
	</g>
	<g>
		<path class="st0" d="M120.1,91c-1.4,1.1-2.9,1.9-4.5,2.5c-1.6,0.6-3.4,0.9-5.2,0.9c-2.5,0-4.7-0.5-6.8-1.5c-2-1-3.8-2.4-5.3-4.1
			c-1.5-1.7-2.6-3.6-3.4-5.8c-0.8-2.2-1.2-4.4-1.2-6.6c0-2.4,0.4-4.6,1.3-6.8c0.8-2.2,2-4.1,3.5-5.8c1.5-1.7,3.3-3,5.3-4
			c2-1,4.2-1.5,6.6-1.5c2.5,0,4.7,0.5,6.8,1.6c2,1,3.8,2.4,5.2,4.1c1.5,1.7,2.6,3.6,3.4,5.8s1.2,4.3,1.2,6.6c0,2.4-0.4,4.8-1.3,7
			c-0.9,2.2-2.1,4.1-3.7,5.8l4.2,5h-3.4L120.1,91z M110.4,91.2c1.5,0,2.9-0.2,4.2-0.7c1.3-0.5,2.4-1.1,3.5-2l-4.5-5.3h3.5l2.8,3.4
			c1.2-1.4,2.1-3,2.7-4.8c0.6-1.8,1-3.6,1-5.5c0-1.9-0.3-3.8-1-5.6c-0.6-1.8-1.6-3.4-2.7-4.7c-1.2-1.4-2.5-2.5-4.2-3.3
			c-1.6-0.8-3.4-1.2-5.3-1.2c-2,0-3.8,0.4-5.5,1.3c-1.6,0.9-3,2-4.1,3.4c-1.1,1.4-2,3-2.6,4.8c-0.6,1.8-0.9,3.6-0.9,5.4
			c0,1.9,0.3,3.8,1,5.6c0.6,1.8,1.5,3.4,2.7,4.8c1.2,1.4,2.5,2.5,4.2,3.3C106.7,90.8,108.4,91.2,110.4,91.2z"/>
		<path class="st0" d="M146,94.6c-2.8,0-4.9-0.9-6.3-2.8c-1.4-1.9-2.1-4.7-2.1-8.4V68.1h3.4v14.7c0,5.9,2,8.9,6,8.9c1,0,2-0.2,3-0.5
			c1-0.3,1.9-0.8,2.7-1.5c0.8-0.6,1.5-1.4,2.2-2.2c0.6-0.9,1.2-1.8,1.6-3V68.1h3.4v21.6c0,0.9,0.4,1.4,1.2,1.4v3
			c-0.4,0.1-0.7,0.1-1,0.1s-0.4,0-0.5,0c-0.8,0-1.5-0.3-2-0.8s-0.8-1.2-0.8-2.2v-3c-1.1,2-2.7,3.6-4.6,4.7S148.2,94.6,146,94.6z"/>
		<path class="st0" d="M172.6,62.6v-5h3.4v5H172.6z M172.6,94.1V68.1h3.4v26.1H172.6z"/>
		<path class="st0" d="M186.7,81c0-1.8,0.3-3.6,1-5.2c0.6-1.6,1.5-3.1,2.7-4.3c1.1-1.2,2.5-2.2,4.1-2.9c1.6-0.7,3.4-1,5.3-1
			c2.5,0,4.6,0.6,6.5,1.7c1.8,1.1,3.2,2.6,4.1,4.5l-3.3,1c-0.7-1.3-1.8-2.4-3.1-3.1s-2.8-1.1-4.4-1.1c-1.3,0-2.6,0.3-3.7,0.8
			c-1.2,0.5-2.2,1.3-3,2.2c-0.8,0.9-1.5,2-2,3.3c-0.5,1.3-0.7,2.6-0.7,4.1c0,1.5,0.2,2.9,0.8,4.2s1.2,2.4,2,3.4c0.9,1,1.9,1.7,3,2.2
			c1.2,0.5,2.4,0.8,3.7,0.8c0.8,0,1.7-0.1,2.5-0.4c0.8-0.2,1.6-0.6,2.3-1c0.7-0.4,1.3-0.9,1.8-1.4s0.8-1.1,1-1.7l3.3,1
			c-0.4,0.9-0.9,1.8-1.6,2.6s-1.5,1.5-2.5,2c-1,0.6-2,1-3.2,1.3s-2.3,0.5-3.6,0.5c-1.9,0-3.6-0.4-5.2-1.1c-1.6-0.7-3-1.7-4.1-3
			c-1.2-1.2-2.1-2.7-2.7-4.3C187,84.6,186.7,82.9,186.7,81z"/>
		<path class="st0" d="M239.5,94.1l-9.6-13.4l-5.6,5.2v8.2h-3.4V57.6h3.4v24.8L239,68.1h3.9l-10.7,10.6l11,15.4H239.5z"/>
		<path class="st0" d="M252.9,58.6l11.6,15.5l11.7-15.5h3.8l-13.6,18l13.2,17.5h-3.9l-11.2-15l-11.2,15h-3.9l13.2-17.5l-13.7-18
			H252.9z"/>
	</g>
</g>
</svg>
