<?xml version="1.0" encoding="utf-8"?>
<!-- Generator: Adobe Illustrator 25.2.3, SVG Export Plug-In . SVG Version: 6.00 Build 0)  -->
<svg version="1.1" id="Layer_1" xmlns="http://www.w3.org/2000/svg" xmlns:xlink="http://www.w3.org/1999/xlink" x="0px" y="0px"
	 viewBox="0 0 280 150" style="enable-background:new 0 0 280 150;" xml:space="preserve">
<style type="text/css">
	.st0{fill:#FFFFFF;}
</style>
<g>
	<g>
		<path class="st0" d="M37,65c-3.2-3.7-7.6-6.3-12.4-7.1l-2.7-0.5V83h-1.8V57.4l-2.7,0.5C12.6,58.7,8.2,61.2,5,65
			c-3.2,3.8-5,8.6-5,13.6v8.9h4.6v-8.9c0-7,4.5-13.3,11-15.6v24.5h10.9V63.1c6.5,2.3,11,8.6,11,15.6v8.9H42v-8.9
			C42,73.6,40.2,68.8,37,65z"/>
		<path class="st0" d="M34.8,50.4c-0.4-7.3-6.4-13.1-13.7-13.1S7.7,43.1,7.3,50.4H7.2v0.8v0.7v3.1h27.6v-3v-0.7L34.8,50.4L34.8,50.4
			z M21,41.9c4.9,0,8.8,3.8,9.2,8.5H11.8C12.2,45.6,16.2,41.9,21,41.9z"/>
	</g>
	<g>
		<path class="st0" d="M50.9,87.5V57.3h10.7c2.4,0,4.6,0.4,6.4,1.2c1.8,0.8,3.3,1.9,4.6,3.2c1.2,1.4,2.2,3,2.8,4.8
			c0.6,1.8,0.9,3.8,0.9,5.8c0,2.3-0.4,4.4-1.1,6.2c-0.7,1.9-1.7,3.4-3,4.8c-1.3,1.3-2.8,2.4-4.6,3.1s-3.9,1.1-6.1,1.1
			C61.6,87.5,50.9,87.5,50.9,87.5z M71.5,72.4c0-1.6-0.2-3-0.7-4.4c-0.5-1.3-1.1-2.5-1.9-3.4s-1.9-1.7-3.1-2.2
			c-1.2-0.5-2.6-0.8-4.2-0.8h-6v21.8h6c1.6,0,3-0.3,4.2-0.8c1.2-0.5,2.3-1.3,3.1-2.3c0.8-1,1.5-2.1,1.9-3.5
			C71.3,75.4,71.5,73.9,71.5,72.4z"/>
		<path class="st0" d="M111,87.5V65.8l-9,16.5h-2.6l-9-16.5v21.7h-4.8V57.3h5.1l10,18.5l10-18.5h5.1v30.2L111,87.5L111,87.5z"/>
		<path class="st0" d="M149,61.5h-10v26h-4.8v-26h-10.1v-4.2H149V61.5z"/>
		<path class="st0" d="M154,72.2c0-1.8,0.3-3.6,1-5.4c0.7-1.8,1.6-3.4,2.9-4.9c1.3-1.4,2.8-2.6,4.6-3.5c1.8-0.9,3.9-1.3,6.2-1.3
			c2.7,0,5.1,0.6,7.1,1.8c2,1.2,3.4,2.8,4.4,4.8l-3.7,2.5c-0.4-0.9-0.9-1.7-1.5-2.3c-0.6-0.6-1.2-1.1-2-1.5
			c-0.7-0.4-1.4-0.6-2.2-0.8c-0.8-0.2-1.5-0.3-2.2-0.3c-1.6,0-3,0.3-4.2,1c-1.2,0.6-2.2,1.5-3,2.5c-0.8,1.1-1.4,2.2-1.8,3.5
			s-0.6,2.6-0.6,3.9c0,1.5,0.2,2.9,0.7,4.2c0.5,1.3,1.1,2.5,2,3.5c0.9,1,1.9,1.8,3.1,2.4c1.2,0.6,2.5,0.9,3.9,0.9
			c0.7,0,1.5-0.1,2.3-0.3c0.8-0.2,1.5-0.5,2.3-0.9c0.7-0.4,1.4-0.9,2-1.6c0.6-0.6,1.1-1.4,1.5-2.3l3.9,2.3c-0.5,1.1-1.2,2.1-2,3
			c-0.9,0.9-1.9,1.6-3,2.2c-1.1,0.6-2.3,1.1-3.5,1.4c-1.2,0.3-2.4,0.5-3.6,0.5c-2.1,0-4.1-0.5-5.8-1.4c-1.7-0.9-3.3-2.1-4.6-3.6
			c-1.3-1.5-2.3-3.1-3-5C154.4,76,154,74.1,154,72.2z"/>
		<path class="st0" d="M197.7,57.3h4.2l11.9,30.2h-5l-3.2-8.2h-11.7l-3.1,8.2h-5.1L197.7,57.3z M204.7,75.8l-4.9-13l-5,13H204.7z"/>
		<path class="st0" d="M228.2,88.4c0.5,0,0.8,0,0.8,0.1l0.2,0.1c0,0.1-0.1,0.1-0.2,0.2c-0.2,0.1-0.5,0.2-0.8,0.2
			c0,0.1,0,0.1-0.1,0.1h-0.3c-0.2,0-0.3,0-0.3,0.1c-0.1,0-0.2,0-0.4,0c-0.1,0-0.3,0.1-0.5,0.1h-0.2v0.1v0.2c0.1,0.4,0.1,0.8,0.1,1.1
			c0,0.3,0,0.6,0,0.8v0.8v1.9c0,0.7,0,1.5,0,2.2c0,0.8-0.1,1.6-0.1,2.4c-0.1,1.4-0.3,2.7-0.5,4.2c-0.2,1.4-0.5,2.9-0.9,4.3
			c-0.3,0.7-0.6,1.4-1,2.2s-0.8,1.4-1.4,2c-0.3,0.3-0.7,0.5-1.1,0.7c-0.4,0.2-0.8,0.3-1.2,0.4c-1,0.2-1.8,0-2.6-0.5
			c-0.7-0.5-1.2-1.2-1.5-1.9c-0.3-0.8-0.6-1.5-0.7-2.3c-0.1-0.5-0.2-1-0.2-1.5s0-1,0-1.6v-1.4c0.1-1.4,0.4-2.9,0.7-4.2
			c0.4-1.4,0.9-2.6,1.5-3.7c0.6-1.2,1.3-2.2,2.1-3c0.8-0.8,1.6-1.5,2.4-2c0.6-0.4,1.1-0.7,1.6-1c0.5-0.2,1-0.4,1.4-0.5v-0.6
			c-0.1-0.3-0.1-0.5-0.1-0.9c0-0.3,0-0.7,0-1c-0.1-0.3-0.1-0.5-0.1-0.7c0-0.2-0.1-0.4-0.1-0.6l-0.2-0.8l-0.1-0.5l-0.2-0.6v0.1
			l-0.1-0.4l-0.1-0.2l-0.2,0.4l-0.2,0.2c-0.2,0.4-0.4,0.7-0.6,1.1c-0.2,0.3-0.5,0.7-0.7,1c-0.3,0.3-0.6,0.6-1,1s-0.7,0.6-1.2,0.9
			c-0.4,0.2-0.9,0.3-1.6,0.3c-0.7-0.1-1.2-0.5-1.5-1c-0.2-0.4-0.2-0.8-0.2-1.2c0-0.3,0-0.6,0.1-0.8c0.1-0.3,0.1-0.5,0.2-0.7
			c0.4-0.8,0.8-1.5,1.4-2.1c0.5-0.5,1.1-0.9,1.6-1.1s1-0.3,1.3-0.4c0.3-0.1,0.4-0.1,0.5,0c0.1,0,0.2,0.1,0.3,0.1
			c0.1,0.1,0.1,0.1,0.2,0.2c-0.1,0.1-0.1,0.1-0.2,0.2c-0.2,0.2-0.4,0.3-0.6,0.3c-0.3,0.1-0.6,0.2-1.1,0.4c-0.5,0.2-0.9,0.5-1.4,1
			c-0.5,0.6-0.8,1.1-1.1,1.7c-0.1,0.4-0.2,0.7-0.2,1.1c-0.1,0.4,0,0.7,0.2,1c0.2,0.3,0.4,0.4,0.7,0.4s0.7-0.1,1-0.3
			c0.7-0.3,1.2-0.8,1.7-1.5c0.3-0.3,0.6-0.6,0.8-1c0.2-0.3,0.5-0.7,0.7-1l0.1-0.2l0.2-0.3v0.1l0.2-0.2l0.2-0.5
			c0.1-0.2,0.3-0.4,0.5-0.5c0.3,0,0.4,0.1,0.5,0.2c0.1,0,0.1,0.1,0.2,0.2l0.2,0.3l0.1,0.3c0.1,0.1,0.1,0.2,0.1,0.2
			c0,0.1,0,0.1,0.1,0.2v0.2c0,0.1,0,0.1,0,0.1s0,0.1,0,0.1s0,0.1,0.1,0.2l0.2,1.1l0.1,0.5l0.3,1.7l0.1,0.6c0.1,0.4,0.1,0.7,0.1,0.9
			s0,0.5,0.1,0.8h0.1l0.8-0.1c0.1,0,0.2,0,0.3,0c0.1,0,0.2,0,0.3,0h0.4V88.4z M225.3,98.8c0.1-0.8,0.2-1.6,0.2-2.4s0-1.5,0-2.2v-2.6
			v-0.5c0-0.2,0-0.3,0-0.5c0-0.2,0-0.5-0.1-0.7v-0.2v-0.1c-0.4,0.2-0.8,0.3-1.3,0.5c-0.5,0.2-0.9,0.5-1.4,0.7
			c-0.8,0.6-1.5,1.3-2.3,2.1s-1.4,1.8-2,2.9c-0.5,1.1-1,2.3-1.3,3.5s-0.6,2.7-0.6,4.2c-0.1,0.3-0.1,0.6-0.1,1.2
			c0,1.1,0.1,2.1,0.3,3.1c0.2,0.7,0.5,1.3,0.7,2c0.3,0.6,0.7,1.2,1.2,1.6c0.3,0.2,0.5,0.3,0.8,0.4c0.3,0.1,0.6,0.1,1,0
			c0.6-0.1,1.2-0.4,1.6-0.9c0.5-0.5,0.8-1,1.2-1.7c0.3-0.6,0.6-1.3,0.8-2c0.4-1.4,0.7-2.8,0.9-4.2C225,101.4,225.1,100.1,225.3,98.8
			z"/>
		<path class="st0" d="M239.5,82.1c-0.1,0.1-0.1,0.1-0.1,0.2c0,0.1-0.1,0.2-0.2,0.3c-0.1,0-0.3,0.2-0.5,0.5l-0.5,0.3
			c-0.2,0.1-0.3,0.2-0.5,0.4c-0.2,0.2-0.3,0.3-0.5,0.4c-0.5,0.4-1.2,0.9-2.2,1.5c-0.5,0.3-1,0.5-1.5,0.7c-0.5,0.2-1.1,0.3-1.7,0.4
			c-0.4,0-0.7,0-0.9-0.1c-0.1,0-0.2,0-0.2,0c-0.1,0-0.2-0.1-0.3-0.1l-0.5-0.3c-0.5-0.5-0.7-1.1-0.7-1.9c0-0.4,0-0.7,0-1
			s0.1-0.6,0.2-0.8c0.2-0.7,0.5-1.2,0.9-1.7c0.2-0.3,0.5-0.5,0.7-0.7c0.3-0.2,0.6-0.4,1-0.4h-0.1h0.6h0.2l0.3,0.2
			c0.3,0.2,0.4,0.4,0.4,0.8l-0.3,0.6c-0.2,0.3-0.4,0.5-0.6,0.6c-0.2,0.2-0.5,0.3-0.7,0.4c-0.3,0.1-0.5,0.2-0.8,0.2
			c-0.3,0.1-0.5,0.1-0.7,0.2h-0.2c-0.1,0.3-0.2,0.5-0.2,0.8c-0.1,0.3-0.1,0.5,0,0.8c0.1,0.2,0.1,0.4,0.2,0.7
			c0.1,0.2,0.2,0.4,0.3,0.6c0.2,0.2,0.4,0.3,0.7,0.4c0.2,0,0.5,0.1,0.7,0.1c0.5-0.1,1-0.2,1.5-0.3c0.5-0.2,0.9-0.4,1.4-0.6
			c0.3-0.2,0.7-0.4,1.1-0.7c0.4-0.2,0.8-0.5,1-0.7c0.3-0.2,0.6-0.4,0.8-0.6c0.2-0.2,0.4-0.4,0.6-0.5c0.1-0.1,0.2-0.2,0.4-0.3
			c0.1-0.1,0.1-0.1,0.2-0.1c0.1-0.1,0.2-0.2,0.4-0.2C239.3,82,239.4,82,239.5,82.1z M231.1,81.2c-0.1,0.1-0.2,0.3-0.3,0.5
			c0.2-0.1,0.5-0.2,0.8-0.3c0.5-0.2,0.8-0.5,1-0.7v-0.1h-0.4C231.8,80.5,231.4,80.7,231.1,81.2z M232.7,80.6L232.7,80.6L232.7,80.6
			L232.7,80.6z"/>
		<path class="st0" d="M255,82.1v0.2c0,0.1-0.1,0.2-0.3,0.4c-0.1,0.1-0.1,0.1-0.2,0.2c-0.1,0.1-0.2,0.1-0.3,0.1s-0.2,0.1-0.3,0.2
			c-0.3,0.2-0.6,0.4-1,0.6c-0.4,0.2-0.8,0.4-1.3,0.5c-0.3,0.1-0.5,0.2-0.8,0.2c-0.3,0-0.7,0-1.1-0.2c-0.5-0.2-0.8-0.5-0.8-0.8
			c-0.1-0.2-0.2-0.3-0.2-0.5c0-0.2-0.1-0.3-0.2-0.5c-0.1-0.1-0.1-0.2-0.1-0.3c0-0.1,0-0.2-0.1-0.3c-0.1-0.2-0.1-0.5-0.2-0.7
			c-0.1-0.3-0.2-0.5-0.4-0.6c-0.2-0.2-0.4-0.2-0.6-0.2c-0.2,0.1-0.3,0.1-0.5,0.2c-0.2,0.1-0.3,0.2-0.4,0.3c-0.6,0.5-1.1,1.1-1.5,1.9
			c-0.4,0.7-0.8,1.4-1.1,2.2c-0.1,0.3-0.2,0.5-0.4,0.8c-0.1,0.3-0.2,0.5-0.4,0.8l-0.4,0.8l-0.1,0.2c0,0.2-0.1,0.4-0.3,0.7
			c-0.3,0.4-0.5,0.6-0.7,0.6h-0.1c-0.1,0-0.2,0-0.2-0.1c-0.1,0-0.2-0.1-0.2-0.2l-0.1-0.1v0.1c-0.1-0.1-0.1-0.2-0.1-0.4
			c0-0.1,0-0.3-0.1-0.4l-0.1-0.5l-0.1-0.3v-0.3v-0.6v-1.2v-2.3c0-0.1,0-0.2,0-0.3c0-0.1,0-0.2,0-0.2c0-0.3,0-0.6,0.1-0.9
			c0.1-0.3,0.1-0.6,0.2-0.8l0.2-0.6l0.2-0.3l0.2-0.2c0.2-0.1,0.4-0.1,0.6,0c0.2,0.1,0.3,0.2,0.4,0.4c0.1,0.3,0.1,0.5,0.1,0.8
			c0,0.3,0,0.5-0.1,0.5c0,0.5-0.2,0.7-0.5,0.7l-0.1,1.1l-0.2,2.3v1.2l0.1,0.5l1-2c0.4-0.8,0.8-1.5,1.3-2.3c0.5-0.7,1-1.4,1.7-1.9
			c0.4-0.3,0.8-0.5,1.2-0.7c0.5-0.1,1,0.1,1.3,0.4c0.3,0.4,0.5,0.7,0.6,1c0.1,0.3,0.2,0.6,0.3,0.9l0.1,0.5c0.1,0.3,0.1,0.5,0.2,0.8
			c0.1,0.3,0.3,0.5,0.5,0.5c0.3,0.1,0.5,0.2,0.8,0.1c0.3,0,0.5-0.1,0.7-0.1c0.5-0.1,0.9-0.2,1.3-0.4c0.4-0.2,0.7-0.3,1-0.4l0.1-0.1
			c0.1-0.1,0.2-0.1,0.2-0.1c0,0,0.1-0.1,0.2-0.1c0.1-0.1,0.1-0.1,0.2-0.2c0.4-0.2,0.6-0.2,0.7-0.2h0.1v0.1H255z M241.5,79.4h-0.2
			c-0.1,0-0.1,0.1-0.1,0.2L241.5,79.4z"/>
		<path class="st0" d="M266.6,82.2c0.1-0.1,0.2-0.2,0.4-0.2c0.1,0,0.1,0,0.2,0.1c0.1,0,0.1,0,0.1,0.1c0,0.1-0.1,0.2-0.2,0.4
			c-0.1,0.2-0.3,0.3-0.5,0.5c-0.2,0.2-0.4,0.3-0.6,0.5c-0.3,0.2-0.5,0.4-0.8,0.6c-0.6,0.4-1.4,0.9-2.3,1.4c-0.9,0.5-1.8,1-2.9,1.4
			c-0.3,0.1-0.5,0.2-0.8,0.3s-0.6,0.2-0.9,0.2c-0.3,0.1-0.6,0.1-1,0c-0.4,0-0.7-0.2-1-0.4c-0.4-0.3-0.6-0.6-0.7-0.9
			c-0.1-0.4-0.2-0.7-0.2-1.1c-0.1-0.5,0.1-1.1,0.3-1.9c0.3-1.2,0.9-2.3,1.8-3h-0.1c0.5-0.5,1-0.8,1.5-1c0.3-0.1,0.6-0.1,1,0
			c0.5,0.2,0.8,0.3,0.8,0.5c0.1,0.3,0.1,0.5,0,0.7s-0.2,0.3-0.3,0.4c-0.1,0-0.2,0-0.4,0c-0.1,0-0.3-0.1-0.4-0.3
			c0-0.2-0.2-0.2-0.5-0.1c-0.2,0.1-0.4,0.2-0.6,0.3c-0.2,0.1-0.4,0.2-0.5,0.4h0.1c-0.4,0.4-0.7,0.8-1,1.2s-0.5,0.9-0.7,1.4
			c-0.2,0.5-0.2,1-0.2,1.5c0,0.7,0.2,1.1,0.5,1.1c0.3,0.3,0.8,0.4,1.3,0.3c0.3-0.1,0.5-0.1,0.8-0.1s0.5-0.1,0.8-0.2
			c1-0.4,2-0.8,2.8-1.2c0.8-0.5,1.6-0.9,2.1-1.3c0.3-0.2,0.5-0.4,0.7-0.6c0.2-0.2,0.5-0.3,0.7-0.4C266.3,82.4,266.5,82.3,266.6,82.2
			z"/>
		<path class="st0" d="M277.4,89.6c0.5-0.1,0.8-0.2,1.1-0.2c0.3,0,0.5,0,0.5,0c0.4-0.1,0.6-0.1,0.8,0l0.2,0.2l-0.2,0.2
			c-0.1,0.1-0.2,0.1-0.3,0.2s-0.2,0.1-0.5,0.1c-0.1,0-0.2,0-0.4,0.1c-0.1,0.1-0.3,0.1-0.5,0.1c-0.2,0-0.5,0.1-0.7,0.1v1.1
			c0,0.1,0,0.2,0,0.3s0,0.2,0,0.3V92v0.8V94c0,0.8,0,1.7,0,2.5s0,1.7-0.1,2.7c-0.2,1.4-0.3,2.8-0.5,4.2s-0.5,2.8-1,4.2
			c-0.3,0.7-0.6,1.4-1,2.1c-0.4,0.7-0.9,1.3-1.5,1.9c-0.3,0.3-0.6,0.5-1,0.7s-0.8,0.3-1.2,0.4c-0.4,0.1-0.8,0.1-1.3,0.1
			s-0.8-0.2-1.2-0.5c-0.7-0.6-1.3-1.2-1.6-1.9s-0.6-1.4-0.8-2.1c-0.1-0.6-0.2-1.2-0.3-1.7c-0.1-0.5-0.1-1.1-0.1-1.7v-1.1
			c0.1-1.4,0.4-2.8,0.8-4.2c0.5-1.4,1-2.5,1.6-3.6c0.6-1,1.4-2,2.2-2.7s1.7-1.4,2.5-1.9c0.6-0.4,1.1-0.6,1.6-0.8
			c0.5-0.2,1-0.4,1.4-0.5c0-0.7,0-1.4-0.1-2.1s-0.1-1.5-0.2-2.3l-0.1-0.2l-0.3-2.2c-0.1-0.2-0.1-0.4-0.2-0.6
			c-0.1-0.2-0.1-0.3-0.2-0.4l-0.2,0.2c-0.3,0.2-0.5,0.5-0.6,0.7c-0.1,0.3-0.3,0.5-0.4,0.8c-0.3,0.5-0.6,0.9-1,1.4
			c-0.4,0.5-0.8,0.9-1.2,1.4c-0.1,0.1-0.3,0.2-0.5,0.4c-0.3,0.1-0.5,0.2-0.8,0.4h-0.8c-0.1,0-0.2-0.1-0.4-0.2
			c-0.2-0.1-0.3-0.2-0.4-0.3c-0.2-0.3-0.3-0.5-0.4-0.7c-0.1-0.2-0.1-0.4-0.2-0.7c-0.1-0.2-0.1-0.4-0.1-0.5c0-0.2,0-0.4,0-0.6
			c-0.1-1.6,0-3,0.2-4c0-0.2,0.1-0.5,0.2-0.9v-0.1c0-0.1,0-0.1,0.1-0.2l0.2-0.2c0.1-0.1,0.2-0.1,0.4-0.1c0.3,0,0.4,0.1,0.4,0.2
			l0.1,0.1c0,0.1,0,0.1,0,0.2s0,0.1,0,0.2c0.1,0.2,0.1,0.3,0,0.4c0,0.1,0,0.2,0,0.4v0.2c0,0.4-0.1,0.7-0.3,0.8
			c-0.1,0.1-0.2,0.1-0.2,0.1c-0.1,0.3-0.1,0.5-0.1,0.8s0,0.5,0,0.8v1.2c0.1,0.3,0.1,0.6,0.2,1s0.2,0.7,0.4,0.9
			c0,0.1,0.1,0.1,0.2,0.2c0.2,0,0.3,0,0.5-0.1c0.3-0.1,0.6-0.2,0.9-0.5c0.3-0.3,0.5-0.5,0.7-0.9c0.2-0.3,0.5-0.7,0.7-1.1l0.5-0.7
			v0.1c0.2-0.3,0.3-0.6,0.5-0.9c0.2-0.3,0.4-0.6,0.7-1h-0.1c0.1-0.1,0.1-0.1,0.2-0.2c0.1-0.1,0.2-0.2,0.4-0.2h0.1
			c0.1,0,0.1,0,0.2-0.1c0.1,0,0.1,0,0.2-0.1c0.2,0.1,0.3,0.2,0.5,0.4c0.2,0.1,0.3,0.2,0.3,0.4l-0.1-0.1c0.2,0.3,0.3,0.5,0.3,0.7
			c0.1,0.2,0.1,0.4,0.2,0.7l0.5,2.5c0.1,0.6,0.2,1.2,0.2,1.9c0,0.6,0.1,1.2,0.2,1.8v0.4H277.4z M276.4,91.9
			c-0.1-0.2-0.1-0.4-0.1-0.8c0-0.2,0-0.3,0-0.3c0-0.1,0-0.1,0-0.2c-0.8,0.3-1.7,0.7-2.6,1.2c-0.8,0.5-1.6,1.1-2.4,1.9
			c-0.8,0.8-1.5,1.7-2.1,2.7c-1.3,2.1-2,4.6-2.2,7.3c0,0.7,0,1.4,0,2.1s0.2,1.4,0.4,2c0.2,0.6,0.5,1.3,0.8,1.9
			c0.3,0.7,0.7,1.1,1.2,1.5c0.5,0.4,1,0.5,1.7,0.3c0.6-0.1,1.2-0.3,1.8-0.8c0.4-0.4,0.8-0.9,1.1-1.6c0.3-0.6,0.6-1.3,0.9-2
			c0.4-1.4,0.7-2.7,0.9-4.1c0.2-1.4,0.4-2.7,0.5-3.9c0.1-0.9,0.2-1.8,0.2-2.7c0-0.9,0-1.7,0-2.6v-0.9L276.4,91.9L276.4,91.9z"/>
	</g>
</g>
</svg>
