<?xml version="1.0" encoding="utf-8"?>
<!-- Generator: Adobe Illustrator 25.2.3, SVG Export Plug-In . SVG Version: 6.00 Build 0)  -->
<svg version="1.1" id="Layer_1" xmlns="http://www.w3.org/2000/svg" xmlns:xlink="http://www.w3.org/1999/xlink" x="0px" y="0px"
	 viewBox="0 0 500 500" style="enable-background:new 0 0 500 500;" xml:space="preserve">
<style type="text/css">
	.st0{fill:#FFFFFF;}
</style>
<g id="Group_1205" transform="translate(-395.001 -304.121)">
	<path id="Path_1384" class="st0" d="M771.3,579.4c-25.1-29.6-59.8-49.4-98.1-56l-15-2.6v28.6v179.1h-26.5V520.8l-15,2.6
		c-79.5,13.8-137.5,82.7-137.5,163.4v66.9h25.6v-66.9C504.7,624.3,546,569.3,606.1,552v202.1h77.8V552
		c60.1,17.2,101.4,72.2,101.2,134.7v66.9h25.6v-66.9C810.8,647.4,796.8,609.3,771.3,579.4z"/>
	<path id="Path_1385" class="st0" d="M752,486.4v-25.6h0c-0.2-59.1-48.3-106.8-107.4-106.6c-58.8,0.2-106.4,47.8-106.6,106.6h0v25.6
		H752z M645,379.8c44.8,0.1,81.1,36.2,81.4,80.9H563.6C563.9,416,600.3,379.9,645,379.8z"/>
</g>
</svg>
